<?xml version="1.0"?>
<!DOCTYPE svg PUBLIC "-//W3C//DTD SVG 1.1//EN" "http://www.w3.org/Graphics/SVG/1.1/DTD/svg11.dtd">
<svg width="34.68000000000007mm" height="131.18000000000006mm" viewBox="0 0 34.68000000000007 131.18000000000006" xmlns="http://www.w3.org/2000/svg" version="1.1">
<g id="Sketch003" transform="translate(3.340000,65.590000) scale(1,-1)">
<path id="Sketch003_w0000"  d="M 24.500000000000025 30.0 L 24.999999999998714 30.000000000000004 L 24.999999999998717 29.500000000002622 L 24.999999999997392 3.9999999999999973 L 22.999999999997392 3.999999999999995 L 22.999999999997385 -4.000000000000006 L 24.999999999997385 -4.000000000000008 L 24.99999999999868 -29.50000000000132 L 24.999999999998682 -30.000000000000014 L 24.499999999998682 -30.000000000000014 L 24.499999999998682 -29.50000000000133 L 24.99999999999868 -29.50000000000132 L 24.999999999998682 -30.000000000000014 L 24.99999999999998 -55.250000000000014 L 30.99999999999998 -55.25000000000002 L 30.99999999999997 -65.25000000000003 L -3.0000000000000284 -65.25000000000001 L -3.0000000000000298 -62.250000000000014 L -3.282073040068592e-14 -62.250000000000014 L -2.88930786961677e-14 -55.250000000000014 L 20.99999999999997 -55.25000000000002 L 21.000000000000036 55.24999999999999 L 3.387568003887509e-14 55.250000000000014 L 3.6110003875933216e-14 62.250000000000014 L -2.9999999999999645 62.250000000000014 L -2.999999999999963 65.25000000000001 L 31.00000000000004 65.25 L 31.000000000000036 55.25 L 25.00000000000004 55.25000000000001 L 24.999999999998714 30.000000000000004 L 24.999999999998717 29.500000000002622 L 24.500000000000025 29.500000000002622 L 24.500000000000025 30.0 " stroke="#191919" stroke-width="0.35 px" style="stroke-width:0.35;stroke-miterlimit:4;stroke-dasharray:none;fill:none;fill-opacity:1;fill-rule: evenodd"/>
<path id="Sketch003_w0001"  d="M 5.000000000000037 62.250000000000014 L 5.000000000000034 56.65000000000001 L 6.700000000000033 56.65000000000001 L 6.7000000000000375 62.250000000000014 L 5.000000000000037 62.250000000000014 " stroke="#191919" stroke-width="0.35 px" style="stroke-width:0.35;stroke-miterlimit:4;stroke-dasharray:none;fill:none;fill-opacity:1;fill-rule: evenodd"/>
<path id="Sketch003_w0002"  d="M 4.99999999999997 -56.65000000000001 L 4.999999999999966 -62.250000000000014 L 6.6999999999999655 -62.250000000000014 L 6.69999999999997 -56.65000000000001 L 4.99999999999997 -56.65000000000001 " stroke="#191919" stroke-width="0.35 px" style="stroke-width:0.35;stroke-miterlimit:4;stroke-dasharray:none;fill:none;fill-opacity:1;fill-rule: evenodd"/>
<title>b'long'</title>
</g>
</svg>