<?xml version="1.0"?>
<!DOCTYPE svg PUBLIC "-//W3C//DTD SVG 1.1//EN" "http://www.w3.org/Graphics/SVG/1.1/DTD/svg11.dtd">
<svg width="34.68mm" height="84.18000000000029mm" viewBox="0 0 34.68 84.18000000000029" xmlns="http://www.w3.org/2000/svg" version="1.1">
<g id="Sketch002" transform="translate(31.340000,38.590000) scale(1,-1)">
<path id="Sketch002_w0000"  d="M -20.999999999999996 -3.999999999988553 L -20.999999999999996 -37.74999999999999 A 2.5 2.5 0 0 1 -16 -37.75L -15.999999999999996 -35.25 L -14.7 -35.25 L -14.7 -37.74999999999971 A 2.5 2.5 0 0 1 -9.7 -37.75L -9.7 -35.25 L 4.440892098500626e-16 -35.25 L 8.881784197001252e-16 -42.25 L 3.000000000000001 -42.25 L 3.000000000000001 -45.25 L -31.0 -45.25 L -31.0 -35.25 L -25.0 -35.25 L -25.0 24.75 L -31.0 24.75 L -31.0 35.25 L -24.000000000000288 35.25 L -24.000000000000288 38.25000000000029 L -21.0 38.25000000000029 L -21.0 4.000000000011447 L -23.0 4.000000000011447 L -23.0 -3.9999999999885527 L -20.999999999999996 -3.9999999999885527 " stroke="#191919" stroke-width="0.35 px" style="stroke-width:0.35;stroke-miterlimit:4;stroke-dasharray:none;fill:none;fill-opacity:1;fill-rule: evenodd"/>
<path id="Sketch002_w0001"  d="M -4.999999999999999 -42.25 L -6.699999999999999 -42.25 L -6.699999999999999 -36.65 L -4.999999999999999 -36.65 L -4.999999999999999 -42.25 " stroke="#191919" stroke-width="0.35 px" style="stroke-width:0.35;stroke-miterlimit:4;stroke-dasharray:none;fill:none;fill-opacity:1;fill-rule: evenodd"/>
<path id="Sketch002_w0002"  d="M -24.000000000000288 28.55000000000029 L -29.600000000000286 28.55000000000029 L -29.600000000000286 30.25 L -24.000000000000288 30.25 L -24.000000000000288 28.55000000000029 " stroke="#191919" stroke-width="0.35 px" style="stroke-width:0.35;stroke-miterlimit:4;stroke-dasharray:none;fill:none;fill-opacity:1;fill-rule: evenodd"/>
<title>b'short'</title>
</g>
</svg>