<?xml version="1.0"?>
<!DOCTYPE svg PUBLIC "-//W3C//DTD SVG 1.1//EN" "http://www.w3.org/Graphics/SVG/1.1/DTD/svg11.dtd">
<svg width="22.950000000000003mm" height="64.45mm" viewBox="0 0 22.950000000000003 64.45" xmlns="http://www.w3.org/2000/svg" version="1.1">
<g id="Sketch010" transform="translate(22.725000,32.225000) scale(1,-1)">
<path id="Sketch010_w0000"  d="M -9.75 -13.5 L -9.750000000000002 -21.0 L -22.5 -21.0 L -22.5 -29.0 L -9.75 -29.0 L -9.75 -32.0 L 0.0 -32.0 L 0.0 -29.0 L -3.0 -29.0 L -3.0 29.0 L 0.0 29.0 L 0.0 32.0 L -9.75 32.0 L -9.75 29.0 L -22.5 29.0 L -22.5 21.0 L -9.75 21.0 L -9.75 13.5 L -4.75 13.5 L -4.75 -13.5 L -9.75 -13.5 " stroke="#191919" stroke-width="0.35 px" style="stroke-width:0.35;stroke-miterlimit:4;stroke-dasharray:none;fill:none;fill-opacity:1;fill-rule: evenodd"/>
<path id="Sketch010_w0001"  d="M -20.5 -28.3 L -20.5 -22.7 L -18.8 -22.7 L -18.8 -28.3 L -20.5 -28.3 " stroke="#191919" stroke-width="0.35 px" style="stroke-width:0.35;stroke-miterlimit:4;stroke-dasharray:none;fill:none;fill-opacity:1;fill-rule: evenodd"/>
<path id="Sketch010_w0002"  d="M -20.5 22.7 L -20.5 28.3 L -18.8 28.3 L -18.8 22.7 L -20.5 22.7 " stroke="#191919" stroke-width="0.35 px" style="stroke-width:0.35;stroke-miterlimit:4;stroke-dasharray:none;fill:none;fill-opacity:1;fill-rule: evenodd"/>
<path id="Sketch010_w0003"  d="M -9.7 22.2 L -9.7 27.8 L -8.0 27.8 L -8.0 22.2 L -9.7 22.2 " stroke="#191919" stroke-width="0.35 px" style="stroke-width:0.35;stroke-miterlimit:4;stroke-dasharray:none;fill:none;fill-opacity:1;fill-rule: evenodd"/>
<path id="Sketch010_w0004"  d="M -9.7 -27.8 L -9.7 -22.2 L -8.0 -22.2 L -8.0 -27.8 L -9.7 -27.8 " stroke="#191919" stroke-width="0.35 px" style="stroke-width:0.35;stroke-miterlimit:4;stroke-dasharray:none;fill:none;fill-opacity:1;fill-rule: evenodd"/>
<title>b'support001'</title>
</g>
</svg>