<?xml version="1.0"?>
<!DOCTYPE svg PUBLIC "-//W3C//DTD SVG 1.1//EN" "http://www.w3.org/Graphics/SVG/1.1/DTD/svg11.dtd">
<svg width="13.26mm" height="44.75999999999999mm" viewBox="0 0 13.26 44.75999999999999" xmlns="http://www.w3.org/2000/svg" version="1.1">
<g id="Sketch001" transform="translate(10.130000,22.380000) scale(1,-1)">
<path id="Sketch001_w0000"  d="M -2.5000000000000053 10.499999999999996 L -5.107025913275719e-15 10.499999999999996 L -5.3290705182007506e-15 19.25 L 2.9999999999999947 19.249999999999996 L 2.9999999999999942 22.249999999999996 L -9.000000000000004 22.249999999999996 L -9.000000000000004 14.249999999999996 L -7.0000000000000036 14.249999999999998 L -7.000000000000004 -19.25 L -10.000000000000004 -19.249999999999996 L -10.000000000000004 -22.249999999999996 L 2.9999999999999956 -22.249999999999996 L 2.9999999999999942 -19.249999999999996 L -5.539669221097109e-15 -19.249999999999993 L -5.30617872613028e-15 -10.499999999999996 L -2.5000000000000044 -10.499999999999996 A 2.5 2.5 0 0 0 -2.5 -5.5L -5.095580011247047e-15 -5.500000000000001 L -5.30617872613028e-15 -2.500000000000001 L -2.5000000000000053 -2.500000000000001 A 2.5 2.5 0 0 0 -2.5 2.5L -5.107025913275719e-15 2.4999999999999982 L -5.3290705182007506e-15 5.499999999999998 L -2.500000000000005 5.499999999999997 A 2.5 2.5 0 1 0 -2.5 10.5" stroke="#191919" stroke-width="0.35 px" style="stroke-width:0.35;stroke-miterlimit:4;stroke-dasharray:none;fill:none;fill-opacity:1;fill-rule: evenodd"/>
<path id="Sketch001_w0001"  d="M -4.700000000000005 13.649999999999999 L -4.700000000000005 19.25 L -3.0000000000000044 19.249999999999996 L -3.000000000000005 13.649999999999999 L -4.700000000000005 13.649999999999999 " stroke="#191919" stroke-width="0.35 px" style="stroke-width:0.35;stroke-miterlimit:4;stroke-dasharray:none;fill:none;fill-opacity:1;fill-rule: evenodd"/>
<path id="Sketch001_w0002"  d="M -4.700000000000005 -19.249999999999996 L -4.700000000000005 -13.649999999999999 L -3.0000000000000044 -13.65 L -3.000000000000005 -19.25 L -4.700000000000005 -19.249999999999996 " stroke="#191919" stroke-width="0.35 px" style="stroke-width:0.35;stroke-miterlimit:4;stroke-dasharray:none;fill:none;fill-opacity:1;fill-rule: evenodd"/>
<title>b'soundsupport'</title>
</g>
</svg>