<?xml version="1.0"?>
<!DOCTYPE svg PUBLIC "-//W3C//DTD SVG 1.1//EN" "http://www.w3.org/Graphics/SVG/1.1/DTD/svg11.dtd">
<svg width="0.0mm" height="37.0mm" viewBox="0 0 0.0 37.0" xmlns="http://www.w3.org/2000/svg" version="1.1">
<g id="Sketch005" transform="translate(-0.000000,0.000000) scale(1,-1)">
<path id="Sketch005_w0000"  d="M 0.0 -37.0 L 0.0 -18.5 L 0.0 -34.0 L 0.0 -31.0 L 0.0 -34.0 L 0.0 -22.0 L 0.0 -34.0 L 0.0 -31.0 L 0.0 -34.0 L 0.0 -18.5 L 0.0 -37.0 M 0.0 -37.0 L 0.0 -19.99999999999997 L 0.0 -19.66410657169005 L 0.0 -19.33243719813103 L 0.0 -19.00916281413447 L 0.0 -18.698348782647297 L 0.0 -18.40390377045396 L 0.0 -18.12953059442377 L 0.0 -17.87867965644033 L 0.0 -17.654505552595882 L 0.0 -17.45982740231512 L 0.0 -17.297093396292716 L 0.0 -17.16835000907487 L 0.0 -17.0752162634545 L 0.0 -17.018863370320243 L 0.0 -16.99999999999997 L 0.0 -17.018863370320243 L 0.0 -17.0752162634545 L 0.0 -17.168350009074867 L 0.0 -17.297093396292713 L 0.0 -17.459827402315117 L 0.0 -17.65450555259588 L 0.0 -17.878679656440326 L 0.0 -18.12953059442377 L 0.0 -18.403903770453958 L 0.0 -18.698348782647294 L 0.0 -19.009162814134466 L 0.0 -19.332437198131025 L 0.0 -19.664106571690045 L 0.0 -19.99999999999997 L 0.0 -37.0 M 0.0 -37.0 L 0.0 -35.0 L 0.0 -34.55495813208737 L 0.0 -34.132232521764884 L 0.0 -33.75302039628254 L 0.0 -33.43633703506394 L 0.0 -33.19806226419516 L 0.0 -33.050144175636355 L 0.0 -33.0 L 0.0 -33.050144175636355 L 0.0 -33.19806226419516 L 0.0 -33.43633703506394 L 0.0 -33.75302039628253 L 0.0 -34.132232521764884 L 0.0 -34.55495813208737 L 0.0 -35.0 L 0.0 -34.55495813208737 L 0.0 -34.132232521764884 L 0.0 -33.75302039628254 L 0.0 -33.43633703506394 L 0.0 -33.198062264195165 L 0.0 -33.050144175636355 L 0.0 -33.0 L 0.0 -33.050144175636355 L 0.0 -33.198062264195165 L 0.0 -33.43633703506394 L 0.0 -33.75302039628254 L 0.0 -34.132232521764884 L 0.0 -34.55495813208737 L 0.0 -35.0 L 0.0 -24.5 L 0.0 -11.0 L 0.0 -11.650825608676337 L 0.0 -12.172747223702045 L 0.0 -12.462391868272736 L 0.0 -12.462391868272736 L 0.0 -12.172747223702045 L 0.0 -11.650825608676337 L 0.0 -11.0 L 0.0 -10.349174391323663 L 0.0 -9.827252776297955 L 0.0 -9.537608131727264 L 0.0 -9.537608131727264 L 0.0 -9.827252776297955 L 0.0 -10.349174391323663 L 0.0 -11.0 L 0.0 -3.0 L 0.0 0.0 L 0.0 -3.0 L 0.0 -8.0 L 0.0 -9.7 L 0.0 -8.0 L 0.0 -9.7 L 0.0 -8.0 L 0.0 -9.7 L 0.0 -8.0 L 0.0 -9.7 L 0.0 -8.0 L 0.0 -3.0 L 0.0 0.0 L 0.0 -3.0 L 0.0 -5.5 L 0.0 -6.056302325431191 L 0.0 -6.584709325047174 L 0.0 -7.058724466122815 L 0.0 -7.454578650771733 L 0.0 -7.752422097735252 L 0.0 -7.937319693274963 L 0.0 -7.9999999001202085 L 0.0 -7.93731967104962 L 0.0 -7.752422054399036 L 0.0 -7.454578588497704 L 0.0 -7.05872438803365 L 0.0 -6.584709235058593 L 0.0 -6.056302228055596 L 0.0 -5.4999999001202085 L 0.0 -14.5 L 0.0 -24.5 L 0.0 -35.0 L 0.0 -34.55495813208737 L 0.0 -34.132232521764884 L 0.0 -33.75302039628254 L 0.0 -33.43633703506394 L 0.0 -33.19806226419516 L 0.0 -33.050144175636355 L 0.0 -33.0 L 0.0 -33.050144175636355 L 0.0 -33.19806226419516 L 0.0 -33.43633703506394 L 0.0 -33.75302039628253 L 0.0 -34.132232521764884 L 0.0 -34.55495813208737 L 0.0 -34.99999999999999 L 0.0 -34.554958132087364 L 0.0 -34.13223252176488 L 0.0 -33.75302039628253 L 0.0 -33.436337035063936 L 0.0 -33.19806226419516 L 0.0 -33.050144175636355 L 0.0 -33.0 L 0.0 -33.050144175636355 L 0.0 -33.198062264195165 L 0.0 -33.43633703506394 L 0.0 -33.75302039628254 L 0.0 -34.13223252176489 L 0.0 -34.55495813208738 L 0.0 -35.0 L 0.0 -37.0 " stroke="#191919" stroke-width="0.35 px" style="stroke-width:0.35;stroke-miterlimit:4;stroke-dasharray:none;fill:none;fill-opacity:1;fill-rule: evenodd"/>
<path id="Sketch005_w0001"  d="M 0.0 -19.5 L 0.0 -24.29441531724902 L 0.0 -28.13923788127173 L 0.0 -30.272953429609153 L 0.0 -30.272953429609153 L 0.0 -28.139237881271733 L 0.0 -24.29441531724902 L 0.0 -19.5 L 0.0 -14.705584682750985 L 0.0 -10.860762118728271 L 0.0 -8.727046570390849 L 0.0 -8.727046570390849 L 0.0 -10.86076211872827 L 0.0 -14.705584682750981 L 0.0 -19.499999999999996 L 0.0 -24.29441531724902 L 0.0 -28.13923788127173 L 0.0 -30.272953429609153 L 0.0 -30.272953429609153 L 0.0 -28.139237881271733 L 0.0 -24.29441531724902 L 0.0 -19.5 L 0.0 -14.705584682750985 L 0.0 -10.860762118728271 L 0.0 -8.727046570390849 L 0.0 -8.727046570390849 L 0.0 -10.86076211872827 L 0.0 -14.705584682750981 L 0.0 -19.499999999999996 M 0.0 -19.5 L 0.0 -23.079540847719855 L 0.0 -25.950109730361245 L 0.0 -27.543155275500045 L 0.0 -27.543155275500045 L 0.0 -25.95010973036125 L 0.0 -23.079540847719855 L 0.0 -19.5 L 0.0 -15.920459152280147 L 0.0 -13.049890269638755 L 0.0 -11.456844724499955 L 0.0 -11.456844724499955 L 0.0 -13.049890269638754 L 0.0 -15.920459152280145 L 0.0 -19.499999999999996 " stroke="#191919" stroke-width="0.35 px" style="stroke-width:0.35;stroke-miterlimit:4;stroke-dasharray:none;fill:none;fill-opacity:1;fill-rule: evenodd"/>
<path id="Sketch005_w0002"  d="M 0.0 -32.0 L 0.0 -32.759296543455726 L 0.0 -33.36820509431905 L 0.0 -33.70612384631819 L 0.0 -33.70612384631819 L 0.0 -33.36820509431905 L 0.0 -32.759296543455726 L 0.0 -32.0 L 0.0 -31.240703456544274 L 0.0 -30.631794905680948 L 0.0 -30.293876153681808 L 0.0 -30.293876153681808 L 0.0 -30.631794905680948 L 0.0 -31.240703456544274 L 0.0 -32.0 " stroke="#191919" stroke-width="0.35 px" style="stroke-width:0.35;stroke-miterlimit:4;stroke-dasharray:none;fill:none;fill-opacity:1;fill-rule: evenodd"/>
<path id="Sketch005_w0003"  d="M 0.0 -6.9999999999939 L 0.0 -7.759296543455726 L 0.0 -8.368205094319052 L 0.0 -8.70612384631819 L 0.0 -8.70612384631819 L 0.0 -8.368205094319052 L 0.0 -7.759296543455726 L 0.0 -6.999999999999999 L 0.0 -6.2407034565442725 L 0.0 -5.631794905680947 L 0.0 -5.293876153681808 L 0.0 -5.293876153681808 L 0.0 -5.631794905680946 L 0.0 -6.2407034565442725 L 0.0 -6.999999999999999 L 0.0 -7.650825608676337 L 0.0 -8.172747223702045 L 0.0 -8.462391868272736 L 0.0 -8.462391868272736 L 0.0 -8.172747223702045 L 0.0 -7.650825608676337 L 0.0 -7.0 L 0.0 -6.349174391323663 L 0.0 -5.827252776297955 L 0.0 -5.537608131727264 L 0.0 -5.537608131727264 L 0.0 -5.827252776297955 L 0.0 -6.349174391323663 L 0.0 -7.0 M 0.0 -6.9999999999939 L 0.0 -7.650825608664137 L 0.0 -8.172747223689845 L 0.0 -8.462391868260536 L 0.0 -8.462391868260536 L 0.0 -8.172747223689845 L 0.0 -7.650825608664137 L 0.0 -6.9999999999878 L 0.0 -6.349174391311463 L 0.0 -5.827252776285755 L 0.0 -5.537608131715064 L 0.0 -5.537608131715064 L 0.0 -5.827252776285755 L 0.0 -6.349174391311463 L 0.0 -6.9999999999878 " stroke="#191919" stroke-width="0.35 px" style="stroke-width:0.35;stroke-miterlimit:4;stroke-dasharray:none;fill:none;fill-opacity:1;fill-rule: evenodd"/>
<path id="Sketch005_w0005"  d="M 0.0 -18.0 L 0.0 -18.65082560867634 L 0.0 -19.172747223702046 L 0.0 -19.462391868272736 L 0.0 -19.462391868272736 L 0.0 -19.172747223702046 L 0.0 -18.65082560867634 L 0.0 -18.0 L 0.0 -17.349174391323665 L 0.0 -16.827252776297954 L 0.0 -16.537608131727264 L 0.0 -16.537608131727264 L 0.0 -16.827252776297954 L 0.0 -17.34917439132366 L 0.0 -18.0 " stroke="#191919" stroke-width="0.35 px" style="stroke-width:0.35;stroke-miterlimit:4;stroke-dasharray:none;fill:none;fill-opacity:1;fill-rule: evenodd"/>
<title>b'horz-left'</title>
</g>
</svg>