<?xml version="1.0"?>
<!DOCTYPE svg PUBLIC "-//W3C//DTD SVG 1.1//EN" "http://www.w3.org/Graphics/SVG/1.1/DTD/svg11.dtd">
<svg width="8.160007599592205mm" height="37.160004947185506mm" viewBox="0 0 8.160007599592205 37.160004947185506" xmlns="http://www.w3.org/2000/svg" version="1.1">
<g id="Sketch006" transform="translate(0.080004,0.080003) scale(1,-1)">
<path id="Sketch006_w0000"  d="M 2.942577598259765e-06 -16.999997720122302 L 2.2798776626586906e-06 -16.999997720122302 A 3.0000000000000013 8.940696716308586e-08 89.99999999999994 0 0 2.1904706954956046e-06 -19.99999780952927 L 2.9343759431586767e-06 -19.99999780952927 M 8.000002190470692 -36.999996528029435 L 8.000002190470692 -36.9999978095293 L 2.1904706954956046e-06 -36.99999780952929 L 2.1904706954956046e-06 -19.99999780952927 " stroke="#191919" stroke-width="0.35 px" style="stroke-width:0.35;stroke-miterlimit:4;stroke-dasharray:none;fill:none;fill-opacity:1;fill-rule: evenodd"/>
<path id="Sketch006_w0001"  d="M 2.3990869522094714e-06 -16.999997600913012 L 2.9425775990849423e-06 -16.999997600913012 L 2.3990869522094714e-06 -16.999997600913012 A 3.0000000000000013 8.940696716308586e-08 89.99999999999994 0 1 2.4884939193725573e-06 -19.999997511506045 L 2.9343759427563733e-06 -19.999997511506045 " stroke="#191919" stroke-width="0.35 px" style="stroke-width:0.35;stroke-miterlimit:4;stroke-dasharray:none;fill:none;fill-opacity:1;fill-rule: evenodd"/>
<path id="Sketch006_w0002"  d="M 3.7103891372680647e-06 -34.99999628961085 L 3.7103891372680647e-06 -10.99999628961086 L 8.000003710389134 -10.999996289610863 L 8.000003710389134 -34.999996289610856 L 3.7103891372680647e-06 -34.99999628961085 M 3.7103891372680647e-06 -34.99999628961085 A 1.9999999999999938 5.960464477539047e-08 89.99999999999994 0 0 3.650784494269031e-06 -32.9999963492155 A 1.9999999999999938 5.960464477539047e-08 89.99999999999994 0 1 3.5911798477172835e-06 -34.99999640882014 A 2.000000000000001 5.960464477539057e-08 89.99999999999994 0 0 3.5315752047182497e-06 -32.99999646842478 A 2.000000000000001 5.960464477539057e-08 89.99999999999994 0 1 3.4719705581665022e-06 -34.99999652802943 L 3.4719705581665022e-06 -36.99999652802943 L 8.000003471970555 -36.999996528029435 L 8.000003471970555 -34.999996528029435 L 3.4719705581665022e-06 -34.99999652802943 M 3.5911798477172835e-06 -34.99999640882014 L 8.000003591179844 -34.999996408820145 " stroke="#191919" stroke-width="0.35 px" style="stroke-width:0.35;stroke-miterlimit:4;stroke-dasharray:none;fill:none;fill-opacity:1;fill-rule: evenodd"/>
<path id="Sketch006_w0003"  d="M 8.000003591179844 -10.999996289610865 L 8.000003591179844 -2.999996408820158 L 3.5911798477172835e-06 -2.999996408820151 L 3.5911798477172835e-06 -10.999996408820147 " stroke="#191919" stroke-width="0.35 px" style="stroke-width:0.35;stroke-miterlimit:4;stroke-dasharray:none;fill:none;fill-opacity:1;fill-rule: evenodd"/>
<path id="Sketch006_w0004"  d="M 3.5911798477172835e-06 -2.9999973028898226 L 2.6971101760864245e-06 -2.9999973028898226 L 2.6971101760864245e-06 2.6971101760864224e-06 L 8.000002697110173 2.697110168980995e-06 L 8.000002697110173 -2.999996408820158 " stroke="#191919" stroke-width="0.35 px" style="stroke-width:0.35;stroke-miterlimit:4;stroke-dasharray:none;fill:none;fill-opacity:1;fill-rule: evenodd"/>
<path id="Sketch006_w0005"  d="M 7.65919685363769e-07 -8.000000149011608 L -1.490116119384765e-07 -8.000000149011608 L -1.490116119384765e-07 -3.0000001490116106 L 3.5911798477172835e-06 -3.0000001490116106 " stroke="#191919" stroke-width="0.35 px" style="stroke-width:0.35;stroke-miterlimit:4;stroke-dasharray:none;fill:none;fill-opacity:1;fill-rule: evenodd"/>
<path id="Sketch006_w0006"  d="M -1.4901161193847656e-07 -3.000001564621924 L -1.564621925354003e-06 -3.000001564621924 L -1.564621925354003e-06 -1.5646219253540016e-06 L 2.697110176086425e-06 -1.5646219253540054e-06 " stroke="#191919" stroke-width="0.35 px" style="stroke-width:0.35;stroke-miterlimit:4;stroke-dasharray:none;fill:none;fill-opacity:1;fill-rule: evenodd"/>
<path id="Sketch006_w0007"  d="M -3.74019145965576e-06 -5.5000036403116646 A 2.5 7.450580596923822e-08 89.99999999999994 0 0 -3.665685655906968e-06 -8.000003565805859 A 2.5 7.450580596923822e-08 89.99999999999994 0 1 -3.5911798477172835e-06 -5.500003591179845 " stroke="#191919" stroke-width="0.35 px" style="stroke-width:0.35;stroke-miterlimit:4;stroke-dasharray:none;fill:none;fill-opacity:1;fill-rule: evenodd"/>
<path id="Sketch006_w0008"  d="M -2.1010637283325187e-06 -35.000003501772866 L -3.5017728805541975e-06 -35.000003501772866 A 2.000000000000001 5.9604644775390506e-08 89.99999999999994 0 0 -3.5613775235532313e-06 -33.00000356137751 A 2.000000000000001 5.9604644775390506e-08 89.99999999999994 0 1 -3.6209821701049788e-06 -35.00000362098214 L -2.1010637283325187e-06 -35.00000362098215 M -3.6209821701049788e-06 -35.00000362098214 A 2.000000000000001 5.960464477539057e-08 89.99999999999994 0 0 -3.6805868131040126e-06 -33.0000036805868 A 2.000000000000001 5.960464477539057e-08 89.99999999999994 0 1 -3.74019145965576e-06 -35.000003740191445 L -2.1010637283325187e-06 -35.000003740191445 " stroke="#191919" stroke-width="0.35 px" style="stroke-width:0.35;stroke-miterlimit:4;stroke-dasharray:none;fill:none;fill-opacity:1;fill-rule: evenodd"/>
<path id="Sketch006_w0009"  d="M -2.1010637283325187e-06 -18.50000210106372 L -2.1010637283325187e-06 -37.000002101063714 L 7.999997898936268 -37.00000210106372 L 7.999997898936268 -36.9999978095293 " stroke="#191919" stroke-width="0.35 px" style="stroke-width:0.35;stroke-miterlimit:4;stroke-dasharray:none;fill:none;fill-opacity:1;fill-rule: evenodd"/>
<path id="Sketch006_w0010"  d="M 2.1904706954956046e-06 -34.00000175833701 L -1.7583370208740226e-06 -34.00000175833701 L -1.7583370208740226e-06 -31.000001758337007 " stroke="#191919" stroke-width="0.35 px" style="stroke-width:0.35;stroke-miterlimit:4;stroke-dasharray:none;fill:none;fill-opacity:1;fill-rule: evenodd"/>
<path id="Sketch006_w0011"  d="M 2.1904706954956046e-06 -34.00000156462191 L -1.5646219253540033e-06 -34.00000156462191 L -1.5646219253540033e-06 -22.000001564621915 L 1.862645149230956e-06 -22.000001564621915 " stroke="#191919" stroke-width="0.35 px" style="stroke-width:0.35;stroke-miterlimit:4;stroke-dasharray:none;fill:none;fill-opacity:1;fill-rule: evenodd"/>
<path id="Sketch006_w0012"  d="M 2.1904706954956046e-06 -33.99999833106993 L 1.6689300537109367e-06 -33.99999833106993 L 1.6689300537109367e-06 -30.999998331069932 " stroke="#191919" stroke-width="0.35 px" style="stroke-width:0.35;stroke-miterlimit:4;stroke-dasharray:none;fill:none;fill-opacity:1;fill-rule: evenodd"/>
<path id="Sketch006_w0013"  d="M 2.1904706954956046e-06 -33.99999813735484 L 1.862645149230956e-06 -33.99999813735484 L 1.862645149230956e-06 -18.499998137354844 L 2.2024489519733447e-06 -18.499998137354844 " stroke="#191919" stroke-width="0.35 px" style="stroke-width:0.35;stroke-miterlimit:4;stroke-dasharray:none;fill:none;fill-opacity:1;fill-rule: evenodd"/>
<path id="Sketch006_w0014"  d="M -2.9638409614562976e-06 -19.500002963840956 A 11.050000000000002 3.293156623840329e-07 89.99999999999994 0 0 -3.293156614025959e-06 -8.450003293156614 A 11.050000000000002 3.293156623840329e-07 89.99999999999994 0 0 -3.2931566336547025e-06 -30.55000329315662 A 11.050000000000002 3.293156623840329e-07 89.99999999999994 0 0 -2.9638409614562976e-06 -19.500002963840956 L -2.4512410163879386e-06 -19.500002963840956 " stroke="#191919" stroke-width="0.35 px" style="stroke-width:0.35;stroke-miterlimit:4;stroke-dasharray:none;fill:none;fill-opacity:1;fill-rule: evenodd"/>
<path id="Sketch006_w0015"  d="M 3.600120544433592e-06 -30.549996736645692 L 3.2633542916382637e-06 -30.549996736645696 A 11.050000000000002 3.293156623840329e-07 89.99999999999994 0 0 3.5926699638366686e-06 -19.49999640733003 A 11.050000000000002 3.293156623840329e-07 89.99999999999994 0 0 3.263354311267007e-06 -8.449996736645689 L 3.5911798477172835e-06 -8.449996736645689 M 3.263354311267007e-06 -8.449996736645689 A 11.050000000000002 3.293156623840329e-07 89.99999999999994 0 0 3.2633542916382637e-06 -30.549996736645696 " stroke="#191919" stroke-width="0.35 px" style="stroke-width:0.35;stroke-miterlimit:4;stroke-dasharray:none;fill:none;fill-opacity:1;fill-rule: evenodd"/>
<path id="Sketch006_w0016"  d="M -2.1010637283325187e-06 -27.75000269711017 L -2.6971101834138965e-06 -27.75000269711017 A 8.25 2.458691596984861e-07 89.99999999999994 0 0 -2.451241016387938e-06 -19.50000245124101 L -2.1010637283325187e-06 -19.50000245124101 M -2.451241016387938e-06 -19.50000245124101 A 8.25 2.458691596984861e-07 89.99999999999994 0 0 -2.6971101687589525e-06 -11.250002697110169 A 8.25 2.458691596984861e-07 89.99999999999994 0 0 -2.6971101834138965e-06 -27.75000269711017 " stroke="#191919" stroke-width="0.35 px" style="stroke-width:0.35;stroke-miterlimit:4;stroke-dasharray:none;fill:none;fill-opacity:1;fill-rule: evenodd"/>
<path id="Sketch006_w0017"  d="M 3.600120544433592e-06 -26.199996399879446 L 3.600120544433592e-06 -31.799996399879443 " stroke="#191919" stroke-width="0.35 px" style="stroke-width:0.35;stroke-miterlimit:4;stroke-dasharray:none;fill:none;fill-opacity:1;fill-rule: evenodd"/>
<path id="Sketch006_w0018"  d="M -9.328126907348628e-07 -9.700000932812689 L -9.328126907348628e-07 -8.00000093281269 L 7.659196853637692e-07 -8.00000093281269 " stroke="#191919" stroke-width="0.35 px" style="stroke-width:0.35;stroke-miterlimit:4;stroke-dasharray:none;fill:none;fill-opacity:1;fill-rule: evenodd"/>
<path id="Sketch006_w0019"  d="M 7.659196853637691e-07 -9.69999923408031 L 7.659196853637691e-07 -7.9999992340803106 L 2.8520822525024402e-06 -7.9999992340803106 " stroke="#191919" stroke-width="0.35 px" style="stroke-width:0.35;stroke-miterlimit:4;stroke-dasharray:none;fill:none;fill-opacity:1;fill-rule: evenodd"/>
<path id="Sketch006_w0020"  d="M -3.6805868148803694e-06 -26.200003680586804 L -3.6805868148803694e-06 -31.8000036805868 L -2.748922526009358e-06 -31.8000036805868 " stroke="#191919" stroke-width="0.35 px" style="stroke-width:0.35;stroke-miterlimit:4;stroke-dasharray:none;fill:none;fill-opacity:1;fill-rule: evenodd"/>
<path id="Sketch006_w0021"  d="M -3.018975257873534e-06 -8.000003018975255 L -3.018975257873534e-06 -9.700003018975254 " stroke="#191919" stroke-width="0.35 px" style="stroke-width:0.35;stroke-miterlimit:4;stroke-dasharray:none;fill:none;fill-opacity:1;fill-rule: evenodd"/>
<path id="Sketch006_w0022"  d="M 3.1112091254712984e-06 -9.699997147917744 L 2.8520822525024402e-06 -9.699997147917744 L 2.8520822525024402e-06 -7.999997147917744 L 3.5911798477172835e-06 -7.999997147917744 " stroke="#191919" stroke-width="0.35 px" style="stroke-width:0.35;stroke-miterlimit:4;stroke-dasharray:none;fill:none;fill-opacity:1;fill-rule: evenodd"/>
<path id="Sketch006_w0023"  d="M -9.328126907348628e-07 -8.750002697110173 L -2.6971101776407367e-06 -8.750002697110173 A 1.7500000000000007 5.215406417846675e-08 89.99999999999994 0 1 -2.6449561119079577e-06 -7.000002644956108 L -1.6987323760986406e-06 -7.000002644956108 M -2.6449561119079577e-06 -7.000002644956108 A 1.7500000000000007 5.215406417846675e-08 89.99999999999994 0 0 -2.6971101745321123e-06 -5.250002697110172 L -1.4901161193847656e-07 -5.250002697110172 M -2.6971101745321123e-06 -5.250002697110172 A 1.7500000000000007 5.215406417846675e-08 89.99999999999994 0 1 -2.6971101776407367e-06 -8.750002697110173 " stroke="#191919" stroke-width="0.35 px" style="stroke-width:0.35;stroke-miterlimit:4;stroke-dasharray:none;fill:none;fill-opacity:1;fill-rule: evenodd"/>
<path id="Sketch006_w0024"  d="M -2.1010637283325187e-06 -33.75000269711016 L -2.6971101776407367e-06 -33.75000269711016 A 1.7500000000000007 5.215406417846675e-08 89.99999999999994 0 1 -2.6449561119079577e-06 -32.0000026449561 L -2.1010637283325187e-06 -32.0000026449561 M -2.6449561119079577e-06 -32.0000026449561 A 1.7500000000000007 5.215406417846675e-08 89.99999999999994 0 0 -2.6971101745321123e-06 -30.250002697110162 L -2.1010637283325187e-06 -30.250002697110162 M -2.6971101745321123e-06 -30.250002697110162 A 1.7500000000000007 5.215406417846675e-08 89.99999999999994 0 1 -2.6971101776407367e-06 -33.75000269711016 " stroke="#191919" stroke-width="0.35 px" style="stroke-width:0.35;stroke-miterlimit:4;stroke-dasharray:none;fill:none;fill-opacity:1;fill-rule: evenodd"/>
<path id="Sketch006_w0025"  d="M -9.328126907348628e-07 -8.500001743435858 L -1.7434358610124424e-06 -8.500001743435856 A 1.5000000000000007 4.470348358154293e-08 89.99999999999994 0 1 -1.6987323760986318e-06 -7.0000016987323725 L -1.4901161193847652e-06 -7.0000016987323725 M -1.6987323760986318e-06 -7.0000016987323725 A 1.5000000000000007 4.470348358154293e-08 89.99999999999994 0 0 -1.743435858347907e-06 -5.500001743435855 A 1.5000000000000007 4.470348358154293e-08 89.99999999999994 0 1 -1.7434358610124424e-06 -8.500001743435856 " stroke="#191919" stroke-width="0.35 px" style="stroke-width:0.35;stroke-miterlimit:4;stroke-dasharray:none;fill:none;fill-opacity:1;fill-rule: evenodd"/>
<path id="Sketch006_w0026"  d="M -9.328126907348628e-07 -8.500001534807401 L -1.5348196042985754e-06 -8.5000015348074 A 1.4999999999999998 4.470348358154293e-08 89.99999999999994 0 1 -1.4901161193847648e-06 -7.000001490103917 L -1.4901161193847656e-07 -7.000001490103917 M -1.4901161193847648e-06 -7.000001490103917 A 1.4999999999999998 4.470348358154293e-08 89.99999999999994 0 0 -1.5348196016340401e-06 -5.500001534807399 L -1.4901161193847656e-07 -5.500001534807399 M -1.5348196016340401e-06 -5.500001534807399 A 1.4999999999999998 4.470348358154293e-08 89.99999999999994 0 1 -1.5348196042985754e-06 -8.5000015348074 " stroke="#191919" stroke-width="0.35 px" style="stroke-width:0.35;stroke-miterlimit:4;stroke-dasharray:none;fill:none;fill-opacity:1;fill-rule: evenodd"/>
<path id="Sketch006_w0027"  d="M 1.862645149230956e-06 -19.499998560547823 L 1.4394521699934159e-06 -19.499998560547823 A 1.5000000000000007 4.470348358154293e-08 89.99999999999994 0 1 1.4841556549072265e-06 -17.99999851584434 L 2.213237624478031e-06 -17.99999851584434 M 1.4841556549072265e-06 -17.99999851584434 A 1.5000000000000007 4.470348358154293e-08 89.99999999999994 0 0 1.4394521726579511e-06 -16.499998560547823 L 2.946407606021364e-06 -16.49999856054782 M 1.4394521726579511e-06 -16.499998560547823 A 1.5000000000000007 4.470348358154293e-08 89.99999999999994 0 1 1.4394521699934159e-06 -19.499998560547823 " stroke="#191919" stroke-width="0.35 px" style="stroke-width:0.35;stroke-miterlimit:4;stroke-dasharray:none;fill:none;fill-opacity:1;fill-rule: evenodd"/>
<path id="Sketch006_w0028"  d="M 3.008544406752684e-06 -12.499998560547825 L 1.4394521699934152e-06 -12.499998560547823 A 1.5000000000000007 4.470348358154293e-08 89.99999999999994 0 1 1.4841556549072258e-06 -10.99999851584434 L 3.052931065199863e-06 -10.99999851584434 M 1.4841556549072258e-06 -10.99999851584434 A 1.5000000000000007 4.470348358154293e-08 89.99999999999994 0 0 1.4394521726579505e-06 -9.499998560547823 L 2.8520822525024402e-06 -9.499998560547823 M 1.4394521726579505e-06 -9.499998560547823 A 1.5000000000000007 4.470348358154293e-08 89.99999999999994 0 1 1.4394521699934152e-06 -12.499998560547823 " stroke="#191919" stroke-width="0.35 px" style="stroke-width:0.35;stroke-miterlimit:4;stroke-dasharray:none;fill:none;fill-opacity:1;fill-rule: evenodd"/>
<title>b'hprz-right'</title>
</g>
</svg>