<?xml version="1.0"?>
<!DOCTYPE svg PUBLIC "-//W3C//DTD SVG 1.1//EN" "http://www.w3.org/Graphics/SVG/1.1/DTD/svg11.dtd">
<svg width="361.08mm" height="44.08mm" viewBox="0 0 361.08 44.08" xmlns="http://www.w3.org/2000/svg" version="1.1">
<g id="Sketch004" transform="translate(180.540000,40.540000) scale(1,-1)">
<path id="Sketch004_w0000"  d="M 132.0 37.0 L 165.99999999999986 37.0 L 166.00000000000486 35.0 A 2 2 0 0 1 170 35A 2 2 0 0 1 174 35L 173.99999999999997 24.500000000000142 L 176.99999999999997 24.500000000000142 L 176.99999999999997 14.500000000000142 L 173.99999999999994 14.500000000000142 L 174.0 8.499999901105815 A 2.5 2.5 0 1 1 169 8.5L 169.0 3.0 L 139.0 3.0 L 139.0 0.0 L 119.0 0.0 L 119.0 18.5 L 111.0 18.5 L 111.0 0.0 L 100.99999999999997 4.4389767452486474e-17 L 100.99999999999999 3.0 L 4.999999999999999 3.0 L 4.999999999999999 8.0 L -5.000000000000001 8.0 L -5.000000000000001 3.0 L -100.99999999999999 3.0 L -100.99999999999999 -8.877954096458654e-17 L -111.0 0.0 L -111.0 18.5 L -119.0 18.5 L -119.0 0.0 L -139.0 0.0 L -139.0 3.0 L -169.0 3.0 L -169.0 8.5 A 2.5 2.5 0 1 1 -174 8.5L -174.0 14.499999999999979 L -177.00000000000003 14.499999999999979 L -177.00000000000003 24.49999999999998 L -174.00000000000003 24.49999999999998 L -174.00000000000003 34.99999999999998 A 2 2 0 1 1 -170 35A 2 2 0 0 1 -166 35L -166.00000000000003 37.0 L -119.0 37.0 L -119.0 34.0 L -101.0 34.0 L -101.0 22.5 L 101.0 22.5 L 101.0 34.0 L 119.0 34.0 L 119.0 37.0 L 122.0 37.0 L 122.0 20.49999999999993 A 3 3 0 0 1 125 17.5L 129.0 17.49999999999993 A 3 3 0 0 1 132 20.5L 132.0 37.0 " stroke="#191919" stroke-width="0.35 px" style="stroke-width:0.35;stroke-miterlimit:4;stroke-dasharray:none;fill:none;fill-opacity:1;fill-rule: evenodd"/>
<circle cx="-159.00000000000003" cy="20.000000000000142" r="11.05" stroke="#191919" stroke-width="0.35 px" style="stroke-width:0.35;stroke-miterlimit:4;stroke-dasharray:none;fill:none"/>
<circle cx="158.99999999999997" cy="20.000000000000142" r="11.05" stroke="#191919" stroke-width="0.35 px" style="stroke-width:0.35;stroke-miterlimit:4;stroke-dasharray:none;fill:none"/>
<circle cx="-139.00000000000003" cy="20.000000000000142" r="8.25" stroke="#191919" stroke-width="0.35 px" style="stroke-width:0.35;stroke-miterlimit:4;stroke-dasharray:none;fill:none"/>
<path id="Sketch004_w0004"  d="M -149.8 8.0 L -149.8 9.7 L -144.2 9.7 L -144.2 8.0 L -149.8 8.0 " stroke="#191919" stroke-width="0.35 px" style="stroke-width:0.35;stroke-miterlimit:4;stroke-dasharray:none;fill:none;fill-opacity:1;fill-rule: evenodd"/>
<path id="Sketch004_w0005"  d="M 144.2 8.000000000000014 L 144.2 9.700000000000014 L 149.8 9.700000000000014 L 149.8 8.000000000000014 L 144.2 8.000000000000014 " stroke="#191919" stroke-width="0.35 px" style="stroke-width:0.35;stroke-miterlimit:4;stroke-dasharray:none;fill:none;fill-opacity:1;fill-rule: evenodd"/>
<path id="Sketch004_w0006"  d="M -172.00000000000003 26.199999999999978 L -172.00000000000003 31.79999999999998 L -170.3 31.79999999999998 L -170.3 26.199999999999978 L -172.00000000000003 26.199999999999978 " stroke="#191919" stroke-width="0.35 px" style="stroke-width:0.35;stroke-miterlimit:4;stroke-dasharray:none;fill:none;fill-opacity:1;fill-rule: evenodd"/>
<path id="Sketch004_w0007"  d="M 170.29999999999998 26.20000000000014 L 170.29999999999998 31.800000000000143 L 171.99999999999997 31.800000000000143 L 171.99999999999997 26.20000000000014 L 170.29999999999998 26.20000000000014 " stroke="#191919" stroke-width="0.35 px" style="stroke-width:0.35;stroke-miterlimit:4;stroke-dasharray:none;fill:none;fill-opacity:1;fill-rule: evenodd"/>
<path id="Sketch004_w0008"  d="M 74.19999999999999 8.000000000000007 L 74.19999999999999 9.700000000000006 L 79.79999999999998 9.700000000000006 L 79.79999999999998 8.000000000000007 L 74.19999999999999 8.000000000000007 " stroke="#191919" stroke-width="0.35 px" style="stroke-width:0.35;stroke-miterlimit:4;stroke-dasharray:none;fill:none;fill-opacity:1;fill-rule: evenodd"/>
<path id="Sketch004_w0009"  d="M -79.79999999999998 8.000000000000002 L -79.79999999999998 9.700000000000001 L -74.19999999999999 9.700000000000001 L -74.19999999999999 8.000000000000002 L -79.79999999999998 8.000000000000002 " stroke="#191919" stroke-width="0.35 px" style="stroke-width:0.35;stroke-miterlimit:4;stroke-dasharray:none;fill:none;fill-opacity:1;fill-rule: evenodd"/>
<circle cx="-138.99999999999997" cy="32.50000000000014" r="1.75" stroke="#191919" stroke-width="0.35 px" style="stroke-width:0.35;stroke-miterlimit:4;stroke-dasharray:none;fill:none"/>
<circle cx="-139.00000000000003" cy="7.50000000000014" r="1.75" stroke="#191919" stroke-width="0.35 px" style="stroke-width:0.35;stroke-miterlimit:4;stroke-dasharray:none;fill:none"/>
<circle cx="-107.0" cy="7.50000000000001" r="1.5" stroke="#191919" stroke-width="0.35 px" style="stroke-width:0.35;stroke-miterlimit:4;stroke-dasharray:none;fill:none"/>
<circle cx="-100.0" cy="7.50000000000001" r="1.5" stroke="#191919" stroke-width="0.35 px" style="stroke-width:0.35;stroke-miterlimit:4;stroke-dasharray:none;fill:none"/>
<circle cx="96.79999999999998" cy="18.5" r="1.5" stroke="#191919" stroke-width="0.35 px" style="stroke-width:0.35;stroke-miterlimit:4;stroke-dasharray:none;fill:none"/>
<circle cx="96.79999999999998" cy="11.5" r="1.5" stroke="#191919" stroke-width="0.35 px" style="stroke-width:0.35;stroke-miterlimit:4;stroke-dasharray:none;fill:none"/>
<title>b'verts001'</title>
</g>
</svg>