<?xml version="1.0"?>
<!DOCTYPE svg PUBLIC "-//W3C//DTD SVG 1.1//EN" "http://www.w3.org/Graphics/SVG/1.1/DTD/svg11.dtd">
<svg width="22.950000000000003mm" height="125.45mm" viewBox="0 0 22.950000000000003 125.45" xmlns="http://www.w3.org/2000/svg" version="1.1">
<g id="Sketch007" transform="translate(22.725000,62.725000) scale(1,-1)">
<path id="Sketch007_w0000"  d="M -8.0 -32.5 A 8 8 0 0 1 -9.79717e-16 -40.5L -1.39233453717842e-29 -54.5 L -10.000000000000002 -54.5 L -10.0 -62.5 L -20.0 -62.5 L -20.0 -57.5 L -22.5 -57.5 L -22.5 -54.35 L -15.700000000000001 -54.35 L -15.700000000000001 54.35 L -22.5 54.35 L -22.5 57.5 L -20.0 57.5 L -20.0 62.5 L -10.000000000000023 62.5 L -10.000000000000023 54.5 L 0.0 54.5 L -2.4078525054763373e-28 40.5 A 8 8 0 0 1 -8 32.5L -8.0 -32.5 " stroke="#191919" stroke-width="0.35 px" style="stroke-width:0.35;stroke-miterlimit:4;stroke-dasharray:none;fill:none;fill-opacity:1;fill-rule: evenodd"/>
<title>b'SketchHORZ'</title>
</g>
</svg>