<?xml version="1.0" encoding="UTF-8" standalone="no"?>
<!-- Created with Inkscape (http://www.inkscape.org/) -->

<svg
   xmlns:dc="http://purl.org/dc/elements/1.1/"
   xmlns:cc="http://creativecommons.org/ns#"
   xmlns:rdf="http://www.w3.org/1999/02/22-rdf-syntax-ns#"
   xmlns:svg="http://www.w3.org/2000/svg"
   xmlns="http://www.w3.org/2000/svg"
   xmlns:sodipodi="http://sodipodi.sourceforge.net/DTD/sodipodi-0.dtd"
   xmlns:inkscape="http://www.inkscape.org/namespaces/inkscape"
   width="210mm"
   height="297mm"
   viewBox="0 0 210 297"
   version="1.1"
   id="svg1456"
   inkscape:version="0.92.5 (2060ec1f9f, 2020-04-08)"
   sodipodi:docname="ri_parm_small-parts.svg">
  <defs
     id="defs1450" />
  <sodipodi:namedview
     id="base"
     pagecolor="#ffffff"
     bordercolor="#666666"
     borderopacity="1.0"
     inkscape:pageopacity="0.0"
     inkscape:pageshadow="2"
     inkscape:zoom="0.7"
     inkscape:cx="-23.165174"
     inkscape:cy="585.92697"
     inkscape:document-units="mm"
     inkscape:current-layer="layer1"
     showgrid="false"
     inkscape:snap-global="false"
     inkscape:window-width="1920"
     inkscape:window-height="1016"
     inkscape:window-x="0"
     inkscape:window-y="27"
     inkscape:window-maximized="1" />
  <metadata
     id="metadata1453">
    <rdf:RDF>
      <cc:Work
         rdf:about="">
        <dc:format>image/svg+xml</dc:format>
        <dc:type
           rdf:resource="http://purl.org/dc/dcmitype/StillImage" />
        <dc:title />
      </cc:Work>
    </rdf:RDF>
  </metadata>
  <g
     inkscape:label="Layer 1"
     inkscape:groupmode="layer"
     id="layer1">
    <g
       transform="matrix(0.99999999,0,0,-0.99999999,87.301379,550.43622)"
       id="Sketch018"
       style="stroke:#ff0000;stroke-width:0.1;stroke-miterlimit:4;stroke-dasharray:none">
      <path
         style="fill:none;fill-opacity:1;fill-rule:evenodd;stroke:#ff0000;stroke-width:0.1;stroke-miterlimit:4;stroke-dasharray:none"
         d="M -40,372.5 H -5.7752774 L -3,364.87499 -37,352.5 h -3 v 5 h 3 v 10 h -3 v 5"
         id="Sketch018_w0000"
         inkscape:connector-curvature="0" />
      <path
         style="fill:none;fill-opacity:1;fill-rule:evenodd;stroke:#ff0000;stroke-width:0.1;stroke-miterlimit:4;stroke-dasharray:none"
         d="m -26.302302,363.84289 0.68404,-1.87939 4.228617,1.53909 -0.68404,1.87939 -4.228617,-1.53909"
         id="Sketch018_w0001"
         inkscape:connector-curvature="0" />
      <path
         style="fill:none;fill-opacity:1;fill-rule:evenodd;stroke:#ff0000;stroke-width:0.1;stroke-miterlimit:4;stroke-dasharray:none"
         d="m -14.556144,368.11814 0.68404,-1.87939 4.228617,1.5391 -0.68404,1.87938 -4.228617,-1.53909"
         id="Sketch018_w0002"
         inkscape:connector-curvature="0" />
      <path
         style="fill:none;fill-opacity:1;fill-rule:evenodd;stroke:#ff0000;stroke-width:0.1;stroke-miterlimit:4;stroke-dasharray:none"
         d="m -32.7,365.3 v -5.6 h 1.7 v 5.6 h -1.7"
         id="Sketch018_w0003"
         inkscape:connector-curvature="0" />
      <title
         id="title2438">b'CameraHolder001'</title>
    </g>
    <g
       transform="matrix(0,-1,-1,0,91.705158,51.545589)"
       id="Sketch002"
       style="stroke:#ff0000;stroke-width:0.1;stroke-miterlimit:4;stroke-dasharray:none">
      <path
         style="fill:none;fill-opacity:1;fill-rule:evenodd;stroke:#ff0000;stroke-width:0.1;stroke-miterlimit:4;stroke-dasharray:none"
         d="M 34,2.3841854e-7 V -2.9999998 h -3 v -7 H 2.3841858e-7 v 7 H -2.9999998 V 2.3841859e-7 L 34,2.3841854e-7"
         id="Sketch002_w0000"
         inkscape:connector-curvature="0" />
      <path
         style="fill:none;fill-opacity:1;fill-rule:evenodd;stroke:#ff0000;stroke-width:0.1;stroke-miterlimit:4;stroke-dasharray:none"
         d="M 24.3,-2.9999998 H 26 v -5.6 h -1.7 v 5.6"
         id="Sketch002_w0001"
         inkscape:connector-curvature="0" />
      <path
         style="fill:none;fill-opacity:1;fill-rule:evenodd;stroke:#ff0000;stroke-width:0.1;stroke-miterlimit:4;stroke-dasharray:none"
         d="m 5.0000002,-2.9999998 h 1.7 v -5.6 h -1.7 v 5.6"
         id="Sketch002_w0002"
         inkscape:connector-curvature="0" />
      <title
         id="title2458">b'Sketch002'</title>
    </g>
    <g
       transform="rotate(-180,24.01871,62.656804)"
       id="Sketch010"
       style="stroke:#ff0000;stroke-width:0.1;stroke-miterlimit:4;stroke-dasharray:none">
      <path
         style="fill:none;fill-opacity:1;fill-rule:evenodd;stroke:#ff0000;stroke-width:0.1;stroke-miterlimit:4;stroke-dasharray:none"
         d="M -9.75,-13.5 V -21 H -22.5 v -8 h 12.75 v -3 H 0 v 3 h -3 v 58 h 3 v 3 H -9.75 V 29 H -22.5 v -8 h 12.75 v -7.5 h 5 v -27 h -5"
         id="Sketch010_w0000"
         inkscape:connector-curvature="0" />
      <path
         style="fill:none;fill-opacity:1;fill-rule:evenodd;stroke:#ff0000;stroke-width:0.1;stroke-miterlimit:4;stroke-dasharray:none"
         d="m -20.5,-28.3 v 5.6 h 1.7 v -5.6 h -1.7"
         id="Sketch010_w0001"
         inkscape:connector-curvature="0" />
      <path
         style="fill:none;fill-opacity:1;fill-rule:evenodd;stroke:#ff0000;stroke-width:0.1;stroke-miterlimit:4;stroke-dasharray:none"
         d="m -20.5,22.7 v 5.6 h 1.7 v -5.6 h -1.7"
         id="Sketch010_w0002"
         inkscape:connector-curvature="0" />
      <path
         style="fill:none;fill-opacity:1;fill-rule:evenodd;stroke:#ff0000;stroke-width:0.1;stroke-miterlimit:4;stroke-dasharray:none"
         d="m -9.7,22.2 v 5.6 H -8 v -5.6 h -1.7"
         id="Sketch010_w0003"
         inkscape:connector-curvature="0" />
      <path
         style="fill:none;fill-opacity:1;fill-rule:evenodd;stroke:#ff0000;stroke-width:0.1;stroke-miterlimit:4;stroke-dasharray:none"
         d="m -9.7,-27.8 v 5.6 H -8 v -5.6 h -1.7"
         id="Sketch010_w0004"
         inkscape:connector-curvature="0" />
      <title
         id="title2479">b'support001'</title>
    </g>
    <g
       transform="matrix(0.99999999,0,0,-0.99999999,79.066997,146.78071)"
       id="Sketch001"
       style="stroke:#ff0000;stroke-width:0.1;stroke-miterlimit:4;stroke-dasharray:none">
      <path
         style="fill:none;fill-opacity:1;fill-rule:evenodd;stroke:#ff0000;stroke-width:0.1;stroke-miterlimit:4;stroke-dasharray:none"
         d="M 34,10 H 23.5 v 3 h -3 V 10 H -3 V 7 H 0 V 0 h 31 v 7 h 3 v 3"
         id="Sketch001_w0000"
         inkscape:connector-curvature="0" />
      <path
         style="fill:none;fill-opacity:1;fill-rule:evenodd;stroke:#ff0000;stroke-width:0.1;stroke-miterlimit:4;stroke-dasharray:none"
         d="M 29.1,5 V 3.3 H 23.5 V 5 h 5.6"
         id="Sketch001_w0001"
         inkscape:connector-curvature="0" />
      <path
         style="fill:none;fill-opacity:1;fill-rule:evenodd;stroke:#ff0000;stroke-width:0.1;stroke-miterlimit:4;stroke-dasharray:none"
         d="M 6.7,7 V 1.4 H 5 V 7 h 1.7"
         id="Sketch001_w0002"
         inkscape:connector-curvature="0" />
      <title
         id="title2500">b'Sketch001'</title>
    </g>
    <g
       transform="matrix(0.99999999,0,0,-0.99999999,63.440259,67.583394)"
       id="Sketch003"
       style="stroke:#ff0000;stroke-width:0.1;stroke-miterlimit:4;stroke-dasharray:none">
      <path
         style="fill:none;fill-opacity:1;fill-rule:evenodd;stroke:#ff0000;stroke-width:0.1;stroke-miterlimit:4;stroke-dasharray:none"
         d="M 24.5,30 H 25 V 29.5 4 h -2 v -8 h 2 V -29.5 -30 h -0.5 v 0.5 H 25 V -30 -55.25 h 6 v -10 H -3 v 3 h 3 v 7 H 21 V 55.25 H 0 v 7 h -3 v 3 h 34 v -10 H 25 V 30 29.5 H 24.5 V 30"
         id="Sketch003_w0000"
         inkscape:connector-curvature="0" />
      <path
         style="fill:none;fill-opacity:1;fill-rule:evenodd;stroke:#ff0000;stroke-width:0.1;stroke-miterlimit:4;stroke-dasharray:none"
         d="m 5,62.25 v -5.6 h 1.7 v 5.6 H 5"
         id="Sketch003_w0001"
         inkscape:connector-curvature="0" />
      <path
         style="fill:none;fill-opacity:1;fill-rule:evenodd;stroke:#ff0000;stroke-width:0.1;stroke-miterlimit:4;stroke-dasharray:none"
         d="m 5,-56.65 v -5.6 h 1.7 v 5.6 H 5"
         id="Sketch003_w0002"
         inkscape:connector-curvature="0" />
      <title
         id="title2519">b'long'</title>
    </g>
    <g
       transform="matrix(1,0,0,-1,78.62207,44.305444)"
       id="Sketch002-3"
       style="stroke:#ff0000;stroke-width:0.1;stroke-miterlimit:4;stroke-dasharray:none">
      <path
         style="fill:none;fill-opacity:1;fill-rule:evenodd;stroke:#ff0000;stroke-width:0.1;stroke-miterlimit:4;stroke-dasharray:none"
         d="m -21,-4 v -33.75 a 2.5,2.5 0 0 1 5,0 v 2.5 h 1.3 v -2.5 a 2.5,2.5 0 0 1 5,0 v 2.5 H 0 v -7 h 3 v -3 h -34 v 10 h 6 v 60 h -6 v 10.5 h 7 v 3 h 3 V 4 h -2 v -8 h 2"
         id="Sketch002_w0000-6"
         inkscape:connector-curvature="0" />
      <path
         style="fill:none;fill-opacity:1;fill-rule:evenodd;stroke:#ff0000;stroke-width:0.1;stroke-miterlimit:4;stroke-dasharray:none"
         d="m -5,-42.25 h -1.7 v 5.6 H -5 v -5.6"
         id="Sketch002_w0001-7"
         inkscape:connector-curvature="0" />
      <path
         style="fill:none;fill-opacity:1;fill-rule:evenodd;stroke:#ff0000;stroke-width:0.1;stroke-miterlimit:4;stroke-dasharray:none"
         d="m -24,28.55 h -5.6 v 1.7 h 5.6 v -1.7"
         id="Sketch002_w0002-5"
         inkscape:connector-curvature="0" />
      <title
         id="title2538">b'short'</title>
    </g>
    <g
       transform="matrix(0.99999998,0,0,-0.99999998,74.547279,45.667292)"
       id="Sketch001-3"
       style="stroke:#ff0000;stroke-width:0.1;stroke-miterlimit:4;stroke-dasharray:none">
      <path
         style="fill:none;fill-opacity:1;fill-rule:evenodd;stroke:#ff0000;stroke-width:0.1;stroke-miterlimit:4;stroke-dasharray:none"
         d="M -2.5,10.5 H 0 v 8.75 h 3 v 3 H -9 v -8 h 2 v -33.5 h -3 v -3 H 3 v 3 H 0 v 8.75 h -2.5 a 2.5,2.5 0 0 0 0,5 H 0 v 3 h -2.5 a 2.5,2.5 0 0 0 0,5 H 0 v 3 h -2.5 a 2.5,2.5 0 1 0 0,5"
         id="Sketch001_w0000-5"
         inkscape:connector-curvature="0" />
      <path
         style="fill:none;fill-opacity:1;fill-rule:evenodd;stroke:#ff0000;stroke-width:0.1;stroke-miterlimit:4;stroke-dasharray:none"
         d="m -4.7,13.65 v 5.6 H -3 v -5.6 h -1.7"
         id="Sketch001_w0001-6"
         inkscape:connector-curvature="0" />
      <path
         style="fill:none;fill-opacity:1;fill-rule:evenodd;stroke:#ff0000;stroke-width:0.1;stroke-miterlimit:4;stroke-dasharray:none"
         d="m -4.7,-19.25 v 5.6 H -3 v -5.6 h -1.7"
         id="Sketch001_w0002-2"
         inkscape:connector-curvature="0" />
      <title
         id="title2557">b'soundsupport'</title>
    </g>
    <g
       transform="matrix(0.99999999,0,0,-0.99999999,120.22807,64.376159)"
       id="Sketch007"
       style="stroke:#ff0000;stroke-width:0.1;stroke-miterlimit:4;stroke-dasharray:none">
      <path
         style="fill:none;fill-opacity:1;fill-rule:evenodd;stroke:#ff0000;stroke-width:0.1;stroke-miterlimit:4;stroke-dasharray:none"
         d="m -8,-32.5 a 8,8 0 0 1 8,-8 v -14 h -10 v -8 h -10 v 5 h -2.5 v 3.15 h 6.8 v 108.7 h -6.8 v 3.15 h 2.5 v 5 h 10 v -8 H 0 v -14 a 8,8 0 0 1 -8,-8 v -65"
         id="Sketch007_w0000"
         inkscape:connector-curvature="0" />
      <title
         id="title2574">b'SketchHORZ'</title>
    </g>
    <g
       transform="matrix(0.99999995,0,0,-0.99999995,3.0325228,112.48467)"
       id="Sketch006"
       style="stroke:#ff0000;stroke-width:0.10000001;stroke-miterlimit:4;stroke-dasharray:none">
      <path
         style="fill:none;fill-opacity:1;fill-rule:evenodd;stroke:#ff0000;stroke-width:0.10000001;stroke-miterlimit:4;stroke-dasharray:none"
         d="m 0,111 h 10 v -8 h 9.5 V -103 H 10 v -8 H 0 v 14 H 2.0000004 A 6,6 0 0 1 8,-91 V 90.999979 A 6,6 0 0 1 2,97 H 0 v 14"
         id="Sketch006_w0000"
         inkscape:connector-curvature="0" />
      <title
         id="title2589">b'Sketch006'</title>
    </g>
    <g
       id="g2607"
       transform="matrix(0.99999995,0,0,-0.99999995,24.948624,112.48467)"
       style="stroke:#ff0000;stroke-width:0.10000001;stroke-miterlimit:4;stroke-dasharray:none">
      <path
         inkscape:connector-curvature="0"
         id="path2603"
         d="m 0,111 h 10 v -8 h 9.5 V -103 H 10 v -8 H 0 v 14 H 2.0000004 A 6,6 0 0 1 8,-91 V 90.999979 A 6,6 0 0 1 2,97 H 0 v 14"
         style="fill:none;fill-opacity:1;fill-rule:evenodd;stroke:#ff0000;stroke-width:0.10000001;stroke-miterlimit:4;stroke-dasharray:none" />
      <title
         id="title2605">b'Sketch006'</title>
    </g>
    <g
       id="g2613"
       transform="matrix(0.99999999,0,0,-0.99999999,145.3514,64.376159)"
       style="stroke:#ff0000;stroke-width:0.1;stroke-miterlimit:4;stroke-dasharray:none">
      <path
         inkscape:connector-curvature="0"
         id="path2609"
         d="m -8,-32.5 a 8,8 0 0 1 8,-8 v -14 h -10 v -8 h -10 v 5 h -2.5 v 3.15 h 6.8 v 108.7 h -6.8 v 3.15 h 2.5 v 5 h 10 v -8 H 0 v -14 a 8,8 0 0 1 -8,-8 v -65"
         style="fill:none;fill-opacity:1;fill-rule:evenodd;stroke:#ff0000;stroke-width:0.1;stroke-miterlimit:4;stroke-dasharray:none" />
      <title
         id="title2611">b'SketchHORZ'</title>
    </g>
    <g
       id="g2623"
       transform="matrix(0.99999999,0,0,-0.99999999,79.066997,161.7478)"
       style="stroke:#ff0000;stroke-width:0.1;stroke-miterlimit:4;stroke-dasharray:none">
      <path
         inkscape:connector-curvature="0"
         id="path2615"
         d="M 34,10 H 23.5 v 3 h -3 V 10 H -3 V 7 H 0 V 0 h 31 v 7 h 3 v 3"
         style="fill:none;fill-opacity:1;fill-rule:evenodd;stroke:#ff0000;stroke-width:0.1;stroke-miterlimit:4;stroke-dasharray:none" />
      <path
         inkscape:connector-curvature="0"
         id="path2617"
         d="M 29.1,5 V 3.3 H 23.5 V 5 h 5.6"
         style="fill:none;fill-opacity:1;fill-rule:evenodd;stroke:#ff0000;stroke-width:0.1;stroke-miterlimit:4;stroke-dasharray:none" />
      <path
         inkscape:connector-curvature="0"
         id="path2619"
         d="M 6.7,7 V 1.4 H 5 V 7 h 1.7"
         style="fill:none;fill-opacity:1;fill-rule:evenodd;stroke:#ff0000;stroke-width:0.1;stroke-miterlimit:4;stroke-dasharray:none" />
      <title
         id="title2621">b'Sketch001'</title>
    </g>
    <g
       id="g2633"
       transform="matrix(0,-1,-1,0,91.170619,92.705096)"
       style="stroke:#ff0000;stroke-width:0.1;stroke-miterlimit:4;stroke-dasharray:none">
      <path
         inkscape:connector-curvature="0"
         id="path2625"
         d="M 34,2.3841854e-7 V -2.9999998 h -3 v -7 H 2.3841858e-7 v 7 H -2.9999998 V 2.3841859e-7 L 34,2.3841854e-7"
         style="fill:none;fill-opacity:1;fill-rule:evenodd;stroke:#ff0000;stroke-width:0.1;stroke-miterlimit:4;stroke-dasharray:none" />
      <path
         inkscape:connector-curvature="0"
         id="path2627"
         d="M 24.3,-2.9999998 H 26 v -5.6 h -1.7 v 5.6"
         style="fill:none;fill-opacity:1;fill-rule:evenodd;stroke:#ff0000;stroke-width:0.1;stroke-miterlimit:4;stroke-dasharray:none" />
      <path
         inkscape:connector-curvature="0"
         id="path2629"
         d="m 5.0000002,-2.9999998 h 1.7 v -5.6 h -1.7 v 5.6"
         style="fill:none;fill-opacity:1;fill-rule:evenodd;stroke:#ff0000;stroke-width:0.1;stroke-miterlimit:4;stroke-dasharray:none" />
      <title
         id="title2631">b'Sketch002'</title>
    </g>
    <g
       id="g2645"
       transform="matrix(0.99999999,0,0,-0.99999999,86.766839,573.4214)"
       style="stroke:#ff0000;stroke-width:0.1;stroke-miterlimit:4;stroke-dasharray:none">
      <path
         inkscape:connector-curvature="0"
         id="path2635"
         d="M -40,372.5 H -5.7752774 L -3,364.87499 -37,352.5 h -3 v 5 h 3 v 10 h -3 v 5"
         style="fill:none;fill-opacity:1;fill-rule:evenodd;stroke:#ff0000;stroke-width:0.1;stroke-miterlimit:4;stroke-dasharray:none" />
      <path
         inkscape:connector-curvature="0"
         id="path2637"
         d="m -26.302302,363.84289 0.68404,-1.87939 4.228617,1.53909 -0.68404,1.87939 -4.228617,-1.53909"
         style="fill:none;fill-opacity:1;fill-rule:evenodd;stroke:#ff0000;stroke-width:0.1;stroke-miterlimit:4;stroke-dasharray:none" />
      <path
         inkscape:connector-curvature="0"
         id="path2639"
         d="m -14.556144,368.11814 0.68404,-1.87939 4.228617,1.5391 -0.68404,1.87938 -4.228617,-1.53909"
         style="fill:none;fill-opacity:1;fill-rule:evenodd;stroke:#ff0000;stroke-width:0.1;stroke-miterlimit:4;stroke-dasharray:none" />
      <path
         inkscape:connector-curvature="0"
         id="path2641"
         d="m -32.7,365.3 v -5.6 h 1.7 v 5.6 h -1.7"
         style="fill:none;fill-opacity:1;fill-rule:evenodd;stroke:#ff0000;stroke-width:0.1;stroke-miterlimit:4;stroke-dasharray:none" />
      <title
         id="title2643">b'CameraHolder001'</title>
    </g>
    <g
       style="stroke:#ff0000;stroke-width:0.1;stroke-miterlimit:4;stroke-dasharray:none"
       id="g890"
       transform="translate(95.294859,195.61718)">
      <path
         inkscape:connector-curvature="0"
         id="path878"
         d="M -9.75,-13.5 V -21 H -22.5 v -8 h 12.75 v -3 H 0 v 3 h -3 v 58 h 3 v 3 H -9.75 V 29 H -22.5 v -8 h 12.75 v -7.5 h 5 v -27 h -5"
         style="fill:none;fill-opacity:1;fill-rule:evenodd;stroke:#ff0000;stroke-width:0.1;stroke-miterlimit:4;stroke-dasharray:none" />
      <path
         inkscape:connector-curvature="0"
         id="path880"
         d="m -20.5,-28.3 v 5.6 h 1.7 v -5.6 h -1.7"
         style="fill:none;fill-opacity:1;fill-rule:evenodd;stroke:#ff0000;stroke-width:0.1;stroke-miterlimit:4;stroke-dasharray:none" />
      <path
         inkscape:connector-curvature="0"
         id="path882"
         d="m -20.5,22.7 v 5.6 h 1.7 v -5.6 h -1.7"
         style="fill:none;fill-opacity:1;fill-rule:evenodd;stroke:#ff0000;stroke-width:0.1;stroke-miterlimit:4;stroke-dasharray:none" />
      <path
         inkscape:connector-curvature="0"
         id="path884"
         d="m -9.7,22.2 v 5.6 H -8 v -5.6 h -1.7"
         style="fill:none;fill-opacity:1;fill-rule:evenodd;stroke:#ff0000;stroke-width:0.1;stroke-miterlimit:4;stroke-dasharray:none" />
      <path
         inkscape:connector-curvature="0"
         id="path886"
         d="m -9.7,-27.8 v 5.6 H -8 v -5.6 h -1.7"
         style="fill:none;fill-opacity:1;fill-rule:evenodd;stroke:#ff0000;stroke-width:0.1;stroke-miterlimit:4;stroke-dasharray:none" />
      <title
         id="title888">b'support001'</title>
    </g>
    <g
       transform="matrix(0,1,1,0,115.30357,141.83334)"
       id="Sketch"
       style="stroke:#ff0000;stroke-width:0.1;stroke-miterlimit:4;stroke-dasharray:none">
      <path
         style="fill:none;fill-opacity:1;fill-rule:evenodd;stroke:#ff0000;stroke-width:0.1;stroke-miterlimit:4;stroke-dasharray:none"
         d="m -5.3340473,0 h 4.99999998 V 3 H 27.4 V 0 h 5 V 37 H 4.1800032e-5 A 12.4,12.4 0 0 1 -11.6522,20.3589 L -5.3340473,3 V 0"
         id="Sketch_w0000"
         inkscape:connector-curvature="0" />
      <path
         style="fill:none;fill-opacity:1;fill-rule:evenodd;stroke:#ff0000;stroke-width:0.1;stroke-miterlimit:4;stroke-dasharray:none"
         d="m 10.732976,9 h 5.6 V 7.3 h -5.6 V 9"
         id="Sketch_w0001"
         inkscape:connector-curvature="0" />
      <circle
         id="circle874"
         style="fill:none;stroke:#ff0000;stroke-width:0.1;stroke-miterlimit:4;stroke-dasharray:none"
         r="7.4000001"
         cy="24.6"
         cx="0" />
      <circle
         id="circle876"
         style="fill:none;stroke:#ff0000;stroke-width:0.1;stroke-miterlimit:4;stroke-dasharray:none"
         r="1.25"
         cy="27.5"
         cx="16.9" />
      <circle
         id="circle878"
         style="fill:none;stroke:#ff0000;stroke-width:0.1;stroke-miterlimit:4;stroke-dasharray:none"
         r="1.25"
         cy="27.5"
         cx="26.4" />
      <title
         id="title880">b'Sketch'</title>
    </g>
    <g
       id="g910"
       transform="rotate(-90,152.3884,57.495538)"
       style="stroke:#ff0000;stroke-width:0.1;stroke-miterlimit:4;stroke-dasharray:none">
      <path
         inkscape:connector-curvature="0"
         id="path898"
         d="m -5.3340473,0 h 4.99999998 V 3 H 27.4 V 0 h 5 V 37 H 4.1800032e-5 A 12.4,12.4 0 0 1 -11.6522,20.3589 L -5.3340473,3 V 0"
         style="fill:none;fill-opacity:1;fill-rule:evenodd;stroke:#ff0000;stroke-width:0.1;stroke-miterlimit:4;stroke-dasharray:none" />
      <path
         inkscape:connector-curvature="0"
         id="path900"
         d="m 10.732976,9 h 5.6 V 7.3 h -5.6 V 9"
         style="fill:none;fill-opacity:1;fill-rule:evenodd;stroke:#ff0000;stroke-width:0.1;stroke-miterlimit:4;stroke-dasharray:none" />
      <circle
         cx="0"
         cy="24.6"
         r="7.4000001"
         style="fill:none;stroke:#ff0000;stroke-width:0.1;stroke-miterlimit:4;stroke-dasharray:none"
         id="circle902" />
      <circle
         cx="16.9"
         cy="27.5"
         r="1.25"
         style="fill:none;stroke:#ff0000;stroke-width:0.1;stroke-miterlimit:4;stroke-dasharray:none"
         id="circle904" />
      <circle
         cx="26.4"
         cy="27.5"
         r="1.25"
         style="fill:none;stroke:#ff0000;stroke-width:0.1;stroke-miterlimit:4;stroke-dasharray:none"
         id="circle906" />
      <title
         id="title908">b'Sketch'</title>
    </g>
  </g>
</svg>
