<?xml version="1.0"?>
<!DOCTYPE svg PUBLIC "-//W3C//DTD SVG 1.1//EN" "http://www.w3.org/Graphics/SVG/1.1/DTD/svg11.dtd">
<svg width="85.17000000000016mm" height="35.67mm" viewBox="0 0 85.17000000000016 35.67" xmlns="http://www.w3.org/2000/svg" version="1.1">
<g id="Sketch001" transform="translate(46.085000,31.835000) scale(1,-1)">
<path id="Sketch001_w0000"  d="M -35.25 21.0 L -37.75 21.0 A 2.5 2.5 0 0 1 -37.75 16L -35.25 16.0 L -35.25 15.399999999999999 L -37.750000000017124 15.399999999999999 A 2.5 2.5 0 1 1 -37.75 10.4L -35.25 10.4 L -35.25 0.0 L -42.25 0.0 L -42.25 -3.0 L -45.25 -3.0 L -45.25 31.0 L -35.25 31.0 L -35.25 25.0 L 24.75 25.0 L 24.75 31.0 L 35.25 31.0 L 35.25 24.000000000000153 L 38.250000000000156 24.000000000000153 L 38.250000000000156 21.0 L 35.25 21.0 L 4.000000000000075 21.0 L 4.000000000000075 23.0 L -3.9999999999999254 23.0 L -3.9999999999999254 21.0 L -35.25 21.0 " stroke="#0f2873" stroke-width="0.35 px" style="stroke-width:0.35;stroke-miterlimit:4;stroke-dasharray:none;fill:none;fill-opacity:1;fill-rule: evenodd"/>
<path id="Sketch001_w0001"  d="M 27.850000000000154 29.599999999998985 L 30.25 29.599999999998985 L 30.25 24.000000000000153 L 27.850000000000154 24.000000000000153 L 27.850000000000154 29.599999999998985 " stroke="#0f2873" stroke-width="0.35 px" style="stroke-width:0.35;stroke-miterlimit:4;stroke-dasharray:none;fill:none;fill-opacity:1;fill-rule: evenodd"/>
<path id="Sketch001_w0002"  d="M -42.25 7.3999999999999995 L -36.65 7.3999999999999995 L -36.65 5.0 L -42.25 5.0 L -42.25 7.3999999999999995 " stroke="#0f2873" stroke-width="0.35 px" style="stroke-width:0.35;stroke-miterlimit:4;stroke-dasharray:none;fill:none;fill-opacity:1;fill-rule: evenodd"/>
<title>b'Sketch001'</title>
</g>
</svg>