<?xml version="1.0"?>
<!DOCTYPE svg PUBLIC "-//W3C//DTD SVG 1.1//EN" "http://www.w3.org/Graphics/SVG/1.1/DTD/svg11.dtd">
<svg width="258.06mm" height="42.060000000003136mm" viewBox="0 0 258.06 42.060000000003136" xmlns="http://www.w3.org/2000/svg" version="1.1">
<g id="Sketch001" transform="translate(131.030000,39.530000) scale(1,-1)">
<path id="Sketch001_w0000"  d="M 70.45000000000157 36.99999999999686 L 73.45000000000157 36.99999999999686 L 73.45000000000157 19.999999999997403 A 3 3 0 0 1 76.45 17L 80.45000000000157 16.999999999997403 A 3 3 0 0 1 83.45 20L 83.45000000000157 37.00000000000313 L 116.49999999999999 37.00000000000313 L 116.49999999999999 35.00000000000313 A 2 2 0 1 1 120.5 35A 2 2 0 1 1 124.5 35L 124.49999999999999 24.500000000003126 L 124.49999999999999 11.000000000003137 L 120.49999999999999 11.000000000003137 L 120.49999999999999 3.0000000000031366 L 90.45000000000157 3.0000000000031366 L 90.45000000000157 0.0 L 52.5 0.0 L 52.5 3.0 L 4.999999999999999 3.0 L 5.0 8.0 L -5.0 8.0 L -5.0 3.0 L -52.5 3.0 L -52.5 0.0 L -90.45 0.0 L -90.45 3.0000000000031366 L -120.49999999999999 3.0000000000031366 L -120.49999999999999 5.500000000003138 A 2.5 2.5 0 0 1 -125.5 5.5L -125.49999999999999 14.499999999997431 L -128.5 14.499999999997431 L -128.5 24.49999999999743 L -125.50000000000001 24.49999999999743 L -125.50000000000001 34.999999999997435 A 2 2 0 0 1 -121.5 35A 2 2 0 0 1 -117.5 35L -117.50000000000001 36.999999999997435 L -70.45 36.999999999997435 L -70.45 18.49999999999743 L -62.55 18.49999999999743 L -62.55 33.999999999997435 L -59.025 33.999999999997435 L -59.025 30.99999999999743 L -56.025 30.99999999999743 L -56.025 33.999999999997435 L -52.5 33.999999999997435 L -52.5 21.99999999999743 L 52.5 21.99999999999743 L 52.5 33.99999999999686 L 56.025 33.99999999999686 L 56.025 30.999999999995293 L 59.02500000000157 30.999999999995293 L 59.02500000000157 33.99999999999686 L 62.55000000000157 33.99999999999686 L 62.55000000000157 18.499999999996863 L 70.45000000000157 18.499999999996863 L 70.45000000000157 36.99999999999686 " stroke="#000000" stroke-width="0.35 px" style="stroke-width:0.35;stroke-miterlimit:4;stroke-dasharray:none;fill:none;fill-opacity:1;fill-rule: evenodd"/>
<circle cx="-110.50000000000001" cy="19.500000000003126" r="10.9" stroke="#000000" stroke-width="0.35 px" style="stroke-width:0.35;stroke-miterlimit:4;stroke-dasharray:none;fill:none"/>
<circle cx="109.49999999999999" cy="19.500000000003126" r="10.9" stroke="#000000" stroke-width="0.35 px" style="stroke-width:0.35;stroke-miterlimit:4;stroke-dasharray:none;fill:none"/>
<circle cx="-90.50000000000001" cy="19.500000000003126" r="8.2" stroke="#000000" stroke-width="0.35 px" style="stroke-width:0.35;stroke-miterlimit:4;stroke-dasharray:none;fill:none"/>
<circle cx="-90.50000000000001" cy="32.000000000003126" r="1.75" stroke="#000000" stroke-width="0.35 px" style="stroke-width:0.35;stroke-miterlimit:4;stroke-dasharray:none;fill:none"/>
<circle cx="-90.5" cy="7.000000000003128" r="1.75" stroke="#000000" stroke-width="0.35 px" style="stroke-width:0.35;stroke-miterlimit:4;stroke-dasharray:none;fill:none"/>
<path id="Sketch001_w0006"  d="M -123.50000000000001 31.799999999997432 L -121.80000000000001 31.799999999997432 L -121.80000000000001 26.19999999999743 L -123.50000000000001 26.19999999999743 L -123.50000000000001 31.799999999997432 " stroke="#000000" stroke-width="0.35 px" style="stroke-width:0.35;stroke-miterlimit:4;stroke-dasharray:none;fill:none;fill-opacity:1;fill-rule: evenodd"/>
<path id="Sketch001_w0007"  d="M 120.8 31.800000000003127 L 122.49999999999999 31.800000000003127 L 122.49999999999999 26.20000000000313 L 120.8 26.20000000000313 L 120.8 31.800000000003127 " stroke="#000000" stroke-width="0.35 px" style="stroke-width:0.35;stroke-miterlimit:4;stroke-dasharray:none;fill:none;fill-opacity:1;fill-rule: evenodd"/>
<path id="Sketch001_w0008"  d="M 95.65000000000157 9.7 L 101.25000000000156 9.7 L 101.25000000000156 8.000000000003137 L 95.65000000000157 8.000000000003137 L 95.65000000000157 9.7 " stroke="#000000" stroke-width="0.35 px" style="stroke-width:0.35;stroke-miterlimit:4;stroke-dasharray:none;fill:none;fill-opacity:1;fill-rule: evenodd"/>
<path id="Sketch001_w0009"  d="M -101.25 9.7 L -95.65 9.7 L -95.65 8.000000000003137 L -101.25 8.000000000003137 L -101.25 9.7 " stroke="#000000" stroke-width="0.35 px" style="stroke-width:0.35;stroke-miterlimit:4;stroke-dasharray:none;fill:none;fill-opacity:1;fill-rule: evenodd"/>
<path id="Sketch001_w0010"  d="M -31.3 9.699999999993729 L -25.7 9.699999999993729 L -25.7 8.000000000000002 L -31.3 8.000000000000002 L -31.3 9.699999999993729 " stroke="#000000" stroke-width="0.35 px" style="stroke-width:0.35;stroke-miterlimit:4;stroke-dasharray:none;fill:none;fill-opacity:1;fill-rule: evenodd"/>
<path id="Sketch001_w0011"  d="M 25.7 9.699999999993725 L 31.3 9.699999999993725 L 31.3 7.999999999999999 L 25.7 7.999999999999999 L 25.7 9.699999999993725 " stroke="#000000" stroke-width="0.35 px" style="stroke-width:0.35;stroke-miterlimit:4;stroke-dasharray:none;fill:none;fill-opacity:1;fill-rule: evenodd"/>
<circle cx="-58.55" cy="6.999999999997433" r="1.5" stroke="#000000" stroke-width="0.35 px" style="stroke-width:0.35;stroke-miterlimit:4;stroke-dasharray:none;fill:none"/>
<circle cx="-51.55" cy="6.9999999999974305" r="1.5" stroke="#000000" stroke-width="0.35 px" style="stroke-width:0.35;stroke-miterlimit:4;stroke-dasharray:none;fill:none"/>
<circle cx="48.30000000000159" cy="17.99999999999743" r="1.5" stroke="#000000" stroke-width="0.35 px" style="stroke-width:0.35;stroke-miterlimit:4;stroke-dasharray:none;fill:none"/>
<circle cx="48.30000000000157" cy="10.999999999997431" r="1.5" stroke="#000000" stroke-width="0.35 px" style="stroke-width:0.35;stroke-miterlimit:4;stroke-dasharray:none;fill:none"/>
<title>b'Sketch001'</title>
</g>
</svg>