<?xml version="1.0" encoding="UTF-8" standalone="no"?>
<!-- Created with Inkscape (http://www.inkscape.org/) -->

<svg
   xmlns:dc="http://purl.org/dc/elements/1.1/"
   xmlns:cc="http://creativecommons.org/ns#"
   xmlns:rdf="http://www.w3.org/1999/02/22-rdf-syntax-ns#"
   xmlns:svg="http://www.w3.org/2000/svg"
   xmlns="http://www.w3.org/2000/svg"
   xmlns:sodipodi="http://sodipodi.sourceforge.net/DTD/sodipodi-0.dtd"
   xmlns:inkscape="http://www.inkscape.org/namespaces/inkscape"
   width="210mm"
   height="297mm"
   viewBox="0 0 210 297"
   version="1.1"
   id="svg873"
   inkscape:version="0.92.5 (2060ec1f9f, 2020-04-08)"
   sodipodi:docname="ri_parm_scroll-supports-fat-nuts.svg">
  <defs
     id="defs867" />
  <sodipodi:namedview
     id="base"
     pagecolor="#ffffff"
     bordercolor="#666666"
     borderopacity="1.0"
     inkscape:pageopacity="0.0"
     inkscape:pageshadow="2"
     inkscape:zoom="0.7"
     inkscape:cx="189.14549"
     inkscape:cy="704.87038"
     inkscape:document-units="mm"
     inkscape:current-layer="layer1"
     showgrid="false"
     inkscape:window-width="1920"
     inkscape:window-height="1016"
     inkscape:window-x="0"
     inkscape:window-y="27"
     inkscape:window-maximized="1" />
  <metadata
     id="metadata870">
    <rdf:RDF>
      <cc:Work
         rdf:about="">
        <dc:format>image/svg+xml</dc:format>
        <dc:type
           rdf:resource="http://purl.org/dc/dcmitype/StillImage" />
        <dc:title></dc:title>
      </cc:Work>
    </rdf:RDF>
  </metadata>
  <g
     inkscape:label="Layer 1"
     inkscape:groupmode="layer"
     id="layer1">
    <g
       transform="matrix(1,0,0,-1,180.14583,121.88875)"
       id="Sketch"
       style="stroke:#ff0000;stroke-width:0.1;stroke-miterlimit:4;stroke-dasharray:none">
      <path
         style="fill:none;fill-opacity:1;fill-rule:evenodd;stroke:#ff0000;stroke-width:0.1;stroke-miterlimit:4;stroke-dasharray:none"
         d="M 131.95,37 H 166 v -2 a 2,2 0 0 1 4,0 2,2 0 1 1 4,0 V 24.5 h 3 v -10 h -3 V 8.4999997 A 2.5,2.5 0 1 1 169,8.5 V 3 H 138.95 V 0 h -20 v 18.5 h -7.9 V 0 H 101 V 3 H 5 V 8 H -5 V 3 h -96 V 0 h -10.05 v 18.5 h -7.9 V 0 h -20 V 3 H -169 v 5.5 a 2.5,2.5 0 0 1 -5,0 v 6 h -3 v 10 h 3 V 35 a 2,2 0 1 1 4,0 2,2 0 0 1 4,0 v 2 h 47.05 V 34 H -101 V 22.5 H 101 V 34 h 17.95 v 3 h 3 V 20.5 a 3,3 0 0 1 3,-3 h 4 a 3,3 0 0 1 3,3 V 37"
         id="Sketch_w0000"
         inkscape:connector-curvature="0" />
      <circle
         id="circle1595"
         style="fill:none;stroke:#ff0000;stroke-width:0.1;stroke-miterlimit:4;stroke-dasharray:none"
         r="10.9"
         cy="20"
         cx="-159" />
      <circle
         id="circle1597"
         style="fill:none;stroke:#ff0000;stroke-width:0.1;stroke-miterlimit:4;stroke-dasharray:none"
         r="10.9"
         cy="20"
         cx="159" />
      <circle
         id="circle1599"
         style="fill:none;stroke:#ff0000;stroke-width:0.1;stroke-miterlimit:4;stroke-dasharray:none"
         r="8.1999998"
         cy="20"
         cx="-139" />
      <circle
         id="circle1601"
         style="fill:none;stroke:#ff0000;stroke-width:0.1;stroke-miterlimit:4;stroke-dasharray:none"
         r="1.7"
         cy="7.5"
         cx="-139" />
      <circle
         id="circle1603"
         style="fill:none;stroke:#ff0000;stroke-width:0.1;stroke-miterlimit:4;stroke-dasharray:none"
         r="1.7"
         cy="32.5"
         cx="-139" />
      <path
         style="fill:none;fill-opacity:1;fill-rule:evenodd;stroke:#ff0000;stroke-width:0.1;stroke-miterlimit:4;stroke-dasharray:none"
         d="m 169.6,31.8 h 2.4 v -5.6 h -2.4 v 5.6"
         id="Sketch_w0006"
         inkscape:connector-curvature="0" />
      <path
         style="fill:none;fill-opacity:1;fill-rule:evenodd;stroke:#ff0000;stroke-width:0.1;stroke-miterlimit:4;stroke-dasharray:none"
         d="m -172,31.8 h 2.4 v -5.6 h -2.4 v 5.6"
         id="Sketch_w0007"
         inkscape:connector-curvature="0" />
      <path
         style="fill:none;fill-opacity:1;fill-rule:evenodd;stroke:#ff0000;stroke-width:0.1;stroke-miterlimit:4;stroke-dasharray:none"
         d="m 144.15,10.4 h 5.6 V 8 h -5.6 v 2.4"
         id="Sketch_w0008"
         inkscape:connector-curvature="0" />
      <path
         style="fill:none;fill-opacity:1;fill-rule:evenodd;stroke:#ff0000;stroke-width:0.1;stroke-miterlimit:4;stroke-dasharray:none"
         d="m 74.2,10.4 h 5.6 V 8 h -5.6 v 2.4"
         id="Sketch_w0009"
         inkscape:connector-curvature="0" />
      <path
         style="fill:none;fill-opacity:1;fill-rule:evenodd;stroke:#ff0000;stroke-width:0.1;stroke-miterlimit:4;stroke-dasharray:none"
         d="m -79.8,10.4 h 5.6 V 8 h -5.6 v 2.4"
         id="Sketch_w0010"
         inkscape:connector-curvature="0" />
      <path
         style="fill:none;fill-opacity:1;fill-rule:evenodd;stroke:#ff0000;stroke-width:0.1;stroke-miterlimit:4;stroke-dasharray:none"
         d="m -149.75,10.4 h 5.6 V 8 h -5.6 v 2.4"
         id="Sketch_w0011"
         inkscape:connector-curvature="0" />
      <circle
         id="circle1611"
         style="fill:none;stroke:#ff0000;stroke-width:0.1;stroke-miterlimit:4;stroke-dasharray:none"
         r="1.45"
         cy="7.5"
         cx="-107.05" />
      <circle
         id="circle1613"
         style="fill:none;stroke:#ff0000;stroke-width:0.1;stroke-miterlimit:4;stroke-dasharray:none"
         r="1.45"
         cy="7.5"
         cx="-100.05" />
      <circle
         id="circle1615"
         style="fill:none;stroke:#ff0000;stroke-width:0.1;stroke-miterlimit:4;stroke-dasharray:none"
         r="1.45"
         cy="18.5"
         cx="96.800003" />
      <circle
         id="circle1617"
         style="fill:none;stroke:#ff0000;stroke-width:0.1;stroke-miterlimit:4;stroke-dasharray:none"
         r="1.45"
         cy="11.5"
         cx="96.800003" />
      <title
         id="title1619">b'Sketch'</title>
    </g>
    <g
       transform="matrix(1,0,0,-1,131.64583,81.98041)"
       id="Sketch001"
       style="stroke:#ff0000;stroke-width:0.1;stroke-miterlimit:4;stroke-dasharray:none">
      <path
         style="fill:none;fill-opacity:1;fill-rule:evenodd;stroke:#ff0000;stroke-width:0.1;stroke-miterlimit:4;stroke-dasharray:none"
         d="m 70.45,37 h 3 V 20 a 3,3 0 0 1 3,-3 h 4 a 3,3 0 0 1 3,3 v 17 h 33.05 v -2 a 2,2 0 0 1 4,0 2,2 0 0 1 4,0 V 24.5 11 h -4 V 3 H 90.45 V 0 H 52.5 V 3 H 5 V 8 H -5 V 3 H -52.5 V 0 h -37.95 v 3 h -30.05 v 2.5 a 2.5,2.5 0 1 1 -5,0 v 9 h -3 v 10 h 3 V 35 a 2,2 0 0 1 4,0 2,2 0 0 1 4,0 v 2 h 47.05 V 18.5 h 7.9 V 34 h 3.525 v -3 h 3 v 3 H -52.5 V 22 h 105 v 12 h 3.525 v -3 h 3 v 3 H 62.55 V 18.5 h 7.9 V 37"
         id="Sketch001_w0000"
         inkscape:connector-curvature="0" />
      <circle
         id="circle1649"
         style="fill:none;stroke:#ff0000;stroke-width:0.1;stroke-miterlimit:4;stroke-dasharray:none"
         r="10.9"
         cy="19.5"
         cx="-110.5" />
      <circle
         id="circle1651"
         style="fill:none;stroke:#ff0000;stroke-width:0.1;stroke-miterlimit:4;stroke-dasharray:none"
         r="10.9"
         cy="19.5"
         cx="109.5" />
      <circle
         id="circle1653"
         style="fill:none;stroke:#ff0000;stroke-width:0.1;stroke-miterlimit:4;stroke-dasharray:none"
         r="8.1999998"
         cy="19.5"
         cx="-90.5" />
      <circle
         id="circle1655"
         style="fill:none;stroke:#ff0000;stroke-width:0.1;stroke-miterlimit:4;stroke-dasharray:none"
         r="1.75"
         cy="32"
         cx="-90.5" />
      <circle
         id="circle1657"
         style="fill:none;stroke:#ff0000;stroke-width:0.1;stroke-miterlimit:4;stroke-dasharray:none"
         r="1.75"
         cy="7"
         cx="-90.5" />
      <path
         style="fill:none;fill-opacity:1;fill-rule:evenodd;stroke:#ff0000;stroke-width:0.1;stroke-miterlimit:4;stroke-dasharray:none"
         d="m -123.5,31.8 h 2.4 v -5.6 h -2.4 v 5.6"
         id="Sketch001_w0006"
         inkscape:connector-curvature="0" />
      <path
         style="fill:none;fill-opacity:1;fill-rule:evenodd;stroke:#ff0000;stroke-width:0.1;stroke-miterlimit:4;stroke-dasharray:none"
         d="m 120.1,31.8 h 2.4 v -5.6 h -2.4 v 5.6"
         id="Sketch001_w0007"
         inkscape:connector-curvature="0" />
      <path
         style="fill:none;fill-opacity:1;fill-rule:evenodd;stroke:#ff0000;stroke-width:0.1;stroke-miterlimit:4;stroke-dasharray:none"
         d="m 95.65,10.4 h 5.6 V 8 h -5.6 v 2.4"
         id="Sketch001_w0008"
         inkscape:connector-curvature="0" />
      <path
         style="fill:none;fill-opacity:1;fill-rule:evenodd;stroke:#ff0000;stroke-width:0.1;stroke-miterlimit:4;stroke-dasharray:none"
         d="m -101.25,10.4 h 5.6 V 8 h -5.6 v 2.4"
         id="Sketch001_w0009"
         inkscape:connector-curvature="0" />
      <path
         style="fill:none;fill-opacity:1;fill-rule:evenodd;stroke:#ff0000;stroke-width:0.1;stroke-miterlimit:4;stroke-dasharray:none"
         d="m -31.3,10.4 h 5.6 V 8 h -5.6 v 2.4"
         id="Sketch001_w0010"
         inkscape:connector-curvature="0" />
      <path
         style="fill:none;fill-opacity:1;fill-rule:evenodd;stroke:#ff0000;stroke-width:0.1;stroke-miterlimit:4;stroke-dasharray:none"
         d="m 25.7,10.4 h 5.6 V 8 h -5.6 v 2.4"
         id="Sketch001_w0011"
         inkscape:connector-curvature="0" />
      <circle
         id="circle1665"
         style="fill:none;stroke:#ff0000;stroke-width:0.1;stroke-miterlimit:4;stroke-dasharray:none"
         r="1.5"
         cy="7"
         cx="-58.549999" />
      <circle
         id="circle1667"
         style="fill:none;stroke:#ff0000;stroke-width:0.1;stroke-miterlimit:4;stroke-dasharray:none"
         r="1.5"
         cy="7"
         cx="-51.549999" />
      <circle
         id="circle1669"
         style="fill:none;stroke:#ff0000;stroke-width:0.1;stroke-miterlimit:4;stroke-dasharray:none"
         r="1.5"
         cy="18"
         cx="48.299999" />
      <circle
         id="circle1671"
         style="fill:none;stroke:#ff0000;stroke-width:0.1;stroke-miterlimit:4;stroke-dasharray:none"
         r="1.5"
         cy="11"
         cx="48.299999" />
      <title
         id="title1673">b'Sketch001'</title>
    </g>
    <g
       transform="matrix(1,0,0,-1,128.14583,42.072074)"
       id="Sketch003"
       style="stroke:#ff0000;stroke-width:0.1;stroke-miterlimit:4;stroke-dasharray:none">
      <path
         style="fill:none;fill-opacity:1;fill-rule:evenodd;stroke:#ff0000;stroke-width:0.1;stroke-miterlimit:4;stroke-dasharray:none"
         d="m 70.45,37 h 3 V 20 a 3,3 0 0 1 3,-3 h 4 a 3,3 0 0 1 3,3 V 37 H 117 v -2 a 2,2 0 1 1 4,0 2,2 0 1 1 4,0 V 24.5 h 3 v -10 h -3 v -9 a 2.5,2.5 0 1 1 -5,0 V 3 H 90.45 V 0 H 52.5 V 3 H 5 V 8 H -5 V 3 H -52.5 V 0 H -90.45 V 3 H -120 v 5 h -5 V 24.5 35 a 2,2 0 1 1 4,0 2,2 0 1 1 4,0 v 2 h 46.55 V 18.5 h 7.9 V 34 h 3.525 v -3 h 3 v 3 H -52.5 V 22 h 105 v 12 h 3.525 v -3 h 3 v 3 H 62.55 V 18.5 h 7.9 V 37"
         id="Sketch003_w0000"
         inkscape:connector-curvature="0" />
      <circle
         id="circle1703"
         style="fill:none;stroke:#ff0000;stroke-width:0.1;stroke-miterlimit:4;stroke-dasharray:none"
         r="10.9"
         cy="19.5"
         cx="-110" />
      <circle
         id="circle1705"
         style="fill:none;stroke:#ff0000;stroke-width:0.1;stroke-miterlimit:4;stroke-dasharray:none"
         r="10.9"
         cy="19.5"
         cx="110" />
      <circle
         id="circle1707"
         style="fill:none;stroke:#ff0000;stroke-width:0.1;stroke-miterlimit:4;stroke-dasharray:none"
         r="8.1999998"
         cy="19.5"
         cx="-90" />
      <circle
         id="circle1709"
         style="fill:none;stroke:#ff0000;stroke-width:0.1;stroke-miterlimit:4;stroke-dasharray:none"
         r="1.75"
         cy="32"
         cx="-90" />
      <circle
         id="circle1711"
         style="fill:none;stroke:#ff0000;stroke-width:0.1;stroke-miterlimit:4;stroke-dasharray:none"
         r="1.75"
         cy="7"
         cx="-90" />
      <path
         style="fill:none;fill-opacity:1;fill-rule:evenodd;stroke:#ff0000;stroke-width:0.1;stroke-miterlimit:4;stroke-dasharray:none"
         d="m -123,31.8 h 2.4 v -5.6 h -2.4 v 5.6"
         id="Sketch003_w0006"
         inkscape:connector-curvature="0" />
      <path
         style="fill:none;fill-opacity:1;fill-rule:evenodd;stroke:#ff0000;stroke-width:0.1;stroke-miterlimit:4;stroke-dasharray:none"
         d="m 120.6,31.8 h 2.4 v -5.6 h -2.4 v 5.6"
         id="Sketch003_w0007"
         inkscape:connector-curvature="0" />
      <path
         style="fill:none;fill-opacity:1;fill-rule:evenodd;stroke:#ff0000;stroke-width:0.1;stroke-miterlimit:4;stroke-dasharray:none"
         d="m 95.65,10.4 h 5.6 V 8 h -5.6 v 2.4"
         id="Sketch003_w0008"
         inkscape:connector-curvature="0" />
      <path
         style="fill:none;fill-opacity:1;fill-rule:evenodd;stroke:#ff0000;stroke-width:0.1;stroke-miterlimit:4;stroke-dasharray:none"
         d="m -101.25,10.4 h 5.6 V 8 h -5.6 v 2.4"
         id="Sketch003_w0009"
         inkscape:connector-curvature="0" />
      <path
         style="fill:none;fill-opacity:1;fill-rule:evenodd;stroke:#ff0000;stroke-width:0.1;stroke-miterlimit:4;stroke-dasharray:none"
         d="m -31.3,10.4 h 5.6 V 8 h -5.6 v 2.4"
         id="Sketch003_w0010"
         inkscape:connector-curvature="0" />
      <path
         style="fill:none;fill-opacity:1;fill-rule:evenodd;stroke:#ff0000;stroke-width:0.1;stroke-miterlimit:4;stroke-dasharray:none"
         d="m 25.7,10.4 h 5.6 V 8 h -5.6 v 2.4"
         id="Sketch003_w0011"
         inkscape:connector-curvature="0" />
      <circle
         id="circle1719"
         style="fill:none;stroke:#ff0000;stroke-width:0.1;stroke-miterlimit:4;stroke-dasharray:none"
         r="1.5"
         cy="7"
         cx="-58.549999" />
      <circle
         id="circle1721"
         style="fill:none;stroke:#ff0000;stroke-width:0.1;stroke-miterlimit:4;stroke-dasharray:none"
         r="1.5"
         cy="7"
         cx="-51.549999" />
      <circle
         id="circle1723"
         style="fill:none;stroke:#ff0000;stroke-width:0.1;stroke-miterlimit:4;stroke-dasharray:none"
         r="1.5"
         cy="18"
         cx="48.299999" />
      <circle
         id="circle1725"
         style="fill:none;stroke:#ff0000;stroke-width:0.1;stroke-miterlimit:4;stroke-dasharray:none"
         r="1.5"
         cy="11"
         cx="48.299999" />
      <title
         id="title1727">b'Sketch003'</title>
    </g>
    <g
       id="g1790"
       transform="matrix(1,0,0,-1,180.14583,161.79708)"
       style="stroke:#ff0000;stroke-width:0.1;stroke-miterlimit:4;stroke-dasharray:none">
      <path
         inkscape:connector-curvature="0"
         id="path1756"
         d="M 131.95,37 H 166 v -2 a 2,2 0 0 1 4,0 2,2 0 1 1 4,0 V 24.5 h 3 v -10 h -3 V 8.4999997 A 2.5,2.5 0 1 1 169,8.5 V 3 H 138.95 V 0 h -20 v 18.5 h -7.9 V 0 H 101 V 3 H 5 V 8 H -5 V 3 h -96 V 0 h -10.05 v 18.5 h -7.9 V 0 h -20 V 3 H -169 v 5.5 a 2.5,2.5 0 0 1 -5,0 v 6 h -3 v 10 h 3 V 35 a 2,2 0 1 1 4,0 2,2 0 0 1 4,0 v 2 h 47.05 V 34 H -101 V 22.5 H 101 V 34 h 17.95 v 3 h 3 V 20.5 a 3,3 0 0 1 3,-3 h 4 a 3,3 0 0 1 3,3 V 37"
         style="fill:none;fill-opacity:1;fill-rule:evenodd;stroke:#ff0000;stroke-width:0.1;stroke-miterlimit:4;stroke-dasharray:none" />
      <circle
         cx="-159"
         cy="20"
         r="10.9"
         style="fill:none;stroke:#ff0000;stroke-width:0.1;stroke-miterlimit:4;stroke-dasharray:none"
         id="circle1758" />
      <circle
         cx="159"
         cy="20"
         r="10.9"
         style="fill:none;stroke:#ff0000;stroke-width:0.1;stroke-miterlimit:4;stroke-dasharray:none"
         id="circle1760" />
      <circle
         cx="-139"
         cy="20"
         r="8.1999998"
         style="fill:none;stroke:#ff0000;stroke-width:0.1;stroke-miterlimit:4;stroke-dasharray:none"
         id="circle1762" />
      <circle
         cx="-139"
         cy="7.5"
         r="1.7"
         style="fill:none;stroke:#ff0000;stroke-width:0.1;stroke-miterlimit:4;stroke-dasharray:none"
         id="circle1764" />
      <circle
         cx="-139"
         cy="32.5"
         r="1.7"
         style="fill:none;stroke:#ff0000;stroke-width:0.1;stroke-miterlimit:4;stroke-dasharray:none"
         id="circle1766" />
      <path
         inkscape:connector-curvature="0"
         id="path1768"
         d="m 169.6,31.8 h 2.4 v -5.6 h -2.4 v 5.6"
         style="fill:none;fill-opacity:1;fill-rule:evenodd;stroke:#ff0000;stroke-width:0.1;stroke-miterlimit:4;stroke-dasharray:none" />
      <path
         inkscape:connector-curvature="0"
         id="path1770"
         d="m -172,31.8 h 2.4 v -5.6 h -2.4 v 5.6"
         style="fill:none;fill-opacity:1;fill-rule:evenodd;stroke:#ff0000;stroke-width:0.1;stroke-miterlimit:4;stroke-dasharray:none" />
      <path
         inkscape:connector-curvature="0"
         id="path1772"
         d="m 144.15,10.4 h 5.6 V 8 h -5.6 v 2.4"
         style="fill:none;fill-opacity:1;fill-rule:evenodd;stroke:#ff0000;stroke-width:0.1;stroke-miterlimit:4;stroke-dasharray:none" />
      <path
         inkscape:connector-curvature="0"
         id="path1774"
         d="m 74.2,10.4 h 5.6 V 8 h -5.6 v 2.4"
         style="fill:none;fill-opacity:1;fill-rule:evenodd;stroke:#ff0000;stroke-width:0.1;stroke-miterlimit:4;stroke-dasharray:none" />
      <path
         inkscape:connector-curvature="0"
         id="path1776"
         d="m -79.8,10.4 h 5.6 V 8 h -5.6 v 2.4"
         style="fill:none;fill-opacity:1;fill-rule:evenodd;stroke:#ff0000;stroke-width:0.1;stroke-miterlimit:4;stroke-dasharray:none" />
      <path
         inkscape:connector-curvature="0"
         id="path1778"
         d="m -149.75,10.4 h 5.6 V 8 h -5.6 v 2.4"
         style="fill:none;fill-opacity:1;fill-rule:evenodd;stroke:#ff0000;stroke-width:0.1;stroke-miterlimit:4;stroke-dasharray:none" />
      <circle
         cx="-107.05"
         cy="7.5"
         r="1.45"
         style="fill:none;stroke:#ff0000;stroke-width:0.1;stroke-miterlimit:4;stroke-dasharray:none"
         id="circle1780" />
      <circle
         cx="-100.05"
         cy="7.5"
         r="1.45"
         style="fill:none;stroke:#ff0000;stroke-width:0.1;stroke-miterlimit:4;stroke-dasharray:none"
         id="circle1782" />
      <circle
         cx="96.800003"
         cy="18.5"
         r="1.45"
         style="fill:none;stroke:#ff0000;stroke-width:0.1;stroke-miterlimit:4;stroke-dasharray:none"
         id="circle1784" />
      <circle
         cx="96.800003"
         cy="11.5"
         r="1.45"
         style="fill:none;stroke:#ff0000;stroke-width:0.1;stroke-miterlimit:4;stroke-dasharray:none"
         id="circle1786" />
      <title
         id="title1788">b'Sketch'</title>
    </g>
  </g>
</svg>
