<?xml version="1.0" encoding="UTF-8" standalone="no"?>
<!-- Created with Inkscape (http://www.inkscape.org/) -->

<svg
   xmlns:dc="http://purl.org/dc/elements/1.1/"
   xmlns:cc="http://creativecommons.org/ns#"
   xmlns:rdf="http://www.w3.org/1999/02/22-rdf-syntax-ns#"
   xmlns:svg="http://www.w3.org/2000/svg"
   xmlns="http://www.w3.org/2000/svg"
   xmlns:sodipodi="http://sodipodi.sourceforge.net/DTD/sodipodi-0.dtd"
   xmlns:inkscape="http://www.inkscape.org/namespaces/inkscape"
   width="210mm"
   height="297mm"
   viewBox="0 0 210 297"
   version="1.1"
   id="svg1119"
   inkscape:version="0.92.5 (2060ec1f9f, 2020-04-08)"
   sodipodi:docname="ri_parm_small-parts-fat-nuts.svg">
  <defs
     id="defs1113" />
  <sodipodi:namedview
     id="base"
     pagecolor="#ffffff"
     bordercolor="#666666"
     borderopacity="1.0"
     inkscape:pageopacity="0.0"
     inkscape:pageshadow="2"
     inkscape:zoom="0.7"
     inkscape:cx="540.82602"
     inkscape:cy="589.99752"
     inkscape:document-units="mm"
     inkscape:current-layer="layer1"
     showgrid="false"
     inkscape:window-width="1920"
     inkscape:window-height="1016"
     inkscape:window-x="0"
     inkscape:window-y="27"
     inkscape:window-maximized="1" />
  <metadata
     id="metadata1116">
    <rdf:RDF>
      <cc:Work
         rdf:about="">
        <dc:format>image/svg+xml</dc:format>
        <dc:type
           rdf:resource="http://purl.org/dc/dcmitype/StillImage" />
        <dc:title></dc:title>
      </cc:Work>
    </rdf:RDF>
  </metadata>
  <g
     inkscape:label="Layer 1"
     inkscape:groupmode="layer"
     id="layer1">
    <g
       id="g1092"
       transform="translate(139.36455,-83.840934)"
       style="stroke:#ff0000;stroke-width:0.1;stroke-miterlimit:4;stroke-dasharray:none">
      <path
         style="fill:none;fill-opacity:1;fill-rule:evenodd;stroke:#ff0000;stroke-width:0.1;stroke-miterlimit:4;stroke-dasharray:none"
         d="m -25.562042,112.78028 v 3 h -3 v 7 h -31 v -7 h -3 v -3 h 37"
         id="Sketch002_w0000"
         inkscape:connector-curvature="0" />
      <path
         style="fill:none;fill-opacity:1;fill-rule:evenodd;stroke:#ff0000;stroke-width:0.1;stroke-miterlimit:4;stroke-dasharray:none"
         d="m -54.562042,115.78028 2.400001,-1e-5 v 5.6 l -2.400001,1e-5 v -5.6"
         id="Sketch002_w0002"
         inkscape:connector-curvature="0"
         sodipodi:nodetypes="ccccc" />
      <path
         sodipodi:nodetypes="ccccc"
         inkscape:connector-curvature="0"
         id="path1073"
         d="m -35.962043,115.78029 2.400001,-10e-6 v 5.6 l -2.400001,1e-5 v -5.6"
         style="fill:none;fill-opacity:1;fill-rule:evenodd;stroke:#ff0000;stroke-width:0.1;stroke-miterlimit:4;stroke-dasharray:none" />
    </g>
    <g
       id="g1087"
       transform="translate(185.23412,-90.510793)"
       style="stroke:#ff0000;stroke-width:0.1;stroke-miterlimit:4;stroke-dasharray:none">
      <path
         style="fill:none;fill-opacity:1;fill-rule:evenodd;stroke:#ff0000;stroke-width:0.1;stroke-miterlimit:4;stroke-dasharray:none"
         d="m -21.28573,132.32097 h -10.5 v -3 h -3 v 3 h -23.5 v 3 h 3 v 7 h 31 v -7 h 3 v -3"
         id="Sketch001_w0000"
         inkscape:connector-curvature="0" />
      <path
         style="fill:none;fill-opacity:1;fill-rule:evenodd;stroke:#ff0000;stroke-width:0.1;stroke-miterlimit:4;stroke-dasharray:none"
         d="m -50.28573,135.32097 2.400001,-10e-6 v 5.6 l -2.400001,1e-5 v -5.6"
         id="path1075"
         inkscape:connector-curvature="0"
         sodipodi:nodetypes="ccccc" />
      <path
         sodipodi:nodetypes="ccccc"
         inkscape:connector-curvature="0"
         id="path1081"
         d="m -26.18574,136.62096 10e-6,2.40001 h -5.599999 l -1.1e-5,-2.40001 h 5.6"
         style="fill:none;fill-opacity:1;fill-rule:evenodd;stroke:#ff0000;stroke-width:0.1;stroke-miterlimit:4;stroke-dasharray:none" />
    </g>
    <g
       transform="matrix(1,0,0,-1,147.60742,38.81018)"
       id="Sketch"
       style="stroke:#ff0000;stroke-width:0.1;stroke-miterlimit:4;stroke-dasharray:none">
      <path
         style="fill:none;fill-opacity:1;fill-rule:evenodd;stroke:#ff0000;stroke-width:0.1;stroke-miterlimit:4;stroke-dasharray:none"
         d="m -5.3340473,0 h 4.99999998 V 3 H 27.4 V 0 h 5 V 37 H 5.0897987e-6 A 12.4,12.4 0 0 1 -11.6522,20.3589 L -5.3340473,3 V 0"
         id="Sketch_w0000"
         inkscape:connector-curvature="0" />
      <path
         style="fill:none;fill-opacity:1;fill-rule:evenodd;stroke:#ff0000;stroke-width:0.1;stroke-miterlimit:4;stroke-dasharray:none"
         d="m 10.732976,9 h 5.6 V 6.6 h -5.6 V 9"
         id="Sketch_w0001"
         inkscape:connector-curvature="0" />
      <circle
         id="circle1802"
         style="fill:none;stroke:#ff0000;stroke-width:0.1;stroke-miterlimit:4;stroke-dasharray:none"
         r="7.4000001"
         cy="24.6"
         cx="0" />
      <circle
         id="circle1804"
         style="fill:none;stroke:#ff0000;stroke-width:0.1;stroke-miterlimit:4;stroke-dasharray:none"
         r="1.25"
         cy="27.5"
         cx="16.9" />
      <circle
         id="circle1806"
         style="fill:none;stroke:#ff0000;stroke-width:0.1;stroke-miterlimit:4;stroke-dasharray:none"
         r="1.25"
         cy="27.5"
         cx="26.4" />
      <title
         id="title1808">b'Sketch'</title>
    </g>
    <g
       transform="matrix(1,0,0,-1,67.498312,32.81018)"
       id="Sketch-7"
       style="stroke:#ff0000;stroke-width:0.1;stroke-miterlimit:4;stroke-dasharray:none">
      <path
         style="fill:none;fill-opacity:1;fill-rule:evenodd;stroke:#ff0000;stroke-width:0.1;stroke-miterlimit:4;stroke-dasharray:none"
         d="m -55.25,0 h -7 v -3 h -3 v 34 h 10 V 25 H -30.5 V 24.5 H -30 V 25 h 26 v -2 h 8 v 2 h 26 v -0.5 h 0.5 V 25 h 24.75 v 6 h 10 V -3 h -3 v 3 h -7 V 21 H -55.25 V 0"
         id="Sketch_w0000-5"
         inkscape:connector-curvature="0" />
      <path
         style="fill:none;fill-opacity:1;fill-rule:evenodd;stroke:#ff0000;stroke-width:0.1;stroke-miterlimit:4;stroke-dasharray:none"
         d="m 56.65,5 h 5.6 v 2.4 h -5.6 V 5"
         id="Sketch_w0001-3"
         inkscape:connector-curvature="0" />
      <path
         style="fill:none;fill-opacity:1;fill-rule:evenodd;stroke:#ff0000;stroke-width:0.1;stroke-miterlimit:4;stroke-dasharray:none"
         d="m -62.25,5 h 5.6 v 2.4 h -5.6 V 5"
         id="Sketch_w0002"
         inkscape:connector-curvature="0" />
      <title
         id="title1829">b'Sketch'</title>
    </g>
    <g
       transform="matrix(0.99999999,0,0,-0.99999999,50.848315,37.939346)"
       id="Sketch-5"
       style="stroke:#ff0000;stroke-width:0.1;stroke-miterlimit:4;stroke-dasharray:none">
      <path
         style="fill:none;fill-opacity:1;fill-rule:evenodd;stroke:#ff0000;stroke-width:0.1;stroke-miterlimit:4;stroke-dasharray:none"
         d="M 10.5,2.5 V 0 h 8.75 v -3 h 3 V 9 h -8 V 7 h -33.5 v 3 h -3 V -3 h 3 v 3 h 8.75 v 2.5 a 2.5,2.5 0 0 0 5,0 V 0 h 3 v 2.5 a 2.5,2.5 0 0 0 5,0 V 0 h 3 v 2.5 a 2.5,2.5 0 0 0 5,0"
         id="Sketch_w0000-6"
         inkscape:connector-curvature="0" />
      <path
         style="fill:none;fill-opacity:1;fill-rule:evenodd;stroke:#ff0000;stroke-width:0.1;stroke-miterlimit:4;stroke-dasharray:none"
         d="m -19.25,5.4 h 5.6 V 3 h -5.6 v 2.4"
         id="Sketch_w0001-2"
         inkscape:connector-curvature="0" />
      <path
         style="fill:none;fill-opacity:1;fill-rule:evenodd;stroke:#ff0000;stroke-width:0.1;stroke-miterlimit:4;stroke-dasharray:none"
         d="m 13.65,5.4 h 5.6 V 3 h -5.6 v 2.4"
         id="Sketch_w0002-9"
         inkscape:connector-curvature="0" />
      <title
         id="title1848">b'Sketch'</title>
    </g>
    <g
       transform="matrix(0.99999992,0,0,-0.99999992,60.144143,45.456013)"
       id="Sketch001"
       style="stroke:#ff0000;stroke-width:0.10000001;stroke-miterlimit:4;stroke-dasharray:none">
      <path
         style="fill:none;fill-opacity:1;fill-rule:evenodd;stroke:#ff0000;stroke-width:0.10000001;stroke-miterlimit:4;stroke-dasharray:none"
         d="m -35.25,21 h -2.5 a 2.5,2.5 0 0 1 0,-5 h 2.5 v -0.6 h -2.5 a 2.5,2.5 0 1 1 0,-5 h 2.5 V 0 h -7 v -3 h -3 v 34 h 10 v -6 h 60 v 6 h 10.5 v -7 h 3 v -3 h -3 H 4 v 2 h -8 v -2 h -31.25"
         id="Sketch001_w0000-1"
         inkscape:connector-curvature="0" />
      <path
         style="fill:none;fill-opacity:1;fill-rule:evenodd;stroke:#ff0000;stroke-width:0.10000001;stroke-miterlimit:4;stroke-dasharray:none"
         d="m 27.85,29.6 h 2.4 V 24 h -2.4 v 5.6"
         id="Sketch001_w0001"
         inkscape:connector-curvature="0" />
      <path
         style="fill:none;fill-opacity:1;fill-rule:evenodd;stroke:#ff0000;stroke-width:0.10000001;stroke-miterlimit:4;stroke-dasharray:none"
         d="m -42.25,7.4 h 5.6 V 5 h -5.6 v 2.4"
         id="Sketch001_w0002"
         inkscape:connector-curvature="0" />
      <title
         id="title1867">b'Sketch001'</title>
    </g>
    <g
       id="g1895"
       transform="rotate(-180,107.87586,19.40509)"
       style="stroke:#ff0000;stroke-width:0.1;stroke-miterlimit:4;stroke-dasharray:none">
      <path
         inkscape:connector-curvature="0"
         id="path1883"
         d="m -5.3340473,0 h 4.99999998 V 3 H 27.4 V 0 h 5 V 37 H 5.0897987e-6 A 12.4,12.4 0 0 1 -11.6522,20.3589 L -5.3340473,3 V 0"
         style="fill:none;fill-opacity:1;fill-rule:evenodd;stroke:#ff0000;stroke-width:0.1;stroke-miterlimit:4;stroke-dasharray:none" />
      <path
         inkscape:connector-curvature="0"
         id="path1885"
         d="m 10.732976,9 h 5.6 V 6.6 h -5.6 V 9"
         style="fill:none;fill-opacity:1;fill-rule:evenodd;stroke:#ff0000;stroke-width:0.1;stroke-miterlimit:4;stroke-dasharray:none" />
      <circle
         cx="0"
         cy="24.6"
         r="7.4000001"
         style="fill:none;stroke:#ff0000;stroke-width:0.1;stroke-miterlimit:4;stroke-dasharray:none"
         id="circle1887" />
      <circle
         cx="16.9"
         cy="27.5"
         r="1.25"
         style="fill:none;stroke:#ff0000;stroke-width:0.1;stroke-miterlimit:4;stroke-dasharray:none"
         id="circle1889" />
      <circle
         cx="26.4"
         cy="27.5"
         r="1.25"
         style="fill:none;stroke:#ff0000;stroke-width:0.1;stroke-miterlimit:4;stroke-dasharray:none"
         id="circle1891" />
      <title
         id="title1893">b'Sketch'</title>
    </g>
    <g
       style="stroke:#ff0000;stroke-width:0.1;stroke-miterlimit:4;stroke-dasharray:none"
       transform="translate(139.36455,-70.611759)"
       id="g1911">
      <path
         inkscape:connector-curvature="0"
         id="path1905"
         d="m -25.562042,112.78028 v 3 h -3 v 7 h -31 v -7 h -3 v -3 h 37"
         style="fill:none;fill-opacity:1;fill-rule:evenodd;stroke:#ff0000;stroke-width:0.1;stroke-miterlimit:4;stroke-dasharray:none" />
      <path
         sodipodi:nodetypes="ccccc"
         inkscape:connector-curvature="0"
         id="path1907"
         d="m -54.562042,115.78028 2.400001,-1e-5 v 5.6 l -2.400001,1e-5 v -5.6"
         style="fill:none;fill-opacity:1;fill-rule:evenodd;stroke:#ff0000;stroke-width:0.1;stroke-miterlimit:4;stroke-dasharray:none" />
      <path
         style="fill:none;fill-opacity:1;fill-rule:evenodd;stroke:#ff0000;stroke-width:0.1;stroke-miterlimit:4;stroke-dasharray:none"
         d="m -35.962043,115.78029 2.400001,-10e-6 v 5.6 l -2.400001,1e-5 v -5.6"
         id="path1909"
         inkscape:connector-curvature="0"
         sodipodi:nodetypes="ccccc" />
    </g>
    <g
       style="stroke:#ff0000;stroke-width:0.1;stroke-miterlimit:4;stroke-dasharray:none"
       transform="translate(225.97997,-90.510793)"
       id="g1919">
      <path
         inkscape:connector-curvature="0"
         id="path1913"
         d="m -21.28573,132.32097 h -10.5 v -3 h -3 v 3 h -23.5 v 3 h 3 v 7 h 31 v -7 h 3 v -3"
         style="fill:none;fill-opacity:1;fill-rule:evenodd;stroke:#ff0000;stroke-width:0.1;stroke-miterlimit:4;stroke-dasharray:none" />
      <path
         sodipodi:nodetypes="ccccc"
         inkscape:connector-curvature="0"
         id="path1915"
         d="m -50.28573,135.32097 2.400001,-10e-6 v 5.6 l -2.400001,1e-5 v -5.6"
         style="fill:none;fill-opacity:1;fill-rule:evenodd;stroke:#ff0000;stroke-width:0.1;stroke-miterlimit:4;stroke-dasharray:none" />
      <path
         style="fill:none;fill-opacity:1;fill-rule:evenodd;stroke:#ff0000;stroke-width:0.1;stroke-miterlimit:4;stroke-dasharray:none"
         d="m -26.18574,136.62096 10e-6,2.40001 h -5.599999 l -1.1e-5,-2.40001 h 5.6"
         id="path1917"
         inkscape:connector-curvature="0"
         sodipodi:nodetypes="ccccc" />
    </g>
    <g
       transform="matrix(1,0,0,-1,603.21083,41.728074)"
       id="Sketch009"
       style="stroke:#ff0000;stroke-width:0.1;stroke-miterlimit:4;stroke-dasharray:none">
      <path
         style="fill:none;fill-opacity:1;fill-rule:evenodd;stroke:#ff0000;stroke-width:0.1;stroke-miterlimit:4;stroke-dasharray:none"
         d="M -353.68688,32.943701 -352.6,37 v 3 h -5 v -3 h -10 v 3 h -5 V 5.9178937 L -361.71027,3 l 5.95284,22.216294 -2.89778,0.776457 2.07055,7.727407 2.89778,-0.776457"
         id="Sketch009_w0000"
         inkscape:connector-curvature="0" />
      <path
         style="fill:none;fill-opacity:1;fill-rule:evenodd;stroke:#ff0000;stroke-width:0.1;stroke-miterlimit:4;stroke-dasharray:none"
         d="m -365.4,33.4 h 5.6 V 31 h -5.6 v 2.4"
         id="Sketch009_w0001"
         inkscape:connector-curvature="0" />
      <path
         style="fill:none;fill-opacity:1;fill-rule:evenodd;stroke:#ff0000;stroke-width:0.1;stroke-miterlimit:4;stroke-dasharray:none"
         d="m -362.71303,26.303583 1.93185,-0.517638 -1.16468,-4.346666 -1.93186,0.517638 1.16469,4.346666"
         id="Sketch009_w0002"
         inkscape:connector-curvature="0" />
      <path
         style="fill:none;fill-opacity:1;fill-rule:evenodd;stroke:#ff0000;stroke-width:0.1;stroke-miterlimit:4;stroke-dasharray:none"
         d="m -365.94827,14.22951 1.93185,-0.517638 -1.16468,-4.3466662 -1.93185,0.5176381 1.16468,4.3466661"
         id="Sketch009_w0003"
         inkscape:connector-curvature="0" />
      <title
         id="title1994">b'Sketch009'</title>
    </g>
    <g
       id="g2021"
       transform="matrix(1,0,0,-1,626.38585,41.728074)"
       style="stroke:#ff0000;stroke-width:0.1;stroke-miterlimit:4;stroke-dasharray:none">
      <path
         inkscape:connector-curvature="0"
         id="path2011"
         d="M -353.68688,32.943701 -352.6,37 v 3 h -5 v -3 h -10 v 3 h -5 V 5.9178937 L -361.71027,3 l 5.95284,22.216294 -2.89778,0.776457 2.07055,7.727407 2.89778,-0.776457"
         style="fill:none;fill-opacity:1;fill-rule:evenodd;stroke:#ff0000;stroke-width:0.1;stroke-miterlimit:4;stroke-dasharray:none" />
      <path
         inkscape:connector-curvature="0"
         id="path2013"
         d="m -365.4,33.4 h 5.6 V 31 h -5.6 v 2.4"
         style="fill:none;fill-opacity:1;fill-rule:evenodd;stroke:#ff0000;stroke-width:0.1;stroke-miterlimit:4;stroke-dasharray:none" />
      <path
         inkscape:connector-curvature="0"
         id="path2015"
         d="m -362.71303,26.303583 1.93185,-0.517638 -1.16468,-4.346666 -1.93186,0.517638 1.16469,4.346666"
         style="fill:none;fill-opacity:1;fill-rule:evenodd;stroke:#ff0000;stroke-width:0.1;stroke-miterlimit:4;stroke-dasharray:none" />
      <path
         inkscape:connector-curvature="0"
         id="path2017"
         d="m -365.94827,14.22951 1.93185,-0.517638 -1.16468,-4.3466662 -1.93185,0.5176381 1.16468,4.3466661"
         style="fill:none;fill-opacity:1;fill-rule:evenodd;stroke:#ff0000;stroke-width:0.1;stroke-miterlimit:4;stroke-dasharray:none" />
      <title
         id="title2019">b'Sketch009'</title>
    </g>
  </g>
</svg>
