<?xml version="1.0"?>
<!DOCTYPE svg PUBLIC "-//W3C//DTD SVG 1.1//EN" "http://www.w3.org/Graphics/SVG/1.1/DTD/svg11.dtd">
<svg width="258.0599999999997mm" height="42.05999999999999mm" viewBox="0 0 258.0599999999997 42.05999999999999" xmlns="http://www.w3.org/2000/svg" version="1.1">
<g id="Sketch001" transform="translate(131.030000,39.530000) scale(1,-1)">
<path id="Sketch001_w0000"  d="M 70.45 37.0 L 73.45 37.0 L 73.45 20.000000000000014 A 3 3 0 0 1 76.45 17L 80.45 17.000000000000014 A 3 3 0 0 1 83.45 20L 83.45 37.0 L 116.49999999999999 37.0 L 116.49999999999999 34.99999999999975 A 2 2 0 0 1 120.5 35A 2 2 0 0 1 124.5 35L 124.49999999999999 24.499999999999883 L 124.49999999999999 11.0 L 120.49999999999999 11.0 L 120.49999999999999 3.0 L 90.45 3.0 L 90.45 0.0 L 52.500000000000014 0.0 L 52.500000000000014 3.0 L 4.999999999999999 2.9999999999999996 L 5.0 8.0 L -5.0 8.0 L -5.0 2.9999999999999996 L -52.500000000000014 2.9999999999999996 L -52.500000000000014 1.0452406994178406e-28 L -90.45 0.0 L -90.45 3.0 L -120.49999999999999 3.0 L -120.49999999999999 5.5 A 2.5 2.5 0 1 1 -125.5 5.5L -125.5 14.500000000000004 L -128.49999999999974 14.500000000000004 L -128.49999999999974 24.500000000000004 L -125.49999999999974 24.500000000000004 L -125.49999999999974 35.0 A 2 2 0 0 1 -121.5 35A 2 2 0 0 1 -117.5 35L -117.49999999999974 37.0 L -70.45 37.0 L -70.45 18.500000000000004 L -62.550000000000004 18.500000000000004 L -62.550000000000004 34.0 L -59.025 34.0 L -59.025 31.000000000000004 L -56.025 31.000000000000004 L -56.025 34.0 L -52.49999999999999 34.0 L -52.49999999999999 22.000000000000004 L 52.50000000000001 22.000000000000004 L 52.50000000000001 34.0 L 56.025000000000006 34.0 L 56.025000000000006 31.000000000000004 L 59.025000000000006 31.000000000000004 L 59.025000000000006 34.0 L 62.550000000000004 34.0 L 62.550000000000004 18.500000000000004 L 70.45 18.500000000000004 L 70.45 37.0 " stroke="#000000" stroke-width="0.35 px" style="stroke-width:0.35;stroke-miterlimit:4;stroke-dasharray:none;fill:none;fill-opacity:1;fill-rule: evenodd"/>
<circle cx="-110.49999999999976" cy="19.499999999999883" r="10.9" stroke="#000000" stroke-width="0.35 px" style="stroke-width:0.35;stroke-miterlimit:4;stroke-dasharray:none;fill:none"/>
<circle cx="109.49999999999999" cy="19.499999999999883" r="10.9" stroke="#000000" stroke-width="0.35 px" style="stroke-width:0.35;stroke-miterlimit:4;stroke-dasharray:none;fill:none"/>
<circle cx="-90.49999999999976" cy="19.499999999999883" r="8.2" stroke="#000000" stroke-width="0.35 px" style="stroke-width:0.35;stroke-miterlimit:4;stroke-dasharray:none;fill:none"/>
<circle cx="-90.49999999999976" cy="31.999999999999883" r="1.75" stroke="#000000" stroke-width="0.35 px" style="stroke-width:0.35;stroke-miterlimit:4;stroke-dasharray:none;fill:none"/>
<circle cx="-90.49999999999974" cy="6.999999999999882" r="1.75" stroke="#000000" stroke-width="0.35 px" style="stroke-width:0.35;stroke-miterlimit:4;stroke-dasharray:none;fill:none"/>
<path id="Sketch001_w0006"  d="M -123.49999999999976 31.800000000000004 L -121.09999999999975 31.800000000000004 L -121.09999999999975 26.200000000000003 L -123.49999999999976 26.200000000000003 L -123.49999999999976 31.800000000000004 " stroke="#000000" stroke-width="0.35 px" style="stroke-width:0.35;stroke-miterlimit:4;stroke-dasharray:none;fill:none;fill-opacity:1;fill-rule: evenodd"/>
<path id="Sketch001_w0007"  d="M 120.09999999999998 31.799999999998114 L 122.49999999999999 31.799999999998114 L 122.49999999999999 26.20000000000165 L 120.09999999999998 26.20000000000165 L 120.09999999999998 31.799999999998114 " stroke="#000000" stroke-width="0.35 px" style="stroke-width:0.35;stroke-miterlimit:4;stroke-dasharray:none;fill:none;fill-opacity:1;fill-rule: evenodd"/>
<path id="Sketch001_w0008"  d="M 95.65000000000148 10.4 L 101.24999999999852 10.4 L 101.24999999999852 8.0 L 95.65000000000148 8.0 L 95.65000000000148 10.4 " stroke="#000000" stroke-width="0.35 px" style="stroke-width:0.35;stroke-miterlimit:4;stroke-dasharray:none;fill:none;fill-opacity:1;fill-rule: evenodd"/>
<path id="Sketch001_w0009"  d="M -101.25000000000945 10.4 L -95.64999999999056 10.4 L -95.64999999999056 8.0 L -101.25000000000945 8.0 L -101.25000000000945 10.4 " stroke="#000000" stroke-width="0.35 px" style="stroke-width:0.35;stroke-miterlimit:4;stroke-dasharray:none;fill:none;fill-opacity:1;fill-rule: evenodd"/>
<path id="Sketch001_w0010"  d="M -31.300000000020386 10.399999999999999 L -25.699999999979642 10.399999999999999 L -25.699999999979642 7.999999999999998 L -31.300000000020386 7.999999999999998 L -31.300000000020386 10.399999999999999 " stroke="#000000" stroke-width="0.35 px" style="stroke-width:0.35;stroke-miterlimit:4;stroke-dasharray:none;fill:none;fill-opacity:1;fill-rule: evenodd"/>
<path id="Sketch001_w0011"  d="M 25.69999999997914 10.4 L 31.300000000020884 10.4 L 31.300000000020884 8.0 L 25.69999999997914 8.0 L 25.69999999997914 10.4 " stroke="#000000" stroke-width="0.35 px" style="stroke-width:0.35;stroke-miterlimit:4;stroke-dasharray:none;fill:none;fill-opacity:1;fill-rule: evenodd"/>
<circle cx="-58.550000000000004" cy="7.000000000000004" r="1.5" stroke="#000000" stroke-width="0.35 px" style="stroke-width:0.35;stroke-miterlimit:4;stroke-dasharray:none;fill:none"/>
<circle cx="-51.550000000000004" cy="7.000000000000016" r="1.5" stroke="#000000" stroke-width="0.35 px" style="stroke-width:0.35;stroke-miterlimit:4;stroke-dasharray:none;fill:none"/>
<circle cx="48.3" cy="18.000000000000004" r="1.5" stroke="#000000" stroke-width="0.35 px" style="stroke-width:0.35;stroke-miterlimit:4;stroke-dasharray:none;fill:none"/>
<circle cx="48.300000000000004" cy="11.000000000000004" r="1.5" stroke="#000000" stroke-width="0.35 px" style="stroke-width:0.35;stroke-miterlimit:4;stroke-dasharray:none;fill:none"/>
<title>b'Sketch001'</title>
</g>
</svg>