<?xml version="1.0"?>
<!DOCTYPE svg PUBLIC "-//W3C//DTD SVG 1.1//EN" "http://www.w3.org/Graphics/SVG/1.1/DTD/svg11.dtd">
<svg width="20.399999999999977mm" height="37.400000000000006mm" viewBox="0 0 20.399999999999977 37.400000000000006" xmlns="http://www.w3.org/2000/svg" version="1.1">
<g id="Sketch009" transform="translate(372.800000,40.200000) scale(1,-1)">
<path id="Sketch009_w0000"  d="M -353.68688214448 32.94370061496112 L -352.6 37.0 L -352.6 40.0 L -357.6 40.0 L -357.6 37.0 L -367.6 37.0 L -367.6 40.0 L -372.6 40.0 L -372.6 5.917893677989767 L -361.7102725426582 2.9999999999999996 L -355.7574345053002 25.21629400464857 L -358.6552119841674 25.99275113995613 L -356.58465962334725 33.720157750268676 L -353.68688214448 32.94370061496112 " stroke="#0f2873" stroke-width="0.35 px" style="stroke-width:0.35;stroke-miterlimit:4;stroke-dasharray:none;fill:none;fill-opacity:1;fill-rule: evenodd"/>
<path id="Sketch009_w0001"  d="M -365.40000000000003 33.40000000000005 L -359.8 33.40000000000005 L -359.8 31.00000000000005 L -365.40000000000003 31.00000000000005 L -365.40000000000003 33.40000000000005 " stroke="#0f2873" stroke-width="0.35 px" style="stroke-width:0.35;stroke-miterlimit:4;stroke-dasharray:none;fill:none;fill-opacity:1;fill-rule: evenodd"/>
<path id="Sketch009_w0002"  d="M -362.7130295731507 26.303582950649453 L -360.7811779205726 25.78594486044441 L -361.9458636235339 21.439278642143606 L -363.87771527611204 21.956916732348645 L -362.7130295731507 26.303582950649453 " stroke="#0f2873" stroke-width="0.35 px" style="stroke-width:0.35;stroke-miterlimit:4;stroke-dasharray:none;fill:none;fill-opacity:1;fill-rule: evenodd"/>
<path id="Sketch009_w0003"  d="M -365.94826763693214 14.229510122036073 L -364.01641598435396 13.711872031831032 L -365.18110168731533 9.365205813530224 L -367.11295333989347 9.882843903735266 L -365.94826763693214 14.229510122036073 " stroke="#0f2873" stroke-width="0.35 px" style="stroke-width:0.35;stroke-miterlimit:4;stroke-dasharray:none;fill:none;fill-opacity:1;fill-rule: evenodd"/>
<title>b'Sketch009'</title>
</g>
</svg>