<?xml version="1.0"?>
<!DOCTYPE svg PUBLIC "-//W3C//DTD SVG 1.1//EN" "http://www.w3.org/Graphics/SVG/1.1/DTD/svg11.dtd">
<svg width="258.05999999999995mm" height="42.060000000003136mm" viewBox="0 0 258.05999999999995 42.060000000003136" xmlns="http://www.w3.org/2000/svg" version="1.1">
<g id="Sketch003" transform="translate(127.530000,39.530000) scale(1,-1)">
<path id="Sketch003_w0000"  d="M 70.45000000000157 36.99999999999686 L 73.45000000000157 36.99999999999686 L 73.45000000000157 19.999999999997378 A 3 3 0 0 1 76.45 17L 80.45000000000157 16.999999999997378 A 3 3 0 0 1 83.45 20L 83.45000000000157 37.00000000000313 L 116.99999999999996 37.00000000000313 L 116.99999999999996 35.00000000000313 A 2 2 0 1 1 121 35A 2 2 0 1 1 125 35L 124.99999999999996 24.500000000003112 L 127.99999999999996 24.500000000003112 L 127.99999999999996 14.500000000003114 L 124.99999999999999 14.500000000003114 L 124.9999999999993 5.500000000003136 A 2.5 2.5 0 1 1 120 5.5L 120.0000000000007 3.0000000000031366 L 90.45000000000157 3.0000000000031366 L 90.45000000000157 0.0 L 52.5 0.0 L 52.5 3.0 L 4.999999999999999 3.0 L 5.0 8.0 L -5.0 8.0 L -5.0 3.0 L -52.5 3.0 L -52.5 0.0 L -90.45 0.0 L -90.45 3.000000000003137 L -120.0 3.000000000003137 L -120.0 8.000000000003137 L -125.0 8.000000000003137 L -125.0 24.49999999999743 L -125.0 34.999999999997435 A 2 2 0 0 1 -121 35A 2 2 0 0 1 -117 35L -117.0 36.999999999997435 L -70.45 36.999999999997435 L -70.45 18.49999999999743 L -62.550000000000004 18.49999999999743 L -62.550000000000004 33.999999999997435 L -59.025000000000006 33.999999999997435 L -59.025000000000006 30.99999999999743 L -56.025000000000006 30.99999999999743 L -56.025000000000006 33.999999999997435 L -52.5 33.999999999997435 L -52.5 21.99999999999743 L 52.5 21.99999999999743 L 52.5 33.99999999999686 L 56.025000000000006 33.99999999999686 L 56.025000000000006 30.999999999995293 L 59.02500000000157 30.999999999995293 L 59.02500000000157 33.99999999999686 L 62.550000000001575 33.99999999999686 L 62.550000000001575 18.499999999996863 L 70.45000000000157 18.499999999996863 L 70.45000000000157 36.99999999999686 " stroke="#000000" stroke-width="0.35 px" style="stroke-width:0.35;stroke-miterlimit:4;stroke-dasharray:none;fill:none;fill-opacity:1;fill-rule: evenodd"/>
<circle cx="-110.0" cy="19.500000000003112" r="10.9" stroke="#000000" stroke-width="0.35 px" style="stroke-width:0.35;stroke-miterlimit:4;stroke-dasharray:none;fill:none"/>
<circle cx="109.99999999999996" cy="19.500000000003112" r="10.9" stroke="#000000" stroke-width="0.35 px" style="stroke-width:0.35;stroke-miterlimit:4;stroke-dasharray:none;fill:none"/>
<circle cx="-90.0" cy="19.500000000003112" r="8.2" stroke="#000000" stroke-width="0.35 px" style="stroke-width:0.35;stroke-miterlimit:4;stroke-dasharray:none;fill:none"/>
<circle cx="-90.0" cy="32.00000000000311" r="1.75" stroke="#000000" stroke-width="0.35 px" style="stroke-width:0.35;stroke-miterlimit:4;stroke-dasharray:none;fill:none"/>
<circle cx="-90.0" cy="7.000000000003112" r="1.75" stroke="#000000" stroke-width="0.35 px" style="stroke-width:0.35;stroke-miterlimit:4;stroke-dasharray:none;fill:none"/>
<path id="Sketch003_w0006"  d="M -123.0 31.799999999997432 L -121.3 31.799999999997432 L -121.3 26.19999999999743 L -123.0 26.19999999999743 L -123.0 31.799999999997432 " stroke="#000000" stroke-width="0.35 px" style="stroke-width:0.35;stroke-miterlimit:4;stroke-dasharray:none;fill:none;fill-opacity:1;fill-rule: evenodd"/>
<path id="Sketch003_w0007"  d="M 121.29999999999995 31.800000000003113 L 122.99999999999996 31.800000000003113 L 122.99999999999996 26.200000000003115 L 121.29999999999995 26.200000000003115 L 121.29999999999995 31.800000000003113 " stroke="#000000" stroke-width="0.35 px" style="stroke-width:0.35;stroke-miterlimit:4;stroke-dasharray:none;fill:none;fill-opacity:1;fill-rule: evenodd"/>
<path id="Sketch003_w0008"  d="M 95.65000000000157 9.7 L 101.25000000000158 9.7 L 101.25000000000158 8.000000000003137 L 95.65000000000157 8.000000000003137 L 95.65000000000157 9.7 " stroke="#000000" stroke-width="0.35 px" style="stroke-width:0.35;stroke-miterlimit:4;stroke-dasharray:none;fill:none;fill-opacity:1;fill-rule: evenodd"/>
<path id="Sketch003_w0009"  d="M -101.25 9.7 L -95.65 9.7 L -95.65 8.000000000003137 L -101.25 8.000000000003137 L -101.25 9.7 " stroke="#000000" stroke-width="0.35 px" style="stroke-width:0.35;stroke-miterlimit:4;stroke-dasharray:none;fill:none;fill-opacity:1;fill-rule: evenodd"/>
<path id="Sketch003_w0010"  d="M -31.300000000000004 9.699999999993725 L -25.700000000000003 9.699999999993725 L -25.700000000000003 7.999999999999999 L -31.300000000000004 7.999999999999999 L -31.300000000000004 9.699999999993725 " stroke="#000000" stroke-width="0.35 px" style="stroke-width:0.35;stroke-miterlimit:4;stroke-dasharray:none;fill:none;fill-opacity:1;fill-rule: evenodd"/>
<path id="Sketch003_w0011"  d="M 25.700000000000003 9.699999999993727 L 31.300000000000004 9.699999999993727 L 31.300000000000004 8.0 L 25.700000000000003 8.0 L 25.700000000000003 9.699999999993727 " stroke="#000000" stroke-width="0.35 px" style="stroke-width:0.35;stroke-miterlimit:4;stroke-dasharray:none;fill:none;fill-opacity:1;fill-rule: evenodd"/>
<circle cx="-58.550000000000004" cy="6.999999999997433" r="1.5" stroke="#000000" stroke-width="0.35 px" style="stroke-width:0.35;stroke-miterlimit:4;stroke-dasharray:none;fill:none"/>
<circle cx="-51.550000000000004" cy="6.999999999997415" r="1.5" stroke="#000000" stroke-width="0.35 px" style="stroke-width:0.35;stroke-miterlimit:4;stroke-dasharray:none;fill:none"/>
<circle cx="48.30000000000156" cy="17.99999999999743" r="1.5" stroke="#000000" stroke-width="0.35 px" style="stroke-width:0.35;stroke-miterlimit:4;stroke-dasharray:none;fill:none"/>
<circle cx="48.300000000001575" cy="10.999999999997431" r="1.5" stroke="#000000" stroke-width="0.35 px" style="stroke-width:0.35;stroke-miterlimit:4;stroke-dasharray:none;fill:none"/>
<title>b'Sketch003'</title>
</g>
</svg>