<?xml version="1.0"?>
<!DOCTYPE svg PUBLIC "-//W3C//DTD SVG 1.1//EN" "http://www.w3.org/Graphics/SVG/1.1/DTD/svg11.dtd">
<svg width="133.11mm" height="36.61mm" viewBox="0 0 133.11 36.61" xmlns="http://www.w3.org/2000/svg" version="1.1">
<g id="Sketch" transform="translate(66.555000,32.305000) scale(1,-1)">
<path id="Sketch_w0000"  d="M -55.25 0.0 L -62.25 0.0 L -62.25 -3.0 L -65.25 -3.0 L -65.25 31.0 L -55.25 31.0 L -55.25 25.0 L -30.5 25.0 L -30.5 24.5 L -30.0 24.5 L -30.0 24.99999999999329 L -4.0 24.99999999999329 L -4.0 22.99999999999329 L 4.0 22.99999999999329 L 4.0 24.99999999999329 L 30.0 24.99999999999329 L 30.0 24.49999999999329 L 30.5 24.49999999999329 L 30.5 25.0 L 55.25 25.0 L 55.25 31.0 L 65.25 31.0 L 65.25 -3.0 L 62.25 -3.0 L 62.25 0.0 L 55.25 0.0 L 55.25 21.0 L -55.25 21.0 L -55.25 0.0 " stroke="#0f2873" stroke-width="0.35 px" style="stroke-width:0.35;stroke-miterlimit:4;stroke-dasharray:none;fill:none;fill-opacity:1;fill-rule: evenodd"/>
<path id="Sketch_w0001"  d="M 56.65 4.999999999999998 L 62.25 4.999999999999998 L 62.25 7.399999999999999 L 56.65 7.399999999999999 L 56.65 4.999999999999998 " stroke="#0f2873" stroke-width="0.35 px" style="stroke-width:0.35;stroke-miterlimit:4;stroke-dasharray:none;fill:none;fill-opacity:1;fill-rule: evenodd"/>
<path id="Sketch_w0002"  d="M -62.25 5.0 L -56.65 5.0 L -56.65 7.4 L -62.25 7.4 L -62.25 5.0 " stroke="#0f2873" stroke-width="0.35 px" style="stroke-width:0.35;stroke-miterlimit:4;stroke-dasharray:none;fill:none;fill-opacity:1;fill-rule: evenodd"/>
<title>b'Sketch'</title>
</g>
</svg>