<?xml version="1.0"?>
<!DOCTYPE svg PUBLIC "-//W3C//DTD SVG 1.1//EN" "http://www.w3.org/Graphics/SVG/1.1/DTD/svg11.dtd">
<svg width="361.08000000000004mm" height="44.08mm" viewBox="0 0 361.08000000000004 44.08" xmlns="http://www.w3.org/2000/svg" version="1.1">
<g id="Sketch" transform="translate(180.540000,40.540000) scale(1,-1)">
<path id="Sketch_w0000"  d="M 131.95 37.0 L 166.0000000000001 37.0 L 166.0000000000001 35.00000000000001 A 2 2 0 1 1 170 35A 2 2 0 1 1 174 35L 173.9999999999999 24.500000000000064 L 177.00000000000003 24.500000000000064 L 177.00000000000003 14.500000000000064 L 174.00000000000003 14.500000000000064 L 174.0 8.499999350774907 A 2.5 2.5 0 0 1 169 8.5L 169.0 3.0 L 138.95 3.0 L 138.95 0.0 L 118.95 0.0 L 118.95 18.5 L 111.05 18.5 L 111.05 0.0 L 100.99999999999999 0.0 L 100.99999999999999 3.0 L 5.0 3.0 L 5.0 8.0 L -5.0 8.0 L -5.0 3.0 L -100.99999999999999 3.0 L -100.99999999999999 -4.3181711695909796e-17 L -111.05 0.0 L -111.05 18.5 L -118.95 18.5 L -118.95 0.0 L -138.95 0.0 L -138.95 3.0 L -169.0 3.0 L -169.0 8.5 A 2.5 2.5 0 0 1 -174 8.5L -173.99999999999991 14.499999999999986 L -177.0 14.499999999999986 L -177.0 24.499999999999986 L -174.0 24.499999999999986 L -174.0 34.999999999999986 A 2 2 0 1 1 -170 35A 2 2 0 0 1 -166 35L -166.0 37.0 L -118.95 37.0 L -118.95 34.0 L -101.0 34.0 L -101.0 22.5 L 101.0 22.5 L 101.0 34.0 L 118.95 34.0 L 118.95 37.0 L 121.95 37.0 L 121.95 20.50000000000003 A 3 3 0 0 1 124.95 17.5L 128.95 17.50000000000003 A 3 3 0 0 1 131.95 20.5L 131.95 37.0 " stroke="#000000" stroke-width="0.35 px" style="stroke-width:0.35;stroke-miterlimit:4;stroke-dasharray:none;fill:none;fill-opacity:1;fill-rule: evenodd"/>
<circle cx="-159.0" cy="20.000000000000064" r="10.9" stroke="#000000" stroke-width="0.35 px" style="stroke-width:0.35;stroke-miterlimit:4;stroke-dasharray:none;fill:none"/>
<circle cx="159.00000000000003" cy="20.000000000000064" r="10.9" stroke="#000000" stroke-width="0.35 px" style="stroke-width:0.35;stroke-miterlimit:4;stroke-dasharray:none;fill:none"/>
<circle cx="-139.0" cy="20.000000000000064" r="8.2" stroke="#000000" stroke-width="0.35 px" style="stroke-width:0.35;stroke-miterlimit:4;stroke-dasharray:none;fill:none"/>
<circle cx="-139.0" cy="7.500000000000062" r="1.7" stroke="#000000" stroke-width="0.35 px" style="stroke-width:0.35;stroke-miterlimit:4;stroke-dasharray:none;fill:none"/>
<circle cx="-139.00000000000006" cy="32.500000000000064" r="1.7" stroke="#000000" stroke-width="0.35 px" style="stroke-width:0.35;stroke-miterlimit:4;stroke-dasharray:none;fill:none"/>
<path id="Sketch_w0006"  d="M 170.30000000000004 31.800000000000065 L 172.00000000000003 31.800000000000065 L 172.00000000000003 26.200000000000063 L 170.30000000000004 26.200000000000063 L 170.30000000000004 31.800000000000065 " stroke="#000000" stroke-width="0.35 px" style="stroke-width:0.35;stroke-miterlimit:4;stroke-dasharray:none;fill:none;fill-opacity:1;fill-rule: evenodd"/>
<path id="Sketch_w0007"  d="M -172.0 31.799999999999986 L -170.3 31.799999999999986 L -170.3 26.199999999999985 L -172.0 26.199999999999985 L -172.0 31.799999999999986 " stroke="#000000" stroke-width="0.35 px" style="stroke-width:0.35;stroke-miterlimit:4;stroke-dasharray:none;fill:none;fill-opacity:1;fill-rule: evenodd"/>
<path id="Sketch_w0008"  d="M 144.15 9.700000000000008 L 149.75 9.700000000000008 L 149.75 8.000000000000009 L 144.15 8.000000000000009 L 144.15 9.700000000000008 " stroke="#000000" stroke-width="0.35 px" style="stroke-width:0.35;stroke-miterlimit:4;stroke-dasharray:none;fill:none;fill-opacity:1;fill-rule: evenodd"/>
<path id="Sketch_w0009"  d="M 74.19999999999999 9.699999999999992 L 79.79999999999998 9.699999999999992 L 79.79999999999998 7.999999999999993 L 74.19999999999999 7.999999999999993 L 74.19999999999999 9.699999999999992 " stroke="#000000" stroke-width="0.35 px" style="stroke-width:0.35;stroke-miterlimit:4;stroke-dasharray:none;fill:none;fill-opacity:1;fill-rule: evenodd"/>
<path id="Sketch_w0010"  d="M -79.79999999999998 9.700000000000008 L -74.19999999999999 9.700000000000008 L -74.19999999999999 8.000000000000009 L -79.79999999999998 8.000000000000009 L -79.79999999999998 9.700000000000008 " stroke="#000000" stroke-width="0.35 px" style="stroke-width:0.35;stroke-miterlimit:4;stroke-dasharray:none;fill:none;fill-opacity:1;fill-rule: evenodd"/>
<path id="Sketch_w0011"  d="M -149.75 9.7 L -144.15 9.7 L -144.15 8.0 L -149.75 8.0 L -149.75 9.7 " stroke="#000000" stroke-width="0.35 px" style="stroke-width:0.35;stroke-miterlimit:4;stroke-dasharray:none;fill:none;fill-opacity:1;fill-rule: evenodd"/>
<circle cx="-107.05" cy="7.499999999999996" r="1.45" stroke="#000000" stroke-width="0.35 px" style="stroke-width:0.35;stroke-miterlimit:4;stroke-dasharray:none;fill:none"/>
<circle cx="-100.05" cy="7.499999999999996" r="1.45" stroke="#000000" stroke-width="0.35 px" style="stroke-width:0.35;stroke-miterlimit:4;stroke-dasharray:none;fill:none"/>
<circle cx="96.80000000000003" cy="18.5" r="1.45" stroke="#000000" stroke-width="0.35 px" style="stroke-width:0.35;stroke-miterlimit:4;stroke-dasharray:none;fill:none"/>
<circle cx="96.80000000000003" cy="11.5" r="1.45" stroke="#000000" stroke-width="0.35 px" style="stroke-width:0.35;stroke-miterlimit:4;stroke-dasharray:none;fill:none"/>
<title>b'Sketch'</title>
</g>
</svg>