<?xml version="1.0"?>
<!DOCTYPE svg PUBLIC "-//W3C//DTD SVG 1.1//EN" "http://www.w3.org/Graphics/SVG/1.1/DTD/svg11.dtd">
<svg width="45.39mm" height="13.89mm" viewBox="0 0 45.39 13.89" xmlns="http://www.w3.org/2000/svg" version="1.1">
<g id="Sketch" transform="translate(22.695000,10.445000) scale(1,-1)">
<path id="Sketch_w0000"  d="M 10.5 2.499999999999993 L 10.5 -8.881784197001252e-16 L 19.25 -8.881784197001252e-16 L 19.25 -2.999999999999999 L 22.25 -2.999999999999999 L 22.25 9.0 L 14.25 9.0 L 14.25 6.999999999999999 L -19.25 6.999999999999999 L -19.25 10.0 L -22.25 10.0 L -22.25 -2.9999999999999996 L -19.25 -2.999999999999999 L -19.25 7.924369721553388e-16 L -10.5 6.96695527873095e-16 L -10.5 2.500000000000001 A 2.5 2.5 0 0 0 -5.5 2.5L -5.5 7.924369721553388e-16 L -2.5000000000000004 6.96695527873095e-16 L -2.5000000000000004 2.499999999999998 A 2.5 2.5 0 0 0 2.5 2.5L 2.4999999999999996 -8.881784197001252e-16 L 5.5 -8.881784197001252e-16 L 5.5 2.4999999999999956 A 2.5 2.5 0 0 0 10.5 2.5" stroke="#0f2873" stroke-width="0.35 px" style="stroke-width:0.35;stroke-miterlimit:4;stroke-dasharray:none;fill:none;fill-opacity:1;fill-rule: evenodd"/>
<path id="Sketch_w0001"  d="M -19.25 5.4 L -13.650000000000002 5.4 L -13.650000000000002 3.000000000000001 L -19.25 3.000000000000001 L -19.25 5.4 " stroke="#0f2873" stroke-width="0.35 px" style="stroke-width:0.35;stroke-miterlimit:4;stroke-dasharray:none;fill:none;fill-opacity:1;fill-rule: evenodd"/>
<path id="Sketch_w0002"  d="M 13.650000000000002 5.3999999999999995 L 19.25 5.3999999999999995 L 19.25 3.000000000000001 L 13.650000000000002 3.000000000000001 L 13.650000000000002 5.3999999999999995 " stroke="#0f2873" stroke-width="0.35 px" style="stroke-width:0.35;stroke-miterlimit:4;stroke-dasharray:none;fill:none;fill-opacity:1;fill-rule: evenodd"/>
<title>b'Sketch'</title>
</g>
</svg>