<?xml version="1.0"?>
<!DOCTYPE svg PUBLIC "-//W3C//DTD SVG 1.1//EN" "http://www.w3.org/Graphics/SVG/1.1/DTD/svg11.dtd">
<svg width="361.0799999999999mm" height="44.08mm" viewBox="0 0 361.0799999999999 44.08" xmlns="http://www.w3.org/2000/svg" version="1.1">
<g id="Sketch" transform="translate(180.540000,40.540000) scale(1,-1)">
<path id="Sketch_w0000"  d="M 131.95 37.0 L 166.00000000000006 37.0 L 166.00000000000006 35.0 A 2 2 0 0 1 170 35A 2 2 0 1 1 174 35L 173.99999999999994 24.50000000000002 L 176.99999999999994 24.50000000000002 L 176.99999999999994 14.500000000000021 L 174.00000000000003 14.500000000000021 L 174.0 8.499999670894788 A 2.5 2.5 0 1 1 169 8.5L 169.00000000000006 3.0 L 138.95 3.0 L 138.95 0.0 L 118.95 0.0 L 118.95 18.5 L 111.05 18.5 L 111.05 -3.527845397178522e-17 L 100.99999999999999 0.0 L 100.99999999999999 3.0 L 5.0 3.0 L 5.0 8.0 L -5.0 8.0 L -5.0 3.0 L -100.99999999999999 3.0 L -100.99999999999999 -3.424310374658714e-17 L -111.05 0.0 L -111.05 18.5 L -118.95 18.5 L -118.95 0.0 L -138.95 0.0 L -138.95 3.0 L -169.00000000000006 3.0 L -169.00000000000006 8.5 A 2.5 2.5 0 0 1 -174 8.5L -174.00000000000003 14.499999999999929 L -177.00000000000003 14.499999999999929 L -177.00000000000003 24.49999999999993 L -174.00000000000003 24.49999999999993 L -174.00000000000003 34.99999999999993 A 2 2 0 1 1 -170 35A 2 2 0 0 1 -166 35L -166.00000000000003 37.0 L -118.95 37.0 L -118.95 34.0 L -101.0 34.0 L -101.0 22.5 L 101.0 22.5 L 101.0 34.0 L 118.95 34.0 L 118.95 37.0 L 121.95 37.0 L 121.95 20.499999999999954 A 3 3 0 0 1 124.95 17.5L 128.95 17.499999999999954 A 3 3 0 0 1 131.95 20.5L 131.95 37.0 " stroke="#000000" stroke-width="0.35 px" style="stroke-width:0.35;stroke-miterlimit:4;stroke-dasharray:none;fill:none;fill-opacity:1;fill-rule: evenodd"/>
<circle cx="-159.00000000000003" cy="20.00000000000002" r="10.9" stroke="#000000" stroke-width="0.35 px" style="stroke-width:0.35;stroke-miterlimit:4;stroke-dasharray:none;fill:none"/>
<circle cx="158.99999999999994" cy="20.00000000000002" r="10.9" stroke="#000000" stroke-width="0.35 px" style="stroke-width:0.35;stroke-miterlimit:4;stroke-dasharray:none;fill:none"/>
<circle cx="-139.00000000000003" cy="20.00000000000002" r="8.2" stroke="#000000" stroke-width="0.35 px" style="stroke-width:0.35;stroke-miterlimit:4;stroke-dasharray:none;fill:none"/>
<circle cx="-139.00000000000003" cy="7.500000000000021" r="1.7" stroke="#000000" stroke-width="0.35 px" style="stroke-width:0.35;stroke-miterlimit:4;stroke-dasharray:none;fill:none"/>
<circle cx="-139.00000000000003" cy="32.50000000000002" r="1.7" stroke="#000000" stroke-width="0.35 px" style="stroke-width:0.35;stroke-miterlimit:4;stroke-dasharray:none;fill:none"/>
<path id="Sketch_w0006"  d="M 169.59999999999997 31.800000000000825 L 171.99999999999994 31.800000000000825 L 171.99999999999994 26.199999999999214 L 169.59999999999997 26.199999999999214 L 169.59999999999997 31.800000000000825 " stroke="#000000" stroke-width="0.35 px" style="stroke-width:0.35;stroke-miterlimit:4;stroke-dasharray:none;fill:none;fill-opacity:1;fill-rule: evenodd"/>
<path id="Sketch_w0007"  d="M -172.00000000000003 31.79999999999993 L -169.60000000000002 31.79999999999993 L -169.60000000000002 26.19999999999993 L -172.00000000000003 26.19999999999993 L -172.00000000000003 31.79999999999993 " stroke="#000000" stroke-width="0.35 px" style="stroke-width:0.35;stroke-miterlimit:4;stroke-dasharray:none;fill:none;fill-opacity:1;fill-rule: evenodd"/>
<path id="Sketch_w0008"  d="M 144.15000000000484 10.40000000000001 L 149.74999999999517 10.40000000000001 L 149.74999999999517 8.000000000000009 L 144.15000000000484 8.000000000000009 L 144.15000000000484 10.40000000000001 " stroke="#000000" stroke-width="0.35 px" style="stroke-width:0.35;stroke-miterlimit:4;stroke-dasharray:none;fill:none;fill-opacity:1;fill-rule: evenodd"/>
<path id="Sketch_w0009"  d="M 74.20000000000482 10.399999999999993 L 79.79999999999515 10.399999999999993 L 79.79999999999515 7.999999999999993 L 74.20000000000482 7.999999999999993 L 74.20000000000482 10.399999999999993 " stroke="#000000" stroke-width="0.35 px" style="stroke-width:0.35;stroke-miterlimit:4;stroke-dasharray:none;fill:none;fill-opacity:1;fill-rule: evenodd"/>
<path id="Sketch_w0010"  d="M -79.79999999999515 10.40000000000001 L -74.20000000000482 10.40000000000001 L -74.20000000000482 8.000000000000009 L -79.79999999999515 8.000000000000009 L -79.79999999999515 10.40000000000001 " stroke="#000000" stroke-width="0.35 px" style="stroke-width:0.35;stroke-miterlimit:4;stroke-dasharray:none;fill:none;fill-opacity:1;fill-rule: evenodd"/>
<path id="Sketch_w0011"  d="M -149.74999999999517 10.4 L -144.15000000000484 10.4 L -144.15000000000484 8.0 L -149.74999999999517 8.0 L -149.74999999999517 10.4 " stroke="#000000" stroke-width="0.35 px" style="stroke-width:0.35;stroke-miterlimit:4;stroke-dasharray:none;fill:none;fill-opacity:1;fill-rule: evenodd"/>
<circle cx="-107.05" cy="7.499999999999995" r="1.45" stroke="#000000" stroke-width="0.35 px" style="stroke-width:0.35;stroke-miterlimit:4;stroke-dasharray:none;fill:none"/>
<circle cx="-100.05" cy="7.499999999999995" r="1.45" stroke="#000000" stroke-width="0.35 px" style="stroke-width:0.35;stroke-miterlimit:4;stroke-dasharray:none;fill:none"/>
<circle cx="96.80000000000003" cy="18.5" r="1.45" stroke="#000000" stroke-width="0.35 px" style="stroke-width:0.35;stroke-miterlimit:4;stroke-dasharray:none;fill:none"/>
<circle cx="96.80000000000003" cy="11.5" r="1.45" stroke="#000000" stroke-width="0.35 px" style="stroke-width:0.35;stroke-miterlimit:4;stroke-dasharray:none;fill:none"/>
<title>b'Sketch'</title>
</g>
</svg>