<?xml version="1.0"?>
<!DOCTYPE svg PUBLIC "-//W3C//DTD SVG 1.1//EN" "http://www.w3.org/Graphics/SVG/1.1/DTD/svg11.dtd">
<svg width="258.06000000000006mm" height="42.06mm" viewBox="0 0 258.06000000000006 42.06" xmlns="http://www.w3.org/2000/svg" version="1.1">
<g id="Sketch003" transform="translate(127.530000,39.530000) scale(1,-1)">
<path id="Sketch003_w0000"  d="M 70.45 37.0 L 73.45 37.0 L 73.45 20.000000000000014 A 3 3 0 0 1 76.45 17L 80.45 17.000000000000014 A 3 3 0 0 1 83.45 20L 83.45 37.0 L 117.00000000000007 37.0 L 117.00000000000007 35.0 A 2 2 0 1 1 121 35A 2 2 0 1 1 125 35L 125.00000000000007 24.499999999999936 L 128.00000000000009 24.499999999999936 L 128.00000000000009 14.499999999999936 L 125.00000000000003 14.499999999999936 L 124.99999999999999 5.5 A 2.5 2.5 0 1 1 120 5.5L 120.00000000000001 3.0 L 90.45 3.0 L 90.45 0.0 L 52.5 0.0 L 52.5 3.0 L 4.999999999999999 3.0 L 5.0 8.0 L -5.0 8.0 L -5.0 3.0 L -52.5 3.0 L -52.5 0.0 L -90.45 0.0 L -90.45 3.0 L -120.0 3.0 L -120.0 8.0 L -125.0 8.0 L -125.0 24.5 L -125.0 35.0 A 2 2 0 1 1 -121 35A 2 2 0 1 1 -117 35L -117.0 37.0 L -70.45 37.0 L -70.45 18.5 L -62.550000000000004 18.5 L -62.550000000000004 34.0 L -59.025000000000006 34.0 L -59.025000000000006 31.0 L -56.025000000000006 31.0 L -56.025000000000006 34.0 L -52.49999999999999 34.0 L -52.49999999999999 22.0 L 52.50000000000001 22.0 L 52.50000000000001 34.0 L 56.025000000000006 34.0 L 56.025000000000006 31.0 L 59.025000000000006 31.0 L 59.025000000000006 34.0 L 62.550000000000004 34.0 L 62.550000000000004 18.5 L 70.45 18.5 L 70.45 37.0 " stroke="#000000" stroke-width="0.35 px" style="stroke-width:0.35;stroke-miterlimit:4;stroke-dasharray:none;fill:none;fill-opacity:1;fill-rule: evenodd"/>
<circle cx="-110.0" cy="19.499999999999936" r="10.9" stroke="#000000" stroke-width="0.35 px" style="stroke-width:0.35;stroke-miterlimit:4;stroke-dasharray:none;fill:none"/>
<circle cx="110.00000000000007" cy="19.499999999999936" r="10.9" stroke="#000000" stroke-width="0.35 px" style="stroke-width:0.35;stroke-miterlimit:4;stroke-dasharray:none;fill:none"/>
<circle cx="-90.0" cy="19.499999999999936" r="8.2" stroke="#000000" stroke-width="0.35 px" style="stroke-width:0.35;stroke-miterlimit:4;stroke-dasharray:none;fill:none"/>
<circle cx="-90.0" cy="31.999999999999936" r="1.75" stroke="#000000" stroke-width="0.35 px" style="stroke-width:0.35;stroke-miterlimit:4;stroke-dasharray:none;fill:none"/>
<circle cx="-89.99999999999996" cy="6.999999999999935" r="1.75" stroke="#000000" stroke-width="0.35 px" style="stroke-width:0.35;stroke-miterlimit:4;stroke-dasharray:none;fill:none"/>
<path id="Sketch003_w0006"  d="M -123.0 31.8 L -120.6 31.8 L -120.6 26.2 L -123.0 26.2 L -123.0 31.8 " stroke="#000000" stroke-width="0.35 px" style="stroke-width:0.35;stroke-miterlimit:4;stroke-dasharray:none;fill:none;fill-opacity:1;fill-rule: evenodd"/>
<path id="Sketch003_w0007"  d="M 120.60000000000007 31.799999999999937 L 123.00000000000007 31.799999999999937 L 123.00000000000007 26.199999999999935 L 120.60000000000007 26.199999999999935 L 120.60000000000007 31.799999999999937 " stroke="#000000" stroke-width="0.35 px" style="stroke-width:0.35;stroke-miterlimit:4;stroke-dasharray:none;fill:none;fill-opacity:1;fill-rule: evenodd"/>
<path id="Sketch003_w0008"  d="M 95.65 10.4 L 101.25 10.4 L 101.25 8.0 L 95.65 8.0 L 95.65 10.4 " stroke="#000000" stroke-width="0.35 px" style="stroke-width:0.35;stroke-miterlimit:4;stroke-dasharray:none;fill:none;fill-opacity:1;fill-rule: evenodd"/>
<path id="Sketch003_w0009"  d="M -101.25 10.4 L -95.65 10.4 L -95.65 8.0 L -101.25 8.0 L -101.25 10.4 " stroke="#000000" stroke-width="0.35 px" style="stroke-width:0.35;stroke-miterlimit:4;stroke-dasharray:none;fill:none;fill-opacity:1;fill-rule: evenodd"/>
<path id="Sketch003_w0010"  d="M -31.3 10.400000000000002 L -25.700000000000003 10.400000000000002 L -25.700000000000003 8.000000000000002 L -31.3 8.000000000000002 L -31.3 10.400000000000002 " stroke="#000000" stroke-width="0.35 px" style="stroke-width:0.35;stroke-miterlimit:4;stroke-dasharray:none;fill:none;fill-opacity:1;fill-rule: evenodd"/>
<path id="Sketch003_w0011"  d="M 25.700000000000003 10.400000000000002 L 31.3 10.400000000000002 L 31.3 8.000000000000002 L 25.700000000000003 8.000000000000002 L 25.700000000000003 10.400000000000002 " stroke="#000000" stroke-width="0.35 px" style="stroke-width:0.35;stroke-miterlimit:4;stroke-dasharray:none;fill:none;fill-opacity:1;fill-rule: evenodd"/>
<circle cx="-58.550000000000004" cy="6.999999999999999" r="1.5" stroke="#000000" stroke-width="0.35 px" style="stroke-width:0.35;stroke-miterlimit:4;stroke-dasharray:none;fill:none"/>
<circle cx="-51.550000000000004" cy="7.0" r="1.5" stroke="#000000" stroke-width="0.35 px" style="stroke-width:0.35;stroke-miterlimit:4;stroke-dasharray:none;fill:none"/>
<circle cx="48.3" cy="18.0" r="1.5" stroke="#000000" stroke-width="0.35 px" style="stroke-width:0.35;stroke-miterlimit:4;stroke-dasharray:none;fill:none"/>
<circle cx="48.300000000000004" cy="11.0" r="1.5" stroke="#000000" stroke-width="0.35 px" style="stroke-width:0.35;stroke-miterlimit:4;stroke-dasharray:none;fill:none"/>
<title>b'Sketch003'</title>
</g>
</svg>