<?xml version="1.0"?>
<!DOCTYPE svg PUBLIC "-//W3C//DTD SVG 1.1//EN" "http://www.w3.org/Graphics/SVG/1.1/DTD/svg11.dtd">
<svg width="364.14mm" height="402.14mm" viewBox="0 0 364.14 402.14" xmlns="http://www.w3.org/2000/svg" version="1.1">
<g id="Sketch002" transform="translate(182.070000,201.070000) scale(1,-1)">
<path id="Sketch002_w0000"  d="M -173.90000000000003 176.1 L -178.50000000000003 176.1 L -178.50000000000003 197.5 L -157.10000000000002 197.5 L -157.10000000000002 192.89999999999998 L -136.90000000000003 192.89999999999998 L -136.90000000000003 197.5 L 136.90000000000003 197.5 L 136.9 192.89999999999998 L 157.1 192.89999999999998 L 157.1 197.5 L 178.5 197.5 L 178.5 176.1 L 173.9 176.1 L 173.9 155.89999999999998 L 178.5 155.89999999999998 L 178.5 -155.89999999999998 L 173.9 -155.9 L 173.9 -176.10000000000002 L 178.5 -176.10000000000002 L 178.5 -197.5 L 157.1 -197.5 L 157.1 -192.9 L 136.9 -192.9 L 136.9 -197.5 L -136.90000000000003 -197.5 L -136.90000000000003 -192.9 L -157.10000000000002 -192.9 L -157.10000000000002 -197.5 L -178.50000000000003 -197.5 L -178.50000000000003 -176.10000000000002 L -173.90000000000003 -176.10000000000002 L -173.90000000000003 -155.9 L -178.50000000000003 -155.9 L -178.50000000000003 155.89999999999995 L -173.90000000000003 155.89999999999995 L -173.90000000000003 176.1 " stroke="#191919" stroke-width="0.35 px" style="stroke-width:0.35;stroke-miterlimit:4;stroke-dasharray:none;fill:none;fill-opacity:1;fill-rule: evenodd"/>
<path id="Sketch002_w0001"  d="M -105.00000000000003 -123.50000000000003 A 10 10 0 0 1 -115 -133.5L -115.00000000000003 -171.5 A 10 10 0 0 1 -105 -181.5L 104.99999999999994 -181.5 A 10 10 0 0 1 115 -171.5L 114.99999999999994 -133.50000000000003 A 10 10 0 0 1 105 -123.5L -105.00000000000003 -123.50000000000004 " stroke="#191919" stroke-width="0.35 px" style="stroke-width:0.35;stroke-miterlimit:4;stroke-dasharray:none;fill:none;fill-opacity:1;fill-rule: evenodd"/>
<circle cx="118.99999999999994" cy="-126.30000000000003" r="1.5" stroke="#191919" stroke-width="0.35 px" style="stroke-width:0.35;stroke-miterlimit:4;stroke-dasharray:none;fill:none"/>
<circle cx="-119.00000000000006" cy="-126.30000000000003" r="1.5" stroke="#191919" stroke-width="0.35 px" style="stroke-width:0.35;stroke-miterlimit:4;stroke-dasharray:none;fill:none"/>
<path id="Sketch002_w0004"  d="M -165.65000000000003 -120.0 A 3 3 0 0 1 -171.65 -120L -171.64999999998852 -123.0 L -172.40000000000003 -123.0 A 1.5 1.5 0 0 0 -172.4 -120A 3.75 3.75 0 0 0 -164.9 -120A 1.5 1.5 0 1 0 -164.9 -123L -165.64999999998852 -123.0 L -165.65000000000003 -120.0 " stroke="#191919" stroke-width="0.35 px" style="stroke-width:0.35;stroke-miterlimit:4;stroke-dasharray:none;fill:none;fill-opacity:1;fill-rule: evenodd"/>
<path id="Sketch002_w0005"  d="M -170.8999999999743 -45.75000000000396 L -173.90000000000006 -45.75000000000396 L -173.90000000000006 -44.25000000000335 L -170.89999999998162 -44.25000000000335 A 2.25 2.25 0 0 0 -168.65 -42L -167.15000081959104 -42.00001004663469 L -167.15000081959104 -43.12501004663469 L -165.65000081959104 -43.12501004663469 L -165.65000081959104 -43.87501004663469 L -167.15000081959104 -43.87501004663469 L -167.15000081959104 -46.12501004663469 L -165.65000081959107 -46.12501004663469 L -165.65000081959107 -46.87501004663469 L -167.15000081959104 -46.87501004663469 L -167.15000081959104 -48.00001004663469 L -168.65000081959104 -48.00001004663469 A 2.25 2.25 0 0 0 -170.9 -45.75" stroke="#191919" stroke-width="0.35 px" style="stroke-width:0.35;stroke-miterlimit:4;stroke-dasharray:none;fill:none;fill-opacity:1;fill-rule: evenodd"/>
<title>b'Sketch002'</title>
</g>
</svg>