<?xml version="1.0"?>
<!DOCTYPE svg PUBLIC "-//W3C//DTD SVG 1.1//EN" "http://www.w3.org/Graphics/SVG/1.1/DTD/svg11.dtd">
<svg width="37.74000000021741mm" height="395.7400000000042mm" viewBox="0 0 37.74000000021741 395.7400000000042" xmlns="http://www.w3.org/2000/svg" version="1.1">
<g id="Sketch017" transform="translate(3.870000,17.870000) scale(1,-1)">
<path id="Sketch017_w0000"  d="M -3.5 17.5 L 33.5 17.5 L 33.50000000021315 -377.5 L -3.5 -377.5 L -3.5 17.5 " stroke="#191919" stroke-width="0.35 px" style="stroke-width:0.35;stroke-miterlimit:4;stroke-dasharray:none;fill:none;fill-opacity:1;fill-rule: evenodd"/>
<path id="Sketch017_w0001"  d="M 8.0 7.3 L 8.0 12.7 L 21.0 12.7 L 21.0 7.3 L 8.0 7.3 " stroke="#191919" stroke-width="0.35 px" style="stroke-width:0.35;stroke-miterlimit:4;stroke-dasharray:none;fill:none;fill-opacity:1;fill-rule: evenodd"/>
<path id="Sketch017_w0002"  d="M 8.0 -12.7 L 8.0 -7.3 L 20.999999999998316 -7.3 L 20.999999999998316 -12.7 L 8.0 -12.7 " stroke="#191919" stroke-width="0.35 px" style="stroke-width:0.35;stroke-miterlimit:4;stroke-dasharray:none;fill:none;fill-opacity:1;fill-rule: evenodd"/>
<path id="Sketch017_w0003"  d="M 22.658722310056607 -369.0056060223289 L 21.777087406514525 -364.0056060223285 L 29.77708740651368 -362.59499017665917 L 30.658722310057303 -367.5949901766604 L 22.658722310056607 -369.0056060223289 " stroke="#191919" stroke-width="0.35 px" style="stroke-width:0.35;stroke-miterlimit:4;stroke-dasharray:none;fill:none;fill-opacity:1;fill-rule: evenodd"/>
<path id="Sketch017_w0004"  d="M 0.2229125936982026 -357.65192246987635 L -0.6587223098441222 -352.65192246987635 L 7.341277690155878 -351.2413066242086 L 8.222912593698444 -356.2413066242093 L 0.2229125936982026 -357.65192246987635 " stroke="#191919" stroke-width="0.35 px" style="stroke-width:0.35;stroke-miterlimit:4;stroke-dasharray:none;fill:none;fill-opacity:1;fill-rule: evenodd"/>
<path id="Sketch017_w0005"  d="M 20.04060562984494 -354.1575284922058 L 19.158970726302858 -349.1575284922054 L 27.158970726302872 -347.74691264653774 L 28.040605629844954 -352.74691264653814 L 20.04060562984494 -354.1575284922058 " stroke="#191919" stroke-width="0.35 px" style="stroke-width:0.35;stroke-miterlimit:4;stroke-dasharray:none;fill:none;fill-opacity:1;fill-rule: evenodd"/>
<path id="Sketch017_w0006"  d="M 2.841029273910097 -372.5 L 1.959394370368014 -367.4999999999996 L 9.959394370368027 -366.089384154332 L 10.841029273910111 -371.0893841543324 L 2.841029273910097 -372.5 " stroke="#191919" stroke-width="0.35 px" style="stroke-width:0.35;stroke-miterlimit:4;stroke-dasharray:none;fill:none;fill-opacity:1;fill-rule: evenodd"/>
<circle cx="24.908846518179477" cy="-358.37625933443303" r="1.6" stroke="#191919" stroke-width="0.35 px" style="stroke-width:0.35;stroke-miterlimit:4;stroke-dasharray:none;fill:none"/>
<circle cx="5.091153482033179" cy="-361.87065331210437" r="1.6" stroke="#191919" stroke-width="0.35 px" style="stroke-width:0.35;stroke-miterlimit:4;stroke-dasharray:none;fill:none"/>
<circle cx="14.5" cy="-3.5" r="1.5" stroke="#191919" stroke-width="0.35 px" style="stroke-width:0.35;stroke-miterlimit:4;stroke-dasharray:none;fill:none"/>
<circle cx="14.5" cy="3.5" r="1.5" stroke="#191919" stroke-width="0.35 px" style="stroke-width:0.35;stroke-miterlimit:4;stroke-dasharray:none;fill:none"/>
<title>b'CameraArm001'</title>
</g>
</svg>