<?xml version="1.0" encoding="UTF-8" standalone="no"?>
<svg
   xmlns:dc="http://purl.org/dc/elements/1.1/"
   xmlns:cc="http://creativecommons.org/ns#"
   xmlns:rdf="http://www.w3.org/1999/02/22-rdf-syntax-ns#"
   xmlns:svg="http://www.w3.org/2000/svg"
   xmlns="http://www.w3.org/2000/svg"
   xmlns:sodipodi="http://sodipodi.sourceforge.net/DTD/sodipodi-0.dtd"
   xmlns:inkscape="http://www.inkscape.org/namespaces/inkscape"
   sodipodi:docname="ri_parm_cover.svg"
   inkscape:version="1.0 (4035a4fb49, 2020-05-01)"
   id="svg848"
   version="1.1"
   viewBox="0 0 210 297"
   height="297mm"
   width="210mm">
  <defs
     id="defs842" />
  <sodipodi:namedview
     inkscape:document-rotation="0"
     inkscape:window-maximized="1"
     inkscape:window-y="-8"
     inkscape:window-x="-8"
     inkscape:window-height="1377"
     inkscape:window-width="2560"
     showgrid="false"
     inkscape:current-layer="layer1"
     inkscape:document-units="mm"
     inkscape:cy="347.6632"
     inkscape:cx="223.71464"
     inkscape:zoom="1.0712807"
     inkscape:pageshadow="2"
     inkscape:pageopacity="0.0"
     borderopacity="1.0"
     bordercolor="#666666"
     pagecolor="#ffffff"
     id="base" />
  <metadata
     id="metadata845">
    <rdf:RDF>
      <cc:Work
         rdf:about="">
        <dc:format>image/svg+xml</dc:format>
        <dc:type
           rdf:resource="http://purl.org/dc/dcmitype/StillImage" />
        <dc:title></dc:title>
      </cc:Work>
    </rdf:RDF>
  </metadata>
  <g
     id="layer1"
     inkscape:groupmode="layer"
     inkscape:label="Layer 1">
    <path
       inkscape:connector-curvature="0"
       id="Sketch002_w0000"
       d="m 7.52858,23.38214 h -4.6 v -21.4 h 21.4 v 4.6 h 20.2 v -4.6 h 273.8 v 4.6 h 20.2 v -4.6 h 21.4 v 21.4 h -4.6 v 20.2 h 4.6 v 311.8 h -4.6 v 20.2 h 4.6 v 21.4 h -21.4 v -4.6 h -20.2 v 4.6 h -273.8 v -4.6 h -20.2 v 4.6 h -21.4 v -21.4 h 4.6 v -20.2 h -4.6 v -311.8 h 4.6 v -20.2"
       style="fill:none;fill-opacity:1;fill-rule:evenodd;stroke:#ff0000;stroke-width:0.1;stroke-miterlimit:4;stroke-dasharray:none" />
    <path
       inkscape:label="Sketch002_w0001"
       inkscape:connector-curvature="0"
       id="Sketch002_w0001"
       d="m 76.42858,322.98214 a 10,10 0 0 0 -10,10 v 38 a 10,10 0 0 0 10,10 h 210 a 10,10 0 0 0 10,-10 v -38 a 10,10 0 0 0 -10,-10 h -210"
       style="fill:none;fill-opacity:1;fill-rule:evenodd;stroke:#ff0000;stroke-width:0.1;stroke-miterlimit:4;stroke-dasharray:none" />
    <circle
       transform="scale(1,-1)"
       cx="300.42859"
       cy="-325.78214"
       r="1.5"
       style="fill:none;stroke:#ff0000;stroke-width:0.1;stroke-miterlimit:4;stroke-dasharray:none"
       id="circle4" />
    <circle
       transform="scale(1,-1)"
       cx="62.428581"
       cy="-325.78214"
       r="1.5"
       style="fill:none;stroke:#ff0000;stroke-width:0.1;stroke-miterlimit:4;stroke-dasharray:none"
       id="circle6" />
    <path
       inkscape:connector-curvature="0"
       id="Sketch002_w0004"
       d="m 15.77858,319.48214 a 3,3 0 0 0 -6,0 v 3 h -0.75 a 1.5,1.5 0 0 1 0,-3 3.75,3.75 0 0 1 7.5,0 1.5,1.5 0 1 1 0,3 h -0.75 v -3"
       style="fill:#000000;fill-opacity:1;fill-rule:evenodd;stroke:none;stroke-width:0.34999999;stroke-miterlimit:4;stroke-dasharray:none" />
    <path
       inkscape:connector-curvature="0"
       id="Sketch002_w0005"
       d="m 10.52858,245.23214 h -3 v -1.5 h 3 a 2.25,2.25 0 0 1 2.25,-2.25 l 1.5,1e-5 v 1.125 h 1.5 v 0.75 h -1.5 v 2.25 h 1.5 v 0.75 h -1.5 v 1.125 h -1.5 a 2.25,2.25 0 0 1 -2.25,-2.25001"
       style="fill:#000000;fill-opacity:1;fill-rule:evenodd;stroke:none;stroke-width:0.34999999;stroke-miterlimit:4;stroke-dasharray:none" />
  </g>
</svg>
