<?xml version="1.0"?>
<!DOCTYPE svg PUBLIC "-//W3C//DTD SVG 1.1//EN" "http://www.w3.org/Graphics/SVG/1.1/DTD/svg11.dtd">
<svg width="37.740000000000016mm" height="395.74mm" viewBox="0 0 37.740000000000016 395.74" xmlns="http://www.w3.org/2000/svg" version="1.1">
<g id="Sketch008" transform="translate(3.870000,17.770000) scale(1,-1)">
<path id="Sketch008_w0000"  d="M -3.5 17.399999999999988 L 33.5 17.4 L 33.50000000000002 -377.6 L -3.5 -377.6 L -3.5 17.399999999999988 " stroke="#0f2873" stroke-width="0.35 px" style="stroke-width:0.35;stroke-miterlimit:4;stroke-dasharray:none;fill:none;fill-opacity:1;fill-rule: evenodd"/>
<path id="Sketch008_w0001"  d="M 8.0 12.600000000000001 L 21.0 12.600000000000001 L 21.0 7.2 L 8.0 7.2 L 8.0 12.600000000000001 " stroke="#0f2873" stroke-width="0.35 px" style="stroke-width:0.35;stroke-miterlimit:4;stroke-dasharray:none;fill:none;fill-opacity:1;fill-rule: evenodd"/>
<path id="Sketch008_w0002"  d="M 8.0 -7.2 L 20.999999999996078 -7.2 L 20.999999999996078 -12.600000000000001 L 8.0 -12.600000000000001 L 8.0 -7.2 " stroke="#0f2873" stroke-width="0.35 px" style="stroke-width:0.35;stroke-miterlimit:4;stroke-dasharray:none;fill:none;fill-opacity:1;fill-rule: evenodd"/>
<circle cx="14.5" cy="3.45" r="1.5" stroke="#0f2873" stroke-width="0.35 px" style="stroke-width:0.35;stroke-miterlimit:4;stroke-dasharray:none;fill:none"/>
<circle cx="14.5" cy="-3.45" r="1.5" stroke="#0f2873" stroke-width="0.35 px" style="stroke-width:0.35;stroke-miterlimit:4;stroke-dasharray:none;fill:none"/>
<path id="Sketch008_w0005"  d="M -1.9144916359200712 -354.473844259267 L 5.335970660373129 -351.0928981653414 L 7.4490619690766255 -355.6244371005247 L 0.19859967278342605 -359.00538319445025 L -1.9144916359200712 -354.473844259267 " stroke="#0f2873" stroke-width="0.35 px" style="stroke-width:0.35;stroke-miterlimit:4;stroke-dasharray:none;fill:none;fill-opacity:1;fill-rule: evenodd"/>
<path id="Sketch008_w0006"  d="M 4.424782290190412 -368.06846106481674 L 11.675244586483611 -364.6875149708912 L 13.788335895187108 -369.2190539060744 L 6.537873598893909 -372.6 L 4.424782290190412 -368.06846106481674 " stroke="#0f2873" stroke-width="0.35 px" style="stroke-width:0.35;stroke-miterlimit:4;stroke-dasharray:none;fill:none;fill-opacity:1;fill-rule: evenodd"/>
<path id="Sketch008_w0007"  d="M 16.21166410481292 -346.021479024453 L 23.462126401106122 -342.6405329305274 L 25.575217709809618 -347.1720718657107 L 18.32475541351642 -350.5530179596363 L 16.21166410481292 -346.021479024453 " stroke="#0f2873" stroke-width="0.35 px" style="stroke-width:0.35;stroke-miterlimit:4;stroke-dasharray:none;fill:none;fill-opacity:1;fill-rule: evenodd"/>
<path id="Sketch008_w0008"  d="M 22.550938030923405 -359.6160958300028 L 29.801400327216605 -356.2351497360772 L 31.9144916359201 -360.76668867126045 L 24.6640293396269 -364.147634765186 L 22.550938030923405 -359.6160958300028 " stroke="#0f2873" stroke-width="0.35 px" style="stroke-width:0.35;stroke-miterlimit:4;stroke-dasharray:none;fill:none;fill-opacity:1;fill-rule: evenodd"/>
<circle cx="5.936922129633567" cy="-361.8464490826707" r="1.6" stroke="#0f2873" stroke-width="0.35 px" style="stroke-width:0.35;stroke-miterlimit:4;stroke-dasharray:none;fill:none"/>
<circle cx="24.063077870366595" cy="-353.39408384785685" r="1.6" stroke="#0f2873" stroke-width="0.35 px" style="stroke-width:0.35;stroke-miterlimit:4;stroke-dasharray:none;fill:none"/>
<path id="Sketch008_w0011"  d="M 0.5344916223373044 -346.71159709747326 L 0.9571098840780036 -347.6179048845099 L 16.364342263701054 -340.43339443491806 L 15.941724001960354 -339.5270866478814 L 0.5344916223373044 -346.71159709747326 " stroke="#0f2873" stroke-width="0.35 px" style="stroke-width:0.35;stroke-miterlimit:4;stroke-dasharray:none;fill:none;fill-opacity:1;fill-rule: evenodd"/>
<path id="Sketch008_w0012"  d="M 6.0 -92.6 L 23.0 -92.6 L 23.0 -93.6 L 6.0 -93.6 L 6.0 -92.6 " stroke="#0f2873" stroke-width="0.35 px" style="stroke-width:0.35;stroke-miterlimit:4;stroke-dasharray:none;fill:none;fill-opacity:1;fill-rule: evenodd"/>
<title>b'Sketch008'</title>
</g>
</svg>