<?xml version="1.0" encoding="UTF-8" standalone="no"?>
<!-- Created with Inkscape (http://www.inkscape.org/) -->

<svg
   xmlns:dc="http://purl.org/dc/elements/1.1/"
   xmlns:cc="http://creativecommons.org/ns#"
   xmlns:rdf="http://www.w3.org/1999/02/22-rdf-syntax-ns#"
   xmlns:svg="http://www.w3.org/2000/svg"
   xmlns="http://www.w3.org/2000/svg"
   xmlns:sodipodi="http://sodipodi.sourceforge.net/DTD/sodipodi-0.dtd"
   xmlns:inkscape="http://www.inkscape.org/namespaces/inkscape"
   width="210mm"
   height="297mm"
   viewBox="0 0 210 297"
   version="1.1"
   id="svg1477"
   inkscape:version="0.92.4 (5da689c313, 2019-01-14)"
   sodipodi:docname="ri_parm_large-gear.svg">
  <defs
     id="defs1471" />
  <sodipodi:namedview
     id="base"
     pagecolor="#ffffff"
     bordercolor="#666666"
     borderopacity="1.0"
     inkscape:pageopacity="0.0"
     inkscape:pageshadow="2"
     inkscape:zoom="2.29119"
     inkscape:cx="360.574"
     inkscape:cy="764.766"
     inkscape:document-units="mm"
     inkscape:current-layer="layer1"
     showgrid="false"
     inkscape:window-width="2560"
     inkscape:window-height="1377"
     inkscape:window-x="-8"
     inkscape:window-y="-8"
     inkscape:window-maximized="1" />
  <metadata
     id="metadata1474">
    <rdf:RDF>
      <cc:Work
         rdf:about="">
        <dc:format>image/svg+xml</dc:format>
        <dc:type
           rdf:resource="http://purl.org/dc/dcmitype/StillImage" />
        <dc:title></dc:title>
      </cc:Work>
    </rdf:RDF>
  </metadata>
  <g
     inkscape:label="Layer 1"
     inkscape:groupmode="layer"
     id="layer1">
    <path
       style="fill:none;stroke:#ff0000;stroke-width:0.37795276;stroke-miterlimit:4;stroke-dasharray:none"
       d="M 132.51758 258.01367 L 130.29297 263.23047 L 129.82422 266.34961 L 130.01172 268.35938 L 124.25977 269.27148 L 123.81836 267.30078 L 122.4082 264.47852 L 118.68164 260.20508 L 115.31836 261.29688 L 114.81641 266.94531 L 115.33398 270.05664 L 116.13477 271.91211 L 110.94531 274.55469 L 109.91602 272.81836 L 107.70312 270.57031 L 102.83594 267.65625 L 99.976562 269.73438 L 101.24414 275.26172 L 102.69727 278.0625 L 104.0332 279.57812 L 99.914062 283.69531 L 98.398438 282.36133 L 95.599609 280.90625 L 90.070312 279.64062 L 87.994141 282.5 L 90.90625 287.36523 L 93.154297 289.58008 L 94.892578 290.60938 L 92.248047 295.79688 L 90.394531 294.99609 L 87.28125 294.47852 L 81.632812 294.98242 L 80.541016 298.34375 L 84.814453 302.07227 L 87.636719 303.48242 L 89.607422 303.92383 L 88.697266 309.67578 L 86.685547 309.48633 L 83.566406 309.95703 L 78.349609 312.18164 L 78.349609 315.71484 L 83.566406 317.93945 L 86.685547 318.4082 L 88.697266 318.2207 L 89.607422 323.97266 L 87.636719 324.41406 L 84.814453 325.82422 L 80.541016 329.55273 L 81.632812 332.91406 L 87.28125 333.41797 L 90.394531 332.89844 L 92.248047 332.09961 L 94.892578 337.28711 L 93.154297 338.31641 L 90.90625 340.53125 L 87.994141 345.39648 L 90.070312 348.25586 L 95.599609 346.98828 L 98.398438 345.53516 L 99.914062 344.20117 L 104.0332 348.31836 L 102.69727 349.83398 L 101.24414 352.63477 L 99.976562 358.16211 L 102.83594 360.24023 L 107.70312 357.32617 L 109.91602 355.07812 L 110.94531 353.3418 L 116.13477 355.98438 L 115.33398 357.83789 L 114.81641 360.95117 L 115.31836 366.59961 L 118.68164 367.69141 L 122.4082 363.41797 L 123.81836 360.5957 L 124.25977 358.625 L 130.01172 359.53711 L 129.82422 361.54688 L 130.29297 364.66602 L 132.51758 369.88281 L 136.05273 369.88281 L 138.27734 364.66602 L 138.74609 361.54688 L 138.55664 359.53711 L 144.30859 358.625 L 144.75195 360.5957 L 146.16211 363.41797 L 149.88867 367.69141 L 153.25 366.59961 L 153.75391 360.95117 L 153.23633 357.83789 L 152.43555 355.98438 L 157.625 353.3418 L 158.6543 355.07812 L 160.86719 357.32617 L 165.73242 360.24023 L 168.5918 358.16211 L 167.32617 352.63477 L 165.87109 349.83398 L 164.53711 348.31836 L 168.6543 344.20117 L 170.17188 345.53516 L 172.9707 346.98828 L 178.49805 348.25586 L 180.57617 345.39648 L 177.66406 340.53125 L 175.41406 338.31641 L 173.67773 337.28711 L 176.32227 332.09961 L 178.17578 332.89844 L 181.28711 333.41797 L 186.93555 332.91406 L 188.0293 329.55273 L 183.75391 325.82422 L 180.93164 324.41406 L 178.96289 323.97266 L 179.87305 318.2207 L 181.88281 318.4082 L 185.00391 317.93945 L 190.2207 315.71484 L 190.2207 312.18164 L 185.00391 309.95703 L 181.88281 309.48633 L 179.87305 309.67578 L 178.96289 303.92383 L 180.93164 303.48242 L 183.75391 302.07227 L 188.0293 298.34375 L 186.93555 294.98242 L 181.28711 294.47852 L 178.17578 294.99609 L 176.32227 295.79688 L 173.67773 290.60938 L 175.41406 289.58008 L 177.66406 287.36523 L 180.57617 282.5 L 178.49805 279.64062 L 172.9707 280.90625 L 170.17188 282.36133 L 168.6543 283.69531 L 164.53711 279.57812 L 165.87109 278.0625 L 167.32617 275.26172 L 168.5918 269.73438 L 165.73242 267.65625 L 160.86719 270.57031 L 158.6543 272.81836 L 157.625 274.55469 L 152.43555 271.91211 L 153.23633 270.05664 L 153.75391 266.94531 L 153.25 261.29688 L 149.88867 260.20508 L 146.16211 264.47852 L 144.75195 267.30078 L 144.30859 269.27148 L 138.55664 268.35938 L 138.74609 266.34961 L 138.27734 263.23047 L 136.05273 258.01367 L 132.51758 258.01367 z M 134.28516 287.32617 L 157.3418 300.63672 L 157.3418 327.25977 L 134.28516 340.57031 L 111.23047 327.25977 L 111.23047 300.63672 L 134.28516 287.32617 z "
       transform="scale(0.26458333)"
       id="path1679-3" />
    <path
       id="path816"
       d="m 65.7196,68.2661 -0.5886,1.3803 -0.124,0.8253 0.05,0.5317 -1.5219,0.2413 -0.1168,-0.5214 -0.3731,-0.7467 -0.986,-1.1307 -0.8899,0.2889 -0.1328,1.4945 0.137,0.8232 0.2118,0.4909 -1.373,0.6992 -0.2723,-0.4594 -0.5855,-0.5948 -1.2878,-0.771 -0.7565,0.5498 0.3353,1.4625 0.3845,0.741 0.3535,0.401 -1.0899,1.0893 -0.401,-0.3529 -0.7405,-0.385 -1.463,-0.3349 -0.5493,0.7566 0.7705,1.2872 0.5948,0.5861 0.4599,0.2723 -0.6997,1.3725 -0.4904,-0.2119 -0.8237,-0.1369 -1.4945,0.1333 -0.2889,0.8894 1.1307,0.9865 0.7467,0.3731 0.5215,0.1168 -0.2409,1.5218 -0.5322,-0.05 -0.8253,0.1246 -1.3803,0.5886 v 0.9348 l 1.3803,0.5886 0.8253,0.124 0.5322,-0.05 0.2409,1.5219 -0.5215,0.1168 -0.7467,0.3731 -1.1307,0.9865 0.2889,0.8893 1.4945,0.1333 0.8237,-0.1374 0.4904,-0.2114 0.6997,1.3725 -0.4599,0.2724 -0.5948,0.586 -0.7705,1.2873 0.5493,0.7565 1.463,-0.3354 0.7405,-0.3845 0.401,-0.3529 1.0899,1.0893 -0.3535,0.401 -0.3845,0.7411 -0.3353,1.4624 0.7565,0.5499 1.2878,-0.7711 0.5855,-0.5947 0.2723,-0.4594 1.373,0.6991 -0.2118,0.4904 -0.137,0.8238 0.1328,1.4944 0.8899,0.2889 0.986,-1.1307 0.3731,-0.7467 0.1168,-0.5214 1.5219,0.2413 -0.05,0.5318 0.124,0.8252 0.5886,1.3803 h 0.9353 l 0.5886,-1.3803 0.124,-0.8252 -0.05,-0.5318 1.5219,-0.2413 0.1173,0.5214 0.3731,0.7467 0.986,1.1307 0.8893,-0.2889 0.1333,-1.4944 -0.1369,-0.8238 -0.2119,-0.4904 1.3731,-0.6991 0.2723,0.4594 0.5855,0.5947 1.2873,0.7711 0.7565,-0.5499 -0.3349,-1.4624 -0.3849,-0.7411 -0.353,-0.401 1.0893,-1.0893 0.4016,0.3529 0.7405,0.3845 1.4624,0.3354 0.5499,-0.7565 -0.7705,-1.2873 -0.5953,-0.586 -0.4594,-0.2724 0.6997,-1.3725 0.4904,0.2114 0.8232,0.1374 1.4945,-0.1333 0.2893,-0.8893 -1.1312,-0.9865 -0.7467,-0.3731 -0.5209,-0.1168 0.2408,-1.5219 0.5318,0.05 0.8258,-0.124 1.3803,-0.5886 v -0.9348 l -1.3803,-0.5886 -0.8258,-0.1246 -0.5318,0.05 -0.2408,-1.5218 0.5209,-0.1168 0.7467,-0.3731 1.1312,-0.9865 -0.2893,-0.8894 -1.4945,-0.1333 -0.8232,0.1369 -0.4904,0.2119 -0.6997,-1.3725 0.4594,-0.2723 0.5953,-0.5861 0.7705,-1.2872 -0.5499,-0.7566 -1.4624,0.3349 -0.7405,0.385 -0.4016,0.3529 -1.0893,-1.0893 0.353,-0.401 0.3849,-0.741 0.3349,-1.4625 -0.7565,-0.5498 -1.2873,0.771 -0.5855,0.5948 -0.2723,0.4594 -1.3731,-0.6992 0.2119,-0.4909 0.1369,-0.8232 -0.1333,-1.4945 -0.8893,-0.2889 -0.986,1.1307 -0.3731,0.7467 -0.1173,0.5214 -1.5219,-0.2413 0.05,-0.5317 -0.124,-0.8253 -0.5886,-1.3803 z m 0.4676,7.7556 6.1004,3.5218 v 7.044 l -6.1004,3.5217 -6.0998,-3.5217 v -7.044 z"
       style="fill:none;stroke:#ff0000;stroke-width:0.1;stroke-miterlimit:4;stroke-dasharray:none"
       inkscape:connector-curvature="0" />
    <path
       id="path818"
       d="m 96.3773,68.2663 -0.5886,1.3802 -0.124,0.8253 0.05,0.5318 -1.5218,0.2413 -0.1168,-0.5214 -0.3731,-0.7468 -0.986,-1.1306 -0.8899,0.2888 -0.1328,1.4945 0.1369,0.8232 0.2119,0.491 -1.373,0.6991 -0.2724,-0.4594 -0.5855,-0.5948 -1.2877,-0.771 -0.7566,0.5499 0.3354,1.4624 0.3845,0.741 0.3535,0.4011 -1.0899,1.0893 -0.401,-0.353 -0.7405,-0.3849 -1.463,-0.3349 -0.5493,0.7565 0.7705,1.2873 0.5948,0.586 0.4599,0.2723 -0.6997,1.3726 -0.4904,-0.2119 -0.8237,-0.137 -1.4945,0.1334 -0.2889,0.8893 1.1307,0.9865 0.7467,0.3731 0.5214,0.1168 -0.2408,1.5219 -0.5322,-0.05 -0.8253,0.1245 -1.3803,0.5886 v 0.9348 l 1.3803,0.5886 0.8253,0.124 0.5322,-0.05 0.2408,1.5219 -0.5214,0.1168 -0.7467,0.3731 -1.1307,0.9865 0.2889,0.8894 1.4945,0.1333 0.8237,-0.1375 0.4904,-0.2113 0.6997,1.3725 -0.4599,0.2723 -0.5948,0.586 -0.7705,1.2873 0.5493,0.7565 1.463,-0.3353 0.7405,-0.3845 0.401,-0.353 1.0899,1.0894 -0.3535,0.401 -0.3845,0.741 -0.3354,1.4625 0.7566,0.5498 1.2877,-0.771 0.5855,-0.5948 0.2724,-0.4594 1.373,0.6992 -0.2119,0.4904 -0.1369,0.8237 0.1328,1.4945 0.8899,0.2889 0.986,-1.1307 0.3731,-0.7467 0.1168,-0.5215 1.5218,0.2414 -0.05,0.5317 0.124,0.8253 0.5886,1.3803 h 0.9354 l 0.5886,-1.3803 0.124,-0.8253 -0.05,-0.5317 1.5218,-0.2414 0.1174,0.5215 0.3731,0.7467 0.9854,1.1307 0.889,-0.2889 0.134,-1.4945 -0.137,-0.8237 -0.212,-0.4904 1.373,-0.6992 0.272,0.4594 0.586,0.5948 1.287,0.771 0.757,-0.5498 -0.335,-1.4625 -0.385,-0.741 -0.353,-0.401 1.089,-1.0894 0.402,0.353 0.74,0.3845 1.463,0.3353 0.549,-0.7565 -0.77,-1.2873 -0.595,-0.586 -0.46,-0.2723 0.7,-1.3725 0.49,0.2113 0.824,0.1375 1.494,-0.1333 0.289,-0.8894 -1.131,-0.9865 -0.747,-0.3731 -0.52,-0.1168 0.24,-1.5219 0.532,0.05 0.826,-0.124 1.38,-0.5886 v -0.9348 l -1.38,-0.5886 -0.826,-0.1245 -0.532,0.05 -0.24,-1.5219 0.52,-0.1168 0.747,-0.3731 1.131,-0.9865 -0.289,-0.8893 -1.494,-0.1334 -0.824,0.137 -0.49,0.2119 -0.7,-1.3726 0.46,-0.2723 0.595,-0.586 0.77,-1.2873 -0.549,-0.7565 -1.463,0.3349 -0.74,0.3849 -0.402,0.353 -1.089,-1.0893 0.353,-0.4011 0.385,-0.741 0.335,-1.4624 -0.757,-0.5499 -1.287,0.771 -0.586,0.5948 -0.272,0.4594 -1.373,-0.6991 0.212,-0.491 0.137,-0.8232 -0.134,-1.4945 -0.889,-0.2888 -0.9854,1.1306 -0.3731,0.7468 -0.1174,0.5214 -1.5218,-0.2413 0.05,-0.5318 -0.124,-0.8253 -0.5886,-1.3802 z m 0.4677,7.7556 6.1,3.5217 v 7.044 l -6.1,3.5218 -6.0999,-3.5218 v -7.044 z"
       style="fill:none;stroke:#ff0000;stroke-width:0.1;stroke-miterlimit:4;stroke-dasharray:none"
       inkscape:connector-curvature="0" />
    <path
       inkscape:connector-curvature="0"
       style="fill:none;stroke:#ff0000;stroke-width:0.1;stroke-miterlimit:4;stroke-dasharray:none"
       d="m 127.035,68.2662 -0.589,1.3803 -0.124,0.8253 0.05,0.5317 -1.522,0.2413 -0.117,-0.5214 -0.373,-0.7467 -0.986,-1.1307 -0.89,0.2889 -0.133,1.4945 0.137,0.8232 0.212,0.4909 -1.373,0.6992 -0.272,-0.4594 -0.586,-0.5948 -1.287,-0.771 -0.757,0.5498 0.335,1.4625 0.385,0.741 0.353,0.401 -1.089,1.0893 -0.401,-0.3529 -0.741,-0.385 -1.463,-0.3349 -0.549,0.7566 0.77,1.2872 0.595,0.5861 0.46,0.2723 -0.7,1.3725 -0.49,-0.2119 -0.824,-0.1369 -1.494,0.1333 -0.289,0.8894 1.13,0.9865 0.747,0.3731 0.522,0.1168 -0.241,1.5218 -0.532,-0.05 -0.826,0.1246 -1.38,0.5886 v 0.9348 l 1.38,0.5886 0.826,0.124 0.532,-0.05 0.241,1.5219 -0.522,0.1168 -0.747,0.3731 -1.13,0.9865 0.289,0.8893 1.494,0.1333 0.824,-0.1374 0.49,-0.2114 0.7,1.3725 -0.46,0.2724 -0.595,0.586 -0.77,1.2873 0.549,0.7565 1.463,-0.3354 0.741,-0.3845 0.401,-0.3529 1.089,1.0893 -0.353,0.401 -0.385,0.7411 -0.335,1.4624 0.757,0.5499 1.287,-0.7711 0.586,-0.5947 0.272,-0.4594 1.373,0.6991 -0.212,0.4904 -0.137,0.8238 0.133,1.4944 0.89,0.2889 0.986,-1.1307 0.373,-0.7467 0.117,-0.5214 1.522,0.2413 -0.05,0.5318 0.124,0.8252 0.589,1.3803 h 0.935 l 0.588,-1.3803 0.124,-0.8252 -0.05,-0.5318 1.522,-0.2413 0.118,0.5214 0.373,0.7467 0.986,1.1307 0.889,-0.2889 0.133,-1.4944 -0.137,-0.8238 -0.211,-0.4904 1.373,-0.6991 0.272,0.4594 0.585,0.5947 1.288,0.7711 0.756,-0.5499 -0.335,-1.4624 -0.385,-0.7411 -0.353,-0.401 1.09,-1.0893 0.401,0.3529 0.741,0.3845 1.462,0.3354 0.55,-0.7565 -0.77,-1.2873 -0.596,-0.586 -0.459,-0.2724 0.7,-1.3725 0.49,0.2114 0.823,0.1374 1.495,-0.1333 0.289,-0.8893 -1.131,-0.9865 -0.747,-0.3731 -0.521,-0.1168 0.241,-1.5219 0.532,0.05 0.826,-0.124 1.38,-0.5886 v -0.9348 l -1.38,-0.5886 -0.826,-0.1246 -0.532,0.05 -0.241,-1.5218 0.521,-0.1168 0.747,-0.3731 1.131,-0.9865 -0.289,-0.8894 -1.495,-0.1333 -0.823,0.1369 -0.49,0.2119 -0.7,-1.3725 0.459,-0.2723 0.596,-0.5861 0.77,-1.2872 -0.55,-0.7566 -1.462,0.3349 -0.741,0.385 -0.401,0.3529 -1.09,-1.0893 0.353,-0.401 0.385,-0.741 0.335,-1.4625 -0.756,-0.5498 -1.288,0.771 -0.585,0.5948 -0.272,0.4594 -1.373,-0.6992 0.211,-0.4909 0.137,-0.8232 -0.133,-1.4945 -0.889,-0.2889 -0.986,1.1307 -0.373,0.7467 -0.118,0.5214 -1.522,-0.2413 0.05,-0.5317 -0.124,-0.8253 -0.588,-1.3803 z m 0.467,7.7556 6.101,3.5218 v 7.044 l -6.101,3.5217 -6.1,-3.5217 v -7.044 z"
       id="path820" />
    <path
       style="fill:none;stroke:#ff0000;stroke-width:0.1;stroke-miterlimit:4;stroke-dasharray:none"
       d="m 48.8502,57.3152 -0.7591,0.2465 -0.1887,1.5673 0.1018,0.4088 0.4434,0.8387 -1.2458,0.9048 -0.6609,-0.6805 -0.3572,-0.2228 -1.5488,-0.3054 -0.4692,0.6455 0.769,1.3787 0.3219,0.2713 0.8522,0.4181 -0.4759,1.4645 -0.9349,-0.1628 -0.4201,0.03 -1.4325,0.6636 v 0.7978 l 1.4325,0.6636 0.4201,0.03 0.9349,-0.1623 0.4759,1.464 -0.8522,0.4181 -0.3219,0.2713 -0.769,1.3787 0.4692,0.6455 1.5488,-0.305 0.3572,-0.2232 0.6609,-0.6806 1.2458,0.9049 -0.4434,0.8392 -0.1018,0.4087 0.1887,1.5669 0.7591,0.247 1.0733,-1.1576 0.1581,-0.3901 0.1344,-0.9395 h 1.5401 l 0.1343,0.9395 0.158,0.3901 1.0739,1.1576 0.7586,-0.247 0.1886,-1.5669 -0.1013,-0.4087 -0.4434,-0.8392 1.2454,-0.9049 0.661,0.6806 0.3576,0.2232 1.5487,0.305 0.4687,-0.6455 -0.7684,-1.3787 -0.3225,-0.2713 -0.8516,-0.4181 0.476,-1.464 0.9343,0.1623 0.4201,-0.03 1.4325,-0.6636 v -0.7979 l -1.4325,-0.6635 -0.4201,-0.03 -0.9343,0.1628 -0.476,-1.4645 0.8516,-0.4181 0.3225,-0.2713 0.7684,-1.3787 -0.4687,-0.6455 -1.5487,0.3054 -0.3576,0.2228 -0.661,0.6805 -1.2454,-0.9048 0.4434,-0.8387 0.1013,-0.4088 -0.1886,-1.5673 -0.7586,-0.2465 -1.0739,1.157 -0.158,0.3902 -0.1343,0.9394 H 50.216 l -0.1344,-0.9394 -0.1581,-0.3902 z m 2.1359,5.9149 a 1.95,1.95 0 0 1 1.3503,0.5462 v 2.8101 a 1.95,1.95 0 0 1 -1.3503,0.5437 1.95,1.95 0 0 1 -1.9499,-1.9498 1.95,1.95 0 0 1 1.9499,-1.9502 z"
       id="path1685-7"
       inkscape:connector-curvature="0" />
    <path
       inkscape:connector-curvature="0"
       id="path828"
       d="m 79.508,57.3153 -0.7591,0.2465 -0.1887,1.5673 0.1018,0.4088 0.4434,0.8387 -1.2458,0.9048 -0.6609,-0.6805 -0.3572,-0.2228 -1.5488,-0.3054 -0.4692,0.6455 0.769,1.3787 0.3219,0.2713 0.8522,0.4181 -0.4759,1.4645 -0.9349,-0.1628 -0.4201,0.03 -1.4325,0.6636 v 0.7978 l 1.4325,0.6636 0.4201,0.03 0.9349,-0.1623 0.4759,1.464 -0.8522,0.4181 -0.3219,0.2713 -0.769,1.3787 0.4692,0.6455 1.5488,-0.305 0.3572,-0.2232 0.6609,-0.6806 1.2458,0.9049 -0.4434,0.8392 -0.1018,0.4087 0.1887,1.5669 0.7591,0.247 1.0733,-1.1576 0.1581,-0.3901 0.1344,-0.9395 h 1.5401 l 0.1343,0.9395 0.158,0.3901 1.0739,1.1576 0.7586,-0.247 0.1886,-1.5669 -0.1013,-0.4087 -0.4434,-0.8392 1.2454,-0.9049 0.661,0.6806 0.3576,0.2232 1.5487,0.305 0.4687,-0.6455 -0.7684,-1.3787 -0.3225,-0.2713 -0.8516,-0.4181 0.476,-1.464 0.9343,0.1623 0.4201,-0.03 1.4325,-0.6636 v -0.7979 l -1.4325,-0.6635 -0.4201,-0.03 -0.9343,0.1628 -0.476,-1.4645 0.8516,-0.4181 0.3225,-0.2713 0.7684,-1.3787 -0.4687,-0.6455 -1.5487,0.3054 -0.3576,0.2228 -0.661,0.6805 -1.2454,-0.9048 0.4434,-0.8387 0.1013,-0.4088 -0.1886,-1.5673 -0.7586,-0.2465 -1.0739,1.157 -0.158,0.3902 -0.1343,0.9394 h -1.5401 l -0.1344,-0.9394 -0.1581,-0.3902 z m 2.1359,5.9149 a 1.95,1.95 0 0 1 1.3503,0.5462 v 2.8101 a 1.95,1.95 0 0 1 -1.3503,0.5437 1.95,1.95 0 0 1 -1.9499,-1.9498 1.95,1.95 0 0 1 1.9499,-1.9502 z"
       style="fill:none;stroke:#ff0000;stroke-width:0.1;stroke-miterlimit:4;stroke-dasharray:none" />
    <path
       style="fill:none;stroke:#ff0000;stroke-width:0.1;stroke-miterlimit:4;stroke-dasharray:none"
       d="m 109.936,57.2227 -0.759,0.2465 -0.188,1.5673 0.101,0.4088 0.444,0.8387 -1.246,0.9048 -0.661,-0.6805 -0.357,-0.2228 -1.549,-0.3054 -0.469,0.6455 0.769,1.3787 0.322,0.2713 0.852,0.4181 -0.476,1.4645 -0.935,-0.1628 -0.42,0.03 -1.432,0.6636 v 0.7978 l 1.432,0.6636 0.42,0.03 0.935,-0.1623 0.476,1.464 -0.852,0.4181 -0.322,0.2713 -0.769,1.3787 0.469,0.6455 1.549,-0.305 0.357,-0.2232 0.661,-0.6806 1.246,0.9049 -0.444,0.8392 -0.101,0.4087 0.188,1.5669 0.759,0.247 1.074,-1.1576 0.158,-0.3901 0.134,-0.9395 h 1.54 l 0.135,0.9395 0.158,0.3901 1.073,1.1576 0.759,-0.247 0.189,-1.5669 -0.102,-0.4087 -0.443,-0.8392 1.245,-0.9049 0.661,0.6806 0.358,0.2232 1.549,0.305 0.468,-0.6455 -0.768,-1.3787 -0.323,-0.2713 -0.851,-0.4181 0.476,-1.464 0.934,0.1623 0.42,-0.03 1.433,-0.6636 v -0.7979 l -1.433,-0.6635 -0.42,-0.03 -0.934,0.1628 -0.476,-1.4645 0.851,-0.4181 0.323,-0.2713 0.768,-1.3787 -0.468,-0.6455 -1.549,0.3054 -0.358,0.2228 -0.661,0.6805 -1.245,-0.9048 0.443,-0.8387 0.102,-0.4088 -0.189,-1.5673 -0.759,-0.2465 -1.073,1.157 -0.158,0.3902 -0.135,0.9394 h -1.54 l -0.134,-0.9394 -0.158,-0.3902 z m 2.136,5.9149 a 1.95,1.95 0 0 1 1.351,0.5462 v 2.8101 a 1.95,1.95 0 0 1 -1.351,0.5437 1.95,1.95 0 0 1 -1.95,-1.9498 1.95,1.95 0 0 1 1.95,-1.9502 z"
       id="path830"
       inkscape:connector-curvature="0" />
    <path
       inkscape:connector-curvature="0"
       id="path832"
       d="m 48.3203,93.0851 -0.759,0.2465 -0.188,1.5673 0.101,0.4088 0.444,0.8387 -1.246,0.9048 -0.661,-0.6805 -0.357,-0.2228 -1.549,-0.3054 -0.469,0.6455 0.769,1.3787 0.322,0.2713 0.852,0.4181 -0.476,1.4649 -0.935,-0.1632 -0.42,0.03 -1.432,0.6632 v 0.798 l 1.432,0.664 0.42,0.03 0.935,-0.163 0.476,1.464 -0.852,0.418 -0.322,0.272 -0.769,1.378 0.469,0.646 1.549,-0.305 0.357,-0.223 0.661,-0.681 1.246,0.905 -0.444,0.839 -0.101,0.409 0.188,1.567 0.759,0.247 1.074,-1.158 0.158,-0.39 0.134,-0.939 h 1.54 l 0.135,0.939 0.158,0.39 1.073,1.158 0.759,-0.247 0.189,-1.567 -0.102,-0.409 -0.443,-0.839 1.245,-0.905 0.661,0.681 0.358,0.223 1.549,0.305 0.468,-0.646 -0.768,-1.378 -0.323,-0.272 -0.851,-0.418 0.476,-1.464 0.934,0.163 0.42,-0.03 1.433,-0.664 v -0.798 l -1.433,-0.6632 -0.42,-0.03 -0.934,0.1632 -0.476,-1.4649 0.851,-0.4181 0.323,-0.2713 0.768,-1.3787 -0.468,-0.6455 -1.549,0.3054 -0.358,0.2228 -0.661,0.6805 -1.245,-0.9048 0.443,-0.8387 0.102,-0.4088 -0.189,-1.5673 -0.759,-0.2465 -1.073,1.157 -0.158,0.3902 -0.135,0.9394 h -1.54 l -0.134,-0.9394 -0.158,-0.3902 z M 50.4563,99 a 1.95,1.95 0 0 1 1.351,0.5462 v 2.8098 a 1.95,1.95 0 0 1 -1.351,0.544 1.95,1.95 0 0 1 -1.95,-1.95 1.95,1.95 0 0 1 1.95,-1.95 z"
       style="fill:none;stroke:#ff0000;stroke-width:0.1;stroke-miterlimit:4;stroke-dasharray:none" />
    <path
       style="fill:none;stroke:#ff0000;stroke-width:0.1;stroke-miterlimit:4;stroke-dasharray:none"
       d="m 81.6428,93.5354 a 10.5,10.5 0 0 0 -10.5,10.4996 10.5,10.5 0 0 0 10.5,10.501 10.5,10.5 0 0 0 10.4997,-10.501 10.5,10.5 0 0 0 -10.4997,-10.4996 z m -8e-4,3.4571 6.1008,3.5215 v 7.044 l -6.1008,3.521 -6.1005,-3.521 v -7.044 z"
       id="path834"
       inkscape:connector-curvature="0" />
    <path
       inkscape:connector-curvature="0"
       id="path839"
       d="m 112.014,93.8818 a 10.5,10.5 0 0 0 -10.5,10.4992 10.5,10.5 0 0 0 10.5,10.501 10.5,10.5 0 0 0 10.499,-10.501 10.5,10.5 0 0 0 -10.499,-10.4992 z m -10e-4,3.4571 6.101,3.5211 v 7.044 l -6.101,3.521 -6.101,-3.521 v -7.044 z"
       style="fill:none;stroke:#ff0000;stroke-width:0.1;stroke-miterlimit:4;stroke-dasharray:none" />
    <path
       style="fill:none;stroke:#ff0000;stroke-width:0.1;stroke-miterlimit:4;stroke-dasharray:none"
       d="m 144.579,92.1496 a 10.5,10.5 0 0 0 -10.5,10.4994 10.5,10.5 0 0 0 10.5,10.501 10.5,10.5 0 0 0 10.499,-10.501 10.5,10.5 0 0 0 -10.499,-10.4994 z m 0,3.4571 6.101,3.5211 v 7.0442 l -6.101,3.521 -6.101,-3.521 v -7.0442 z"
       id="path841"
       inkscape:connector-curvature="0" />
    <path
       inkscape:connector-curvature="0"
       id="path843"
       d="m 149.083,57.2751 a 10.5,10.5 0 0 0 -10.5,10.4994 10.5,10.5 0 0 0 10.5,10.501 10.5,10.5 0 0 0 10.499,-10.501 10.5,10.5 0 0 0 -10.499,-10.4994 z m 0,3.4571 6.101,3.5211 v 7.0442 l -6.101,3.521 -6.101,-3.521 v -7.0442 z"
       style="fill:none;stroke:#ff0000;stroke-width:0.1;stroke-miterlimit:4;stroke-dasharray:none" />
  </g>
</svg>
