<?xml version="1.0"?>
<!DOCTYPE svg PUBLIC "-//W3C//DTD SVG 1.1//EN" "http://www.w3.org/Graphics/SVG/1.1/DTD/svg11.dtd">
<svg width="402.9mm" height="402.9mm" viewBox="0 0 402.9 402.9" xmlns="http://www.w3.org/2000/svg" version="1.1">
<g id="Sketch011" transform="translate(201.450000,201.450000) scale(1,-1)">
<path id="Sketch011_w0000"  d="M -197.50000000000003 197.49999999999997 L 197.49999999999997 197.49999999999997 L 197.49999999999997 -197.50000000000003 L -197.50000000000003 -197.50000000000003 L -197.50000000000003 197.49999999999997 " stroke="#191919" stroke-width="0.35 px" style="stroke-width:0.35;stroke-miterlimit:4;stroke-dasharray:none;fill:none;fill-opacity:1;fill-rule: evenodd"/>
<path id="Sketch011_w0001"  d="M 189.99999999999292 -189.99999999999295 L 180.0 -189.99999999999295 L 180.0 -193.00000000000003 L 193.0 -193.00000000000003 L 193.0 -183.00000000000003 L 189.99999999999292 -183.00000000000003 L 189.99999999999292 -189.99999999999295 " stroke="#191919" stroke-width="0.35 px" style="stroke-width:0.35;stroke-miterlimit:4;stroke-dasharray:none;fill:none;fill-opacity:1;fill-rule: evenodd"/>
<path id="Sketch011_w0002"  d="M 156.0 -196.00000000000003 L 156.0 -193.00000000000003 L 163.49999999999292 -193.00000000000003 L 163.49999999999292 -189.99999999999295 L 171.5 -189.99999999999295 L 171.5 -193.00000000000003 L 176.0 -193.00000000000003 L 176.0 -196.00000000000003 L 156.0 -196.00000000000003 " stroke="#191919" stroke-width="0.35 px" style="stroke-width:0.35;stroke-miterlimit:4;stroke-dasharray:none;fill:none;fill-opacity:1;fill-rule: evenodd"/>
<circle cx="167.49999999999292" cy="-187.20000000000002" r="1.5" stroke="#191919" stroke-width="0.35 px" style="stroke-width:0.35;stroke-miterlimit:4;stroke-dasharray:none;fill:none"/>
<path id="Sketch011_w0004"  d="M 193.0 -176.00000000000003 L 193.0 -156.0 L 196.0 -156.0 L 196.0 -176.00000000000003 L 193.0 -176.00000000000003 " stroke="#191919" stroke-width="0.35 px" style="stroke-width:0.35;stroke-miterlimit:4;stroke-dasharray:none;fill:none;fill-opacity:1;fill-rule: evenodd"/>
<path id="Sketch011_w0005"  d="M 141.99999999999292 -183.00000000000003 L 145.00000000000708 -183.00000000000003 L 145.00000000000708 -189.99999999998587 L 154.99999999999292 -189.99999999998587 L 154.99999999999292 -193.00000000000003 L 134.0 -193.0 L 134.0 -190.0 L 141.99999999999648 -190.0 L 141.99999999999292 -183.00000000000003 " stroke="#191919" stroke-width="0.35 px" style="stroke-width:0.35;stroke-miterlimit:4;stroke-dasharray:none;fill:none;fill-opacity:1;fill-rule: evenodd"/>
<circle cx="138.0" cy="-187.2" r="1.5" stroke="#191919" stroke-width="0.35 px" style="stroke-width:0.35;stroke-miterlimit:4;stroke-dasharray:none;fill:none"/>
<circle cx="122.0" cy="-176.0" r="1.5" stroke="#191919" stroke-width="0.35 px" style="stroke-width:0.35;stroke-miterlimit:4;stroke-dasharray:none;fill:none"/>
<path id="Sketch011_w0008"  d="M 193.0 -129.00000000000003 L 180.0 -129.00000000000003 L 180.0 -132.0000000000071 L 189.99999999999292 -132.0000000000071 L 189.99999999999292 -139.00000000000003 L 193.0 -139.00000000000003 L 193.0 -129.00000000000003 " stroke="#191919" stroke-width="0.35 px" style="stroke-width:0.35;stroke-miterlimit:4;stroke-dasharray:none;fill:none;fill-opacity:1;fill-rule: evenodd"/>
<circle cx="167.49999999999292" cy="-134.80000000000004" r="1.5" stroke="#191919" stroke-width="0.35 px" style="stroke-width:0.35;stroke-miterlimit:4;stroke-dasharray:none;fill:none"/>
<path id="Sketch011_w0010"  d="M 163.49999999999292 -129.00000000000003 L 171.49999999999292 -129.00000000000003 L 171.49999999999292 -132.0000000000071 L 163.49999999999292 -132.0000000000071 L 163.49999999999292 -129.00000000000003 " stroke="#191919" stroke-width="0.35 px" style="stroke-width:0.35;stroke-miterlimit:4;stroke-dasharray:none;fill:none;fill-opacity:1;fill-rule: evenodd"/>
<path id="Sketch011_w0011"  d="M 154.99999999999292 -129.00000000000003 L 154.99999999999292 -132.00000000000003 L 144.99999999999292 -132.00000000000003 L 144.99999999999292 -139.00000000000003 L 141.99999999999292 -139.00000000000003 L 141.99999999999292 -129.00000000000003 L 154.99999999999292 -129.00000000000003 " stroke="#191919" stroke-width="0.35 px" style="stroke-width:0.35;stroke-miterlimit:4;stroke-dasharray:none;fill:none;fill-opacity:1;fill-rule: evenodd"/>
<circle cx="183.0" cy="-108.22000000025713" r="1.5" stroke="#191919" stroke-width="0.35 px" style="stroke-width:0.35;stroke-miterlimit:4;stroke-dasharray:none;fill:none"/>
<circle cx="138.0" cy="-126.3" r="1.5" stroke="#191919" stroke-width="0.35 px" style="stroke-width:0.35;stroke-miterlimit:4;stroke-dasharray:none;fill:none"/>
<path id="Sketch011_w0014"  d="M 134.0 -120.5 L 142.0 -120.5 L 142.0 -123.5 L 134.0 -123.5 L 134.0 -120.5 " stroke="#191919" stroke-width="0.35 px" style="stroke-width:0.35;stroke-miterlimit:4;stroke-dasharray:none;fill:none;fill-opacity:1;fill-rule: evenodd"/>
<circle cx="97.0" cy="-176.0" r="1.5" stroke="#191919" stroke-width="0.35 px" style="stroke-width:0.35;stroke-miterlimit:4;stroke-dasharray:none;fill:none"/>
<path id="Sketch011_w0016"  d="M 84.25000000000038 -161.75 L 84.25000000000038 -153.75 L 81.25 -153.75 L 81.25 -161.75 L 84.25000000000038 -161.75 " stroke="#191919" stroke-width="0.35 px" style="stroke-width:0.35;stroke-miterlimit:4;stroke-dasharray:none;fill:none;fill-opacity:1;fill-rule: evenodd"/>
<circle cx="78.45" cy="-157.75" r="1.5" stroke="#191919" stroke-width="0.35 px" style="stroke-width:0.35;stroke-miterlimit:4;stroke-dasharray:none;fill:none"/>
<circle cx="78.86" cy="-108.22000000025713" r="1.5" stroke="#191919" stroke-width="0.35 px" style="stroke-width:0.35;stroke-miterlimit:4;stroke-dasharray:none;fill:none"/>
<circle cx="19.000000000000004" cy="-118.3" r="1.5" stroke="#191919" stroke-width="0.35 px" style="stroke-width:0.35;stroke-miterlimit:4;stroke-dasharray:none;fill:none"/>
<path id="Sketch011_w0020"  d="M 15.000000000000007 -112.49999999999964 L 15.000000000000007 -115.50000000000003 L 23.000000000000007 -115.50000000000003 L 23.000000000000007 -112.49999999999964 L 15.000000000000007 -112.49999999999964 " stroke="#191919" stroke-width="0.35 px" style="stroke-width:0.35;stroke-miterlimit:4;stroke-dasharray:none;fill:none;fill-opacity:1;fill-rule: evenodd"/>
<circle cx="183.0" cy="-62.500000000257124" r="1.5" stroke="#191919" stroke-width="0.35 px" style="stroke-width:0.35;stroke-miterlimit:4;stroke-dasharray:none;fill:none"/>
<circle cx="133.99999999988043" cy="-30.500000000297742" r="1.5" stroke="#191919" stroke-width="0.35 px" style="stroke-width:0.35;stroke-miterlimit:4;stroke-dasharray:none;fill:none"/>
<path id="Sketch011_w0023"  d="M 137.99999999998616 15.49999999995735 L 129.99999999988043 15.49999999995735 L 129.99999999988043 5.499999999902926 L 119.9999999998534 5.499999999902926 L 119.9999999998534 -2.5000000002432934 L 129.99999999988043 -2.5000000002432934 L 129.99999999988043 -22.500000000297742 L 138.0000000000129 -22.500000000297742 L 138.0000000000129 -2.5000000002161293 L 158.00000000002686 -2.5000000002161293 L 158.00000000002686 5.499999999902926 L 137.99999999998616 5.499999999902926 L 137.99999999998616 15.49999999995735 " stroke="#191919" stroke-width="0.35 px" style="stroke-width:0.35;stroke-miterlimit:4;stroke-dasharray:none;fill:none;fill-opacity:1;fill-rule: evenodd"/>
<circle cx="78.86" cy="-62.500000000257124" r="1.5" stroke="#191919" stroke-width="0.35 px" style="stroke-width:0.35;stroke-miterlimit:4;stroke-dasharray:none;fill:none"/>
<circle cx="-40.44999999999999" cy="-157.75" r="1.5" stroke="#191919" stroke-width="0.35 px" style="stroke-width:0.35;stroke-miterlimit:4;stroke-dasharray:none;fill:none"/>
<path id="Sketch011_w0026"  d="M -46.249999999999986 -153.75 L -43.249999999999986 -153.75 L -43.249999999999986 -161.75 L -46.249999999999986 -161.75 L -46.249999999999986 -153.75 " stroke="#191919" stroke-width="0.35 px" style="stroke-width:0.35;stroke-miterlimit:4;stroke-dasharray:none;fill:none;fill-opacity:1;fill-rule: evenodd"/>
<circle cx="-58.999999999999986" cy="-176.0" r="1.5" stroke="#191919" stroke-width="0.35 px" style="stroke-width:0.35;stroke-miterlimit:4;stroke-dasharray:none;fill:none"/>
<circle cx="-83.99999999999999" cy="-176.0" r="1.5" stroke="#191919" stroke-width="0.35 px" style="stroke-width:0.35;stroke-miterlimit:4;stroke-dasharray:none;fill:none"/>
<circle cx="-24.5" cy="-111.50000000025713" r="1.5" stroke="#191919" stroke-width="0.35 px" style="stroke-width:0.35;stroke-miterlimit:4;stroke-dasharray:none;fill:none"/>
<circle cx="-82.5" cy="-111.50000000025713" r="1.5" stroke="#191919" stroke-width="0.35 px" style="stroke-width:0.35;stroke-miterlimit:4;stroke-dasharray:none;fill:none"/>
<circle cx="-99.99999999999999" cy="-187.2" r="1.5" stroke="#191919" stroke-width="0.35 px" style="stroke-width:0.35;stroke-miterlimit:4;stroke-dasharray:none;fill:none"/>
<path id="Sketch011_w0032"  d="M -107.00000000000708 -183.00000000000003 L -104.00000000000708 -183.00000000000003 L -104.00000000000352 -190.0 L -95.99999999999999 -190.0 L -95.99999999999999 -193.0 L -117.00000000000708 -193.0 L -117.00000000000708 -190.00000000000003 L -107.00000000000708 -190.00000000000003 L -107.00000000000708 -183.00000000000003 " stroke="#191919" stroke-width="0.35 px" style="stroke-width:0.35;stroke-miterlimit:4;stroke-dasharray:none;fill:none;fill-opacity:1;fill-rule: evenodd"/>
<path id="Sketch011_w0033"  d="M -138.0 -196.00000000000003 L -138.0 -193.0 L -133.50000000000708 -193.0 L -133.50000000000708 -190.00000000000003 L -125.50000000000708 -190.00000000000003 L -125.50000000000708 -193.0 L -117.99999999999999 -193.0 L -117.99999999999999 -196.00000000000003 L -138.0 -196.00000000000003 " stroke="#191919" stroke-width="0.35 px" style="stroke-width:0.35;stroke-miterlimit:4;stroke-dasharray:none;fill:none;fill-opacity:1;fill-rule: evenodd"/>
<circle cx="-129.50000000000708" cy="-187.20000000000002" r="1.5" stroke="#191919" stroke-width="0.35 px" style="stroke-width:0.35;stroke-miterlimit:4;stroke-dasharray:none;fill:none"/>
<path id="Sketch011_w0035"  d="M -152.00000000000708 -183.00000000000003 L -155.00000000000708 -183.00000000000003 L -155.00000000000708 -193.00000000000003 L -142.00000000000708 -193.00000000000003 L -142.00000000000708 -190.00000000000003 L -152.00000000000708 -190.00000000000003 L -152.00000000000708 -183.00000000000003 " stroke="#191919" stroke-width="0.35 px" style="stroke-width:0.35;stroke-miterlimit:4;stroke-dasharray:none;fill:none;fill-opacity:1;fill-rule: evenodd"/>
<path id="Sketch011_w0036"  d="M -158.0 -176.00000000000003 L -158.0 -156.0 L -155.0 -156.0 L -155.0 -176.00000000000003 L -158.0 -176.00000000000003 " stroke="#191919" stroke-width="0.35 px" style="stroke-width:0.35;stroke-miterlimit:4;stroke-dasharray:none;fill:none;fill-opacity:1;fill-rule: evenodd"/>
<circle cx="-99.99999999999999" cy="-126.3" r="1.5" stroke="#191919" stroke-width="0.35 px" style="stroke-width:0.35;stroke-miterlimit:4;stroke-dasharray:none;fill:none"/>
<path id="Sketch011_w0038"  d="M -117.00000000000708 -129.00000000000003 L -104.00000000000708 -129.00000000000003 L -104.00000000000708 -139.00000000000003 L -107.00000000000708 -139.00000000000003 L -107.00000000000708 -132.00000000000003 L -117.00000000000708 -132.00000000000003 L -117.00000000000708 -129.00000000000003 " stroke="#191919" stroke-width="0.35 px" style="stroke-width:0.35;stroke-miterlimit:4;stroke-dasharray:none;fill:none;fill-opacity:1;fill-rule: evenodd"/>
<circle cx="-129.50000000000708" cy="-134.80000000000004" r="1.5" stroke="#191919" stroke-width="0.35 px" style="stroke-width:0.35;stroke-miterlimit:4;stroke-dasharray:none;fill:none"/>
<path id="Sketch011_w0040"  d="M -133.50000000000708 -129.00000000000003 L -125.50000000000708 -129.00000000000003 L -125.50000000000708 -132.00000000000003 L -133.50000000000708 -132.00000000000003 L -133.50000000000708 -129.00000000000003 " stroke="#191919" stroke-width="0.35 px" style="stroke-width:0.35;stroke-miterlimit:4;stroke-dasharray:none;fill:none;fill-opacity:1;fill-rule: evenodd"/>
<path id="Sketch011_w0041"  d="M -103.99999999999999 -120.5 L -95.99999999999999 -120.5 L -95.99999999999999 -123.5 L -103.99999999999999 -123.5 L -103.99999999999999 -120.5 " stroke="#191919" stroke-width="0.35 px" style="stroke-width:0.35;stroke-miterlimit:4;stroke-dasharray:none;fill:none;fill-opacity:1;fill-rule: evenodd"/>
<path id="Sketch011_w0042"  d="M -111.5 -101.50000000025712 L -108.5 -101.50000000025712 L -108.5 -109.50000000025713 L -111.5 -109.50000000025713 L -111.5 -101.50000000025712 " stroke="#191919" stroke-width="0.35 px" style="stroke-width:0.35;stroke-miterlimit:4;stroke-dasharray:none;fill:none;fill-opacity:1;fill-rule: evenodd"/>
<circle cx="-114.3000000000001" cy="-105.50000000025712" r="1.5" stroke="#191919" stroke-width="0.35 px" style="stroke-width:0.35;stroke-miterlimit:4;stroke-dasharray:none;fill:none"/>
<path id="Sketch011_w0044"  d="M -142.00000000000708 -129.00000000000003 L -155.00000000000708 -129.00000000000003 L -155.00000000000708 -139.00000000000003 L -152.00000000000708 -139.00000000000003 L -152.00000000000708 -132.00000000000003 L -142.00000000000708 -132.00000000000003 L -142.00000000000708 -129.00000000000003 " stroke="#191919" stroke-width="0.35 px" style="stroke-width:0.35;stroke-miterlimit:4;stroke-dasharray:none;fill:none;fill-opacity:1;fill-rule: evenodd"/>
<circle cx="-147.2" cy="-105.50000000025712" r="1.5" stroke="#191919" stroke-width="0.35 px" style="stroke-width:0.35;stroke-miterlimit:4;stroke-dasharray:none;fill:none"/>
<path id="Sketch011_w0046"  d="M -153.0 -101.50000000025712 L -150.0 -101.50000000025712 L -150.0 -109.50000000025712 L -153.0 -109.50000000025712 L -153.0 -101.50000000025712 " stroke="#191919" stroke-width="0.35 px" style="stroke-width:0.35;stroke-miterlimit:4;stroke-dasharray:none;fill:none;fill-opacity:1;fill-rule: evenodd"/>
<circle cx="-24.5" cy="-62.500000000257124" r="1.5" stroke="#191919" stroke-width="0.35 px" style="stroke-width:0.35;stroke-miterlimit:4;stroke-dasharray:none;fill:none"/>
<circle cx="-82.5" cy="-62.500000000257124" r="1.5" stroke="#191919" stroke-width="0.35 px" style="stroke-width:0.35;stroke-miterlimit:4;stroke-dasharray:none;fill:none"/>
<circle cx="-96.00000000014658" cy="-30.500000000297742" r="1.5" stroke="#191919" stroke-width="0.35 px" style="stroke-width:0.35;stroke-miterlimit:4;stroke-dasharray:none;fill:none"/>
<path id="Sketch011_w0050"  d="M -100.00000000036108 15.499999999943768 L -92.00000000018743 15.499999999943768 L -92.00000000018743 5.499999999902926 L -82.00000000014658 5.499999999902926 L -82.00000000014658 -2.500000000257121 L -92.0000000001603 -2.5000000002571214 L -92.0000000001603 -22.50000000031167 L -100.00000000036108 -22.50000000031167 L -100.00000000036108 -2.5000000003114353 L -120.00000000042931 -2.5000000003114358 L -120.00000000042931 5.499999999902926 L -100.00000000036108 5.499999999902926 L -100.00000000036108 15.499999999943768 " stroke="#191919" stroke-width="0.35 px" style="stroke-width:0.35;stroke-miterlimit:4;stroke-dasharray:none;fill:none;fill-opacity:1;fill-rule: evenodd"/>
<circle cx="166.0" cy="1.4999999999029252" r="1.5" stroke="#191919" stroke-width="0.35 px" style="stroke-width:0.35;stroke-miterlimit:4;stroke-dasharray:none;fill:none"/>
<circle cx="133.99999999988043" cy="39.49999999995735" r="1.5" stroke="#191919" stroke-width="0.35 px" style="stroke-width:0.35;stroke-miterlimit:4;stroke-dasharray:none;fill:none"/>
<circle cx="133.99999999988043" cy="96.49999999994377" r="1.5" stroke="#191919" stroke-width="0.35 px" style="stroke-width:0.35;stroke-miterlimit:4;stroke-dasharray:none;fill:none"/>
<circle cx="95.9999999998534" cy="1.4999999999029252" r="1.5" stroke="#191919" stroke-width="0.35 px" style="stroke-width:0.35;stroke-miterlimit:4;stroke-dasharray:none;fill:none"/>
<circle cx="166.0" cy="134.49999999994378" r="1.5" stroke="#191919" stroke-width="0.35 px" style="stroke-width:0.35;stroke-miterlimit:4;stroke-dasharray:none;fill:none"/>
<path id="Sketch011_w0056"  d="M 137.9999999999861 158.5 L 129.999999999938 158.5 L 129.999999999938 138.4999999999996 L 119.9999999998534 138.4999999999996 L 119.9999999998534 130.49999999994378 L 129.99999999990737 130.49999999994378 L 129.99999999990737 120.4999999998898 L 137.9999999999861 120.4999999998898 L 137.9999999999861 130.4999999999333 L 158.0 130.4999999999333 L 158.0 138.4999999999996 L 137.9999999999861 138.4999999999996 L 137.9999999999861 158.5 " stroke="#191919" stroke-width="0.35 px" style="stroke-width:0.35;stroke-miterlimit:4;stroke-dasharray:none;fill:none;fill-opacity:1;fill-rule: evenodd"/>
<path id="Sketch011_w0057"  d="M 193.0 155.99999999999997 L 193.0 175.99999999999997 L 196.0 175.99999999999997 L 196.0 155.99999999999997 L 193.0 155.99999999999997 " stroke="#191919" stroke-width="0.35 px" style="stroke-width:0.35;stroke-miterlimit:4;stroke-dasharray:none;fill:none;fill-opacity:1;fill-rule: evenodd"/>
<path id="Sketch011_w0058"  d="M 156.0 192.99999999999997 L 156.0 195.99999999999997 L 176.0 195.99999999999997 L 176.0 192.99999999999997 L 156.0 192.99999999999997 " stroke="#191919" stroke-width="0.35 px" style="stroke-width:0.35;stroke-miterlimit:4;stroke-dasharray:none;fill:none;fill-opacity:1;fill-rule: evenodd"/>
<circle cx="133.99999999988043" cy="166.49999999998417" r="1.5" stroke="#191919" stroke-width="0.35 px" style="stroke-width:0.35;stroke-miterlimit:4;stroke-dasharray:none;fill:none"/>
<circle cx="95.9999999998534" cy="134.49999999994378" r="1.5" stroke="#191919" stroke-width="0.35 px" style="stroke-width:0.35;stroke-miterlimit:4;stroke-dasharray:none;fill:none"/>
<circle cx="-58.000000000146585" cy="1.4999999999029252" r="1.5" stroke="#191919" stroke-width="0.35 px" style="stroke-width:0.35;stroke-miterlimit:4;stroke-dasharray:none;fill:none"/>
<circle cx="-96.00000000014658" cy="39.49999999995735" r="1.5" stroke="#191919" stroke-width="0.35 px" style="stroke-width:0.35;stroke-miterlimit:4;stroke-dasharray:none;fill:none"/>
<circle cx="-96.00000000014658" cy="96.49999999994377" r="1.5" stroke="#191919" stroke-width="0.35 px" style="stroke-width:0.35;stroke-miterlimit:4;stroke-dasharray:none;fill:none"/>
<circle cx="-128.00000000015973" cy="1.4999999999029252" r="1.5" stroke="#191919" stroke-width="0.35 px" style="stroke-width:0.35;stroke-miterlimit:4;stroke-dasharray:none;fill:none"/>
<circle cx="-58.000000000146585" cy="134.49999999994378" r="1.5" stroke="#191919" stroke-width="0.35 px" style="stroke-width:0.35;stroke-miterlimit:4;stroke-dasharray:none;fill:none"/>
<circle cx="-96.00000000014658" cy="166.49999999998417" r="1.5" stroke="#191919" stroke-width="0.35 px" style="stroke-width:0.35;stroke-miterlimit:4;stroke-dasharray:none;fill:none"/>
<path id="Sketch011_w0067"  d="M -100.00000000014658 138.49999999998417 L -100.00000000014658 158.49999999998417 L -92.00000000014658 158.49999999998417 L -92.00000000014658 138.49999999998417 L -82.00000000014658 138.49999999998417 L -82.00000000014658 130.49999999994378 L -92.00000000014658 130.49999999994378 L -92.00000000014658 120.49999999994377 L -100.00000000017339 120.49999999994377 L -100.00000000017339 130.4999999999712 L -120.00000000015973 130.4999999999712 L -120.00000000015973 138.49999999998417 L -100.00000000014658 138.49999999998417 " stroke="#191919" stroke-width="0.35 px" style="stroke-width:0.35;stroke-miterlimit:4;stroke-dasharray:none;fill:none;fill-opacity:1;fill-rule: evenodd"/>
<circle cx="-128.00000000015973" cy="134.49999999994378" r="1.5" stroke="#191919" stroke-width="0.35 px" style="stroke-width:0.35;stroke-miterlimit:4;stroke-dasharray:none;fill:none"/>
<path id="Sketch011_w0069"  d="M -138.0 192.99999999999997 L -138.0 195.99999999999997 L -117.99999999999999 195.99999999999997 L -117.99999999999999 192.99999999999997 L -138.0 192.99999999999997 " stroke="#191919" stroke-width="0.35 px" style="stroke-width:0.35;stroke-miterlimit:4;stroke-dasharray:none;fill:none;fill-opacity:1;fill-rule: evenodd"/>
<path id="Sketch011_w0070"  d="M -173.0 152.49999999999997 L -165.0 152.49999999999997 L -165.0 147.49999999999997 L -173.0 147.49999999999997 L -173.0 152.49999999999997 " stroke="#191919" stroke-width="0.35 px" style="stroke-width:0.35;stroke-miterlimit:4;stroke-dasharray:none;fill:none;fill-opacity:1;fill-rule: evenodd"/>
<path id="Sketch011_w0071"  d="M -158.0 155.99999999999997 L -158.0 175.99999999999997 L -155.0 175.99999999999997 L -155.0 155.99999999999997 L -158.0 155.99999999999997 " stroke="#191919" stroke-width="0.35 px" style="stroke-width:0.35;stroke-miterlimit:4;stroke-dasharray:none;fill:none;fill-opacity:1;fill-rule: evenodd"/>
<circle cx="-169.0" cy="166.50000000000009" r="1.5" stroke="#191919" stroke-width="0.35 px" style="stroke-width:0.35;stroke-miterlimit:4;stroke-dasharray:none;fill:none"/>
<path id="Sketch011_w0073"  d="M -194.0 152.49999999999997 L -186.0 152.49999999999997 L -186.0 147.49999999999997 L -194.0 147.49999999999997 L -194.0 152.49999999999997 " stroke="#191919" stroke-width="0.35 px" style="stroke-width:0.35;stroke-miterlimit:4;stroke-dasharray:none;fill:none;fill-opacity:1;fill-rule: evenodd"/>
<circle cx="-190.0" cy="166.49999999999991" r="1.5" stroke="#191919" stroke-width="0.35 px" style="stroke-width:0.35;stroke-miterlimit:4;stroke-dasharray:none;fill:none"/>
<path id="Sketch011_w0075"  d="M -173.0 185.49999999999997 L -165.0 185.49999999999997 L -165.0 180.49999999999997 L -173.0 180.49999999999997 L -173.0 185.49999999999997 " stroke="#191919" stroke-width="0.35 px" style="stroke-width:0.35;stroke-miterlimit:4;stroke-dasharray:none;fill:none;fill-opacity:1;fill-rule: evenodd"/>
<path id="Sketch011_w0076"  d="M -194.0 185.49999999999997 L -186.0 185.49999999999997 L -186.0 180.49999999999997 L -194.0 180.49999999999997 L -194.0 185.49999999999997 " stroke="#191919" stroke-width="0.35 px" style="stroke-width:0.35;stroke-miterlimit:4;stroke-dasharray:none;fill:none;fill-opacity:1;fill-rule: evenodd"/>
<title>b'baseplate'</title>
</g>
</svg>