<?xml version="1.0"?>
<!DOCTYPE svg PUBLIC "-//W3C//DTD SVG 1.1//EN" "http://www.w3.org/Graphics/SVG/1.1/DTD/svg11.dtd">
<svg width="361.0799999999989mm" height="47.080000000000226mm" viewBox="0 0 361.0799999999989 47.080000000000226" xmlns="http://www.w3.org/2000/svg" version="1.1">
<g id="Sketch006" transform="translate(6.540000,6.540000) scale(1,-1)">
<path id="Sketch006_w0000"  d="M -6.5999970011402625e-22 -34.0 L 16.999999999999936 -34.0 L 16.999999999999936 -37.0 L 36.99999999999986 -37.0 L 36.99999999999986 -34.00000000000142 L 311.0000000000018 -34.00000000000142 L 311.0000000000018 -37.00000000000095 L 331.0000000000034 -37.00000000000095 L 331.0000000000034 -34.00000000000166 L 347.9999999999985 -34.00000000000166 L 347.9999999999985 -27.200000000001666 L 350.9999999999987 -27.200000000001666 L 350.9999999999987 -20.400000000001665 L 347.99999999999864 -20.400000000001665 L 347.99999999999864 -13.600000000001664 L 350.9999999999987 -13.600000000001664 L 350.9999999999987 -6.800000000001664 L 347.99999999999864 -6.800000000001664 L 347.99999999999864 -1.6635581800983346e-12 L 331.0000000000036 -1.6635581800983346e-12 L 331.0000000000036 2.9999999999976197 L 311.0000000000017 2.9999999999976197 L 311.0000000000017 -7.0921046813055e-13 L 36.99999999999348 -7.0921046813055e-13 L 36.99999999999349 2.999999999999291 L 16.999999999995673 2.999999999999291 L 16.999999999995673 0.0 L 0.0 0.0 L -1.3199994002280528e-22 -6.800000000000001 L -3.0000000000002514 -6.800000000000001 L -3.0000000000002514 -13.600000000000001 L -1.7073009674002102e-12 -13.600000000000001 L -1.707523012269484e-12 -20.400000000000002 L -2.9999999999999885 -20.400000000000002 L -2.9999999999999885 -27.200000000000003 L -2.6330196407425226e-22 -27.200000000000003 L -6.5999970011402625e-22 -34.0 " stroke="#191919" stroke-width="0.35 px" style="stroke-width:0.35;stroke-miterlimit:4;stroke-dasharray:none;fill:none;fill-opacity:1;fill-rule: evenodd"/>
<path id="Sketch006_w0001"  d="M 169.99999999999935 -20.5 L 169.99999999999935 -23.5 L 177.99999999999932 -23.5 L 177.99999999999932 -20.5 L 169.99999999999935 -20.5 " stroke="#191919" stroke-width="0.35 px" style="stroke-width:0.35;stroke-miterlimit:4;stroke-dasharray:none;fill:none;fill-opacity:1;fill-rule: evenodd"/>
<path id="Sketch006_w0002"  d="M 173.99999999999935 -24.79999999999994 A 1.5 1.4999999999999942 -90.0 0 1 173.99999999999935 -27.79999999999994 A 1.5 1.4999999999999942 -90.0 0 1 173.99999999999935 -24.79999999999994 " stroke="#191919" stroke-width="0.35 px" style="stroke-width:0.35;stroke-miterlimit:4;stroke-dasharray:none;fill:none;fill-opacity:1;fill-rule: evenodd"/>
<title>b'bottom001'</title>
</g>
</svg>