<?xml version="1.0"?>
<!DOCTYPE svg PUBLIC "-//W3C//DTD SVG 1.1//EN" "http://www.w3.org/Graphics/SVG/1.1/DTD/svg11.dtd">
<svg width="361.08000000000004mm" height="44.08mm" viewBox="0 0 361.08000000000004 44.08" xmlns="http://www.w3.org/2000/svg" version="1.1">
<g id="Sketch004" transform="translate(179.540000,40.540000) scale(1,-1)">
<path id="Sketch004_w0000"  d="M 133.0 37.0 L 167.000000000013 37.0 L 167.000000000013 35.0 A 2 2 0 0 1 171 35A 2 2 0 1 1 175 35L 174.99999999999997 24.50000000000007 L 177.99999999999997 24.50000000000007 L 177.99999999999997 14.500000000000071 L 175.0 14.500000000000071 L 174.99999999999937 8.499999797205271 A 2.5 2.5 0 0 1 170 8.5L 170.0 3.0 L 140.0 3.0 L 140.0 0.0 L 120.0 0.0 L 120.0 18.5 L 112.0 18.5 L 112.0 0.0 L 102.0 0.0 L 102.0 3.0 L 6.000000000000014 3.0 L 6.000000000000014 8.0 L -3.999999999999986 8.0 L -3.999999999999986 3.0 L -99.99999999999997 3.0 L -100.0 5.15913447360126e-17 L -110.0 0.0 L -110.0 18.5 L -118.0 18.5 L -118.0 0.0 L -138.0 0.0 L -138.0 3.0 L -168.0 3.0 L -168.0 8.5 A 2.5 2.5 0 0 1 -173 8.5L -173.0 14.500000000000114 L -176.00000000000006 14.500000000000114 L -176.00000000000006 24.500000000000114 L -173.00000000000006 24.500000000000114 L -173.00000000000006 35.000000000000114 A 2 2 0 0 1 -169 35A 2 2 0 0 1 -165 35L -165.00000000000006 37.0 L -118.0 37.0 L -118.0 33.0 L -100.0 33.0 L -100.0 22.5 L 102.0 22.5 L 102.0 33.0 L 120.0 33.0 L 120.0 37.0 L 123.0 37.0 L 123.0 20.49999999999998 A 3 3 0 0 1 126 17.5L 130.0 17.49999999999998 A 3 3 0 0 1 133 20.5L 133.0 37.0 " stroke="#191919" stroke-width="0.35 px" style="stroke-width:0.35;stroke-miterlimit:4;stroke-dasharray:none;fill:none;fill-opacity:1;fill-rule: evenodd"/>
<circle cx="-158.00000000000006" cy="20.00000000000007" r="11.05" stroke="#191919" stroke-width="0.35 px" style="stroke-width:0.35;stroke-miterlimit:4;stroke-dasharray:none;fill:none"/>
<circle cx="159.99999999999997" cy="20.00000000000007" r="11.05" stroke="#191919" stroke-width="0.35 px" style="stroke-width:0.35;stroke-miterlimit:4;stroke-dasharray:none;fill:none"/>
<circle cx="-138.00000000000006" cy="20.00000000000007" r="8.25" stroke="#191919" stroke-width="0.35 px" style="stroke-width:0.35;stroke-miterlimit:4;stroke-dasharray:none;fill:none"/>
<path id="Sketch004_w0004"  d="M -148.8 8.0 L -148.8 9.7 L -143.2 9.7 L -143.2 8.0 L -148.8 8.0 " stroke="#191919" stroke-width="0.35 px" style="stroke-width:0.35;stroke-miterlimit:4;stroke-dasharray:none;fill:none;fill-opacity:1;fill-rule: evenodd"/>
<path id="Sketch004_w0005"  d="M 145.2 7.999999999999977 L 145.2 9.699999999999976 L 150.8 9.699999999999976 L 150.8 7.999999999999977 L 145.2 7.999999999999977 " stroke="#191919" stroke-width="0.35 px" style="stroke-width:0.35;stroke-miterlimit:4;stroke-dasharray:none;fill:none;fill-opacity:1;fill-rule: evenodd"/>
<path id="Sketch004_w0006"  d="M -171.00000000000006 26.200000000000113 L -171.00000000000006 31.800000000000114 L -169.30000000000004 31.800000000000114 L -169.30000000000004 26.200000000000113 L -171.00000000000006 26.200000000000113 " stroke="#191919" stroke-width="0.35 px" style="stroke-width:0.35;stroke-miterlimit:4;stroke-dasharray:none;fill:none;fill-opacity:1;fill-rule: evenodd"/>
<path id="Sketch004_w0007"  d="M 171.29999999999998 26.20000000000007 L 171.29999999999998 31.80000000000007 L 172.99999999999997 31.80000000000007 L 172.99999999999997 26.20000000000007 L 171.29999999999998 26.20000000000007 " stroke="#191919" stroke-width="0.35 px" style="stroke-width:0.35;stroke-miterlimit:4;stroke-dasharray:none;fill:none;fill-opacity:1;fill-rule: evenodd"/>
<path id="Sketch004_w0008"  d="M 75.2 8.000000000000007 L 75.2 9.700000000000006 L 80.8 9.700000000000006 L 80.8 8.000000000000007 L 75.2 8.000000000000007 " stroke="#191919" stroke-width="0.35 px" style="stroke-width:0.35;stroke-miterlimit:4;stroke-dasharray:none;fill:none;fill-opacity:1;fill-rule: evenodd"/>
<path id="Sketch004_w0009"  d="M -78.79999999999997 8.000000000000004 L -78.79999999999997 9.700000000000003 L -73.19999999999997 9.700000000000003 L -73.19999999999997 8.000000000000004 L -78.79999999999997 8.000000000000004 " stroke="#191919" stroke-width="0.35 px" style="stroke-width:0.35;stroke-miterlimit:4;stroke-dasharray:none;fill:none;fill-opacity:1;fill-rule: evenodd"/>
<circle cx="-138.00000000000003" cy="32.50000000000007" r="1.75" stroke="#191919" stroke-width="0.35 px" style="stroke-width:0.35;stroke-miterlimit:4;stroke-dasharray:none;fill:none"/>
<circle cx="-138.00000000000006" cy="7.500000000000069" r="1.75" stroke="#191919" stroke-width="0.35 px" style="stroke-width:0.35;stroke-miterlimit:4;stroke-dasharray:none;fill:none"/>
<circle cx="97.79999999999998" cy="18.5" r="1.5" stroke="#191919" stroke-width="0.35 px" style="stroke-width:0.35;stroke-miterlimit:4;stroke-dasharray:none;fill:none"/>
<circle cx="97.79999999999998" cy="11.5" r="1.5" stroke="#191919" stroke-width="0.35 px" style="stroke-width:0.35;stroke-miterlimit:4;stroke-dasharray:none;fill:none"/>
<circle cx="-106.0" cy="7.500000000000001" r="1.5" stroke="#191919" stroke-width="0.35 px" style="stroke-width:0.35;stroke-miterlimit:4;stroke-dasharray:none;fill:none"/>
<circle cx="-99.0" cy="7.500000000000001" r="1.5" stroke="#191919" stroke-width="0.35 px" style="stroke-width:0.35;stroke-miterlimit:4;stroke-dasharray:none;fill:none"/>
<title>b'verts001'</title>
</g>
</svg>