<?xml version="1.0"?>
<!DOCTYPE svg PUBLIC "-//W3C//DTD SVG 1.1//EN" "http://www.w3.org/Graphics/SVG/1.1/DTD/svg11.dtd">
<svg width="65.27999999999962mm" height="31.280000000001316mm" viewBox="0 0 65.27999999999962 31.280000000001316" xmlns="http://www.w3.org/2000/svg" version="1.1">
<g id="Sketch009" transform="translate(32.640000,0.640000) scale(1,-1)">
<path id="Sketch009_w0000"  d="M -28.999999683413954 -30.000000000001005 L -18.99999968341401 -30.000000000001005 L -18.999999683414007 -27.00000000000102 L 19.000000316585776 -27.00000000000102 L 19.000000316585776 -30.000000000000988 L 29.00000031658572 -30.000000000000988 L 29.000000316585723 -23.250000000000625 L 32.0000003165857 -23.250000000000625 L 32.00000031658569 -16.500000000000203 L 29.00000031658572 -16.500000000000203 L 29.000000316585723 -9.74999999999975 L 32.0000003165857 -9.74999999999975 L 32.00000031658569 3.1760705017106787e-13 L 22.000000316585748 3.172462270957406e-13 L 22.00000031658575 -3.0000000000004587 L 2.5000003165858695 -3.0000000000004587 L -2.499999683414103 -3.0000000000004463 L -21.999999683413986 -3.000000000000437 L -21.999999683413986 -4.2180223063793305e-13 L -31.999999683413932 -4.217197109114904e-13 L -31.99999968341393 -9.75000000000046 L -28.999999683413954 -9.75000000000046 L -28.999999683413954 -16.500000000000735 L -31.99999968341393 -16.500000000000735 L -31.99999968341393 -23.250000000000917 L -28.999999683413954 -23.250000000000917 L -28.999999683413954 -30.000000000001005 " stroke="#191919" stroke-width="0.35 px" style="stroke-width:0.35;stroke-miterlimit:4;stroke-dasharray:none;fill:none;fill-opacity:1;fill-rule: evenodd"/>
<title>b'back'</title>
</g>
</svg>