<?xml version="1.0"?>
<!DOCTYPE svg PUBLIC "-//W3C//DTD SVG 1.1//EN" "http://www.w3.org/Graphics/SVG/1.1/DTD/svg11.dtd">
<svg width="258.05999999993105mm" height="42.05999999999865mm" viewBox="0 0 258.05999999993105 42.05999999999865" xmlns="http://www.w3.org/2000/svg" version="1.1">
<g id="Sketch005" transform="translate(-5.970000,2.530000) scale(1,-1)">
<path id="Sketch005_w0000"  d="M 70.5 -33.0 L 74.0 -33.0 L 74.0 -30.0 L 77.0 -30.0 L 77.0 -33.0 L 80.5 -33.0 L 80.5 -22.0 L 185.5 -22.0 L 185.5 -33.0 L 189.0 -33.0 L 189.0 -30.0 L 192.0 -30.0 L 192.0 -33.0 L 195.5 -33.0 L 195.5 -18.5 L 203.5 -18.5 L 203.5 -37.0 L 250.49999999993236 -37.0 L 250.49999999993236 -35.0 A 2 2 0 1 0 254.5 -35A 2 2 0 1 0 258.5 -35L 258.4999999999323 -24.5 L 261.49999999993236 -24.5 L 261.49999999993236 -14.5 L 258.5 -14.5 L 258.5 -5.499999909478287 A 2.5 2.5 0 0 0 253.5 -5.5L 253.5 -3.0 L 223.5 -3.0 L 223.5 0.0 L 185.49999999999997 4.206267966436861e-40 L 185.49999999999997 -3.0 L 138.0 -3.0 L 138.0 -8.0 L 128.0 -8.0 L 128.0 -3.0 L 80.50000000000003 -3.0 L 80.50000000000003 0.0 L 42.5 0.0 L 42.5 -3.0 L 12.5 -3.0 L 12.5 -11.0 L 8.5 -11.0 L 8.5 -34.999999999997996 A 2 2 0 1 0 12.5 -35A 2 2 0 0 0 16.5 -35L 16.5 -37.0 L 49.500000000000014 -37.0 L 49.500000000000014 -20.000000000000004 A 3 3 0 0 0 52.5 -17L 56.5 -17.000000000000004 A 3 3 0 0 0 59.5 -20L 59.5 -37.0 L 62.5 -37.0 L 62.5 -18.5 L 70.5 -18.5 L 70.5 -33.0 " stroke="#191919" stroke-width="0.35 px" style="stroke-width:0.35;stroke-miterlimit:4;stroke-dasharray:none;fill:none;fill-opacity:1;fill-rule: evenodd"/>
<circle cx="243.4999999999323" cy="-19.499999999998" r="11.05" stroke="#191919" stroke-width="0.35 px" style="stroke-width:0.35;stroke-miterlimit:4;stroke-dasharray:none;fill:none"/>
<circle cx="23.5" cy="-19.499999999998" r="11.05" stroke="#191919" stroke-width="0.35 px" style="stroke-width:0.35;stroke-miterlimit:4;stroke-dasharray:none;fill:none"/>
<circle cx="223.4999999999323" cy="-19.499999999998" r="8.25" stroke="#191919" stroke-width="0.35 px" style="stroke-width:0.35;stroke-miterlimit:4;stroke-dasharray:none;fill:none"/>
<path id="Sketch005_w0004"  d="M 12.200000000000003 -26.199999999998 L 12.200000000000003 -31.799999999998 L 10.5 -31.799999999998 L 10.5 -26.199999999998 L 12.200000000000003 -26.199999999998 " stroke="#191919" stroke-width="0.35 px" style="stroke-width:0.35;stroke-miterlimit:4;stroke-dasharray:none;fill:none;fill-opacity:1;fill-rule: evenodd"/>
<path id="Sketch005_w0005"  d="M 256.4999999999323 -26.2 L 256.4999999999323 -31.8 L 254.7999999999323 -31.8 L 254.7999999999323 -26.2 L 256.4999999999323 -26.2 " stroke="#191919" stroke-width="0.35 px" style="stroke-width:0.35;stroke-miterlimit:4;stroke-dasharray:none;fill:none;fill-opacity:1;fill-rule: evenodd"/>
<path id="Sketch005_w0006"  d="M 107.30000000000001 -7.999999999999999 L 107.30000000000001 -9.7 L 101.70000000000002 -9.7 L 101.70000000000002 -7.999999999999999 L 107.30000000000001 -7.999999999999999 " stroke="#191919" stroke-width="0.35 px" style="stroke-width:0.35;stroke-miterlimit:4;stroke-dasharray:none;fill:none;fill-opacity:1;fill-rule: evenodd"/>
<path id="Sketch005_w0007"  d="M 164.29999999999998 -8.000000000000002 L 164.29999999999998 -9.700000000000001 L 158.7 -9.700000000000001 L 158.7 -8.000000000000002 L 164.29999999999998 -8.000000000000002 " stroke="#191919" stroke-width="0.35 px" style="stroke-width:0.35;stroke-miterlimit:4;stroke-dasharray:none;fill:none;fill-opacity:1;fill-rule: evenodd"/>
<path id="Sketch005_w0008"  d="M 234.3 -8.0 L 234.3 -9.7 L 228.7 -9.7 L 228.7 -8.0 L 234.3 -8.0 " stroke="#191919" stroke-width="0.35 px" style="stroke-width:0.35;stroke-miterlimit:4;stroke-dasharray:none;fill:none;fill-opacity:1;fill-rule: evenodd"/>
<path id="Sketch005_w0009"  d="M 37.3 -8.0 L 37.3 -9.700000000000001 L 31.700000000000003 -9.700000000000001 L 31.700000000000003 -8.0 L 37.3 -8.0 " stroke="#191919" stroke-width="0.35 px" style="stroke-width:0.35;stroke-miterlimit:4;stroke-dasharray:none;fill:none;fill-opacity:1;fill-rule: evenodd"/>
<circle cx="223.4999999999323" cy="-6.999999999998" r="1.75" stroke="#191919" stroke-width="0.35 px" style="stroke-width:0.35;stroke-miterlimit:4;stroke-dasharray:none;fill:none"/>
<circle cx="223.4999999999323" cy="-31.999999999998" r="1.75" stroke="#191919" stroke-width="0.35 px" style="stroke-width:0.35;stroke-miterlimit:4;stroke-dasharray:none;fill:none"/>
<circle cx="84.69999999999999" cy="-18.0" r="1.5" stroke="#191919" stroke-width="0.35 px" style="stroke-width:0.35;stroke-miterlimit:4;stroke-dasharray:none;fill:none"/>
<circle cx="84.7" cy="-11.0" r="1.5" stroke="#191919" stroke-width="0.35 px" style="stroke-width:0.35;stroke-miterlimit:4;stroke-dasharray:none;fill:none"/>
<circle cx="191.5" cy="-6.999999999999999" r="1.5" stroke="#191919" stroke-width="0.35 px" style="stroke-width:0.35;stroke-miterlimit:4;stroke-dasharray:none;fill:none"/>
<circle cx="184.5" cy="-6.999999999999999" r="1.5" stroke="#191919" stroke-width="0.35 px" style="stroke-width:0.35;stroke-miterlimit:4;stroke-dasharray:none;fill:none"/>
<title>b'horz-left'</title>
</g>
</svg>