<?xml version="1.0"?>
<!DOCTYPE svg PUBLIC "-//W3C//DTD SVG 1.1//EN" "http://www.w3.org/Graphics/SVG/1.1/DTD/svg11.dtd">
<svg width="30.600000000005224mm" height="51.60000000002897mm" viewBox="0 0 30.600000000005224 51.60000000002897" xmlns="http://www.w3.org/2000/svg" version="1.1">
<g id="Sketch009" transform="translate(30.300000,48.300000) scale(1,-1)">
<path id="Sketch009_w0000"  d="M -30.000000000005123 48.00000000002081 L -23.250000000005123 48.00000000002081 L -23.250000000005116 45.000000000020805 L -16.500000000005095 45.000000000020805 L -16.500000000005095 48.00000000005991 L -9.750000000004997 48.00000000005993 L -9.750000000004993 45.000000000000014 L -4.992506408285636e-12 45.00000000000001 L -4.986122625894041e-12 35.00000000000001 L -3.0000000000049876 35.00000000000001 L -3.000000000004983 26.499999999999844 L -9.750000000004984 26.49999999999984 L -9.750000000004981 18.499999999999837 L -3.0000000000000115 18.49999999999984 L -3.000000000000006 10.000000000003686 L -6.106226635440406e-15 10.000000000003686 L -3.944304526105059e-31 8.881784197001252e-16 L -9.7499999999742 -3.2474023470199914e-15 L -9.7499999999742 -2.9999999999689315 L -16.499999999974314 -2.999999999968934 L -16.499999999974314 -2.2582241632207453e-11 L -23.249999999974442 -2.258435105595424e-11 L -23.249999999974442 -2.9999999999301403 L -29.999999999974584 -2.999999999930142 L -29.999999999974595 10.000000000128862 L -26.99999999999853 10.000000000128864 L -26.99999999999854 35.000000000020805 L -30.000000000005112 35.000000000020805 L -30.000000000005123 48.00000000002081 " stroke="#191919" stroke-width="0.35 px" style="stroke-width:0.35;stroke-miterlimit:4;stroke-dasharray:none;fill:none;fill-opacity:1;fill-rule: evenodd"/>
<title>b'side'</title>
</g>
</svg>