<?xml version="1.0"?>
<!DOCTYPE svg PUBLIC "-//W3C//DTD SVG 1.1//EN" "http://www.w3.org/Graphics/SVG/1.1/DTD/svg11.dtd">
<svg width="30.599999999898987mm" height="64.59999999991587mm" viewBox="0 0 30.599999999898987 64.59999999991587" xmlns="http://www.w3.org/2000/svg" version="1.1">
<g id="Sketch011" transform="translate(30.300000,32.300000) scale(1,-1)">
<path id="Sketch011_w0000"  d="M -29.999999999687216 -29.000000000000156 L -29.999999999687216 -19.000000000000156 L -26.999999999687525 -19.000000000000156 L -26.999999999687525 19.0 L -29.999999999686597 19.0 L -29.999999999686597 28.999999999999844 L -23.24999999985988 28.999999999999844 L -23.24999999985988 31.999999999909797 L -16.500000000033165 31.999999999909797 L -16.500000000033165 28.99999999999969 L -9.750000000198705 28.99999999999969 L -9.750000000198705 31.999999999917694 L -2.1311130637968745e-10 31.999999999917694 L -2.1311130637968745e-10 21.999999999917698 L -2.999999999786247 21.999999999917698 L -2.999999999786247 2.4999999999999987 L -3.999999999786247 2.4999999999999987 L -3.999999999786247 -2.5000000000000013 L -2.999999999786247 -2.5000000000000013 L -2.999999999786247 -21.999999999917694 L 2.1375308425908414e-10 -21.99999999991769 L 2.1375315323023742e-10 -31.999999999917694 L -9.749999999786247 -31.999999999917694 L -9.749999999786247 -28.99999999999969 L -16.49999999969527 -28.99999999999969 L -16.49999999969527 -32.000000000000156 L -23.249999999687216 -32.000000000000156 L -23.249999999687216 -29.000000000000156 L -29.999999999687216 -29.000000000000156 " stroke="#191919" stroke-width="0.35 px" style="stroke-width:0.35;stroke-miterlimit:4;stroke-dasharray:none;fill:none;fill-opacity:1;fill-rule: evenodd"/>
<circle cx="-7.999999999786247" cy="-18.99999999999969" r="1.0" stroke="#191919" stroke-width="0.35 px" style="stroke-width:0.35;stroke-miterlimit:4;stroke-dasharray:none;fill:none"/>
<circle cx="-18.999999999786247" cy="-18.99999999999969" r="1.0" stroke="#191919" stroke-width="0.35 px" style="stroke-width:0.35;stroke-miterlimit:4;stroke-dasharray:none;fill:none"/>
<title>b'front'</title>
</g>
</svg>