<?xml version="1.0"?>
<!DOCTYPE svg PUBLIC "-//W3C//DTD SVG 1.1//EN" "http://www.w3.org/Graphics/SVG/1.1/DTD/svg11.dtd">
<svg width="258.0599999999999mm" height="42.06mm" viewBox="0 0 258.0599999999999 42.06" xmlns="http://www.w3.org/2000/svg" version="1.1">
<g id="Sketch006" transform="translate(260.530000,2.530000) scale(1,-1)">
<path id="Sketch006_w0000"  d="M -70.5 -33.0 L -74.0 -33.0 L -74.0 -30.0 L -77.0 -30.0 L -77.0 -33.0 L -80.5 -33.0 L -80.5 -22.0 L -185.5 -22.0 L -185.5 -33.0 L -189.0 -33.0 L -189.0 -30.0 L -192.0 -30.0 L -192.0 -33.0 L -195.5 -33.0 L -195.5 -18.5 L -203.5 -18.5 L -203.5 -37.0 L -250.0 -37.0 L -250.0 -35.0 A 2 2 0 1 1 -254 -35A 2 2 0 1 1 -258 -35L -258.0 -8.0 L -253.0 -8.0 L -253.0 -3.0 L -223.5 -3.0 L -223.5 0.0 L -185.5 0.0 L -185.5 -3.0 L -138.0 -3.0 L -138.0 -8.0 L -128.0 -8.0 L -128.0 -3.0 L -80.5 -3.0 L -80.5 0.0 L -42.5 0.0 L -42.5 -3.0 L -12.999999999999986 -3.0 L -12.999999999999986 -5.499999999999999 A 2.5 2.5 0 1 1 -8 -5.5L -8.000000000000028 -14.500000000000036 L -5.000000000000085 -14.500000000000036 L -5.000000000000085 -24.500000000000036 L -8.000000000000085 -24.500000000000036 L -8.000000000000085 -35.000000000000036 A 2 2 0 0 1 -12 -35A 2 2 0 0 1 -16 -35L -16.000000000000085 -37.0 L -49.5 -37.0 L -49.5 -20.000000000000014 A 3 3 0 0 1 -52.5 -17L -56.5 -17.000000000000014 A 3 3 0 0 1 -59.5 -20L -59.5 -37.0 L -62.5 -37.0 L -62.5 -18.5 L -70.5 -18.5 L -70.5 -33.0 " stroke="#191919" stroke-width="0.35 px" style="stroke-width:0.35;stroke-miterlimit:4;stroke-dasharray:none;fill:none;fill-opacity:1;fill-rule: evenodd"/>
<circle cx="-243.0" cy="-19.500000000000036" r="11.05" stroke="#191919" stroke-width="0.35 px" style="stroke-width:0.35;stroke-miterlimit:4;stroke-dasharray:none;fill:none"/>
<circle cx="-23.000000000000085" cy="-19.500000000000036" r="11.05" stroke="#191919" stroke-width="0.35 px" style="stroke-width:0.35;stroke-miterlimit:4;stroke-dasharray:none;fill:none"/>
<circle cx="-223.0" cy="-19.500000000000036" r="8.25" stroke="#191919" stroke-width="0.35 px" style="stroke-width:0.35;stroke-miterlimit:4;stroke-dasharray:none;fill:none"/>
<path id="Sketch006_w0004"  d="M -11.700000000000088 -26.20000000000003 L -11.700000000000088 -31.80000000000004 L -10.000000000000085 -31.80000000000004 L -10.000000000000085 -26.20000000000003 L -11.700000000000088 -26.20000000000003 " stroke="#191919" stroke-width="0.35 px" style="stroke-width:0.35;stroke-miterlimit:4;stroke-dasharray:none;fill:none;fill-opacity:1;fill-rule: evenodd"/>
<path id="Sketch006_w0005"  d="M -256.0 -26.2 L -256.0 -31.8 L -254.3 -31.8 L -254.3 -26.2 L -256.0 -26.2 " stroke="#191919" stroke-width="0.35 px" style="stroke-width:0.35;stroke-miterlimit:4;stroke-dasharray:none;fill:none;fill-opacity:1;fill-rule: evenodd"/>
<path id="Sketch006_w0006"  d="M -164.3 -7.999999999999999 L -164.3 -9.7 L -158.7 -9.7 L -158.7 -7.999999999999999 L -164.3 -7.999999999999999 " stroke="#191919" stroke-width="0.35 px" style="stroke-width:0.35;stroke-miterlimit:4;stroke-dasharray:none;fill:none;fill-opacity:1;fill-rule: evenodd"/>
<path id="Sketch006_w0007"  d="M -107.30000000000001 -8.0 L -107.3 -9.7 L -101.69999999999999 -9.7 L -101.7 -8.0 L -107.30000000000001 -8.0 " stroke="#191919" stroke-width="0.35 px" style="stroke-width:0.35;stroke-miterlimit:4;stroke-dasharray:none;fill:none;fill-opacity:1;fill-rule: evenodd"/>
<path id="Sketch006_w0008"  d="M -234.3 -8.0 L -234.3 -9.7 L -228.7 -9.7 L -228.7 -8.0 L -234.3 -8.0 " stroke="#191919" stroke-width="0.35 px" style="stroke-width:0.35;stroke-miterlimit:4;stroke-dasharray:none;fill:none;fill-opacity:1;fill-rule: evenodd"/>
<path id="Sketch006_w0009"  d="M -37.3 -8.0 L -37.3 -9.7 L -31.700000000000003 -9.7 L -31.700000000000003 -8.0 L -37.3 -8.0 " stroke="#191919" stroke-width="0.35 px" style="stroke-width:0.35;stroke-miterlimit:4;stroke-dasharray:none;fill:none;fill-opacity:1;fill-rule: evenodd"/>
<circle cx="-223.0" cy="-32.000000000000036" r="1.75" stroke="#191919" stroke-width="0.35 px" style="stroke-width:0.35;stroke-miterlimit:4;stroke-dasharray:none;fill:none"/>
<circle cx="-223.00000000000006" cy="-7.000000000000036" r="1.75" stroke="#191919" stroke-width="0.35 px" style="stroke-width:0.35;stroke-miterlimit:4;stroke-dasharray:none;fill:none"/>
<circle cx="-191.5" cy="-6.999999999999999" r="1.5" stroke="#191919" stroke-width="0.35 px" style="stroke-width:0.35;stroke-miterlimit:4;stroke-dasharray:none;fill:none"/>
<circle cx="-184.5" cy="-6.999999999999991" r="1.5" stroke="#191919" stroke-width="0.35 px" style="stroke-width:0.35;stroke-miterlimit:4;stroke-dasharray:none;fill:none"/>
<circle cx="-84.70000000000002" cy="-18.0" r="1.5" stroke="#191919" stroke-width="0.35 px" style="stroke-width:0.35;stroke-miterlimit:4;stroke-dasharray:none;fill:none"/>
<circle cx="-84.7" cy="-11.0" r="1.5" stroke="#191919" stroke-width="0.35 px" style="stroke-width:0.35;stroke-miterlimit:4;stroke-dasharray:none;fill:none"/>
<title>b'horz-right'</title>
</g>
</svg>