<?xml version="1.0"?>
<!DOCTYPE svg PUBLIC "-//W3C//DTD SVG 1.1//EN" "http://www.w3.org/Graphics/SVG/1.1/DTD/svg11.dtd">
<svg width="65.28mm" height="52.28mm" viewBox="0 0 65.28 52.28" xmlns="http://www.w3.org/2000/svg" version="1.1">
<g id="Sketch006" transform="translate(32.640000,3.640000) scale(1,-1)">
<path id="Sketch006_w0000"  d="M -19.0 3.0 L 19.0 3.0 L 19.0 0.0 L 29.0 5.768047266768985e-27 L 29.0 -10.0 L 32.0 -10.0 L 32.0 -35.0 L 29.0 -35.0 L 29.0 -45.0 L 19.0 -45.0 L 19.0 -48.0 L -19.0 -48.0 L -19.0 -45.0 L -29.0 -45.0 L -29.0 -35.0 L -32.0 -35.0 L -32.0 -10.0 L -29.0 -10.0 L -29.0 0.0 L -19.0 0.0 L -19.0 3.0 " stroke="#191919" stroke-width="0.35 px" style="stroke-width:0.35;stroke-miterlimit:4;stroke-dasharray:none;fill:none;fill-opacity:1;fill-rule: evenodd"/>
<path id="Sketch006_w0001"  d="M 27.10066521829784 -25.5 A 3.31892 3.31892 0 0 1 27.1007 -19.5L 21.817424229271428 -17.0 A 22.5 22.5 0 0 1 -21.8174 -17L -27.10066521829784 -19.5 A 3.31892 3.31892 0 0 1 -27.1007 -25.5L -21.817424229271428 -28.0 A 22.5 22.5 0 0 1 21.8174 -28L 27.10066521829784 -25.5 " stroke="#191919" stroke-width="0.35 px" style="stroke-width:0.35;stroke-miterlimit:4;stroke-dasharray:none;fill:none;fill-opacity:1;fill-rule: evenodd"/>
<title>b'cover001'</title>
</g>
</svg>