<?xml version="1.0"?>
<!DOCTYPE svg PUBLIC "-//W3C//DTD SVG 1.1//EN" "http://www.w3.org/Graphics/SVG/1.1/DTD/svg11.dtd">
<svg width="24.990000000040485mm" height="64.49000000000079mm" viewBox="0 0 24.990000000040485 64.49000000000079" xmlns="http://www.w3.org/2000/svg" version="1.1">
<g id="Sketch005" transform="translate(24.745000,32.245000) scale(1,-1)">
<path id="Sketch005_w0000"  d="M 0.0 -32.0 L 0.0 -29.0 L -2.9999999999999996 -29.0 L -2.9999999999999996 29.0 L 4.440892098500626e-16 29.0 L 4.440892098500626e-16 32.0 L -10.249999999999998 32.0 L -10.249999999999998 29.0 L -24.5 29.0 L -24.5 21.0 L -10.249999999999998 21.0 L -10.249999999999998 -21.0 L -24.50000000003969 -21.0 L -24.50000000003969 -29.0 L -10.249999999972895 -29.0 L -10.249999999972895 -32.0 L 0.0 -32.0 " stroke="#191919" stroke-width="0.35 px" style="stroke-width:0.35;stroke-miterlimit:4;stroke-dasharray:none;fill:none;fill-opacity:1;fill-rule: evenodd"/>
<path id="Sketch005_w0001"  d="M -9.7 22.2 L -9.7 27.8 L -7.999999999999999 27.8 L -7.999999999999999 22.2 L -9.7 22.2 " stroke="#191919" stroke-width="0.35 px" style="stroke-width:0.35;stroke-miterlimit:4;stroke-dasharray:none;fill:none;fill-opacity:1;fill-rule: evenodd"/>
<path id="Sketch005_w0002"  d="M -9.7 -27.8 L -9.7 -22.2 L -7.999999999999999 -22.2 L -7.999999999999999 -27.8 L -9.7 -27.8 " stroke="#191919" stroke-width="0.35 px" style="stroke-width:0.35;stroke-miterlimit:4;stroke-dasharray:none;fill:none;fill-opacity:1;fill-rule: evenodd"/>
<path id="Sketch005_w0003"  d="M -22.5 22.7 L -22.5 28.3 L -20.80000000000078 28.3 L -20.80000000000078 22.7 L -22.5 22.7 " stroke="#191919" stroke-width="0.35 px" style="stroke-width:0.35;stroke-miterlimit:4;stroke-dasharray:none;fill:none;fill-opacity:1;fill-rule: evenodd"/>
<path id="Sketch005_w0004"  d="M -22.50000000003969 -28.3 L -22.50000000003969 -22.7 L -20.800000000041255 -22.7 L -20.800000000041255 -28.3 L -22.50000000003969 -28.3 " stroke="#191919" stroke-width="0.35 px" style="stroke-width:0.35;stroke-miterlimit:4;stroke-dasharray:none;fill:none;fill-opacity:1;fill-rule: evenodd"/>
<title>b'support001'</title>
</g>
</svg>