<?xml version="1.0"?>
<!DOCTYPE svg PUBLIC "-//W3C//DTD SVG 1.1//EN" "http://www.w3.org/Graphics/SVG/1.1/DTD/svg11.dtd">
<svg width="32.63999999989257mm" height="64.6400000001mm" viewBox="0 0 32.63999999989257 64.6400000001" xmlns="http://www.w3.org/2000/svg" version="1.1">
<g id="Sketch004" transform="translate(32.320000,32.320000) scale(1,-1)">
<path id="Sketch004_w0000"  d="M -31.99999999983751 -29.000000000051983 L -31.99999999983751 -19.000000000051983 L -28.99999999984378 -19.000000000051983 L -28.99999999984378 18.99999999995312 L -31.999999999883556 18.99999999995312 L -31.999999999883556 28.999999999948017 L -24.74999999998585 28.999999999948017 L -24.74999999998585 32.000000000049724 L -17.500000000029253 32.000000000049724 L -17.500000000029253 29.000000000007496 L -10.25000000001278 29.000000000007496 L -10.25000000001278 32.000000000050115 L -1.1112713205336805e-11 32.000000000050115 L -1.1112538023385552e-11 22.000000000050118 L -2.9999999999888884 22.000000000050118 L -2.9999999999888884 2.000000000000001 L -3.9999999999888884 2.000000000000001 L -3.9999999999888884 -2.0 L -2.9999999999888884 -2.0 L -2.9999999999888884 -22.000000000050118 L 1.1112000208868267e-11 -22.000000000050118 L 1.1112000208868267e-11 -32.000000000050115 L -10.249999999988887 -32.000000000050115 L -10.249999999988889 -29.0000000000075 L -17.499999999889436 -29.0000000000075 L -17.499999999889436 -32.00000000005198 L -24.74999999983751 -32.00000000005198 L -24.74999999983751 -29.000000000051983 L -31.99999999983751 -29.000000000051983 " stroke="#191919" stroke-width="0.35 px" style="stroke-width:0.35;stroke-miterlimit:4;stroke-dasharray:none;fill:none;fill-opacity:1;fill-rule: evenodd"/>
<circle cx="-7.999999999988889" cy="-21.5000000000075" r="1.0" stroke="#191919" stroke-width="0.35 px" style="stroke-width:0.35;stroke-miterlimit:4;stroke-dasharray:none;fill:none"/>
<circle cx="-18.999999999988887" cy="-21.5000000000075" r="1.0" stroke="#191919" stroke-width="0.35 px" style="stroke-width:0.35;stroke-miterlimit:4;stroke-dasharray:none;fill:none"/>
<title>b'frontwall001'</title>
</g>
</svg>