<?xml version="1.0"?>
<!DOCTYPE svg PUBLIC "-//W3C//DTD SVG 1.1//EN" "http://www.w3.org/Graphics/SVG/1.1/DTD/svg11.dtd">
<svg width="32.64000000000135mm" height="64.64mm" viewBox="0 0 32.64000000000135 64.64" xmlns="http://www.w3.org/2000/svg" version="1.1">
<g id="Sketch005" transform="translate(32.320000,32.320000) scale(1,-1)">
<path id="Sketch005_w0000"  d="M -32.00000000000101 -28.999999999999996 L -32.00000000000101 -18.999999999999996 L -29.000000000001023 -18.999999999999996 L -29.000000000001023 19.000000000000004 L -32.00000000000099 19.000000000000004 L -32.00000000000099 29.0 L -24.75000000000063 29.0 L -24.75000000000063 31.99999999999999 L -17.500000000000206 31.99999999999999 L -17.500000000000206 29.0 L -10.249999999999753 29.0 L -10.249999999999753 31.99999999999999 L 3.161915174132446e-13 31.99999999999999 L 3.161915174132446e-13 21.99999999999999 L -3.000000000000462 21.99999999999999 L -3.000000000000462 1.9999999999999993 L -3.0000000000004494 -2.0 L -3.00000000000044 -21.99999999999999 L -4.249694729453258e-13 -21.99999999999999 L -4.2494557207106936e-13 -31.99999999999999 L -10.250000000000464 -31.99999999999999 L -10.250000000000464 -28.999999999999996 L -17.50000000000074 -28.999999999999996 L -17.50000000000074 -31.99999999999999 L -24.75000000000092 -31.99999999999999 L -24.75000000000092 -28.999999999999996 L -32.00000000000101 -28.999999999999996 " stroke="#191919" stroke-width="0.35 px" style="stroke-width:0.35;stroke-miterlimit:4;stroke-dasharray:none;fill:none;fill-opacity:1;fill-rule: evenodd"/>
<title>b'backwall'</title>
</g>
</svg>