<?xml version="1.0"?>
<!DOCTYPE svg PUBLIC "-//W3C//DTD SVG 1.1//EN" "http://www.w3.org/Graphics/SVG/1.1/DTD/svg11.dtd">
<svg width="361.0799999999986mm" height="47.08000000000469mm" viewBox="0 0 361.0799999999986 47.08000000000469" xmlns="http://www.w3.org/2000/svg" version="1.1">
<g id="Sketch008" transform="translate(6.540000,6.540000) scale(1,-1)">
<path id="Sketch008_w0000"  d="M -6.5999970011402625e-22 -34.0 L 16.999999999999936 -34.0 L 16.999999999999936 -37.0 L 36.99999999999986 -37.0 L 36.99999999999986 -34.0 L 310.99999999999886 -34.0 L 310.9999999999988 -36.99999999999998 L 330.99999999999875 -36.99999999999998 L 330.99999999999875 -34.0 L 347.9999999999987 -34.0 L 347.9999999999987 -27.2 L 350.9999999999987 -27.2 L 350.9999999999987 -20.4 L 347.9999999999987 -20.4 L 347.9999999999987 -13.6 L 350.9999999999987 -13.6 L 350.9999999999987 -6.8 L 347.9999999999987 -6.8 L 347.9999999999987 0.0 L 330.99999999999875 0.0 L 330.99999999999875 2.999999999999975 L 310.9999999999988 2.999999999999975 L 310.9999999999988 2.383870878475136e-12 L 36.999999999999844 2.383870878475136e-12 L 36.99999999999986 3.0000000000047184 L 16.999999999999943 3.0000000000047184 L 16.999999999999943 0.0 L 0.0 1.081972035317194e-28 L -1.3199994002280525e-22 -6.8 L -2.9999999999999885 -6.8 L -2.9999999999999885 -13.6 L -1.3165098203712608e-22 -13.6 L -3.9599982006841574e-22 -20.4 L -2.9999999999999885 -20.4 L -2.9999999999999885 -27.2 L -2.6330196407425216e-22 -27.2 L -6.5999970011402625e-22 -34.0 " stroke="#191919" stroke-width="0.35 px" style="stroke-width:0.35;stroke-miterlimit:4;stroke-dasharray:none;fill:none;fill-opacity:1;fill-rule: evenodd"/>
<path id="Sketch008_w0001"  d="M 169.99999999999935 -20.5 L 169.99999999999935 -23.5 L 177.99999999999932 -23.5 L 177.99999999999932 -20.5 L 169.99999999999935 -20.5 " stroke="#191919" stroke-width="0.35 px" style="stroke-width:0.35;stroke-miterlimit:4;stroke-dasharray:none;fill:none;fill-opacity:1;fill-rule: evenodd"/>
<path id="Sketch008_w0002"  d="M 288.9999999999989 -20.5 L 288.9999999999989 -23.499999999999982 L 296.99999999999886 -23.499999999999982 L 296.99999999999886 -20.5 L 288.9999999999989 -20.5 " stroke="#191919" stroke-width="0.35 px" style="stroke-width:0.35;stroke-miterlimit:4;stroke-dasharray:none;fill:none;fill-opacity:1;fill-rule: evenodd"/>
<path id="Sketch008_w0003"  d="M 50.999999999999815 -20.5 L 50.999999999999815 -23.499999999959073 L 58.99999999999978 -23.499999999959073 L 58.99999999999978 -20.5 L 50.999999999999815 -20.5 " stroke="#191919" stroke-width="0.35 px" style="stroke-width:0.35;stroke-miterlimit:4;stroke-dasharray:none;fill:none;fill-opacity:1;fill-rule: evenodd"/>
<path id="Sketch008_w0004"  d="M 173.99999999999935 -24.800000000000033 A 1.5 1.4999999999999942 -90.0 0 1 173.99999999999935 -27.800000000000033 A 1.5 1.4999999999999942 -90.0 0 1 173.99999999999935 -24.800000000000033 " stroke="#191919" stroke-width="0.35 px" style="stroke-width:0.35;stroke-miterlimit:4;stroke-dasharray:none;fill:none;fill-opacity:1;fill-rule: evenodd"/>
<path id="Sketch008_w0005"  d="M 292.9999999999989 -24.800000000000033 A 1.5 1.4999999999999942 -90.0 0 1 292.9999999999989 -27.800000000000033 A 1.5 1.4999999999999942 -90.0 0 1 292.9999999999989 -24.800000000000033 " stroke="#191919" stroke-width="0.35 px" style="stroke-width:0.35;stroke-miterlimit:4;stroke-dasharray:none;fill:none;fill-opacity:1;fill-rule: evenodd"/>
<path id="Sketch008_w0006"  d="M 54.999999999999794 -24.800000000000033 A 1.5 1.4999999999999942 -90.0 0 1 54.999999999999794 -27.800000000000033 A 1.5 1.4999999999999942 -90.0 0 1 54.999999999999794 -24.800000000000033 " stroke="#191919" stroke-width="0.35 px" style="stroke-width:0.35;stroke-miterlimit:4;stroke-dasharray:none;fill:none;fill-opacity:1;fill-rule: evenodd"/>
<title>b'bottom001'</title>
</g>
</svg>