<?xml version="1.0"?>
<!DOCTYPE svg PUBLIC "-//W3C//DTD SVG 1.1//EN" "http://www.w3.org/Graphics/SVG/1.1/DTD/svg11.dtd">
<svg width="40.79999999968986mm" height="392.8000000000426mm" viewBox="0 0 40.79999999968986 392.8000000000426" xmlns="http://www.w3.org/2000/svg" version="1.1">
<g id="Sketch005" transform="translate(37.400000,3.400000) scale(1,-1)">
<path id="Sketch005_w0000"  d="M -27.199999999906513 3.000000000047787 L -27.199999999906517 2.2242563346703014e-11 L -20.399999999862054 2.2244295294626735e-11 L -20.39999999986205 3.000000000022984 L -13.599999999864648 3.0000000000229865 L -13.599999999864647 -5.373479441787655e-15 L -6.79999999991249 -3.597122599756361e-15 L -6.799999999912491 2.999999999999997 L -1.5820678100908475e-15 2.9999999999999996 L 1.0602629885170245e-14 -17.0 L 2.999999999798816 -17.000000000000004 L 2.9999999997988276 -37.0 L 4.672282005735441e-11 -37.00000000000001 L 4.6895765049015394e-11 -349.0000000000008 L 2.999999999748903 -349.0000000000008 L 2.9999999997489146 -369.0000000000008 L 9.683562285367489e-11 -369.0000000000008 L 9.684539281629177e-11 -389.0000000000008 L -6.799999999982341 -389.00000000000085 L -6.799999999982343 -385.99999999997783 L -13.60000000001089 -385.99999999997783 L -13.600000000010889 -388.99999999997596 L -20.399999999989095 -388.99999999997596 L -20.3999999999891 -385.99999999995237 L -27.199999999918184 -385.99999999995237 L -27.199999999918184 -388.99999999995237 L -33.999999999897085 -388.99999999995237 L -33.9999999998971 -368.9999999999523 L -36.9999999998971 -368.9999999999523 L -36.99999999989711 -348.9999999999523 L -33.99999999994774 -348.9999999999523 L -33.99999999994791 -36.99999999995224 L -36.999999999846075 -36.999999999952216 L -36.99999999984609 -16.99999999995222 L -34.0 -16.999999999952216 L -34.000000000000014 3.0000000000477844 L -27.199999999906513 3.000000000047787 " stroke="#191919" stroke-width="0.35 px" style="stroke-width:0.35;stroke-miterlimit:4;stroke-dasharray:none;fill:none;fill-opacity:1;fill-rule: evenodd"/>
<path id="Sketch005_w0001"  d="M -21.4999999999999 -188.49999999995222 L -21.4999999999999 -196.49999999995225 L -11.499999999949615 -196.49999999995225 L -11.499999999949619 -188.49999999995225 L -21.4999999999999 -188.49999999995222 " stroke="#191919" stroke-width="0.35 px" style="stroke-width:0.35;stroke-miterlimit:4;stroke-dasharray:none;fill:none;fill-opacity:1;fill-rule: evenodd"/>
<path id="Sketch005_w0002"  d="M -11.499999999999968 -63.49999999995223 L -21.49999999999997 -63.49999999995223 L -21.499999999999975 -55.49999999995223 L -11.499999999999975 -55.49999999995223 L -11.499999999999968 -63.49999999995223 " stroke="#191919" stroke-width="0.35 px" style="stroke-width:0.35;stroke-miterlimit:4;stroke-dasharray:none;fill:none;fill-opacity:1;fill-rule: evenodd"/>
<circle cx="-25.9999999999999" cy="-192.49999999995225" r="1.5" stroke="#191919" stroke-width="0.35 px" style="stroke-width:0.35;stroke-miterlimit:4;stroke-dasharray:none;fill:none"/>
<circle cx="-25.999999999999982" cy="-59.49999999995223" r="1.5" stroke="#191919" stroke-width="0.35 px" style="stroke-width:0.35;stroke-miterlimit:4;stroke-dasharray:none;fill:none"/>
<title>b'right001'</title>
</g>
</svg>