<?xml version="1.0"?>
<!DOCTYPE svg PUBLIC "-//W3C//DTD SVG 1.1//EN" "http://www.w3.org/Graphics/SVG/1.1/DTD/svg11.dtd">
<svg width="40.80000000000002mm" height="392.80000000000047mm" viewBox="0 0 40.80000000000002 392.80000000000047" xmlns="http://www.w3.org/2000/svg" version="1.1">
<g id="Sketch009" transform="translate(3.400000,3.400000) scale(1,-1)">
<path id="Sketch009_w0000"  d="M 3.701911764759838e-11 -349.00000000000006 L -2.999999999963772 -349.00000000000006 L -2.999999999963783 -369.00000000000006 L 3.740358023307523e-11 -369.0000000000001 L 3.7392644536282666e-11 -389.0000000000001 L 6.8000000000280565 -389.0000000000001 L 6.800000000028059 -385.9999999999997 L 13.600000000019115 -385.9999999999997 L 13.600000000019115 -389.0000000000001 L 20.400000000010568 -389.0000000000001 L 20.40000000001057 -386.0000000000001 L 27.200000000002817 -386.0000000000001 L 27.200000000002817 -389.0000000000005 L 33.99999999999899 -389.0000000000005 L 33.999999999999005 -369.00000000000045 L 36.9999999999994 -369.00000000000045 L 36.99999999999942 -349.00000000000045 L 33.999999999999815 -349.00000000000045 L 33.999999999999986 -37.00000000000044 L 36.999999999999986 -37.00000000000042 L 37.0 -17.000000000000412 L 34.0 -17.00000000000041 L 34.000000000000014 2.999999999999593 L 27.199999999998113 2.9999999999995968 L 27.199999999998113 -4.044320434157454e-13 L 20.399999999998386 -4.024780508871113e-13 L 20.399999999998386 2.9999999999995977 L 13.599999999998662 2.9999999999996003 L 13.599999999998658 -3.99946742393613e-13 L 6.799999999999331 -3.9794834094664097e-13 L 6.799999999999332 2.9999999999999982 L 2.609024107869118e-15 3.000000000000001 L -9.43689570931383e-15 -17.0 L -3.0000000000000098 -17.000000000000004 L -3.0000000000000213 -37.0 L -2.092770401418386e-14 -37.00000000000003 L -1.4044321261508253e-13 -253.00000000000045 L 24.99999999999987 -253.00000000000045 L 24.99999999999985 -289.00000000000045 L 3.705242433833714e-11 -289.00000000000045 L 3.701911764759838e-11 -349.00000000000006 " stroke="#191919" stroke-width="0.35 px" style="stroke-width:0.35;stroke-miterlimit:4;stroke-dasharray:none;fill:none;fill-opacity:1;fill-rule: evenodd"/>
<path id="Sketch009_w0001"  d="M 21.49999999999997 -55.50000000000042 L 21.499999999999968 -63.50000000000042 L 11.499999999999964 -63.50000000000042 L 11.499999999999968 -55.50000000000042 L 21.49999999999997 -55.50000000000042 " stroke="#191919" stroke-width="0.35 px" style="stroke-width:0.35;stroke-miterlimit:4;stroke-dasharray:none;fill:none;fill-opacity:1;fill-rule: evenodd"/>
<path id="Sketch009_w0002"  d="M 21.4999999999999 -188.50000000000043 L 21.499999999999893 -196.50000000000045 L 11.499999999999892 -196.50000000000045 L 11.499999999999895 -188.50000000000045 L 21.4999999999999 -188.50000000000043 " stroke="#191919" stroke-width="0.35 px" style="stroke-width:0.35;stroke-miterlimit:4;stroke-dasharray:none;fill:none;fill-opacity:1;fill-rule: evenodd"/>
<circle cx="24.99999999999988" cy="-238.00000000000045" r="4.0" stroke="#191919" stroke-width="0.35 px" style="stroke-width:0.35;stroke-miterlimit:4;stroke-dasharray:none;fill:none"/>
<circle cx="24.999999999999837" cy="-313.00000000000045" r="3.0" stroke="#191919" stroke-width="0.35 px" style="stroke-width:0.35;stroke-miterlimit:4;stroke-dasharray:none;fill:none"/>
<circle cx="25.9999999999999" cy="-192.50000000000045" r="1.5" stroke="#191919" stroke-width="0.35 px" style="stroke-width:0.35;stroke-miterlimit:4;stroke-dasharray:none;fill:none"/>
<circle cx="25.999999999999975" cy="-59.50000000000042" r="1.5" stroke="#191919" stroke-width="0.35 px" style="stroke-width:0.35;stroke-miterlimit:4;stroke-dasharray:none;fill:none"/>
<circle cx="11.499999999999979" cy="-37.00000000000041" r="1.5" stroke="#191919" stroke-width="0.35 px" style="stroke-width:0.35;stroke-miterlimit:4;stroke-dasharray:none;fill:none"/>
<circle cx="16.499999999999865" cy="-248.00000000000045" r="1.0" stroke="#191919" stroke-width="0.35 px" style="stroke-width:0.35;stroke-miterlimit:4;stroke-dasharray:none;fill:none"/>
<circle cx="4.999999999999863" cy="-248.00000000000045" r="1.0" stroke="#191919" stroke-width="0.35 px" style="stroke-width:0.35;stroke-miterlimit:4;stroke-dasharray:none;fill:none"/>
<title>b'left001'</title>
</g>
</svg>