<?xml version="1.0"?>
<!DOCTYPE svg PUBLIC "-//W3C//DTD SVG 1.1//EN" "http://www.w3.org/Graphics/SVG/1.1/DTD/svg11.dtd">
<svg width="40.80000000000052mm" height="392.8000000000001mm" viewBox="0 0 40.80000000000052 392.8000000000001" xmlns="http://www.w3.org/2000/svg" version="1.1">
<g id="Sketch007" transform="translate(3.400000,3.400000) scale(1,-1)">
<path id="Sketch007_w0000"  d="M -5.108506320868787e-13 -349.00000000000006 L -3.0000000000004974 -349.00000000000006 L -3.000000000000509 -369.00000000000006 L -5.249689571940053e-13 -369.00000000000006 L -5.35682609381638e-13 -389.0000000000001 L 6.799999999999553 -389.0000000000001 L 6.799999999999556 -386.0000000000001 L 13.599999999999639 -386.0000000000001 L 13.599999999999639 -389.0000000000001 L 20.399999999999714 -389.0000000000001 L 20.399999999999714 -386.0000000000001 L 27.199999999999783 -386.0000000000001 L 27.199999999999783 -389.0000000000001 L 33.9999999999998 -389.0000000000001 L 33.99999999999981 -369.00000000000006 L 36.9999999999998 -369.00000000000006 L 36.999999999999815 -349.00000000000006 L 33.999999999999815 -349.00000000000006 L 33.999999999999986 -37.000000000000036 L 36.999999999999986 -37.000000000000014 L 37.0 -17.00000000000001 L 34.0 -17.000000000000007 L 34.000000000000014 2.9999999999999947 L 27.19999999999993 2.999999999999999 L 27.199999999999925 -1.4210854768141336e-15 L 20.39999999999995 3.108624468950593e-16 L 20.39999999999995 2.9999999999999996 L 13.599999999999973 3.000000000000002 L 13.599999999999971 3.064215545318464e-15 L 6.799999999999988 4.840572387365687e-15 L 6.799999999999989 2.9999999999999982 L 2.609024107869118e-15 3.000000000000001 L -9.43689570931383e-15 -17.0 L -3.000000000000008 -17.000000000000004 L -3.0000000000000195 -37.0 L -1.7152945730475203e-14 -37.00000000000003 L -1.3661294318012549e-13 -252.50000000000003 L 24.999999999999872 -252.50000000000003 L 24.99999999999985 -287.50000000000006 L -4.767112740796552e-13 -287.50000000000006 L -5.108506320868787e-13 -349.00000000000006 " stroke="#191919" stroke-width="0.35 px" style="stroke-width:0.35;stroke-miterlimit:4;stroke-dasharray:none;fill:none;fill-opacity:1;fill-rule: evenodd"/>
<path id="Sketch007_w0001"  d="M 21.499999999999968 -55.500000000000014 L 21.499999999999964 -63.500000000000014 L 11.499999999999964 -63.500000000000014 L 11.499999999999968 -55.500000000000014 L 21.499999999999968 -55.500000000000014 " stroke="#191919" stroke-width="0.35 px" style="stroke-width:0.35;stroke-miterlimit:4;stroke-dasharray:none;fill:none;fill-opacity:1;fill-rule: evenodd"/>
<path id="Sketch007_w0002"  d="M 21.499999999999893 -188.5 L 21.499999999999893 -196.5 L 11.499999999999892 -196.50000000000003 L 11.499999999999895 -188.5 L 21.499999999999893 -188.5 " stroke="#191919" stroke-width="0.35 px" style="stroke-width:0.35;stroke-miterlimit:4;stroke-dasharray:none;fill:none;fill-opacity:1;fill-rule: evenodd"/>
<circle cx="24.99999999999988" cy="-237.50000000000003" r="4.0" stroke="#191919" stroke-width="0.35 px" style="stroke-width:0.35;stroke-miterlimit:4;stroke-dasharray:none;fill:none"/>
<circle cx="24.999999999999847" cy="-297.50000000000006" r="3.0" stroke="#191919" stroke-width="0.35 px" style="stroke-width:0.35;stroke-miterlimit:4;stroke-dasharray:none;fill:none"/>
<circle cx="25.999999999999982" cy="-59.500000000000014" r="1.5" stroke="#191919" stroke-width="0.35 px" style="stroke-width:0.35;stroke-miterlimit:4;stroke-dasharray:none;fill:none"/>
<circle cx="25.999999999999908" cy="-192.50000000000003" r="1.5" stroke="#191919" stroke-width="0.35 px" style="stroke-width:0.35;stroke-miterlimit:4;stroke-dasharray:none;fill:none"/>
<circle cx="16.49999999999987" cy="-247.50000000000003" r="1.0" stroke="#191919" stroke-width="0.35 px" style="stroke-width:0.35;stroke-miterlimit:4;stroke-dasharray:none;fill:none"/>
<circle cx="4.999999999999866" cy="-247.50000000000003" r="1.0" stroke="#191919" stroke-width="0.35 px" style="stroke-width:0.35;stroke-miterlimit:4;stroke-dasharray:none;fill:none"/>
<title>b'left001'</title>
</g>
</svg>