<?xml version="1.0"?>
<!DOCTYPE svg PUBLIC "-//W3C//DTD SVG 1.1//EN" "http://www.w3.org/Graphics/SVG/1.1/DTD/svg11.dtd">
<svg width="40.8mm" height="354.79999999999995mm" viewBox="0 0 40.8 354.79999999999995" xmlns="http://www.w3.org/2000/svg" version="1.1">
<g id="Sketch004" transform="translate(37.400000,351.400000) scale(1,-1)">
<path id="Sketch004_w0000"  d="M -27.2 1.526567670935755e-16 L -34.0 1.526567670935755e-16 L -34.0 17.0 L -37.0 17.0 L -37.0 37.0 L -34.0 37.0 L -34.0 311.0 L -37.0 311.0 L -37.0 331.0 L -34.0 331.0 L -34.0 348.0 L -27.2 348.0 L -27.2 351.0 L -20.4 351.0 L -20.4 348.0 L -13.6 348.0 L -13.6 351.0 L -6.8 351.0 L -6.8 348.0 L 6.661338147750939e-16 348.0 L 6.661338147750939e-16 331.0 L 3.000000000000001 331.0 L 3.000000000000001 311.0 L 6.661338147750939e-16 311.0 L 6.661338147750939e-16 37.0 L 3.000000000000001 37.0 L 3.000000000000001 17.0 L 6.661338147859701e-16 17.0 L 6.661338147859701e-16 0.0 L -6.799999999999999 0.0 L -6.799999999999999 -3.0 L -13.6 -3.0 L -13.6 -1.9428762753290682e-16 L -20.4 -1.9428762753290682e-16 L -20.4 -3.0 L -27.2 -3.0 L -27.2 1.526567670935755e-16 " stroke="#191919" stroke-width="0.35 px" style="stroke-width:0.35;stroke-miterlimit:4;stroke-dasharray:none;fill:none;fill-opacity:1;fill-rule: evenodd"/>
<path id="Sketch004_w0001"  d="M -21.5 285.0 L -21.5 293.0 L -11.5 293.0 L -11.5 285.0 L -21.5 285.0 " stroke="#191919" stroke-width="0.35 px" style="stroke-width:0.35;stroke-miterlimit:4;stroke-dasharray:none;fill:none;fill-opacity:1;fill-rule: evenodd"/>
<path id="Sketch004_w0002"  d="M -21.5 55.0 L -21.5 63.0 L -11.5 63.0 L -11.5 55.0 L -21.5 55.0 " stroke="#191919" stroke-width="0.35 px" style="stroke-width:0.35;stroke-miterlimit:4;stroke-dasharray:none;fill:none;fill-opacity:1;fill-rule: evenodd"/>
<circle cx="-25.999999999999957" cy="289.0" r="1.5" stroke="#191919" stroke-width="0.35 px" style="stroke-width:0.35;stroke-miterlimit:4;stroke-dasharray:none;fill:none"/>
<circle cx="-25.999999999999996" cy="59.0" r="1.5" stroke="#191919" stroke-width="0.35 px" style="stroke-width:0.35;stroke-miterlimit:4;stroke-dasharray:none;fill:none"/>
<title>b'top001'</title>
</g>
</svg>