<?xml version="1.0"?>
<!DOCTYPE svg PUBLIC "-//W3C//DTD SVG 1.1//EN" "http://www.w3.org/Graphics/SVG/1.1/DTD/svg11.dtd">
<svg width="32.64mm" height="32.640000000000015mm" viewBox="0 0 32.64 32.640000000000015" xmlns="http://www.w3.org/2000/svg" version="1.1">
<g id="Sketch003" transform="translate(16.320000,16.320000) scale(1,-1)">
<path id="Sketch003_w0000"  d="M -16.0 -12.5 L -16.0 12.5 A 3.5 3.5 0 0 0 -12.5 16L -1.49999971089583 16.0 L -1.49999971089583 12.000000000000016 L 1.5000002891041695 12.000000000000016 L 1.5000002891041695 16.000000000000014 L 12.500000578208336 15.999999999999982 A 3.5 3.5 0 0 0 16 12.5L 15.999999999999996 -12.5 A 3.5 3.5 0 0 0 12.5 -16L 1.49999971089583 -15.999999999999998 L 1.4999997108958303 -12.0 L -1.4999996178002328 -12.0 L -1.4999996178002328 -16.0 L -12.499999906904401 -16.0 A 3.5 3.5 0 0 0 -16 -12.5" stroke="#191919" stroke-width="0.35 px" style="stroke-width:0.35;stroke-miterlimit:4;stroke-dasharray:none;fill:none;fill-opacity:1;fill-rule: evenodd"/>
<circle cx="-6.712873941106549e-27" cy="2.7653754042995558e-30" r="8.05" stroke="#191919" stroke-width="0.35 px" style="stroke-width:0.35;stroke-miterlimit:4;stroke-dasharray:none;fill:none"/>
<circle cx="12.499999999999998" cy="1.640451109064746e-16" r="1.5" stroke="#191919" stroke-width="0.35 px" style="stroke-width:0.35;stroke-miterlimit:4;stroke-dasharray:none;fill:none"/>
<circle cx="-12.5" cy="1.640451109064758e-16" r="1.5" stroke="#191919" stroke-width="0.35 px" style="stroke-width:0.35;stroke-miterlimit:4;stroke-dasharray:none;fill:none"/>
<title>b'base'</title>
</g>
</svg>