<?xml version="1.0"?>
<!DOCTYPE svg PUBLIC "-//W3C//DTD SVG 1.1//EN" "http://www.w3.org/Graphics/SVG/1.1/DTD/svg11.dtd">
<svg width="40.29000000000004mm" height="32.79000000000002mm" viewBox="0 0 40.29000000000004 32.79000000000002" xmlns="http://www.w3.org/2000/svg" version="1.1">
<g id="Sketch004" transform="translate(0.395000,16.395000) scale(1,-1)">
<path id="Sketch004_w0000"  d="M -9.992007221626409e-15 -12.00000000000001 L -1.3100631690576847e-14 -16.000000000000007 L 36.0 -16.000000000000014 A 3.5 3.5 0 0 1 39.5 -12.5L 39.50000000000003 12.499999999999993 A 3.5 3.5 0 0 1 36 16L 2.3869795029440866e-14 16.00000000000001 L 1.0103029520294535e-14 12.00000000000001 L 3.00000000000001 12.000000000000009 L 3.000000000000008 8.000000000000004 L 11.500000000000016 8.000000000000004 L 11.500000000000016 6.000000000000003 L 31.50000000000003 6.000000000000001 L 31.500000000000014 -6.000000000000008 L 11.500000000000004 -6.000000000000006 L 11.5 -8.000000000000007 L 2.999999999999995 -8.000000000000007 L 2.999999999999992 -12.00000000000001 L -9.992007221626409e-15 -12.00000000000001 " stroke="#191919" stroke-width="0.35 px" style="stroke-width:0.35;stroke-miterlimit:4;stroke-dasharray:none;fill:none;fill-opacity:1;fill-rule: evenodd"/>
<path id="Sketch004_w0001"  d="M 31.500000000000043 -7.500000000000009 L 31.500000000000046 -8.50000000000001 L 25.499999999999822 -8.50000000000001 L 25.499999999999822 -9.500000000000007 L 21.49999999999982 -9.500000000000007 L 21.499999999999822 -8.500000000000005 L 15.49999999999995 -8.500000000000005 L 15.499999999999957 -7.500000000000007 L 31.500000000000043 -7.500000000000009 " stroke="#191919" stroke-width="0.35 px" style="stroke-width:0.35;stroke-miterlimit:4;stroke-dasharray:none;fill:none;fill-opacity:1;fill-rule: evenodd"/>
<path id="Sketch004_w0002"  d="M 31.499999999999993 8.5 L 31.499999999999996 7.5 L 15.49999999999999 7.5000000000000036 L 15.499999999999986 8.5 L 21.49999999999985 8.5 L 21.49999999999985 9.500000000000002 L 25.49999999999985 9.500000000000002 L 25.49999999999985 8.500000000000002 L 31.499999999999993 8.5 " stroke="#191919" stroke-width="0.35 px" style="stroke-width:0.35;stroke-miterlimit:4;stroke-dasharray:none;fill:none;fill-opacity:1;fill-rule: evenodd"/>
<title>b'bracket'</title>
</g>
</svg>