<?xml version="1.0" encoding="UTF-8" standalone="no"?>
<!-- Created with Inkscape (http://www.inkscape.org/) -->

<svg
   xmlns:dc="http://purl.org/dc/elements/1.1/"
   xmlns:cc="http://creativecommons.org/ns#"
   xmlns:rdf="http://www.w3.org/1999/02/22-rdf-syntax-ns#"
   xmlns:svg="http://www.w3.org/2000/svg"
   xmlns="http://www.w3.org/2000/svg"
   xmlns:sodipodi="http://sodipodi.sourceforge.net/DTD/sodipodi-0.dtd"
   xmlns:inkscape="http://www.inkscape.org/namespaces/inkscape"
   width="210mm"
   height="297mm"
   viewBox="0 0 210 297"
   version="1.1"
   id="svg8"
   inkscape:version="0.92.5 (2060ec1f9f, 2020-04-08)"
   sodipodi:docname="gears-04_laserkatz.svg">
  <defs
     id="defs2" />
  <sodipodi:namedview
     id="base"
     pagecolor="#ffffff"
     bordercolor="#666666"
     borderopacity="1.0"
     inkscape:pageopacity="0.0"
     inkscape:pageshadow="2"
     inkscape:zoom="2.8"
     inkscape:cx="62.514463"
     inkscape:cy="975.4159"
     inkscape:document-units="mm"
     inkscape:current-layer="layer1"
     showgrid="false"
     inkscape:window-width="1920"
     inkscape:window-height="1016"
     inkscape:window-x="0"
     inkscape:window-y="27"
     inkscape:window-maximized="1"
     showguides="true"
     inkscape:guide-bbox="true"
     inkscape:snap-bbox="true"
     inkscape:snap-bbox-midpoints="true"
     inkscape:bbox-paths="true">
    <sodipodi:guide
       inkscape:color="rgb(255,6,0)"
       inkscape:label=""
       inkscape:locked="false"
       id="guide983"
       orientation="1,0"
       position="-41.365405,49.136551" />
    <sodipodi:guide
       inkscape:locked="false"
       id="guide985"
       orientation="0,1"
       position="-61.365403,92.228865" />
    <sodipodi:guide
       inkscape:locked="false"
       id="guide991"
       orientation="1,0"
       position="-61.365405,49.13657" />
    <sodipodi:guide
       inkscape:locked="false"
       id="guide1000"
       orientation="1,0"
       position="-5.0781209,92.228867" />
    <sodipodi:guide
       position="-61.365404,49.136551"
       orientation="0,1"
       id="guide1661"
       inkscape:locked="false" />
    <sodipodi:guide
       position="-58.70962,13.30221"
       orientation="0,1"
       id="guide837"
       inkscape:locked="false" />
  </sodipodi:namedview>
  <metadata
     id="metadata5">
    <rdf:RDF>
      <cc:Work
         rdf:about="">
        <dc:format>image/svg+xml</dc:format>
        <dc:type
           rdf:resource="http://purl.org/dc/dcmitype/StillImage" />
        <dc:title></dc:title>
      </cc:Work>
    </rdf:RDF>
  </metadata>
  <g
     inkscape:label="Layer 1"
     inkscape:groupmode="layer"
     id="layer1">
    <path
       style="fill:#000000;fill-opacity:1;stroke:none;stroke-width:0.1;stroke-miterlimit:4;stroke-dasharray:none;stroke-opacity:1"
       d="M 38.955984,21.252744 A 10.5,10.5 0 0 0 28.455849,31.75236 10.5,10.5 0 0 0 38.955984,42.252495 10.5,10.5 0 0 0 49.456118,31.75236 10.5,10.5 0 0 0 38.955984,21.252744 Z m -3.549655,4.351154 h 7.099825 l 3.550171,6.148462 -3.550171,6.148977 H 35.406329 L 31.856158,31.75236 Z"
       id="path1002"
       inkscape:connector-curvature="0" />
    <path
       style="fill:#000000;stroke:#000000;stroke-width:0.001"
       d="m 22.459908,41.569922 -0.582911,1.367359 -0.122989,0.81752 0.04961,0.5271 -1.507403,0.238744 -0.115755,-0.516247 -0.370004,-0.740005 -0.976683,-1.119828 -0.881083,0.286287 -0.131776,1.480529 0.135911,0.815454 0.209288,0.485759 -1.359606,0.692981 -0.269751,-0.455269 -0.580326,-0.589113 -1.274858,-0.763778 -0.749308,0.544671 0.331761,1.448491 0.380857,0.733806 0.349848,0.397391 -1.079003,1.079002 -0.397393,-0.349332 -0.733803,-0.381373 -1.448491,-0.331761 -0.544671,0.749308 0.763262,1.275374 0.58911,0.57981 0.455788,0.269751 -0.692981,1.360122 -0.486275,-0.209804 -0.815454,-0.135911 -1.480013,0.132292 -0.2862898,0.880568 1.1198304,0.977201 0.7394894,0.369485 0.516763,0.115756 -0.238744,1.507402 -0.527101,-0.04909 -0.8175197,0.122991 -1.3673587,0.582909 v 0.926042 l 1.3673587,0.582911 0.8175197,0.122989 0.527101,-0.04909 0.238744,1.507402 -0.516763,0.115756 -0.7394894,0.369485 -1.1198304,0.977201 0.2862898,0.880568 1.480013,0.132292 0.815454,-0.135911 0.486275,-0.209804 0.692981,1.360122 -0.455788,0.269751 -0.58911,0.57981 -0.763262,1.275374 0.544671,0.749308 1.448491,-0.331761 0.733803,-0.381373 0.397393,-0.349332 1.079003,1.079002 -0.349848,0.397394 -0.380857,0.733803 -0.331761,1.448491 0.749308,0.544671 1.274858,-0.763778 0.580326,-0.589111 0.269751,-0.455271 1.359606,0.692981 -0.209288,0.485759 -0.135911,0.81597 0.131776,1.480013 0.881083,0.28629 0.976683,-1.119831 0.370004,-0.740005 0.115755,-0.516247 1.507403,0.238744 -0.04961,0.5271 0.122989,0.81752 0.582911,1.367359 h 0.926558 l 0.582908,-1.367359 0.122992,-0.81752 -0.04961,-0.5271 1.507918,-0.238744 0.115755,0.516247 0.369486,0.740005 0.976685,1.119831 0.881084,-0.28629 0.132292,-1.480013 -0.135912,-0.81597 -0.209804,-0.485759 1.359607,-0.692981 0.26975,0.455271 0.580327,0.589111 1.275374,0.763778 0.749308,-0.544671 -0.33228,-1.448491 -0.380855,-0.733803 -0.34985,-0.397394 1.079521,-1.079002 0.396875,0.349332 0.733806,0.381373 1.449007,0.331761 0.544152,-0.749308 -0.763259,-1.275374 -0.589114,-0.57981 -0.455268,-0.269751 0.692981,-1.360122 0.485759,0.209804 0.815454,0.135911 1.480529,-0.132292 0.286287,-0.880568 -1.120344,-0.977201 -0.739489,-0.369485 -0.516247,-0.115756 0.238744,-1.507402 0.526581,0.04909 0.818039,-0.122989 1.366843,-0.582911 v -0.926042 l -1.366843,-0.582909 -0.818039,-0.122991 -0.526581,0.04909 -0.238744,-1.507402 0.516247,-0.115756 0.739489,-0.369485 1.120344,-0.977201 -0.286287,-0.880568 -1.480529,-0.132292 -0.815454,0.135911 -0.485759,0.209804 -0.692981,-1.360122 0.455268,-0.269751 0.589114,-0.57981 0.763259,-1.275374 -0.544152,-0.749308 -1.449007,0.331761 -0.733806,0.381373 -0.396875,0.349332 -1.079521,-1.079002 0.34985,-0.397391 0.380855,-0.733806 0.33228,-1.448491 -0.749308,-0.544671 -1.275374,0.763778 -0.580327,0.589113 -0.26975,0.455269 -1.359607,-0.692981 0.209804,-0.485759 0.135912,-0.815454 -0.132292,-1.480529 -0.881084,-0.286287 -0.976685,1.119828 -0.369486,0.740005 -0.115755,0.516247 -1.507918,-0.238744 0.04961,-0.5271 -0.122992,-0.81752 -0.582908,-1.367359 z m -3.086634,8.510593 H 26.4731 l 3.550169,6.148977 -3.550169,6.14898 h -7.099826 l -3.550172,-6.14898 z"
       id="path1679"
       inkscape:connector-curvature="0" />
    <path
       style="fill:#000000;stroke:#000000;stroke-width:0.001"
       d="m 14.682233,24.669951 -0.745172,0.242364 -0.185002,1.53789 0.09973,0.401524 0.435116,0.823206 -1.222664,0.88832 -0.648538,-0.668179 -0.350883,-0.218591 -1.520322,-0.299722 -0.460436,0.634068 0.754475,1.352892 0.316778,0.266131 0.836123,0.410313 -0.467154,1.437637 -0.917773,-0.159162 -0.41238,0.02894 -1.4055988,0.651124 v 0.783415 l 1.4055988,0.651121 0.41238,0.02946 0.917773,-0.159678 0.467154,1.437637 -0.836123,0.410311 -0.316778,0.266133 -0.754475,1.353408 0.460436,0.633552 1.520322,-0.299725 0.350883,-0.218591 0.648538,-0.668176 1.222664,0.888317 -0.435116,0.823206 -0.09973,0.401527 0.185002,1.538406 0.745172,0.241848 1.053685,-1.135848 0.155027,-0.382924 0.132292,-0.921906 h 1.511537 l 0.131774,0.921906 0.15503,0.382924 1.053682,1.135848 0.745174,-0.241848 0.185002,-1.538406 -0.09974,-0.401527 -0.435115,-0.823206 1.222664,-0.888317 0.649056,0.668176 0.350366,0.218591 1.520321,0.299725 0.460437,-0.633552 -0.754476,-1.353408 -0.316776,-0.266133 -0.835608,-0.410311 0.467155,-1.437637 0.917256,0.159678 0.412378,-0.02946 1.406116,-0.651121 v -0.783415 l -1.406116,-0.651124 -0.412378,-0.02894 -0.917256,0.159162 -0.467155,-1.437637 0.835608,-0.410313 0.316776,-0.266131 0.754476,-1.352892 -0.460437,-0.634068 -1.520321,0.299722 -0.350366,0.218591 -0.649056,0.668179 -1.222664,-0.88832 0.435115,-0.823206 0.09974,-0.401524 -0.185002,-1.53789 -0.745174,-0.242364 -1.053682,1.135848 -0.15503,0.38344 -0.131774,0.921906 h -1.511537 l -0.132292,-0.921906 -0.155027,-0.38344 z m 2.097031,5.72058 a 2,2 0 0 1 1.49965,0.68058 v 2.639631 a 2,2 0 0 1 -1.49965,0.679545 2,2 0 0 1 -2.00091,-1.999876 2,2 0 0 1 2.00091,-1.99988 z"
       id="path1685"
       inkscape:connector-curvature="0" />
  </g>
</svg>
