<?xml version='1.0' encoding='UTF-8' standalone='no'?>
<svg height="420mm" baseProfile="tiny" xmlns:freecad="http://www.freecadweb.org/wiki/index.php?title=Svg_Namespace" version="1.2" xmlns="http://www.w3.org/2000/svg" xmlns:xlink="http://www.w3.org/1999/xlink" xmlns:cc="http://creativecommons.org/ns#" width="594mm" viewBox="0 0 5940 4200" xmlns:dc="http://purl.org/dc/elements/1.1/" xmlns:rdf="http://www.w3.org/1999/02/22-rdf-syntax-ns#" xmlns:svg="http://www.w3.org/2000/svg">
 <title>FreeCAD SVG Export</title>
 <desc>Drawing page: Page003 exported from FreeCAD document: sibi_light_supports</desc>
 <defs/>
 <g id="Page003">
  <g fill-rule="evenodd" stroke-linejoin="bevel" stroke-width="1" fill="none" stroke-linecap="square" stroke="black" id="DrawingContent">
   <g font-size="45.8611" font-family=".AppleSystemUIFont" fill="#ffffff" transform="matrix(1,0,0,1,2970,2100)" font-weight="400" fill-opacity="1" stroke="none" font-style="normal">
    <path fill-rule="evenodd" vector-effect="non-scaling-stroke" d="M1110,-545 L1110,545 L-1110,545 L-1110,-545 L1110,-545"/>
   </g>
   <g stroke-linejoin="bevel" font-size="45.8611" stroke-width="1" font-family=".AppleSystemUIFont" fill="none" stroke-linecap="square" stroke-opacity="1" transform="matrix(1,0,0,1,2970,2100)" font-weight="400" stroke="#000000" font-style="normal">
    <rect height="0" x="0" y="0" width="0"/>
   </g>
   <g stroke-linejoin="bevel" font-size="45.8611" stroke-width="7" font-family=".AppleSystemUIFont" fill="none" stroke-linecap="round" stroke-opacity="1" transform="matrix(1,0,0,1,2970,2100)" font-weight="400" stroke="#000000" font-style="normal">
    <path fill-rule="evenodd" vector-effect="none" d="M-1110,-545 L1110,-545"/>
   </g>
   <g stroke-linejoin="bevel" font-size="45.8611" stroke-width="7" font-family=".AppleSystemUIFont" fill="none" stroke-linecap="round" stroke-opacity="1" transform="matrix(1,0,0,1,2970,2100)" font-weight="400" stroke="#000000" font-style="normal">
    <path fill-rule="evenodd" vector-effect="none" d="M1110,-545 L1110,545"/>
   </g>
   <g stroke-linejoin="bevel" font-size="45.8611" stroke-width="7" font-family=".AppleSystemUIFont" fill="none" stroke-linecap="round" stroke-opacity="1" transform="matrix(1,0,0,1,2970,2100)" font-weight="400" stroke="#000000" font-style="normal">
    <path fill-rule="evenodd" vector-effect="none" d="M1110,545 L-1110,545"/>
   </g>
   <g stroke-linejoin="bevel" font-size="45.8611" stroke-width="7" font-family=".AppleSystemUIFont" fill="none" stroke-linecap="round" stroke-opacity="1" transform="matrix(1,0,0,1,2970,2100)" font-weight="400" stroke="#000000" font-style="normal">
    <path fill-rule="evenodd" vector-effect="none" d="M-1110,545 L-1110,-545"/>
   </g>
   <g font-size="45.8611" font-family=".AppleSystemUIFont" fill="#ffffff" transform="matrix(1,0,0,1,1394.17,2113.82)" font-weight="400" fill-opacity="1" stroke="none" font-style="normal">
    <path fill-rule="evenodd" vector-effect="non-scaling-stroke" d="M200,-1975 L200,1975 L-200,1975 L-200,-1975 L200,-1975"/>
   </g>
   <g stroke-linejoin="bevel" font-size="45.8611" stroke-width="1" font-family=".AppleSystemUIFont" fill="none" stroke-linecap="square" stroke-opacity="1" transform="matrix(1,0,0,1,1394.17,2113.82)" font-weight="400" stroke="#000000" font-style="normal">
    <rect height="0" x="0" y="0" width="0"/>
   </g>
   <g stroke-linejoin="bevel" font-size="45.8611" stroke-width="7" font-family=".AppleSystemUIFont" fill="none" stroke-linecap="round" stroke-opacity="1" transform="matrix(1,0,0,1,1394.17,2113.82)" font-weight="400" stroke="#000000" font-style="normal">
    <path fill-rule="evenodd" vector-effect="none" d="M-200,-1975 L200,-1975"/>
   </g>
   <g stroke-linejoin="bevel" font-size="45.8611" stroke-width="7" font-family=".AppleSystemUIFont" fill="none" stroke-linecap="round" stroke-opacity="1" transform="matrix(1,0,0,1,1394.17,2113.82)" font-weight="400" stroke="#000000" font-style="normal">
    <path fill-rule="evenodd" vector-effect="none" d="M200,-1975 L200,1975"/>
   </g>
   <g stroke-linejoin="bevel" font-size="45.8611" stroke-width="7" font-family=".AppleSystemUIFont" fill="none" stroke-linecap="round" stroke-opacity="1" transform="matrix(1,0,0,1,1394.17,2113.82)" font-weight="400" stroke="#000000" font-style="normal">
    <path fill-rule="evenodd" vector-effect="none" d="M200,1975 L-200,1975"/>
   </g>
   <g stroke-linejoin="bevel" font-size="45.8611" stroke-width="7" font-family=".AppleSystemUIFont" fill="none" stroke-linecap="round" stroke-opacity="1" transform="matrix(1,0,0,1,1394.17,2113.82)" font-weight="400" stroke="#000000" font-style="normal">
    <path fill-rule="evenodd" vector-effect="none" d="M-200,1975 L-200,-1975"/>
   </g>
  </g>
 </g>
</svg>
