<?xml version='1.0' encoding='UTF-8' standalone='no'?>
<svg viewBox="0 0 4200 2970" xmlns:freecad="http://www.freecadweb.org/wiki/index.php?title=Svg_Namespace" xmlns:rdf="http://www.w3.org/1999/02/22-rdf-syntax-ns#" xmlns:cc="http://creativecommons.org/ns#" width="420mm" version="1.2" baseProfile="tiny" xmlns="http://www.w3.org/2000/svg" height="297mm" xmlns:xlink="http://www.w3.org/1999/xlink" xmlns:svg="http://www.w3.org/2000/svg" xmlns:dc="http://purl.org/dc/elements/1.1/">
 <title>FreeCAD SVG Export</title>
 <desc>Drawing page: Page exported from FreeCAD document: sibi_light_supports</desc>
 <defs/>
 <g id="Page">
  <g stroke-width="1" stroke-linecap="square" id="DrawingContent" fill="none" stroke-linejoin="bevel" fill-rule="evenodd" stroke="black">
   <g font-family=".AppleSystemUIFont" transform="matrix(1,0,0,1,916.528,340.26)" fill="#ffffff" fill-opacity="1" font-style="normal" font-size="45.8611" font-weight="400" stroke="none">
    <path vector-effect="non-scaling-stroke" fill-rule="evenodd" d="M625,-20 L625,120 L485,120 L485,59.9997 C485,26.8627 458.137,-3.47614e-05 425,3.31735e-11 L425,3.31601e-11 L-425,3.30599e-11 L-425,3.32534e-11 C-458.137,-3.49532e-05 -485,26.8627 -485,59.9997 L-485,120 L-625,120 L-625,-20 L-545,-20 L-545,-120 L545,-120 L545,-20 L625,-20"/>
   </g>
   <g font-family=".AppleSystemUIFont" transform="matrix(1,0,0,1,916.528,340.26)" stroke-width="1" stroke-linecap="square" fill="none" stroke-linejoin="bevel" font-style="normal" font-size="45.8611" font-weight="400" stroke="#000000" stroke-opacity="1">
    <rect width="0" y="0" height="0" x="0"/>
   </g>
   <g font-family=".AppleSystemUIFont" transform="matrix(1,0,0,1,916.528,340.26)" stroke-width="7" stroke-linecap="round" fill="none" stroke-linejoin="bevel" font-style="normal" font-size="45.8611" font-weight="400" stroke="#000000" stroke-opacity="1">
    <path vector-effect="none" fill-rule="evenodd" d="M-625,120 L-625,-20"/>
   </g>
   <g font-family=".AppleSystemUIFont" transform="matrix(1,0,0,1,916.528,340.26)" stroke-width="7" stroke-linecap="round" fill="none" stroke-linejoin="bevel" font-style="normal" font-size="45.8611" font-weight="400" stroke="#000000" stroke-opacity="1">
    <path vector-effect="none" fill-rule="evenodd" d="M-625,-20 L-545,-20"/>
   </g>
   <g font-family=".AppleSystemUIFont" transform="matrix(1,0,0,1,916.528,340.26)" stroke-width="7" stroke-linecap="round" fill="none" stroke-linejoin="bevel" font-style="normal" font-size="45.8611" font-weight="400" stroke="#000000" stroke-opacity="1">
    <path vector-effect="none" fill-rule="evenodd" d="M-545,-20 L-545,-120"/>
   </g>
   <g font-family=".AppleSystemUIFont" transform="matrix(1,0,0,1,916.528,340.26)" stroke-width="7" stroke-linecap="round" fill="none" stroke-linejoin="bevel" font-style="normal" font-size="45.8611" font-weight="400" stroke="#000000" stroke-opacity="1">
    <path vector-effect="none" fill-rule="evenodd" d="M-545,-120 L545,-120"/>
   </g>
   <g font-family=".AppleSystemUIFont" transform="matrix(1,0,0,1,916.528,340.26)" stroke-width="7" stroke-linecap="round" fill="none" stroke-linejoin="bevel" font-style="normal" font-size="45.8611" font-weight="400" stroke="#000000" stroke-opacity="1">
    <path vector-effect="none" fill-rule="evenodd" d="M545,-120 L545,-20"/>
   </g>
   <g font-family=".AppleSystemUIFont" transform="matrix(1,0,0,1,916.528,340.26)" stroke-width="7" stroke-linecap="round" fill="none" stroke-linejoin="bevel" font-style="normal" font-size="45.8611" font-weight="400" stroke="#000000" stroke-opacity="1">
    <path vector-effect="none" fill-rule="evenodd" d="M545,-20 L625,-20"/>
   </g>
   <g font-family=".AppleSystemUIFont" transform="matrix(1,0,0,1,916.528,340.26)" stroke-width="7" stroke-linecap="round" fill="none" stroke-linejoin="bevel" font-style="normal" font-size="45.8611" font-weight="400" stroke="#000000" stroke-opacity="1">
    <path vector-effect="none" fill-rule="evenodd" d="M625,-20 L625,120"/>
   </g>
   <g font-family=".AppleSystemUIFont" transform="matrix(1,0,0,1,916.528,340.26)" stroke-width="7" stroke-linecap="round" fill="none" stroke-linejoin="bevel" font-style="normal" font-size="45.8611" font-weight="400" stroke="#000000" stroke-opacity="1">
    <path vector-effect="none" fill-rule="evenodd" d="M625,120 L485,120"/>
   </g>
   <g font-family=".AppleSystemUIFont" transform="matrix(1,0,0,1,916.528,340.26)" stroke-width="7" stroke-linecap="round" fill="none" stroke-linejoin="bevel" font-style="normal" font-size="45.8611" font-weight="400" stroke="#000000" stroke-opacity="1">
    <path vector-effect="none" fill-rule="evenodd" d="M485,120 L485,59.9997"/>
   </g>
   <g font-family=".AppleSystemUIFont" transform="matrix(1,0,0,1,916.528,340.26)" stroke-width="7" stroke-linecap="round" fill="none" stroke-linejoin="bevel" font-style="normal" font-size="45.8611" font-weight="400" stroke="#000000" stroke-opacity="1">
    <path vector-effect="none" fill-rule="evenodd" d="M485,59.9997 C485,26.8627 458.137,-3.47614e-05 425,3.31735e-11 "/>
   </g>
   <g font-family=".AppleSystemUIFont" transform="matrix(1,0,0,1,916.528,340.26)" stroke-width="7" stroke-linecap="round" fill="none" stroke-linejoin="bevel" font-style="normal" font-size="45.8611" font-weight="400" stroke="#000000" stroke-opacity="1">
    <path vector-effect="none" fill-rule="evenodd" d="M425,3.31468e-11 L-425,3.28663e-11"/>
   </g>
   <g font-family=".AppleSystemUIFont" transform="matrix(1,0,0,1,916.528,340.26)" stroke-width="7" stroke-linecap="round" fill="none" stroke-linejoin="bevel" font-style="normal" font-size="45.8611" font-weight="400" stroke="#000000" stroke-opacity="1">
    <path vector-effect="none" fill-rule="evenodd" d="M-425,3.32534e-11 C-458.137,-3.49532e-05 -485,26.8627 -485,59.9997 "/>
   </g>
   <g font-family=".AppleSystemUIFont" transform="matrix(1,0,0,1,916.528,340.26)" stroke-width="7" stroke-linecap="round" fill="none" stroke-linejoin="bevel" font-style="normal" font-size="45.8611" font-weight="400" stroke="#000000" stroke-opacity="1">
    <path vector-effect="none" fill-rule="evenodd" d="M-485,59.9997 L-485,120"/>
   </g>
   <g font-family=".AppleSystemUIFont" transform="matrix(1,0,0,1,916.528,340.26)" stroke-width="7" stroke-linecap="round" fill="none" stroke-linejoin="bevel" font-style="normal" font-size="45.8611" font-weight="400" stroke="#000000" stroke-opacity="1">
    <path vector-effect="none" fill-rule="evenodd" d="M-485,120 L-625,120"/>
   </g>
   <g font-family=".AppleSystemUIFont" transform="matrix(1,0,0,1,1398.52,744.792)" fill="#ffffff" fill-opacity="1" font-style="normal" font-size="45.8611" font-weight="400" stroke="none">
    <path vector-effect="non-scaling-stroke" fill-rule="evenodd" d="M-1030,152.5 L-1030,12.5 L-1110,12.5 L-1110,-152.5 L-1060,-152.5 L-1060,-127.5 L1060,-127.5 L1060,-152.5 L1110,-152.5 L1110,12.5 L1030,12.5 L1030,152.5 L890,152.5 C890,53.0887 809.411,-27.5 710,-27.5 L-710,-27.5 C-809.411,-27.5 -890,53.0887 -890,152.5 L-1030,152.5"/>
   </g>
   <g font-family=".AppleSystemUIFont" transform="matrix(1,0,0,1,1398.52,744.792)" stroke-width="1" stroke-linecap="square" fill="none" stroke-linejoin="bevel" font-style="normal" font-size="45.8611" font-weight="400" stroke="#000000" stroke-opacity="1">
    <rect width="0" y="0" height="0" x="0"/>
   </g>
   <g font-family=".AppleSystemUIFont" transform="matrix(1,0,0,1,1398.52,744.792)" stroke-width="7" stroke-linecap="round" fill="none" stroke-linejoin="bevel" font-style="normal" font-size="45.8611" font-weight="400" stroke="#000000" stroke-opacity="1">
    <path vector-effect="none" fill-rule="evenodd" d="M-710,-27.5 C-809.411,-27.5 -890,53.0887 -890,152.5 "/>
   </g>
   <g font-family=".AppleSystemUIFont" transform="matrix(1,0,0,1,1398.52,744.792)" stroke-width="7" stroke-linecap="round" fill="none" stroke-linejoin="bevel" font-style="normal" font-size="45.8611" font-weight="400" stroke="#000000" stroke-opacity="1">
    <path vector-effect="none" fill-rule="evenodd" d="M-1030,152.5 L-890,152.5"/>
   </g>
   <g font-family=".AppleSystemUIFont" transform="matrix(1,0,0,1,1398.52,744.792)" stroke-width="7" stroke-linecap="round" fill="none" stroke-linejoin="bevel" font-style="normal" font-size="45.8611" font-weight="400" stroke="#000000" stroke-opacity="1">
    <path vector-effect="none" fill-rule="evenodd" d="M-1030,152.5 L-1030,12.5"/>
   </g>
   <g font-family=".AppleSystemUIFont" transform="matrix(1,0,0,1,1398.52,744.792)" stroke-width="7" stroke-linecap="round" fill="none" stroke-linejoin="bevel" font-style="normal" font-size="45.8611" font-weight="400" stroke="#000000" stroke-opacity="1">
    <path vector-effect="none" fill-rule="evenodd" d="M-1030,12.5 L-1110,12.5"/>
   </g>
   <g font-family=".AppleSystemUIFont" transform="matrix(1,0,0,1,1398.52,744.792)" stroke-width="7" stroke-linecap="round" fill="none" stroke-linejoin="bevel" font-style="normal" font-size="45.8611" font-weight="400" stroke="#000000" stroke-opacity="1">
    <path vector-effect="none" fill-rule="evenodd" d="M-1110,12.5 L-1110,-152.5"/>
   </g>
   <g font-family=".AppleSystemUIFont" transform="matrix(1,0,0,1,1398.52,744.792)" stroke-width="7" stroke-linecap="round" fill="none" stroke-linejoin="bevel" font-style="normal" font-size="45.8611" font-weight="400" stroke="#000000" stroke-opacity="1">
    <path vector-effect="none" fill-rule="evenodd" d="M-1110,-152.5 L-1060,-152.5"/>
   </g>
   <g font-family=".AppleSystemUIFont" transform="matrix(1,0,0,1,1398.52,744.792)" stroke-width="7" stroke-linecap="round" fill="none" stroke-linejoin="bevel" font-style="normal" font-size="45.8611" font-weight="400" stroke="#000000" stroke-opacity="1">
    <path vector-effect="none" fill-rule="evenodd" d="M-1060,-152.5 L-1060,-127.5"/>
   </g>
   <g font-family=".AppleSystemUIFont" transform="matrix(1,0,0,1,1398.52,744.792)" stroke-width="7" stroke-linecap="round" fill="none" stroke-linejoin="bevel" font-style="normal" font-size="45.8611" font-weight="400" stroke="#000000" stroke-opacity="1">
    <path vector-effect="none" fill-rule="evenodd" d="M-1060,-127.5 L1060,-127.5"/>
   </g>
   <g font-family=".AppleSystemUIFont" transform="matrix(1,0,0,1,1398.52,744.792)" stroke-width="7" stroke-linecap="round" fill="none" stroke-linejoin="bevel" font-style="normal" font-size="45.8611" font-weight="400" stroke="#000000" stroke-opacity="1">
    <path vector-effect="none" fill-rule="evenodd" d="M1060,-127.5 L1060,-152.5"/>
   </g>
   <g font-family=".AppleSystemUIFont" transform="matrix(1,0,0,1,1398.52,744.792)" stroke-width="7" stroke-linecap="round" fill="none" stroke-linejoin="bevel" font-style="normal" font-size="45.8611" font-weight="400" stroke="#000000" stroke-opacity="1">
    <path vector-effect="none" fill-rule="evenodd" d="M1060,-152.5 L1110,-152.5"/>
   </g>
   <g font-family=".AppleSystemUIFont" transform="matrix(1,0,0,1,1398.52,744.792)" stroke-width="7" stroke-linecap="round" fill="none" stroke-linejoin="bevel" font-style="normal" font-size="45.8611" font-weight="400" stroke="#000000" stroke-opacity="1">
    <path vector-effect="none" fill-rule="evenodd" d="M1110,-152.5 L1110,12.5"/>
   </g>
   <g font-family=".AppleSystemUIFont" transform="matrix(1,0,0,1,1398.52,744.792)" stroke-width="7" stroke-linecap="round" fill="none" stroke-linejoin="bevel" font-style="normal" font-size="45.8611" font-weight="400" stroke="#000000" stroke-opacity="1">
    <path vector-effect="none" fill-rule="evenodd" d="M1110,12.5 L1030,12.5"/>
   </g>
   <g font-family=".AppleSystemUIFont" transform="matrix(1,0,0,1,1398.52,744.792)" stroke-width="7" stroke-linecap="round" fill="none" stroke-linejoin="bevel" font-style="normal" font-size="45.8611" font-weight="400" stroke="#000000" stroke-opacity="1">
    <path vector-effect="none" fill-rule="evenodd" d="M1030,12.5 L1030,152.5"/>
   </g>
   <g font-family=".AppleSystemUIFont" transform="matrix(1,0,0,1,1398.52,744.792)" stroke-width="7" stroke-linecap="round" fill="none" stroke-linejoin="bevel" font-style="normal" font-size="45.8611" font-weight="400" stroke="#000000" stroke-opacity="1">
    <path vector-effect="none" fill-rule="evenodd" d="M1030,152.5 L890,152.5"/>
   </g>
   <g font-family=".AppleSystemUIFont" transform="matrix(1,0,0,1,1398.52,744.792)" stroke-width="7" stroke-linecap="round" fill="none" stroke-linejoin="bevel" font-style="normal" font-size="45.8611" font-weight="400" stroke="#000000" stroke-opacity="1">
    <path vector-effect="none" fill-rule="evenodd" d="M890,152.5 C890,53.0887 809.411,-27.5 710,-27.5 "/>
   </g>
   <g font-family=".AppleSystemUIFont" transform="matrix(1,0,0,1,1398.52,744.792)" stroke-width="7" stroke-linecap="round" fill="none" stroke-linejoin="bevel" font-style="normal" font-size="45.8611" font-weight="400" stroke="#000000" stroke-opacity="1">
    <path vector-effect="none" fill-rule="evenodd" d="M-710,-27.5 L710,-27.5"/>
   </g>
  </g>
 </g>
</svg>
