<?xml version='1.0' encoding='UTF-8' standalone='no'?>
<svg xmlns="http://www.w3.org/2000/svg" xmlns:freecad="http://www.freecadweb.org/wiki/index.php?title=Svg_Namespace" xmlns:cc="http://creativecommons.org/ns#" height="297mm" baseProfile="tiny" xmlns:dc="http://purl.org/dc/elements/1.1/" width="420mm" viewBox="0 0 4200 2970" xmlns:xlink="http://www.w3.org/1999/xlink" version="1.2" xmlns:svg="http://www.w3.org/2000/svg" xmlns:rdf="http://www.w3.org/1999/02/22-rdf-syntax-ns#">
 <title>FreeCAD SVG Export</title>
 <desc>Drawing page: Page exported from FreeCAD document: sibi_light_supports</desc>
 <defs/>
 <g id="Page">
  <g stroke-linecap="square" id="DrawingContent" stroke="black" fill-rule="evenodd" stroke-width="1" fill="none" stroke-linejoin="bevel">
   <g font-size="45.8611" font-family=".AppleSystemUIFont" font-weight="400" stroke="none" font-style="normal" fill-opacity="1" transform="matrix(1,0,0,1,916.528,340.26)" fill="#ffffff">
    <path vector-effect="non-scaling-stroke" d="M625,-20 L625,120 L485,120 L485,59.9997 C485,26.8627 458.137,-3.47614e-05 425,3.31735e-11 L425,3.31601e-11 L-425,3.30599e-11 L-425,3.32534e-11 C-458.137,-3.49532e-05 -485,26.8627 -485,59.9997 L-485,120 L-625,120 L-625,-20 L-545,-20 L-545,-120 L545,-120 L545,-20 L625,-20" fill-rule="evenodd"/>
   </g>
   <g stroke-linecap="square" font-size="45.8611" stroke-opacity="1" font-family=".AppleSystemUIFont" font-weight="400" stroke="#000000" font-style="normal" stroke-width="1" transform="matrix(1,0,0,1,916.528,340.26)" fill="none" stroke-linejoin="bevel">
    <rect height="0" x="0" width="0" y="0"/>
   </g>
   <g stroke-linecap="round" font-size="45.8611" stroke-opacity="1" font-family=".AppleSystemUIFont" font-weight="400" stroke="#000000" font-style="normal" stroke-width="7" transform="matrix(1,0,0,1,916.528,340.26)" fill="none" stroke-linejoin="bevel">
    <path vector-effect="none" d="M-625,120 L-625,-20" fill-rule="evenodd"/>
   </g>
   <g stroke-linecap="round" font-size="45.8611" stroke-opacity="1" font-family=".AppleSystemUIFont" font-weight="400" stroke="#000000" font-style="normal" stroke-width="7" transform="matrix(1,0,0,1,916.528,340.26)" fill="none" stroke-linejoin="bevel">
    <path vector-effect="none" d="M-625,-20 L-545,-20" fill-rule="evenodd"/>
   </g>
   <g stroke-linecap="round" font-size="45.8611" stroke-opacity="1" font-family=".AppleSystemUIFont" font-weight="400" stroke="#000000" font-style="normal" stroke-width="7" transform="matrix(1,0,0,1,916.528,340.26)" fill="none" stroke-linejoin="bevel">
    <path vector-effect="none" d="M-545,-20 L-545,-120" fill-rule="evenodd"/>
   </g>
   <g stroke-linecap="round" font-size="45.8611" stroke-opacity="1" font-family=".AppleSystemUIFont" font-weight="400" stroke="#000000" font-style="normal" stroke-width="7" transform="matrix(1,0,0,1,916.528,340.26)" fill="none" stroke-linejoin="bevel">
    <path vector-effect="none" d="M-545,-120 L545,-120" fill-rule="evenodd"/>
   </g>
   <g stroke-linecap="round" font-size="45.8611" stroke-opacity="1" font-family=".AppleSystemUIFont" font-weight="400" stroke="#000000" font-style="normal" stroke-width="7" transform="matrix(1,0,0,1,916.528,340.26)" fill="none" stroke-linejoin="bevel">
    <path vector-effect="none" d="M545,-120 L545,-20" fill-rule="evenodd"/>
   </g>
   <g stroke-linecap="round" font-size="45.8611" stroke-opacity="1" font-family=".AppleSystemUIFont" font-weight="400" stroke="#000000" font-style="normal" stroke-width="7" transform="matrix(1,0,0,1,916.528,340.26)" fill="none" stroke-linejoin="bevel">
    <path vector-effect="none" d="M545,-20 L625,-20" fill-rule="evenodd"/>
   </g>
   <g stroke-linecap="round" font-size="45.8611" stroke-opacity="1" font-family=".AppleSystemUIFont" font-weight="400" stroke="#000000" font-style="normal" stroke-width="7" transform="matrix(1,0,0,1,916.528,340.26)" fill="none" stroke-linejoin="bevel">
    <path vector-effect="none" d="M625,-20 L625,120" fill-rule="evenodd"/>
   </g>
   <g stroke-linecap="round" font-size="45.8611" stroke-opacity="1" font-family=".AppleSystemUIFont" font-weight="400" stroke="#000000" font-style="normal" stroke-width="7" transform="matrix(1,0,0,1,916.528,340.26)" fill="none" stroke-linejoin="bevel">
    <path vector-effect="none" d="M625,120 L485,120" fill-rule="evenodd"/>
   </g>
   <g stroke-linecap="round" font-size="45.8611" stroke-opacity="1" font-family=".AppleSystemUIFont" font-weight="400" stroke="#000000" font-style="normal" stroke-width="7" transform="matrix(1,0,0,1,916.528,340.26)" fill="none" stroke-linejoin="bevel">
    <path vector-effect="none" d="M485,120 L485,59.9997" fill-rule="evenodd"/>
   </g>
   <g stroke-linecap="round" font-size="45.8611" stroke-opacity="1" font-family=".AppleSystemUIFont" font-weight="400" stroke="#000000" font-style="normal" stroke-width="7" transform="matrix(1,0,0,1,916.528,340.26)" fill="none" stroke-linejoin="bevel">
    <path vector-effect="none" d="M485,59.9997 C485,26.8627 458.137,-3.47614e-05 425,3.31735e-11 " fill-rule="evenodd"/>
   </g>
   <g stroke-linecap="round" font-size="45.8611" stroke-opacity="1" font-family=".AppleSystemUIFont" font-weight="400" stroke="#000000" font-style="normal" stroke-width="7" transform="matrix(1,0,0,1,916.528,340.26)" fill="none" stroke-linejoin="bevel">
    <path vector-effect="none" d="M425,3.31468e-11 L-425,3.28663e-11" fill-rule="evenodd"/>
   </g>
   <g stroke-linecap="round" font-size="45.8611" stroke-opacity="1" font-family=".AppleSystemUIFont" font-weight="400" stroke="#000000" font-style="normal" stroke-width="7" transform="matrix(1,0,0,1,916.528,340.26)" fill="none" stroke-linejoin="bevel">
    <path vector-effect="none" d="M-425,3.32534e-11 C-458.137,-3.49532e-05 -485,26.8627 -485,59.9997 " fill-rule="evenodd"/>
   </g>
   <g stroke-linecap="round" font-size="45.8611" stroke-opacity="1" font-family=".AppleSystemUIFont" font-weight="400" stroke="#000000" font-style="normal" stroke-width="7" transform="matrix(1,0,0,1,916.528,340.26)" fill="none" stroke-linejoin="bevel">
    <path vector-effect="none" d="M-485,59.9997 L-485,120" fill-rule="evenodd"/>
   </g>
   <g stroke-linecap="round" font-size="45.8611" stroke-opacity="1" font-family=".AppleSystemUIFont" font-weight="400" stroke="#000000" font-style="normal" stroke-width="7" transform="matrix(1,0,0,1,916.528,340.26)" fill="none" stroke-linejoin="bevel">
    <path vector-effect="none" d="M-485,120 L-625,120" fill-rule="evenodd"/>
   </g>
   <g font-size="45.8611" font-family=".AppleSystemUIFont" font-weight="400" stroke="none" font-style="normal" fill-opacity="1" transform="matrix(1,0,0,1,1398.52,744.792)" fill="#ffffff">
    <path vector-effect="non-scaling-stroke" d="M-1030,157.5 L-1030,17.5 L-1110,17.5 L-1110,-157.5 L-1060,-157.5 L-1060,-122.5 L1060,-122.5 L1060,-157.5 L1110,-157.5 L1110,17.5 L1030,17.5 L1030,157.5 L890,157.5 C890,58.0887 809.411,-22.5 710,-22.5 L-710,-22.5 C-809.411,-22.5 -890,58.0887 -890,157.5 L-1030,157.5" fill-rule="evenodd"/>
   </g>
   <g stroke-linecap="square" font-size="45.8611" stroke-opacity="1" font-family=".AppleSystemUIFont" font-weight="400" stroke="#000000" font-style="normal" stroke-width="1" transform="matrix(1,0,0,1,1398.52,744.792)" fill="none" stroke-linejoin="bevel">
    <rect height="0" x="0" width="0" y="0"/>
   </g>
   <g stroke-linecap="round" font-size="45.8611" stroke-opacity="1" font-family=".AppleSystemUIFont" font-weight="400" stroke="#000000" font-style="normal" stroke-width="7" transform="matrix(1,0,0,1,1398.52,744.792)" fill="none" stroke-linejoin="bevel">
    <path vector-effect="none" d="M-710,-22.5 C-809.411,-22.5 -890,58.0887 -890,157.5 " fill-rule="evenodd"/>
   </g>
   <g stroke-linecap="round" font-size="45.8611" stroke-opacity="1" font-family=".AppleSystemUIFont" font-weight="400" stroke="#000000" font-style="normal" stroke-width="7" transform="matrix(1,0,0,1,1398.52,744.792)" fill="none" stroke-linejoin="bevel">
    <path vector-effect="none" d="M-1030,157.5 L-890,157.5" fill-rule="evenodd"/>
   </g>
   <g stroke-linecap="round" font-size="45.8611" stroke-opacity="1" font-family=".AppleSystemUIFont" font-weight="400" stroke="#000000" font-style="normal" stroke-width="7" transform="matrix(1,0,0,1,1398.52,744.792)" fill="none" stroke-linejoin="bevel">
    <path vector-effect="none" d="M-1030,157.5 L-1030,17.5" fill-rule="evenodd"/>
   </g>
   <g stroke-linecap="round" font-size="45.8611" stroke-opacity="1" font-family=".AppleSystemUIFont" font-weight="400" stroke="#000000" font-style="normal" stroke-width="7" transform="matrix(1,0,0,1,1398.52,744.792)" fill="none" stroke-linejoin="bevel">
    <path vector-effect="none" d="M-1030,17.5 L-1110,17.5" fill-rule="evenodd"/>
   </g>
   <g stroke-linecap="round" font-size="45.8611" stroke-opacity="1" font-family=".AppleSystemUIFont" font-weight="400" stroke="#000000" font-style="normal" stroke-width="7" transform="matrix(1,0,0,1,1398.52,744.792)" fill="none" stroke-linejoin="bevel">
    <path vector-effect="none" d="M-1110,17.5 L-1110,-157.5" fill-rule="evenodd"/>
   </g>
   <g stroke-linecap="round" font-size="45.8611" stroke-opacity="1" font-family=".AppleSystemUIFont" font-weight="400" stroke="#000000" font-style="normal" stroke-width="7" transform="matrix(1,0,0,1,1398.52,744.792)" fill="none" stroke-linejoin="bevel">
    <path vector-effect="none" d="M-1110,-157.5 L-1060,-157.5" fill-rule="evenodd"/>
   </g>
   <g stroke-linecap="round" font-size="45.8611" stroke-opacity="1" font-family=".AppleSystemUIFont" font-weight="400" stroke="#000000" font-style="normal" stroke-width="7" transform="matrix(1,0,0,1,1398.52,744.792)" fill="none" stroke-linejoin="bevel">
    <path vector-effect="none" d="M-1060,-157.5 L-1060,-122.5" fill-rule="evenodd"/>
   </g>
   <g stroke-linecap="round" font-size="45.8611" stroke-opacity="1" font-family=".AppleSystemUIFont" font-weight="400" stroke="#000000" font-style="normal" stroke-width="7" transform="matrix(1,0,0,1,1398.52,744.792)" fill="none" stroke-linejoin="bevel">
    <path vector-effect="none" d="M-1060,-122.5 L1060,-122.5" fill-rule="evenodd"/>
   </g>
   <g stroke-linecap="round" font-size="45.8611" stroke-opacity="1" font-family=".AppleSystemUIFont" font-weight="400" stroke="#000000" font-style="normal" stroke-width="7" transform="matrix(1,0,0,1,1398.52,744.792)" fill="none" stroke-linejoin="bevel">
    <path vector-effect="none" d="M1060,-122.5 L1060,-157.5" fill-rule="evenodd"/>
   </g>
   <g stroke-linecap="round" font-size="45.8611" stroke-opacity="1" font-family=".AppleSystemUIFont" font-weight="400" stroke="#000000" font-style="normal" stroke-width="7" transform="matrix(1,0,0,1,1398.52,744.792)" fill="none" stroke-linejoin="bevel">
    <path vector-effect="none" d="M1060,-157.5 L1110,-157.5" fill-rule="evenodd"/>
   </g>
   <g stroke-linecap="round" font-size="45.8611" stroke-opacity="1" font-family=".AppleSystemUIFont" font-weight="400" stroke="#000000" font-style="normal" stroke-width="7" transform="matrix(1,0,0,1,1398.52,744.792)" fill="none" stroke-linejoin="bevel">
    <path vector-effect="none" d="M1110,-157.5 L1110,17.5" fill-rule="evenodd"/>
   </g>
   <g stroke-linecap="round" font-size="45.8611" stroke-opacity="1" font-family=".AppleSystemUIFont" font-weight="400" stroke="#000000" font-style="normal" stroke-width="7" transform="matrix(1,0,0,1,1398.52,744.792)" fill="none" stroke-linejoin="bevel">
    <path vector-effect="none" d="M1110,17.5 L1030,17.5" fill-rule="evenodd"/>
   </g>
   <g stroke-linecap="round" font-size="45.8611" stroke-opacity="1" font-family=".AppleSystemUIFont" font-weight="400" stroke="#000000" font-style="normal" stroke-width="7" transform="matrix(1,0,0,1,1398.52,744.792)" fill="none" stroke-linejoin="bevel">
    <path vector-effect="none" d="M1030,17.5 L1030,157.5" fill-rule="evenodd"/>
   </g>
   <g stroke-linecap="round" font-size="45.8611" stroke-opacity="1" font-family=".AppleSystemUIFont" font-weight="400" stroke="#000000" font-style="normal" stroke-width="7" transform="matrix(1,0,0,1,1398.52,744.792)" fill="none" stroke-linejoin="bevel">
    <path vector-effect="none" d="M1030,157.5 L890,157.5" fill-rule="evenodd"/>
   </g>
   <g stroke-linecap="round" font-size="45.8611" stroke-opacity="1" font-family=".AppleSystemUIFont" font-weight="400" stroke="#000000" font-style="normal" stroke-width="7" transform="matrix(1,0,0,1,1398.52,744.792)" fill="none" stroke-linejoin="bevel">
    <path vector-effect="none" d="M890,157.5 C890,58.0887 809.411,-22.5 710,-22.5 " fill-rule="evenodd"/>
   </g>
   <g stroke-linecap="round" font-size="45.8611" stroke-opacity="1" font-family=".AppleSystemUIFont" font-weight="400" stroke="#000000" font-style="normal" stroke-width="7" transform="matrix(1,0,0,1,1398.52,744.792)" fill="none" stroke-linejoin="bevel">
    <path vector-effect="none" d="M-710,-22.5 L710,-22.5" fill-rule="evenodd"/>
   </g>
  </g>
 </g>
</svg>
