<?xml version="1.0"?>
<!DOCTYPE svg PUBLIC "-//W3C//DTD SVG 1.1//EN" "http://www.w3.org/Graphics/SVG/1.1/DTD/svg11.dtd">
<svg width="402.9mm" height="402.9mm" viewBox="0 0 402.9 402.9" xmlns="http://www.w3.org/2000/svg" version="1.1">
<g id="Sketch009" transform="translate(201.450000,201.450000) scale(1,-1)">
<path id="Sketch009_w0000"  d="M -197.5 197.5 L 197.5 197.5 L 197.5 -197.5 L -197.5 -197.5 L -197.5 197.5 " stroke="#191919" stroke-width="0.35 px" style="stroke-width:0.35;stroke-miterlimit:4;stroke-dasharray:none;fill:none;fill-opacity:1;fill-rule: evenodd"/>
<path id="Sketch009_w0001"  d="M 188.0 -182.0 L 192.0 -182.0 L 192.0 -192.0 L 178.0 -192.0 L 178.0 -188.0 L 188.0 -188.0 L 188.0 -182.0 " stroke="#191919" stroke-width="0.35 px" style="stroke-width:0.35;stroke-miterlimit:4;stroke-dasharray:none;fill:none;fill-opacity:1;fill-rule: evenodd"/>
<path id="Sketch009_w0002"  d="M 156.0 -196.0 L 156.0 -192.0 L 161.5 -191.99999999999994 L 161.5 -187.99999999999991 L 169.5 -187.99999999999991 L 169.5 -191.99999999999994 L 176.0 -192.0 L 176.0 -196.0 L 156.0 -196.0 " stroke="#191919" stroke-width="0.35 px" style="stroke-width:0.35;stroke-miterlimit:4;stroke-dasharray:none;fill:none;fill-opacity:1;fill-rule: evenodd"/>
<circle cx="165.5" cy="-185.20000000000005" r="1.5" stroke="#191919" stroke-width="0.35 px" style="stroke-width:0.35;stroke-miterlimit:4;stroke-dasharray:none;fill:none"/>
<path id="Sketch009_w0004"  d="M 192.0 -176.0 L 192.0 -156.0 L 196.0 -156.0 L 196.0 -176.0 L 192.0 -176.0 " stroke="#191919" stroke-width="0.35 px" style="stroke-width:0.35;stroke-miterlimit:4;stroke-dasharray:none;fill:none;fill-opacity:1;fill-rule: evenodd"/>
<path id="Sketch009_w0005"  d="M 143.0 -188.0 L 143.0 -182.0 L 139.0 -182.0 L 139.0 -189.0 L 131.0 -189.0 L 131.0 -192.0 L 153.0 -192.0 L 153.0 -188.0 L 143.0 -188.0 " stroke="#191919" stroke-width="0.35 px" style="stroke-width:0.35;stroke-miterlimit:4;stroke-dasharray:none;fill:none;fill-opacity:1;fill-rule: evenodd"/>
<circle cx="135.0" cy="-186.19999999999993" r="1.5" stroke="#191919" stroke-width="0.35 px" style="stroke-width:0.35;stroke-miterlimit:4;stroke-dasharray:none;fill:none"/>
<circle cx="125.45" cy="-184.0" r="1.5" stroke="#191919" stroke-width="0.35 px" style="stroke-width:0.35;stroke-miterlimit:4;stroke-dasharray:none;fill:none"/>
<path id="Sketch009_w0008"  d="M 192.0 -126.0 L 178.0 -126.0 L 178.0 -130.0 L 188.0 -130.0 L 188.0 -136.0 L 192.0 -136.0 L 192.0 -126.0 " stroke="#191919" stroke-width="0.35 px" style="stroke-width:0.35;stroke-miterlimit:4;stroke-dasharray:none;fill:none;fill-opacity:1;fill-rule: evenodd"/>
<circle cx="165.5" cy="-132.8" r="1.5" stroke="#191919" stroke-width="0.35 px" style="stroke-width:0.35;stroke-miterlimit:4;stroke-dasharray:none;fill:none"/>
<path id="Sketch009_w0010"  d="M 161.5 -126.0 L 169.5 -126.0 L 169.5 -130.0 L 161.5 -130.0 L 161.5 -126.0 " stroke="#191919" stroke-width="0.35 px" style="stroke-width:0.35;stroke-miterlimit:4;stroke-dasharray:none;fill:none;fill-opacity:1;fill-rule: evenodd"/>
<circle cx="172.0" cy="-108.0" r="1.5" stroke="#191919" stroke-width="0.35 px" style="stroke-width:0.35;stroke-miterlimit:4;stroke-dasharray:none;fill:none"/>
<circle cx="125.45" cy="-137.2" r="1.5" stroke="#191919" stroke-width="0.35 px" style="stroke-width:0.35;stroke-miterlimit:4;stroke-dasharray:none;fill:none"/>
<path id="Sketch009_w0013"  d="M 139.0 -126.0 L 139.0 -136.0 L 143.0 -136.0 L 143.0 -130.0 L 153.0 -130.0 L 153.0 -126.0 L 139.0 -126.0 " stroke="#191919" stroke-width="0.35 px" style="stroke-width:0.35;stroke-miterlimit:4;stroke-dasharray:none;fill:none;fill-opacity:1;fill-rule: evenodd"/>
<circle cx="135.0" cy="-119.0" r="1.5" stroke="#191919" stroke-width="0.35 px" style="stroke-width:0.35;stroke-miterlimit:4;stroke-dasharray:none;fill:none"/>
<path id="Sketch009_w0015"  d="M 131.0 -113.2 L 139.0 -113.2 L 139.0 -116.2 L 131.0 -116.2 L 131.0 -113.2 " stroke="#191919" stroke-width="0.35 px" style="stroke-width:0.35;stroke-miterlimit:4;stroke-dasharray:none;fill:none;fill-opacity:1;fill-rule: evenodd"/>
<circle cx="106.0" cy="-108.0" r="1.5" stroke="#191919" stroke-width="0.35 px" style="stroke-width:0.35;stroke-miterlimit:4;stroke-dasharray:none;fill:none"/>
<circle cx="101.0" cy="-108.0" r="1.5" stroke="#191919" stroke-width="0.35 px" style="stroke-width:0.35;stroke-miterlimit:4;stroke-dasharray:none;fill:none"/>
<circle cx="94.45" cy="-168.0" r="1.5" stroke="#191919" stroke-width="0.35 px" style="stroke-width:0.35;stroke-miterlimit:4;stroke-dasharray:none;fill:none"/>
<path id="Sketch009_w0019"  d="M 15.0 -189.0 L 15.0 -192.0 L 23.0 -192.0 L 23.0 -189.0 L 15.0 -189.0 " stroke="#191919" stroke-width="0.35 px" style="stroke-width:0.35;stroke-miterlimit:4;stroke-dasharray:none;fill:none;fill-opacity:1;fill-rule: evenodd"/>
<circle cx="19.0" cy="-186.2" r="1.5" stroke="#191919" stroke-width="0.35 px" style="stroke-width:0.35;stroke-miterlimit:4;stroke-dasharray:none;fill:none"/>
<path id="Sketch009_w0021"  d="M 84.45 -150.54999999999998 L 84.45 -142.54999999999998 L 81.45 -142.54999999999998 L 81.45 -150.54999999999998 L 84.45 -150.54999999999998 " stroke="#191919" stroke-width="0.35 px" style="stroke-width:0.35;stroke-miterlimit:4;stroke-dasharray:none;fill:none;fill-opacity:1;fill-rule: evenodd"/>
<circle cx="78.65" cy="-146.54999999999998" r="1.5" stroke="#191919" stroke-width="0.35 px" style="stroke-width:0.35;stroke-miterlimit:4;stroke-dasharray:none;fill:none"/>
<circle cx="94.45" cy="-121.2" r="1.5" stroke="#191919" stroke-width="0.35 px" style="stroke-width:0.35;stroke-miterlimit:4;stroke-dasharray:none;fill:none"/>
<circle cx="35.0" cy="-108.0" r="1.5" stroke="#191919" stroke-width="0.35 px" style="stroke-width:0.35;stroke-miterlimit:4;stroke-dasharray:none;fill:none"/>
<circle cx="19.0" cy="-106.89999999999993" r="1.5" stroke="#191919" stroke-width="0.35 px" style="stroke-width:0.35;stroke-miterlimit:4;stroke-dasharray:none;fill:none"/>
<path id="Sketch009_w0026"  d="M 15.0 -101.09999999999998 L 15.0 -104.09999999999998 L 23.0 -104.09999999999998 L 23.0 -101.09999999999998 L 15.0 -101.09999999999998 " stroke="#191919" stroke-width="0.35 px" style="stroke-width:0.35;stroke-miterlimit:4;stroke-dasharray:none;fill:none;fill-opacity:1;fill-rule: evenodd"/>
<circle cx="172.0" cy="-63.0" r="1.5" stroke="#191919" stroke-width="0.35 px" style="stroke-width:0.35;stroke-miterlimit:4;stroke-dasharray:none;fill:none"/>
<circle cx="106.0" cy="-63.0" r="1.5" stroke="#191919" stroke-width="0.35 px" style="stroke-width:0.35;stroke-miterlimit:4;stroke-dasharray:none;fill:none"/>
<circle cx="101.0" cy="-63.0" r="1.5" stroke="#191919" stroke-width="0.35 px" style="stroke-width:0.35;stroke-miterlimit:4;stroke-dasharray:none;fill:none"/>
<circle cx="134.0" cy="-31.499999999999993" r="1.5" stroke="#191919" stroke-width="0.35 px" style="stroke-width:0.35;stroke-miterlimit:4;stroke-dasharray:none;fill:none"/>
<path id="Sketch009_w0031"  d="M 138.0 14.500000000000007 L 130.0 14.500000000000007 L 130.0 4.500000000000007 L 120.0 4.500000000000007 L 120.0 -3.499999999999993 L 130.0 -3.499999999999993 L 130.0 -23.499999999999993 L 138.0 -23.499999999999993 L 138.0 -3.499999999999993 L 158.0 -3.499999999999993 L 158.0 4.500000000000007 L 138.0 4.500000000000007 L 138.0 14.500000000000007 " stroke="#191919" stroke-width="0.35 px" style="stroke-width:0.35;stroke-miterlimit:4;stroke-dasharray:none;fill:none;fill-opacity:1;fill-rule: evenodd"/>
<circle cx="35.0" cy="-63.0" r="1.5" stroke="#191919" stroke-width="0.35 px" style="stroke-width:0.35;stroke-miterlimit:4;stroke-dasharray:none;fill:none"/>
<circle cx="-56.45" cy="-184.0" r="1.5" stroke="#191919" stroke-width="0.35 px" style="stroke-width:0.35;stroke-miterlimit:4;stroke-dasharray:none;fill:none"/>
<circle cx="-87.45" cy="-168.0" r="1.5" stroke="#191919" stroke-width="0.35 px" style="stroke-width:0.35;stroke-miterlimit:4;stroke-dasharray:none;fill:none"/>
<circle cx="-40.65" cy="-146.54999999999998" r="1.5" stroke="#191919" stroke-width="0.35 px" style="stroke-width:0.35;stroke-miterlimit:4;stroke-dasharray:none;fill:none"/>
<path id="Sketch009_w0036"  d="M -46.45 -142.54999999999998 L -43.45 -142.54999999999998 L -43.45 -150.54999999999998 L -46.45 -150.54999999999998 L -46.45 -142.54999999999998 " stroke="#191919" stroke-width="0.35 px" style="stroke-width:0.35;stroke-miterlimit:4;stroke-dasharray:none;fill:none;fill-opacity:1;fill-rule: evenodd"/>
<circle cx="-23.5000000000858" cy="-107.5" r="1.5" stroke="#191919" stroke-width="0.35 px" style="stroke-width:0.35;stroke-miterlimit:4;stroke-dasharray:none;fill:none"/>
<circle cx="-56.45" cy="-137.2" r="1.5" stroke="#191919" stroke-width="0.35 px" style="stroke-width:0.35;stroke-miterlimit:4;stroke-dasharray:none;fill:none"/>
<circle cx="-87.45" cy="-121.2" r="1.5" stroke="#191919" stroke-width="0.35 px" style="stroke-width:0.35;stroke-miterlimit:4;stroke-dasharray:none;fill:none"/>
<circle cx="-81.5000000000858" cy="-107.5" r="1.5" stroke="#191919" stroke-width="0.35 px" style="stroke-width:0.35;stroke-miterlimit:4;stroke-dasharray:none;fill:none"/>
<circle cx="-97.00000000000003" cy="-186.19999999999993" r="1.5" stroke="#191919" stroke-width="0.35 px" style="stroke-width:0.35;stroke-miterlimit:4;stroke-dasharray:none;fill:none"/>
<path id="Sketch009_w0042"  d="M -105.00000000000003 -182.0 L -101.00000000000003 -182.0 L -101.00000000000003 -189.0 L -93.00000000000003 -189.0 L -93.00000000000003 -192.0 L -115.00000000000003 -192.0 L -115.00000000000003 -188.0 L -105.00000000000003 -188.0 L -105.00000000000003 -182.0 " stroke="#191919" stroke-width="0.35 px" style="stroke-width:0.35;stroke-miterlimit:4;stroke-dasharray:none;fill:none;fill-opacity:1;fill-rule: evenodd"/>
<path id="Sketch009_w0043"  d="M -138.00000000000003 -196.0 L -138.00000000000003 -192.0 L -131.50000000000003 -192.00000000000023 L -131.50000000000003 -188.00000000000043 L -123.50000000000003 -188.00000000000043 L -123.50000000000003 -192.00000000000023 L -118.00000000000001 -192.0 L -118.00000000000001 -196.0 L -138.00000000000003 -196.0 " stroke="#191919" stroke-width="0.35 px" style="stroke-width:0.35;stroke-miterlimit:4;stroke-dasharray:none;fill:none;fill-opacity:1;fill-rule: evenodd"/>
<circle cx="-127.50000000000003" cy="-185.20000000000002" r="1.5" stroke="#191919" stroke-width="0.35 px" style="stroke-width:0.35;stroke-miterlimit:4;stroke-dasharray:none;fill:none"/>
<path id="Sketch009_w0045"  d="M -150.00000000000003 -182.0 L -154.00000000000003 -182.0 L -154.00000000000003 -192.0 L -140.00000000000003 -192.0 L -140.00000000000003 -188.0 L -150.00000000000003 -188.0 L -150.00000000000003 -182.0 " stroke="#191919" stroke-width="0.35 px" style="stroke-width:0.35;stroke-miterlimit:4;stroke-dasharray:none;fill:none;fill-opacity:1;fill-rule: evenodd"/>
<path id="Sketch009_w0046"  d="M -158.00000000000003 -176.0 L -158.00000000000003 -156.0 L -154.00000000000003 -156.0 L -154.00000000000003 -176.0 L -158.00000000000003 -176.0 " stroke="#191919" stroke-width="0.35 px" style="stroke-width:0.35;stroke-miterlimit:4;stroke-dasharray:none;fill:none;fill-opacity:1;fill-rule: evenodd"/>
<path id="Sketch009_w0047"  d="M -101.00000000000003 -126.0 L -115.00000000000003 -126.0 L -115.00000000000003 -130.0 L -105.00000000000003 -130.0 L -105.00000000000003 -136.0 L -101.00000000000003 -136.0 L -101.00000000000003 -126.0 " stroke="#191919" stroke-width="0.35 px" style="stroke-width:0.35;stroke-miterlimit:4;stroke-dasharray:none;fill:none;fill-opacity:1;fill-rule: evenodd"/>
<circle cx="-127.50000000000003" cy="-132.8" r="1.5" stroke="#191919" stroke-width="0.35 px" style="stroke-width:0.35;stroke-miterlimit:4;stroke-dasharray:none;fill:none"/>
<path id="Sketch009_w0049"  d="M -131.50000000000003 -126.0 L -123.50000000000003 -126.0 L -123.50000000000003 -130.0 L -131.50000000000003 -130.0 L -131.50000000000003 -126.0 " stroke="#191919" stroke-width="0.35 px" style="stroke-width:0.35;stroke-miterlimit:4;stroke-dasharray:none;fill:none;fill-opacity:1;fill-rule: evenodd"/>
<circle cx="-97.00000000000003" cy="-119.0" r="1.5" stroke="#191919" stroke-width="0.35 px" style="stroke-width:0.35;stroke-miterlimit:4;stroke-dasharray:none;fill:none"/>
<path id="Sketch009_w0051"  d="M -101.00000000000003 -113.2 L -93.00000000000003 -113.2 L -93.00000000000003 -116.2 L -101.00000000000003 -116.2 L -101.00000000000003 -113.2 " stroke="#191919" stroke-width="0.35 px" style="stroke-width:0.35;stroke-miterlimit:4;stroke-dasharray:none;fill:none;fill-opacity:1;fill-rule: evenodd"/>
<path id="Sketch009_w0052"  d="M -110.50000000000003 -97.50000000008578 L -107.5000000000858 -97.50000000008578 L -107.5000000000858 -105.5 L -110.50000000000003 -105.5 L -110.50000000000003 -97.50000000008578 " stroke="#191919" stroke-width="0.35 px" style="stroke-width:0.35;stroke-miterlimit:4;stroke-dasharray:none;fill:none;fill-opacity:1;fill-rule: evenodd"/>
<circle cx="-113.29999999999994" cy="-101.50000000004289" r="1.5" stroke="#191919" stroke-width="0.35 px" style="stroke-width:0.35;stroke-miterlimit:4;stroke-dasharray:none;fill:none"/>
<path id="Sketch009_w0054"  d="M -154.00000000000003 -126.0 L -154.00000000000003 -136.0 L -150.00000000000003 -136.0 L -150.00000000000003 -130.0 L -140.00000000000003 -130.0 L -140.00000000000003 -126.0 L -154.00000000000003 -126.0 " stroke="#191919" stroke-width="0.35 px" style="stroke-width:0.35;stroke-miterlimit:4;stroke-dasharray:none;fill:none;fill-opacity:1;fill-rule: evenodd"/>
<circle cx="-146.20000000000002" cy="-101.50000000004289" r="1.5" stroke="#191919" stroke-width="0.35 px" style="stroke-width:0.35;stroke-miterlimit:4;stroke-dasharray:none;fill:none"/>
<path id="Sketch009_w0056"  d="M -152.00000000000003 -97.50000000008578 L -149.00000000000003 -97.50000000008578 L -149.00000000000003 -105.50000000008578 L -152.00000000000003 -105.50000000008578 L -152.00000000000003 -97.50000000008578 " stroke="#191919" stroke-width="0.35 px" style="stroke-width:0.35;stroke-miterlimit:4;stroke-dasharray:none;fill:none;fill-opacity:1;fill-rule: evenodd"/>
<circle cx="-23.5000000000858" cy="-58.49999999999999" r="1.5" stroke="#191919" stroke-width="0.35 px" style="stroke-width:0.35;stroke-miterlimit:4;stroke-dasharray:none;fill:none"/>
<circle cx="-81.5000000000858" cy="-58.49999999999999" r="1.5" stroke="#191919" stroke-width="0.35 px" style="stroke-width:0.35;stroke-miterlimit:4;stroke-dasharray:none;fill:none"/>
<circle cx="-95.99999999999999" cy="-31.499999999999993" r="1.5" stroke="#191919" stroke-width="0.35 px" style="stroke-width:0.35;stroke-miterlimit:4;stroke-dasharray:none;fill:none"/>
<path id="Sketch009_w0060"  d="M -99.99999999999999 14.500000000000007 L -91.99999999999999 14.500000000000007 L -91.99999999999999 4.500000000000007 L -81.99999999999999 4.500000000000007 L -81.99999999999999 -3.499999999999993 L -91.99999999999999 -3.499999999999993 L -91.99999999999999 -23.499999999999993 L -99.99999999999999 -23.499999999999993 L -99.99999999999999 -3.499999999999993 L -119.99999999999999 -3.499999999999993 L -119.99999999999999 4.500000000000007 L -99.99999999999999 4.500000000000007 L -99.99999999999999 14.500000000000007 " stroke="#191919" stroke-width="0.35 px" style="stroke-width:0.35;stroke-miterlimit:4;stroke-dasharray:none;fill:none;fill-opacity:1;fill-rule: evenodd"/>
<circle cx="166.0" cy="0.5000000000000071" r="1.5" stroke="#191919" stroke-width="0.35 px" style="stroke-width:0.35;stroke-miterlimit:4;stroke-dasharray:none;fill:none"/>
<circle cx="134.0" cy="38.50000000000001" r="1.5" stroke="#191919" stroke-width="0.35 px" style="stroke-width:0.35;stroke-miterlimit:4;stroke-dasharray:none;fill:none"/>
<circle cx="134.0" cy="95.5" r="1.5" stroke="#191919" stroke-width="0.35 px" style="stroke-width:0.35;stroke-miterlimit:4;stroke-dasharray:none;fill:none"/>
<circle cx="96.0" cy="0.5000000000000071" r="1.5" stroke="#191919" stroke-width="0.35 px" style="stroke-width:0.35;stroke-miterlimit:4;stroke-dasharray:none;fill:none"/>
<circle cx="166.0" cy="133.5" r="1.5" stroke="#191919" stroke-width="0.35 px" style="stroke-width:0.35;stroke-miterlimit:4;stroke-dasharray:none;fill:none"/>
<path id="Sketch009_w0066"  d="M 138.0 157.5 L 130.0 157.5 L 130.0 137.5 L 120.0 137.5 L 120.0 129.5 L 130.0 129.5 L 130.0 119.5 L 138.0 119.5 L 138.0 129.5 L 158.0 129.5 L 158.0 137.5 L 138.0 137.5 L 138.0 157.5 " stroke="#191919" stroke-width="0.35 px" style="stroke-width:0.35;stroke-miterlimit:4;stroke-dasharray:none;fill:none;fill-opacity:1;fill-rule: evenodd"/>
<path id="Sketch009_w0067"  d="M 192.0 156.0 L 192.0 176.0 L 196.0 176.0 L 196.0 156.0 L 192.0 156.0 " stroke="#191919" stroke-width="0.35 px" style="stroke-width:0.35;stroke-miterlimit:4;stroke-dasharray:none;fill:none;fill-opacity:1;fill-rule: evenodd"/>
<path id="Sketch009_w0068"  d="M 156.0 192.0 L 156.0 196.0 L 176.0 196.0 L 176.0 192.0 L 156.0 192.0 " stroke="#191919" stroke-width="0.35 px" style="stroke-width:0.35;stroke-miterlimit:4;stroke-dasharray:none;fill:none;fill-opacity:1;fill-rule: evenodd"/>
<circle cx="134.0" cy="165.5" r="1.5" stroke="#191919" stroke-width="0.35 px" style="stroke-width:0.35;stroke-miterlimit:4;stroke-dasharray:none;fill:none"/>
<circle cx="96.0" cy="133.5" r="1.5" stroke="#191919" stroke-width="0.35 px" style="stroke-width:0.35;stroke-miterlimit:4;stroke-dasharray:none;fill:none"/>
<circle cx="-57.999999999999986" cy="0.5000000000000071" r="1.5" stroke="#191919" stroke-width="0.35 px" style="stroke-width:0.35;stroke-miterlimit:4;stroke-dasharray:none;fill:none"/>
<circle cx="-95.99999999999999" cy="38.50000000000001" r="1.5" stroke="#191919" stroke-width="0.35 px" style="stroke-width:0.35;stroke-miterlimit:4;stroke-dasharray:none;fill:none"/>
<circle cx="-95.99999999999999" cy="95.5" r="1.5" stroke="#191919" stroke-width="0.35 px" style="stroke-width:0.35;stroke-miterlimit:4;stroke-dasharray:none;fill:none"/>
<circle cx="-127.99999999999999" cy="0.5000000000000071" r="1.5" stroke="#191919" stroke-width="0.35 px" style="stroke-width:0.35;stroke-miterlimit:4;stroke-dasharray:none;fill:none"/>
<circle cx="-57.999999999999986" cy="133.5" r="1.5" stroke="#191919" stroke-width="0.35 px" style="stroke-width:0.35;stroke-miterlimit:4;stroke-dasharray:none;fill:none"/>
<circle cx="-95.99999999999999" cy="165.5" r="1.5" stroke="#191919" stroke-width="0.35 px" style="stroke-width:0.35;stroke-miterlimit:4;stroke-dasharray:none;fill:none"/>
<path id="Sketch009_w0077"  d="M -99.99999999999999 137.5 L -99.99999999999999 157.5 L -91.99999999999999 157.5 L -91.99999999999999 137.5 L -81.99999999999999 137.5 L -81.99999999999999 129.5 L -91.99999999999999 129.5 L -91.99999999999999 119.5 L -99.99999999999999 119.5 L -99.99999999999999 129.5 L -119.99999999999999 129.5 L -119.99999999999999 137.5 L -99.99999999999999 137.5 " stroke="#191919" stroke-width="0.35 px" style="stroke-width:0.35;stroke-miterlimit:4;stroke-dasharray:none;fill:none;fill-opacity:1;fill-rule: evenodd"/>
<circle cx="-127.99999999999999" cy="133.5" r="1.5" stroke="#191919" stroke-width="0.35 px" style="stroke-width:0.35;stroke-miterlimit:4;stroke-dasharray:none;fill:none"/>
<path id="Sketch009_w0079"  d="M -138.00000000000003 192.0 L -138.00000000000003 196.0 L -118.00000000000001 196.0 L -118.00000000000001 192.0 L -138.00000000000003 192.0 " stroke="#191919" stroke-width="0.35 px" style="stroke-width:0.35;stroke-miterlimit:4;stroke-dasharray:none;fill:none;fill-opacity:1;fill-rule: evenodd"/>
<path id="Sketch009_w0080"  d="M -173.00000000000003 152.5 L -165.00000000000003 152.5 L -165.00000000000003 147.5 L -173.00000000000003 147.5 L -173.00000000000003 152.5 " stroke="#191919" stroke-width="0.35 px" style="stroke-width:0.35;stroke-miterlimit:4;stroke-dasharray:none;fill:none;fill-opacity:1;fill-rule: evenodd"/>
<path id="Sketch009_w0081"  d="M -158.00000000000003 156.0 L -158.00000000000003 176.0 L -154.00000000000003 176.0 L -154.00000000000003 156.0 L -158.00000000000003 156.0 " stroke="#191919" stroke-width="0.35 px" style="stroke-width:0.35;stroke-miterlimit:4;stroke-dasharray:none;fill:none;fill-opacity:1;fill-rule: evenodd"/>
<circle cx="-169.00000000000003" cy="166.49999999999997" r="1.5" stroke="#191919" stroke-width="0.35 px" style="stroke-width:0.35;stroke-miterlimit:4;stroke-dasharray:none;fill:none"/>
<path id="Sketch009_w0083"  d="M -194.00000000000003 152.5 L -186.00000000000003 152.5 L -186.00000000000003 147.5 L -194.00000000000003 147.5 L -194.00000000000003 152.5 " stroke="#191919" stroke-width="0.35 px" style="stroke-width:0.35;stroke-miterlimit:4;stroke-dasharray:none;fill:none;fill-opacity:1;fill-rule: evenodd"/>
<circle cx="-190.00000000000003" cy="166.49999999999966" r="1.5" stroke="#191919" stroke-width="0.35 px" style="stroke-width:0.35;stroke-miterlimit:4;stroke-dasharray:none;fill:none"/>
<path id="Sketch009_w0085"  d="M -173.00000000000003 185.5 L -165.00000000000003 185.5 L -165.00000000000003 180.5 L -173.00000000000003 180.5 L -173.00000000000003 185.5 " stroke="#191919" stroke-width="0.35 px" style="stroke-width:0.35;stroke-miterlimit:4;stroke-dasharray:none;fill:none;fill-opacity:1;fill-rule: evenodd"/>
<path id="Sketch009_w0086"  d="M -194.00000000000003 185.5 L -186.00000000000003 185.5 L -186.00000000000003 180.5 L -194.00000000000003 180.5 L -194.00000000000003 185.5 " stroke="#191919" stroke-width="0.35 px" style="stroke-width:0.35;stroke-miterlimit:4;stroke-dasharray:none;fill:none;fill-opacity:1;fill-rule: evenodd"/>
<title>b'Sketch009'</title>
</g>
</svg>