<?xml version="1.0"?>
<!DOCTYPE svg PUBLIC "-//W3C//DTD SVG 1.1//EN" "http://www.w3.org/Graphics/SVG/1.1/DTD/svg11.dtd">
<svg width="40.8mm" height="395.79999999999995mm" viewBox="0 0 40.8 395.79999999999995" xmlns="http://www.w3.org/2000/svg" version="1.1">
<g id="Sketch014" transform="translate(6.400000,17.900000) scale(1,-1)">
<path id="Sketch014_w0000"  d="M -6.0 17.5 L 34.0 17.5 L 34.0 -377.5 L -6.0 -377.5 L -6.0 17.5 " stroke="#191919" stroke-width="0.35 px" style="stroke-width:0.35;stroke-miterlimit:4;stroke-dasharray:none;fill:none;fill-opacity:1;fill-rule: evenodd"/>
<path id="Sketch014_w0001"  d="M 8.0 7.3 L 8.0 12.7 L 21.0 12.7 L 21.0 7.300000000000001 L 8.0 7.3 " stroke="#191919" stroke-width="0.35 px" style="stroke-width:0.35;stroke-miterlimit:4;stroke-dasharray:none;fill:none;fill-opacity:1;fill-rule: evenodd"/>
<path id="Sketch014_w0002"  d="M 8.0 -12.7 L 8.0 -7.300000000000001 L 20.999999999998316 -7.3 L 20.999999999998316 -12.7 L 8.0 -12.7 " stroke="#191919" stroke-width="0.35 px" style="stroke-width:0.35;stroke-miterlimit:4;stroke-dasharray:none;fill:none;fill-opacity:1;fill-rule: evenodd"/>
<path id="Sketch014_w0003"  d="M 25.047266013154157 -367.9637169563276 L 24.165631109611834 -362.9637169563276 L 32.16563110961184 -361.55310111065984 L 33.04726601315416 -366.55310111065984 L 25.047266013154157 -367.9637169563276 " stroke="#191919" stroke-width="0.35 px" style="stroke-width:0.35;stroke-miterlimit:4;stroke-dasharray:none;fill:none;fill-opacity:1;fill-rule: evenodd"/>
<path id="Sketch014_w0004"  d="M -0.6792735410655908 -372.5 L -1.5609084446079153 -367.5 L 6.439091555392085 -366.08938415433227 L 7.320726458934409 -371.08938415433227 L -0.6792735410655908 -372.5 " stroke="#191919" stroke-width="0.35 px" style="stroke-width:0.35;stroke-miterlimit:4;stroke-dasharray:none;fill:none;fill-opacity:1;fill-rule: evenodd"/>
<path id="Sketch014_w0005"  d="M 21.560908444607882 -348.19160066114443 L 20.67927354106556 -343.19160066114443 L 28.679273541065555 -341.78098481547676 L 29.560908444607882 -346.78098481547676 L 21.560908444607882 -348.19160066114443 " stroke="#191919" stroke-width="0.35 px" style="stroke-width:0.35;stroke-miterlimit:4;stroke-dasharray:none;fill:none;fill-opacity:1;fill-rule: evenodd"/>
<path id="Sketch014_w0006"  d="M -4.165631109611868 -352.72788370481686 L -5.047266013154192 -347.72788370481686 L 2.952733986845808 -346.3172678591492 L 3.8343688903881317 -351.3172678591492 L -4.165631109611868 -352.72788370481686 " stroke="#191919" stroke-width="0.35 px" style="stroke-width:0.35;stroke-miterlimit:4;stroke-dasharray:none;fill:none;fill-opacity:1;fill-rule: evenodd"/>
<circle cx="26.863269777109817" cy="-354.8723508859023" r="1.6" stroke="#191919" stroke-width="0.35 px" style="stroke-width:0.35;stroke-miterlimit:4;stroke-dasharray:none;fill:none"/>
<circle cx="1.1367302228901033" cy="-359.40863392957453" r="1.6" stroke="#191919" stroke-width="0.35 px" style="stroke-width:0.35;stroke-miterlimit:4;stroke-dasharray:none;fill:none"/>
<circle cx="14.5" cy="3.5" r="1.5" stroke="#191919" stroke-width="0.35 px" style="stroke-width:0.35;stroke-miterlimit:4;stroke-dasharray:none;fill:none"/>
<circle cx="14.5" cy="-3.5" r="1.5" stroke="#191919" stroke-width="0.35 px" style="stroke-width:0.35;stroke-miterlimit:4;stroke-dasharray:none;fill:none"/>
<title>b'CameraArm001'</title>
</g>
</svg>