<?xml version="1.0"?>
<!DOCTYPE svg PUBLIC "-//W3C//DTD SVG 1.1//EN" "http://www.w3.org/Graphics/SVG/1.1/DTD/svg11.dtd">
<svg width="37.739999999999995mm" height="45.74mm" viewBox="0 0 37.739999999999995 45.74" xmlns="http://www.w3.org/2000/svg" version="1.1">
<g id="Sketch003" transform="translate(37.370000,22.870000) scale(1,-1)">
<path id="Sketch003_w0000"  d="M -37.0 -18.5 L -37.0 -12.5 L -33.0 -12.5 L -33.0 12.5 L -37.0 12.499999999999998 L -37.0 22.5 L -28.5 22.5 L -28.5 18.5 L -20.0 18.5 L -20.0 22.5 L -11.5 22.5 L -11.5 18.5 L 0.0 18.5 L 0.0 12.5 L -3.0 12.5 L -3.0 2.5 L -8.0 2.5 L -8.0 -2.5 L -3.0 -2.5000000000000004 L -3.0 -12.5 L 0.0 -12.5 L 0.0 -22.5 L -11.5 -22.5 L -11.5 -18.5 L -20.0 -18.5 L -20.0 -22.5 L -28.5 -22.5 L -28.5 -18.5 L -37.0 -18.5 " stroke="#191919" stroke-width="0.35 px" style="stroke-width:0.35;stroke-miterlimit:4;stroke-dasharray:none;fill:none;fill-opacity:1;fill-rule: evenodd"/>
<title>b'walls001'</title>
</g>
</svg>