<?xml version="1.0"?>
<!DOCTYPE svg PUBLIC "-//W3C//DTD SVG 1.1//EN" "http://www.w3.org/Graphics/SVG/1.1/DTD/svg11.dtd">
<svg width="67.32mm" height="54.31999999999999mm" viewBox="0 0 67.32 54.31999999999999" xmlns="http://www.w3.org/2000/svg" version="1.1">
<g id="Sketch008" transform="translate(33.660000,4.660000) scale(1,-1)">
<path id="Sketch008_w0000"  d="M -19.0 4.0 L 19.0 4.0 L 19.0 0.0 L 29.0 0.0 L 29.0 -10.0 L 33.0 -10.0 L 33.0 -35.0 L 29.0 -35.0 L 29.0 -45.0 L 19.0 -45.0 L 19.0 -49.0 L -19.0 -49.0 L -19.0 -45.0 L -29.0 -45.0 L -29.0 -35.0 L -33.0 -35.0 L -33.0 -10.0 L -29.0 -10.0 L -29.0 0.0 L -19.0 2.029053901996129e-41 L -19.0 4.0 " stroke="#191919" stroke-width="0.35 px" style="stroke-width:0.35;stroke-miterlimit:4;stroke-dasharray:none;fill:none;fill-opacity:1;fill-rule: evenodd"/>
<path id="Sketch008_w0001"  d="M 27.006096654409877 -27.31370849898476 A 6.80761 6.80761 0 0 1 27.0061 -17.6863L 15.909902576697316 -6.59009742330268 A 22.5 22.5 0 0 1 -15.9099 -6.5901L -27.00609665441118 -17.686291501001627 A 6.80761 6.80761 0 0 1 -27.0061 -27.3137L -15.909902576711785 -38.40990257668285 A 22.5 22.5 0 0 1 15.9099 -38.4099L 27.006096654409877 -27.31370849898476 " stroke="#191919" stroke-width="0.35 px" style="stroke-width:0.35;stroke-miterlimit:4;stroke-dasharray:none;fill:none;fill-opacity:1;fill-rule: evenodd"/>
<title>b'cover001'</title>
</g>
</svg>