<?xml version="1.0"?>
<!DOCTYPE svg PUBLIC "-//W3C//DTD SVG 1.1//EN" "http://www.w3.org/Graphics/SVG/1.1/DTD/svg11.dtd">
<svg width="45.900000000000006mm" height="45.899999999996375mm" viewBox="0 0 45.900000000000006 45.899999999996375" xmlns="http://www.w3.org/2000/svg" version="1.1">
<g id="Sketch002" transform="translate(22.950000,22.950000) scale(1,-1)">
<path id="Sketch002_w0000"  d="M -22.50000000000091 12.49999999999728 L -22.50000000000091 -12.500000000014543 L -18.500000000016357 -12.500000000014543 L -18.500000000016357 -18.50000000001454 L -12.500000000016355 -18.50000000001454 L -12.500000000016355 -22.499999999999098 L 12.500000000018167 -22.499999999999098 L 12.500000000018167 -18.500000000016357 L 18.500000000016353 -18.500000000016357 L 18.500000000016353 -12.500000000018172 L 22.499999999999094 -12.500000000018172 L 22.499999999999094 12.500000000014541 L 18.500000000016353 12.50000000001454 L 18.500000000016353 18.500000000014538 L 12.500000000016351 18.500000000014538 L 12.500000000016351 22.49999999999728 L -12.500000000000911 22.49999999999728 L -12.500000000000911 18.49999999999728 L -18.50000000000091 18.49999999999728 L -18.50000000000091 12.49999999999728 L -22.50000000000091 12.49999999999728 " stroke="#191919" stroke-width="0.35 px" style="stroke-width:0.35;stroke-miterlimit:4;stroke-dasharray:none;fill:none;fill-opacity:1;fill-rule: evenodd"/>
<circle cx="1e-17" cy="2e-17" r="16.35" stroke="#191919" stroke-width="0.35 px" style="stroke-width:0.35;stroke-miterlimit:4;stroke-dasharray:none;fill:none"/>
<circle cx="0.0" cy="18.49999999999728" r="1.0" stroke="#191919" stroke-width="0.35 px" style="stroke-width:0.35;stroke-miterlimit:4;stroke-dasharray:none;fill:none"/>
<circle cx="18.50000000000091" cy="0.0" r="1.0" stroke="#191919" stroke-width="0.35 px" style="stroke-width:0.35;stroke-miterlimit:4;stroke-dasharray:none;fill:none"/>
<circle cx="-18.50000000000091" cy="0.0" r="1.0" stroke="#191919" stroke-width="0.35 px" style="stroke-width:0.35;stroke-miterlimit:4;stroke-dasharray:none;fill:none"/>
<circle cx="0.0" cy="-18.49999999999728" r="1.0" stroke="#191919" stroke-width="0.35 px" style="stroke-width:0.35;stroke-miterlimit:4;stroke-dasharray:none;fill:none"/>
<title>b'cover001'</title>
</g>
</svg>