<?xml version="1.0"?>
<!DOCTYPE svg PUBLIC "-//W3C//DTD SVG 1.1//EN" "http://www.w3.org/Graphics/SVG/1.1/DTD/svg11.dtd">
<svg width="67.31999999999961mm" height="33.32000000000092mm" viewBox="0 0 67.31999999999961 33.32000000000092" xmlns="http://www.w3.org/2000/svg" version="1.1">
<g id="Sketch007" transform="translate(33.660000,0.660000) scale(1,-1)">
<path id="Sketch007_w0000"  d="M -28.99999999999984 -32.00000000000071 L -18.999999999999893 -32.00000000000071 L -18.999999999999893 -28.000000000000725 L 18.999999999999893 -28.000000000000725 L 18.999999999999893 -32.0000000000007 L 28.999999999999844 -32.0000000000007 L 28.999999999999844 -24.750000000000448 L 32.99999999999981 -24.750000000000448 L 32.99999999999981 -17.500000000000153 L 28.999999999999844 -17.500000000000153 L 28.999999999999844 -10.249999999999835 L 32.99999999999981 -10.249999999999835 L 32.99999999999981 2.1316281908280965e-13 L 22.999999999999865 2.1316281843754596e-13 L 22.99999999999987 -3.0000000000003073 L 1.9999999999999885 -3.0000000000003073 L -1.999999999999989 -3.0000000000002984 L -22.99999999999987 -3.0000000000002918 L -22.99999999999987 -2.8554936079454156e-13 L -32.99999999999981 -2.855493586472435e-13 L -32.99999999999981 -10.250000000000314 L -28.999999999999837 -10.250000000000314 L -28.99999999999984 -17.50000000000051 L -32.99999999999981 -17.50000000000051 L -32.99999999999981 -24.750000000000647 L -28.999999999999837 -24.750000000000647 L -28.99999999999984 -32.00000000000071 " stroke="#191919" stroke-width="0.35 px" style="stroke-width:0.35;stroke-miterlimit:4;stroke-dasharray:none;fill:none;fill-opacity:1;fill-rule: evenodd"/>
<title>b'frontwallNoHole001'</title>
</g>
</svg>