<?xml version="1.0"?>
<!DOCTYPE svg PUBLIC "-//W3C//DTD SVG 1.1//EN" "http://www.w3.org/Graphics/SVG/1.1/DTD/svg11.dtd">
<svg width="67.31999999999974mm" height="25.819999999999993mm" viewBox="0 0 67.31999999999974 25.819999999999993" xmlns="http://www.w3.org/2000/svg" version="1.1">
<g id="Sketch006" transform="translate(33.660000,0.660000) scale(1,-1)">
<path id="Sketch006_w0000"  d="M -32.99999999999987 0.0 L -28.999999999999886 0.0 L -28.99999999999989 -3.0 L 28.99999999999989 -3.0 L 28.99999999999989 0.0 L 32.99999999999987 0.0 L 32.99999999999987 -10.25 L 28.999999999999893 -10.25 L 28.999999999999893 -24.5 L 20.999999999999922 -24.5 L 20.999999999999925 -10.25 L -20.999999999999925 -10.25 L -20.999999999999925 -24.5 L -28.999999999999893 -24.5 L -28.99999999999989 -10.25 L -32.99999999999987 -10.25 L -32.99999999999987 0.0 " stroke="#191919" stroke-width="0.35 px" style="stroke-width:0.35;stroke-miterlimit:4;stroke-dasharray:none;fill:none;fill-opacity:1;fill-rule: evenodd"/>
<path id="Sketch006_w0001"  d="M -27.799999999999894 -9.7 L -22.199999999999918 -9.7 L -22.199999999999918 -8.0 L -27.799999999999894 -8.0 L -27.799999999999894 -9.7 " stroke="#191919" stroke-width="0.35 px" style="stroke-width:0.35;stroke-miterlimit:4;stroke-dasharray:none;fill:none;fill-opacity:1;fill-rule: evenodd"/>
<path id="Sketch006_w0002"  d="M 22.199999999999918 -9.7 L 27.799999999999894 -9.7 L 27.799999999999894 -8.0 L 22.199999999999918 -8.0 L 22.199999999999918 -9.7 " stroke="#191919" stroke-width="0.35 px" style="stroke-width:0.35;stroke-miterlimit:4;stroke-dasharray:none;fill:none;fill-opacity:1;fill-rule: evenodd"/>
<path id="Sketch006_w0003"  d="M 22.699999999999918 -22.5 L 28.299999999999894 -22.5 L 28.299999999999894 -20.8 L 22.699999999999918 -20.8 L 22.699999999999918 -22.5 " stroke="#191919" stroke-width="0.35 px" style="stroke-width:0.35;stroke-miterlimit:4;stroke-dasharray:none;fill:none;fill-opacity:1;fill-rule: evenodd"/>
<path id="Sketch006_w0004"  d="M -28.299999999999894 -22.5 L -22.699999999999918 -22.5 L -22.699999999999918 -20.8 L -28.299999999999894 -20.8 L -28.299999999999894 -22.5 " stroke="#191919" stroke-width="0.35 px" style="stroke-width:0.35;stroke-miterlimit:4;stroke-dasharray:none;fill:none;fill-opacity:1;fill-rule: evenodd"/>
<title>b'support001'</title>
</g>
</svg>