<?xml version="1.0"?>
<!DOCTYPE svg PUBLIC "-//W3C//DTD SVG 1.1//EN" "http://www.w3.org/Graphics/SVG/1.1/DTD/svg11.dtd">
<svg width="55.08mm" height="55.08mm" viewBox="0 0 55.08 55.08" xmlns="http://www.w3.org/2000/svg" version="1.1">
<g id="Sketch004" transform="translate(27.540000,27.540000) scale(1,-1)">
<path id="Sketch004_w0000"  d="M -27.000000000000004 16.999999999999996 L -27.000000000000004 -17.000000000000004 L -23.000000000000004 -17.000000000000004 L -23.000000000000004 -23.000000000000004 L -17.000000000000007 -23.000000000000004 L -17.000000000000007 -27.000000000000004 L 17.0 -27.000000000000004 L 17.0 -23.000000000000007 L 23.0 -23.000000000000007 L 23.0 -17.000000000000007 L 26.999999999999996 -17.000000000000007 L 26.999999999999996 17.000000000000007 L 23.0 17.000000000000007 L 23.0 23.0 L 17.000000000000004 23.0 L 17.000000000000004 26.999999999999996 L -17.000000000000004 26.999999999999996 L -17.000000000000004 22.999999999999996 L -23.000000000000004 22.999999999999996 L -23.000000000000004 16.999999999999996 L -27.000000000000004 16.999999999999996 " stroke="#191919" stroke-width="0.35 px" style="stroke-width:0.35;stroke-miterlimit:4;stroke-dasharray:none;fill:none;fill-opacity:1;fill-rule: evenodd"/>
<circle cx="-4.235164736271502e-22" cy="-4.2357864417045495e-22" r="20.25" stroke="#191919" stroke-width="0.35 px" style="stroke-width:0.35;stroke-miterlimit:4;stroke-dasharray:none;fill:none"/>
<circle cx="0.0" cy="22.999999999999996" r="1.0" stroke="#191919" stroke-width="0.35 px" style="stroke-width:0.35;stroke-miterlimit:4;stroke-dasharray:none;fill:none"/>
<circle cx="23.000000000000004" cy="0.0" r="1.0" stroke="#191919" stroke-width="0.35 px" style="stroke-width:0.35;stroke-miterlimit:4;stroke-dasharray:none;fill:none"/>
<circle cx="-23.000000000000004" cy="-1.8709930718673945e-32" r="1.0" stroke="#191919" stroke-width="0.35 px" style="stroke-width:0.35;stroke-miterlimit:4;stroke-dasharray:none;fill:none"/>
<circle cx="-2.728338874932773e-23" cy="-22.999999999999996" r="1.0" stroke="#191919" stroke-width="0.35 px" style="stroke-width:0.35;stroke-miterlimit:4;stroke-dasharray:none;fill:none"/>
<title>b'cover001'</title>
</g>
</svg>