<?xml version="1.0"?>
<!DOCTYPE svg PUBLIC "-//W3C//DTD SVG 1.1//EN" "http://www.w3.org/Graphics/SVG/1.1/DTD/svg11.dtd">
<svg width="32.640000000000015mm" height="53.64000000000001mm" viewBox="0 0 32.640000000000015 53.64000000000001" xmlns="http://www.w3.org/2000/svg" version="1.1">
<g id="Sketch005" transform="translate(32.320000,49.320000) scale(1,-1)">
<path id="Sketch005_w0000"  d="M -32.000000000000014 48.99999999999999 L -24.750000000000014 48.99999999999999 L -24.75000000000001 44.99999999999999 L -17.50000000000001 44.99999999999999 L -17.50000000000001 48.99999999999999 L -10.25000000000001 49.0 L -10.25000000000001 45.0 L -1.0158541694070655e-14 45.0 L -7.438496302825536e-15 35.0 L -3.000000000000007 35.0 L -3.0000000000000053 26.5 L -10.250000000000005 26.5 L -10.250000000000004 18.499999999999996 L -3.0000000000000036 18.5 L -3.000000000000002 10.0 L -2.220446049250313e-15 10.0 L 0.0 0.0 L -10.25 -2.2759572004815713e-15 L -10.25 -4.000000000000003 L -17.5 -4.0000000000000036 L -17.5 -3.719247132494275e-15 L -24.75 -5.4956039718945265e-15 L -24.75 -4.000000000000005 L -32.0 -4.000000000000007 L -32.0 9.999999999999993 L -28.000000000000004 9.999999999999993 L -28.000000000000007 34.99999999999999 L -32.00000000000001 34.99999999999999 L -32.000000000000014 48.99999999999999 " stroke="#191919" stroke-width="0.35 px" style="stroke-width:0.35;stroke-miterlimit:4;stroke-dasharray:none;fill:none;fill-opacity:1;fill-rule: evenodd"/>
<title>b'Sketch005'</title>
</g>
</svg>