<?xml version="1.0"?>
<!DOCTYPE svg PUBLIC "-//W3C//DTD SVG 1.1//EN" "http://www.w3.org/Graphics/SVG/1.1/DTD/svg11.dtd">
<svg width="67.32mm" height="54.31999999999999mm" viewBox="0 0 67.32 54.31999999999999" xmlns="http://www.w3.org/2000/svg" version="1.1">
<g id="Sketch012" transform="translate(33.660000,4.660000) scale(1,-1)">
<path id="Sketch012_w0000"  d="M -19.0 4.0 L 19.0 4.0 L 19.0 0.0 L 29.0 0.0 L 29.0 -10.0 L 33.0 -10.0 L 33.0 -35.0 L 29.0 -35.0 L 29.0 -45.0 L 19.0 -45.0 L 19.0 -49.0 L -19.0 -49.0 L -19.0 -45.0 L -29.0 -45.0 L -29.0 -35.0 L -33.0 -35.0 L -33.0 -10.0 L -29.0 -10.0 L -29.0 0.0 L -19.0 0.0 L -19.0 4.0 " stroke="#191919" stroke-width="0.35 px" style="stroke-width:0.35;stroke-miterlimit:4;stroke-dasharray:none;fill:none;fill-opacity:1;fill-rule: evenodd"/>
<path id="Sketch012_w0001"  d="M 27.100665218297834 -25.499999999999996 A 3.31892 3.31892 0 0 1 27.1007 -19.5L 21.817424229271428 -16.999999999999996 A 22.5 22.5 0 0 1 -21.8174 -17L -27.100665218297834 -19.499999999999996 A 3.31892 3.31892 0 0 1 -27.1007 -25.5L -21.817424229271428 -28.0 A 22.5 22.5 0 0 1 21.8174 -28L 27.100665218297834 -25.499999999999996 " stroke="#191919" stroke-width="0.35 px" style="stroke-width:0.35;stroke-miterlimit:4;stroke-dasharray:none;fill:none;fill-opacity:1;fill-rule: evenodd"/>
<title>b'cover001'</title>
</g>
</svg>