<?xml version="1.0"?>
<!DOCTYPE svg PUBLIC "-//W3C//DTD SVG 1.1//EN" "http://www.w3.org/Graphics/SVG/1.1/DTD/svg11.dtd">
<svg width="37.73999999999996mm" height="54.74000000000001mm" viewBox="0 0 37.73999999999996 54.74000000000001" xmlns="http://www.w3.org/2000/svg" version="1.1">
<g id="Sketch003" transform="translate(37.370000,27.370000) scale(1,-1)">
<path id="Sketch003_w0000"  d="M -36.9999999999999 -23.00000000000001 L -36.9999999999999 -17.00000000000001 L -32.9999999999999 -17.00000000000001 L -32.9999999999999 16.999999999999986 L -36.999999999999886 16.999999999999986 L -36.999999999999886 26.999999999999986 L -28.499999999999925 26.999999999999986 L -28.499999999999925 23.000000000000004 L -19.99999999999998 23.000000000000004 L -19.99999999999998 26.999999999999993 L -11.500000000000046 26.999999999999993 L -11.500000000000046 23.00000000000001 L -6.021763898069951e-14 23.00000000000001 L -6.003914542179051e-14 17.00000000000001 L -2.9999999999999396 17.00000000000001 L -2.9999999999999396 2.5 L -7.9999999999999405 2.5 L -7.9999999999999405 -2.5 L -2.9999999999999396 -2.5000000000000004 L -2.9999999999999396 -17.00000000000001 L 6.033651200803365e-14 -17.00000000000001 L 6.027689147645879e-14 -27.00000000000001 L -11.49999999999994 -27.00000000000001 L -11.49999999999994 -23.000000000000004 L -19.999999999999915 -23.000000000000004 L -19.999999999999915 -27.000000000000014 L -28.4999999999999 -27.000000000000014 L -28.4999999999999 -23.00000000000001 L -36.9999999999999 -23.00000000000001 " stroke="#191919" stroke-width="0.35 px" style="stroke-width:0.35;stroke-miterlimit:4;stroke-dasharray:none;fill:none;fill-opacity:1;fill-rule: evenodd"/>
<title>b'walls001'</title>
</g>
</svg>