<?xml version="1.0"?>
<!DOCTYPE svg PUBLIC "-//W3C//DTD SVG 1.1//EN" "http://www.w3.org/Graphics/SVG/1.1/DTD/svg11.dtd">
<svg width="259.08000000000015mm" height="42.08mm" viewBox="0 0 259.08000000000015 42.08" xmlns="http://www.w3.org/2000/svg" version="1.1">
<g id="Sketch002" transform="translate(-1.460000,2.540000) scale(1,-1)">
<path id="Sketch002_w0000"  d="M 70.5 -33.0 L 74.0 -33.0 L 74.0 -30.0 L 77.0 -30.0 L 77.0 -33.0 L 80.5 -33.0 L 80.5 -22.0 L 185.5 -22.0 L 185.5 -33.0 L 189.0 -33.0 L 189.0 -30.0 L 192.0 -30.0 L 192.0 -33.0 L 195.5 -33.0 L 195.5 -18.5 L 203.5 -18.5 L 203.5 -37.0 L 250.0 -37.0 L 250.0 -35.0 A 2 2 0 1 0 254 -35A 2 2 0 1 0 258 -35L 258.0 -8.0 L 253.0 -8.0 L 253.0 -3.0 L 223.5 -3.0 L 223.5 0.0 L 185.5 0.0 L 185.5 -3.0 L 138.0 -3.0 L 138.0 -8.0 L 128.0 -8.0 L 128.0 -3.0 L 80.5 -3.0 L 80.5 0.0 L 42.5 0.0 L 42.5 -3.0 L 12.999999999999801 -3.0 L 12.999999999999805 -5.5 A 2.5 2.5 0 1 0 8 -5.5L 7.999999999999957 -14.499999999999915 L 3.9999999999998863 -14.499999999999915 L 3.9999999999998863 -24.499999999999915 L 7.9999999999999005 -24.499999999999915 L 7.9999999999999005 -34.999999999999915 A 2 2 0 0 0 12 -35A 2 2 0 1 0 16 -35L 15.9999999999999 -37.0 L 49.5 -37.0 L 49.5 -20.000000000000014 A 3 3 0 0 0 52.5 -17L 56.5 -17.000000000000014 A 3 3 0 0 0 59.5 -20L 59.5 -37.0 L 62.5 -37.0 L 62.5 -18.5 L 70.5 -18.5 L 70.5 -33.0 " stroke="#191919" stroke-width="0.35 px" style="stroke-width:0.35;stroke-miterlimit:4;stroke-dasharray:none;fill:none;fill-opacity:1;fill-rule: evenodd"/>
<circle cx="243.0" cy="-19.499999999999915" r="11.05" stroke="#191919" stroke-width="0.35 px" style="stroke-width:0.35;stroke-miterlimit:4;stroke-dasharray:none;fill:none"/>
<circle cx="22.9999999999999" cy="-19.499999999999915" r="11.05" stroke="#191919" stroke-width="0.35 px" style="stroke-width:0.35;stroke-miterlimit:4;stroke-dasharray:none;fill:none"/>
<circle cx="223.0" cy="-19.499999999999915" r="8.25" stroke="#191919" stroke-width="0.35 px" style="stroke-width:0.35;stroke-miterlimit:4;stroke-dasharray:none;fill:none"/>
<path id="Sketch002_w0004"  d="M 11.699999999999903 -26.199999999999914 L 11.699999999999903 -31.799999999999915 L 9.9999999999999 -31.799999999999915 L 9.9999999999999 -26.199999999999914 L 11.699999999999903 -26.199999999999914 " stroke="#191919" stroke-width="0.35 px" style="stroke-width:0.35;stroke-miterlimit:4;stroke-dasharray:none;fill:none;fill-opacity:1;fill-rule: evenodd"/>
<path id="Sketch002_w0005"  d="M 164.3 -7.999999999999999 L 164.3 -9.7 L 158.7 -9.7 L 158.7 -7.999999999999999 L 164.3 -7.999999999999999 " stroke="#191919" stroke-width="0.35 px" style="stroke-width:0.35;stroke-miterlimit:4;stroke-dasharray:none;fill:none;fill-opacity:1;fill-rule: evenodd"/>
<path id="Sketch002_w0006"  d="M 107.30000000000001 -8.0 L 107.3 -9.7 L 101.69999999999999 -9.7 L 101.7 -8.0 L 107.30000000000001 -8.0 " stroke="#191919" stroke-width="0.35 px" style="stroke-width:0.35;stroke-miterlimit:4;stroke-dasharray:none;fill:none;fill-opacity:1;fill-rule: evenodd"/>
<path id="Sketch002_w0007"  d="M 256.0 -26.2 L 256.0 -31.8 L 254.3 -31.8 L 254.3 -26.2 L 256.0 -26.2 " stroke="#191919" stroke-width="0.35 px" style="stroke-width:0.35;stroke-miterlimit:4;stroke-dasharray:none;fill:none;fill-opacity:1;fill-rule: evenodd"/>
<path id="Sketch002_w0008"  d="M 234.3 -8.0 L 234.3 -9.7 L 228.7 -9.7 L 228.7 -8.0 L 234.3 -8.0 " stroke="#191919" stroke-width="0.35 px" style="stroke-width:0.35;stroke-miterlimit:4;stroke-dasharray:none;fill:none;fill-opacity:1;fill-rule: evenodd"/>
<path id="Sketch002_w0009"  d="M 37.3 -8.0 L 37.3 -9.7 L 31.700000000000003 -9.7 L 31.700000000000003 -8.0 L 37.3 -8.0 " stroke="#191919" stroke-width="0.35 px" style="stroke-width:0.35;stroke-miterlimit:4;stroke-dasharray:none;fill:none;fill-opacity:1;fill-rule: evenodd"/>
<circle cx="223.0" cy="-31.999999999999915" r="1.75" stroke="#191919" stroke-width="0.35 px" style="stroke-width:0.35;stroke-miterlimit:4;stroke-dasharray:none;fill:none"/>
<circle cx="223.0" cy="-6.999999999999916" r="1.75" stroke="#191919" stroke-width="0.35 px" style="stroke-width:0.35;stroke-miterlimit:4;stroke-dasharray:none;fill:none"/>
<circle cx="191.5" cy="-6.999999999999999" r="1.5" stroke="#191919" stroke-width="0.35 px" style="stroke-width:0.35;stroke-miterlimit:4;stroke-dasharray:none;fill:none"/>
<circle cx="184.5" cy="-6.999999999999991" r="1.5" stroke="#191919" stroke-width="0.35 px" style="stroke-width:0.35;stroke-miterlimit:4;stroke-dasharray:none;fill:none"/>
<circle cx="84.69999999999999" cy="-18.0" r="1.5" stroke="#191919" stroke-width="0.35 px" style="stroke-width:0.35;stroke-miterlimit:4;stroke-dasharray:none;fill:none"/>
<circle cx="84.7" cy="-11.0" r="1.5" stroke="#191919" stroke-width="0.35 px" style="stroke-width:0.35;stroke-miterlimit:4;stroke-dasharray:none;fill:none"/>
<title>b'Sketch002'</title>
</g>
</svg>