<?xml version="1.0"?>
<!DOCTYPE svg PUBLIC "-//W3C//DTD SVG 1.1//EN" "http://www.w3.org/Graphics/SVG/1.1/DTD/svg11.dtd">
<svg width="37.739999999999995mm" height="66.74mm" viewBox="0 0 37.739999999999995 66.74" xmlns="http://www.w3.org/2000/svg" version="1.1">
<g id="Sketch009" transform="translate(37.370000,33.370000) scale(1,-1)">
<path id="Sketch009_w0000"  d="M -37.0 -29.0 L -37.0 -19.0 L -33.0 -19.0 L -33.0 19.0 L -37.0 19.0 L -37.0 29.0 L -28.5 29.0 L -28.5 33.0 L -20.0 33.0 L -20.0 29.0 L -11.5 29.0 L -11.5 33.0 L 0.0 33.0 L 0.0 23.0 L -3.000000000000001 23.0 L -3.000000000000001 2.5000000000000004 L -8.0 2.5000000000000004 L -8.0 -2.4999999999999996 L -3.0000000000000004 -2.4999999999999996 L -3.0000000000000004 -23.0 L -4.382644841968214e-16 -23.0 L -4.324397694907986e-16 -33.0 L -11.5 -33.0 L -11.5 -29.0 L -20.0 -29.0 L -20.0 -33.0 L -28.5 -33.0 L -28.5 -29.0 L -37.0 -29.0 " stroke="#191919" stroke-width="0.35 px" style="stroke-width:0.35;stroke-miterlimit:4;stroke-dasharray:none;fill:none;fill-opacity:1;fill-rule: evenodd"/>
<title>b'frontwall001'</title>
</g>
</svg>