<?xml version="1.0"?>
<!DOCTYPE svg PUBLIC "-//W3C//DTD SVG 1.1//EN" "http://www.w3.org/Graphics/SVG/1.1/DTD/svg11.dtd">
<svg width="37.74000000000001mm" height="53.74000000000001mm" viewBox="0 0 37.74000000000001 53.74000000000001" xmlns="http://www.w3.org/2000/svg" version="1.1">
<g id="Sketch006" transform="translate(0.370000,49.370000) scale(1,-1)">
<path id="Sketch006_w0000"  d="M 37.000000000000014 48.99999999999999 L 28.500000000000014 48.99999999999999 L 28.50000000000001 44.99999999999999 L 20.00000000000001 44.99999999999999 L 20.00000000000001 48.99999999999999 L 11.50000000000001 49.0 L 11.50000000000001 45.0 L 1.0325074129013956e-14 45.0 L 7.771561172376096e-15 35.0 L 3.000000000000008 35.0 L 3.000000000000006 26.5 L 11.500000000000007 26.499999999999996 L 11.500000000000004 18.499999999999996 L 3.0000000000000036 18.5 L 3.000000000000002 10.0 L 2.220446049250313e-15 10.0 L 0.0 0.0 L 11.5 -2.5535129566378604e-15 L 11.5 -4.000000000000002 L 20.0 -4.0000000000000036 L 20.0 -4.218847493575596e-15 L 28.5 -5.884182030513331e-15 L 28.5 -4.000000000000006 L 37.0 -4.000000000000009 L 37.0 9.999999999999991 L 33.0 9.999999999999993 L 33.00000000000001 34.99999999999999 L 37.00000000000001 34.99999999999999 L 37.000000000000014 48.99999999999999 " stroke="#191919" stroke-width="0.35 px" style="stroke-width:0.35;stroke-miterlimit:4;stroke-dasharray:none;fill:none;fill-opacity:1;fill-rule: evenodd"/>
<title>b'sidewall001'</title>
</g>
</svg>