<?xml version="1.0"?>
<!DOCTYPE svg PUBLIC "-//W3C//DTD SVG 1.1//EN" "http://www.w3.org/Graphics/SVG/1.1/DTD/svg11.dtd">
<svg width="37.74mm" height="40.74mm" viewBox="0 0 37.74 40.74" xmlns="http://www.w3.org/2000/svg" version="1.1">
<g id="Sketch005" transform="translate(0.370000,40.370000) scale(1,-1)">
<path id="Sketch005_w0000"  d="M 3.0000000000000036 22.5 L 3.0000000000000058 26.0 L 5.773159728050814e-15 26.0 L 6.217248937900877e-15 28.0 L 11.500000000000007 27.999999999999996 L 11.50000000000001 40.0 L 20.000000000000007 40.0 L 20.000000000000007 35.99999999999999 L 28.500000000000007 35.99999999999999 L 28.500000000000007 39.99999999999999 L 37.00000000000001 39.99999999999999 L 37.0 -7.660538869913582e-15 L 28.5 -6.328271240363394e-15 L 28.5 3.999999999999994 L 20.0 3.9999999999999956 L 20.0 -4.440892098500626e-15 L 11.5 -2.5535129566378604e-15 L 11.500000000000004 11.999999999999998 L 3.1086244689504383e-15 12.0 L 3.1086244689504383e-15 14.0 L 3.000000000000003 14.0 L 3.0000000000000044 17.5 L 8.000000000000004 17.5 L 8.000000000000004 22.5 L 3.0000000000000036 22.5 " stroke="#191919" stroke-width="0.35 px" style="stroke-width:0.35;stroke-miterlimit:4;stroke-dasharray:none;fill:none;fill-opacity:1;fill-rule: evenodd"/>
<title>b'sidewall001'</title>
</g>
</svg>