<?xml version="1.0"?>
<!DOCTYPE svg PUBLIC "-//W3C//DTD SVG 1.1//EN" "http://www.w3.org/Graphics/SVG/1.1/DTD/svg11.dtd">
<svg width="32.64mm" height="66.64mm" viewBox="0 0 32.64 66.64" xmlns="http://www.w3.org/2000/svg" version="1.1">
<g id="Sketch007" transform="translate(32.320000,33.320000) scale(1,-1)">
<path id="Sketch007_w0000"  d="M -32.0 -29.0 L -32.0 -19.0 L -28.0 -19.0 L -28.0 19.0 L -32.0 19.0 L -32.0 29.0 L -24.75 29.0 L -24.75 33.0 L -17.5 33.0 L -17.5 29.0 L -10.25 29.0 L -10.25 33.0 L 1.0000000493120656e-16 33.0 L 2e-16 23.0 L -3.0 23.0 L -3.0000000000000004 2.0000000000000018 L -4.0 2.0000000000000018 L -4.0 -2.0 L -3.0000000000000004 -2.0 L -3.0000000000000004 -23.0 L -2.220446049250313e-16 -23.0 L 0.0 -33.0 L -10.25 -33.0 L -10.25 -29.0 L -17.5 -29.0 L -17.5 -33.0 L -24.75 -33.0 L -24.75 -29.0 L -32.0 -29.0 " stroke="#191919" stroke-width="0.35 px" style="stroke-width:0.35;stroke-miterlimit:4;stroke-dasharray:none;fill:none;fill-opacity:1;fill-rule: evenodd"/>
<circle cx="-8.0" cy="-21.5" r="1.0" stroke="#191919" stroke-width="0.35 px" style="stroke-width:0.35;stroke-miterlimit:4;stroke-dasharray:none;fill:none"/>
<circle cx="-19.0" cy="-21.5" r="1.0" stroke="#191919" stroke-width="0.35 px" style="stroke-width:0.35;stroke-miterlimit:4;stroke-dasharray:none;fill:none"/>
<title>b'frontwall002'</title>
</g>
</svg>