<?xml version="1.0"?>
<!DOCTYPE svg PUBLIC "-//W3C//DTD SVG 1.1//EN" "http://www.w3.org/Graphics/SVG/1.1/DTD/svg11.dtd">
<svg width="259.08000000000004mm" height="42.08mm" viewBox="0 0 259.08000000000004 42.08" xmlns="http://www.w3.org/2000/svg" version="1.1">
<g id="Sketch002" transform="translate(-5.960000,2.540000) scale(1,-1)">
<path id="Sketch002_w0000"  d="M 70.5 -33.0 L 74.0 -33.0 L 74.0 -29.999999999999996 L 77.0 -29.999999999999996 L 77.0 -33.0 L 80.5 -33.0 L 80.5 -21.999999999999996 L 185.5 -21.999999999999996 L 185.5 -33.0 L 189.0 -33.0 L 189.0 -29.999999999999996 L 192.0 -29.999999999999996 L 192.0 -33.0 L 195.5 -33.0 L 195.5 -18.499999999999996 L 203.5 -18.499999999999996 L 203.5 -37.0 L 250.49999999999997 -37.0 L 250.49999999999997 -35.0 A 2 2 0 0 0 254.5 -35A 2 2 0 0 0 258.5 -35L 258.5 -24.499999999999996 L 262.5 -24.499999999999996 L 262.5 -14.499999999999998 L 258.5 -14.499999999999998 L 258.5 -5.4999996142997265 A 2.5 2.5 0 0 0 253.5 -5.5L 253.5 -3.0 L 223.5 -3.0 L 223.5 0.0 L 185.50000000000003 0.0 L 185.50000000000003 -3.0 L 138.0 -3.0 L 138.0 -8.0 L 128.0 -8.0 L 128.0 -3.0 L 80.49999999999997 -3.0 L 80.49999999999997 0.0 L 42.5 0.0 L 42.5 -3.0 L 12.499999999999986 -3.0 L 12.499999999999986 -11.000000000000002 L 8.499999999999986 -11.000000000000002 L 8.499999999999986 -35.00000000000008 A 2 2 0 1 0 12.5 -35A 2 2 0 0 0 16.5 -35L 16.499999999999986 -37.0 L 49.5 -37.0 L 49.5 -19.999999999999993 A 3 3 0 0 0 52.5 -17L 56.5 -16.999999999999993 A 3 3 0 0 0 59.5 -20L 59.5 -37.0 L 62.5 -37.0 L 62.5 -18.499999999999996 L 70.5 -18.499999999999996 L 70.5 -33.0 " stroke="#191919" stroke-width="0.35 px" style="stroke-width:0.35;stroke-miterlimit:4;stroke-dasharray:none;fill:none;fill-opacity:1;fill-rule: evenodd"/>
<circle cx="243.49999999999997" cy="-19.500000000000075" r="11.05" stroke="#191919" stroke-width="0.35 px" style="stroke-width:0.35;stroke-miterlimit:4;stroke-dasharray:none;fill:none"/>
<circle cx="23.499999999999986" cy="-19.500000000000075" r="11.05" stroke="#191919" stroke-width="0.35 px" style="stroke-width:0.35;stroke-miterlimit:4;stroke-dasharray:none;fill:none"/>
<circle cx="223.49999999999997" cy="-19.500000000000075" r="8.25" stroke="#191919" stroke-width="0.35 px" style="stroke-width:0.35;stroke-miterlimit:4;stroke-dasharray:none;fill:none"/>
<path id="Sketch002_w0004"  d="M 12.199999999999989 -26.200000000000074 L 12.199999999999989 -31.800000000000075 L 10.499999999999986 -31.800000000000075 L 10.499999999999986 -26.200000000000074 L 12.199999999999989 -26.200000000000074 " stroke="#191919" stroke-width="0.35 px" style="stroke-width:0.35;stroke-miterlimit:4;stroke-dasharray:none;fill:none;fill-opacity:1;fill-rule: evenodd"/>
<path id="Sketch002_w0005"  d="M 107.29999999999998 -7.999999999999999 L 107.29999999999998 -9.7 L 101.69999999999999 -9.7 L 101.69999999999997 -7.999999999999999 L 107.29999999999998 -7.999999999999999 " stroke="#191919" stroke-width="0.35 px" style="stroke-width:0.35;stroke-miterlimit:4;stroke-dasharray:none;fill:none;fill-opacity:1;fill-rule: evenodd"/>
<path id="Sketch002_w0006"  d="M 164.3 -8.000000000000002 L 164.3 -9.700000000000003 L 158.70000000000002 -9.700000000000003 L 158.70000000000002 -8.000000000000002 L 164.3 -8.000000000000002 " stroke="#191919" stroke-width="0.35 px" style="stroke-width:0.35;stroke-miterlimit:4;stroke-dasharray:none;fill:none;fill-opacity:1;fill-rule: evenodd"/>
<path id="Sketch002_w0007"  d="M 234.3 -8.0 L 234.3 -9.7 L 228.7 -9.7 L 228.7 -8.0 L 234.3 -8.0 " stroke="#191919" stroke-width="0.35 px" style="stroke-width:0.35;stroke-miterlimit:4;stroke-dasharray:none;fill:none;fill-opacity:1;fill-rule: evenodd"/>
<path id="Sketch002_w0008"  d="M 37.3 -8.0 L 37.3 -9.7 L 31.700000000000003 -9.7 L 31.700000000000003 -8.0 L 37.3 -8.0 " stroke="#191919" stroke-width="0.35 px" style="stroke-width:0.35;stroke-miterlimit:4;stroke-dasharray:none;fill:none;fill-opacity:1;fill-rule: evenodd"/>
<path id="Sketch002_w0009"  d="M 256.5 -26.2 L 256.5 -31.799999999999997 L 254.8 -31.799999999999997 L 254.79999999999998 -26.2 L 256.5 -26.2 " stroke="#191919" stroke-width="0.35 px" style="stroke-width:0.35;stroke-miterlimit:4;stroke-dasharray:none;fill:none;fill-opacity:1;fill-rule: evenodd"/>
<circle cx="223.5" cy="-7.000000000000076" r="1.75" stroke="#191919" stroke-width="0.35 px" style="stroke-width:0.35;stroke-miterlimit:4;stroke-dasharray:none;fill:none"/>
<circle cx="223.49999999999997" cy="-32.00000000000008" r="1.75" stroke="#191919" stroke-width="0.35 px" style="stroke-width:0.35;stroke-miterlimit:4;stroke-dasharray:none;fill:none"/>
<circle cx="184.5" cy="-6.999999999999999" r="1.5" stroke="#191919" stroke-width="0.35 px" style="stroke-width:0.35;stroke-miterlimit:4;stroke-dasharray:none;fill:none"/>
<circle cx="84.69999999999999" cy="-17.999999999999996" r="1.5" stroke="#191919" stroke-width="0.35 px" style="stroke-width:0.35;stroke-miterlimit:4;stroke-dasharray:none;fill:none"/>
<circle cx="84.69999999999999" cy="-10.999999999999998" r="1.5" stroke="#191919" stroke-width="0.35 px" style="stroke-width:0.35;stroke-miterlimit:4;stroke-dasharray:none;fill:none"/>
<circle cx="191.5" cy="-6.999999999999997" r="1.5" stroke="#191919" stroke-width="0.35 px" style="stroke-width:0.35;stroke-miterlimit:4;stroke-dasharray:none;fill:none"/>
<title>b'Sketch002'</title>
</g>
</svg>