<?xml version="1.0"?>
<!DOCTYPE svg PUBLIC "-//W3C//DTD SVG 1.1//EN" "http://www.w3.org/Graphics/SVG/1.1/DTD/svg11.dtd">
<svg width="40.800000000000075mm" height="392.79999999999995mm" viewBox="0 0 40.800000000000075 392.79999999999995" xmlns="http://www.w3.org/2000/svg" version="1.1">
<g id="Sketch009" transform="translate(3.400000,4.400000) scale(1,-1)">
<path id="Sketch009_w0000"  d="M -7.394085639335456e-14 -348.0 L -3.0000000000000737 -348.0 L -3.000000000000078 -368.0 L -7.815970093361102e-14 -368.0 L -8.260059303211165e-14 -388.0 L 6.799999999999917 -388.0 L 6.799999999999918 -384.0 L 13.599999999999916 -384.0 L 13.599999999999916 -388.0 L 20.399999999999917 -388.0 L 20.399999999999917 -384.0 L 27.199999999999914 -384.0 L 27.199999999999914 -388.0 L 33.999999999999915 -388.0 L 33.999999999999915 -368.0 L 36.999999999999915 -368.0 L 36.99999999999992 -348.0 L 33.99999999999992 -348.0 L 33.99999999999999 -36.0 L 36.99999999999999 -36.00000000000001 L 37.0 -16.000000000000007 L 34.0 -16.000000000000007 L 34.0 3.999999999999993 L 27.199999999999996 3.999999999999994 L 27.199999999999996 -6.35047569556194e-15 L 20.4 -4.9737991503207026e-15 L 20.4 3.999999999999995 L 13.599999999999998 3.9999999999999964 L 13.599999999999998 -3.0642155453184544e-15 L 6.799999999999999 -1.509903313490213e-15 L 6.8 3.9999999999999987 L 8.881784197001252e-16 4.0 L -3.552713678800501e-15 -16.0 L -3.0000000000000036 -16.0 L -3.000000000000008 -36.0 L -7.993605777301127e-15 -36.0 L -6.061817714453355e-14 -273.0 L 24.99999999999994 -273.0 L 24.999999999999932 -308.0 L -6.50590721963533e-14 -308.0 L -7.394085639335456e-14 -348.0 " stroke="#191919" stroke-width="0.35 px" style="stroke-width:0.35;stroke-miterlimit:4;stroke-dasharray:none;fill:none;fill-opacity:1;fill-rule: evenodd"/>
<path id="Sketch009_w0001"  d="M 21.499999999999986 -54.5 L 21.499999999999986 -62.50000000000001 L 11.499999999999986 -62.5 L 11.499999999999988 -54.5 L 21.499999999999986 -54.5 " stroke="#191919" stroke-width="0.35 px" style="stroke-width:0.35;stroke-miterlimit:4;stroke-dasharray:none;fill:none;fill-opacity:1;fill-rule: evenodd"/>
<path id="Sketch009_w0002"  d="M 21.499999999999957 -187.5 L 21.499999999999957 -195.5 L 11.499999999999957 -195.5 L 11.49999999999996 -187.5 L 21.499999999999957 -187.5 " stroke="#191919" stroke-width="0.35 px" style="stroke-width:0.35;stroke-miterlimit:4;stroke-dasharray:none;fill:none;fill-opacity:1;fill-rule: evenodd"/>
<circle cx="25.999999999999986" cy="-58.50000000000001" r="1.5" stroke="#191919" stroke-width="0.35 px" style="stroke-width:0.35;stroke-miterlimit:4;stroke-dasharray:none;fill:none"/>
<circle cx="25.999999999999957" cy="-191.5" r="1.5" stroke="#191919" stroke-width="0.35 px" style="stroke-width:0.35;stroke-miterlimit:4;stroke-dasharray:none;fill:none"/>
<circle cx="24.999999999999943" cy="-258.0" r="4.0" stroke="#191919" stroke-width="0.35 px" style="stroke-width:0.35;stroke-miterlimit:4;stroke-dasharray:none;fill:none"/>
<circle cx="24.99999999999993" cy="-318.0" r="3.0" stroke="#191919" stroke-width="0.35 px" style="stroke-width:0.35;stroke-miterlimit:4;stroke-dasharray:none;fill:none"/>
<title>b'left001'</title>
</g>
</svg>