<?xml version="1.0"?>
<!DOCTYPE svg PUBLIC "-//W3C//DTD SVG 1.1//EN" "http://www.w3.org/Graphics/SVG/1.1/DTD/svg11.dtd">
<svg width="361.0799999999986mm" height="47.08000000000042mm" viewBox="0 0 361.0799999999986 47.08000000000042" xmlns="http://www.w3.org/2000/svg" version="1.1">
<g id="Sketch008" transform="translate(7.540000,6.540000) scale(1,-1)">
<path id="Sketch008_w0000"  d="M -6.5999970011402625e-22 -34.0 L 15.99999999999994 -34.0 L 15.99999999999994 -37.0 L 35.999999999999865 -37.0 L 35.999999999999865 -34.00000000000089 L 309.9999999999993 -34.00000000000089 L 309.99999999999926 -37.0 L 329.9999999999992 -37.0 L 329.9999999999992 -34.00000000000089 L 345.99999999999915 -34.00000000000089 L 345.99999999999915 -27.200000000023763 L 349.9999999999987 -27.200000000023763 L 349.9999999999987 -20.400000000055105 L 346.0000000000067 -20.400000000055105 L 346.0000000000067 -13.600000000094024 L 349.9999999999987 -13.600000000094024 L 349.9999999999987 -6.80000000013339 L 346.00000000000716 -6.80000000013339 L 346.00000000000716 -1.7319923273362292e-10 L 330.0000000000072 -1.7319923273362292e-10 L 330.0000000000072 2.999999999825914 L 310.0000000000073 2.999999999825914 L 310.0000000000073 -4.4364512064021255e-13 L 35.999999999999844 -4.4364512064021255e-13 L 35.999999999999865 3.0000000000004436 L 15.99999999999994 3.0000000000004436 L 15.99999999999994 0.0 L 0.0 2.026386450286474e-29 L -1.319999400224043e-22 -6.799999999979344 L -3.9999999999995413 -6.799999999979344 L -3.9999999999995413 -13.599999999968043 L 1.8161028236686592e-11 -13.599999999968043 L 1.8161028236422243e-11 -20.39999999996521 L -3.9999999999999845 -20.39999999996521 L -3.9999999999999845 -27.199999999995253 L -2.6330196407416e-22 -27.199999999995253 L -6.5999970011402625e-22 -34.0 " stroke="#191919" stroke-width="0.35 px" style="stroke-width:0.35;stroke-miterlimit:4;stroke-dasharray:none;fill:none;fill-opacity:1;fill-rule: evenodd"/>
<path id="Sketch008_w0001"  d="M 168.99999999999937 -21.5 L 176.99999999999932 -21.5 L 176.99999999999932 -11.5 L 168.99999999999937 -11.5 L 168.99999999999937 -21.5 " stroke="#191919" stroke-width="0.35 px" style="stroke-width:0.35;stroke-miterlimit:4;stroke-dasharray:none;fill:none;fill-opacity:1;fill-rule: evenodd"/>
<path id="Sketch008_w0002"  d="M 172.99999999999935 -24.499999999999993 A 1.5 1.4999999999999942 -90.0 0 1 172.99999999999935 -27.499999999999993 A 1.5 1.4999999999999942 -90.0 0 1 172.99999999999935 -24.499999999999993 " stroke="#191919" stroke-width="0.35 px" style="stroke-width:0.35;stroke-miterlimit:4;stroke-dasharray:none;fill:none;fill-opacity:1;fill-rule: evenodd"/>
<title>b'bottom001'</title>
</g>
</svg>