<?xml version="1.0"?>
<!DOCTYPE svg PUBLIC "-//W3C//DTD SVG 1.1//EN" "http://www.w3.org/Graphics/SVG/1.1/DTD/svg11.dtd">
<svg width="361.079999999999mm" height="47.07999999999143mm" viewBox="0 0 361.079999999999 47.07999999999143" xmlns="http://www.w3.org/2000/svg" version="1.1">
<g id="Sketch004" transform="translate(7.540000,6.540000) scale(1,-1)">
<path id="Sketch004_w0000"  d="M 3.530999994719989e-13 -27.199999999999676 L 3.5309999933999896e-13 -34.0 L 16.00000000000029 -34.0 L 16.00000000000029 -36.99999999999261 L 36.000000000000206 -36.99999999999261 L 36.000000000000206 -33.99999999999261 L 309.99999999999915 -33.99999999999261 L 309.99999999999915 -36.999999999991964 L 329.9999999999991 -36.999999999991964 L 329.9999999999991 -33.99999999999835 L 345.99999999999903 -33.99999999999835 L 345.99999999999903 -27.199999999998806 L 349.99999999999903 -27.199999999998806 L 349.99999999999903 -20.39999999999907 L 345.9999999999989 -20.39999999999907 L 345.9999999999989 -13.599999999999248 L 349.9999999999991 -13.599999999999248 L 349.9999999999991 -6.799999999999413 L 345.99999999999886 -6.799999999999413 L 345.99999999999886 4.063416270128073e-13 L 329.9999999999989 4.063416270128073e-13 L 329.9999999999989 2.9999999999986433 L 309.999999999999 2.9999999999986433 L 309.999999999999 -8.662848216545171e-12 L 35.999999999999865 -8.662848216545171e-12 L 35.999999999999865 2.9999999999988365 L 15.999999999999938 2.9999999999988365 L 15.999999999999938 0.0 L 0.0 0.0 L -1.3199994002281717e-22 -6.800000000000614 L -3.9999999999999867 -6.800000000000614 L -3.9999999999999867 -13.600000000000803 L 8.615330644691194e-14 -13.600000000000803 L 8.6153306314912e-14 -20.40000000000055 L -3.999999999999632 -20.40000000000055 L -3.999999999999632 -27.199999999999676 L 3.530999994719989e-13 -27.199999999999676 " stroke="#191919" stroke-width="0.35 px" style="stroke-width:0.35;stroke-miterlimit:4;stroke-dasharray:none;fill:none;fill-opacity:1;fill-rule: evenodd"/>
<path id="Sketch004_w0001"  d="M 54.00000000000015 -21.5 L 62.00000000000012 -21.5 L 62.00000000000012 -11.5 L 54.00000000000015 -11.5 L 54.00000000000015 -21.5 " stroke="#191919" stroke-width="0.35 px" style="stroke-width:0.35;stroke-miterlimit:4;stroke-dasharray:none;fill:none;fill-opacity:1;fill-rule: evenodd"/>
<path id="Sketch004_w0002"  d="M 283.99999999999926 -21.5 L 291.9999999999992 -21.5 L 291.99999999999926 -11.500000000000073 L 283.9999999999993 -11.500000000000073 L 283.99999999999926 -21.5 " stroke="#191919" stroke-width="0.35 px" style="stroke-width:0.35;stroke-miterlimit:4;stroke-dasharray:none;fill:none;fill-opacity:1;fill-rule: evenodd"/>
<path id="Sketch004_w0003"  d="M 58.000000000000135 -24.500000000000007 A 1.5 1.4999999999999942 -90.0 0 1 58.000000000000135 -27.500000000000007 A 1.5 1.4999999999999942 -90.0 0 1 58.000000000000135 -24.500000000000007 " stroke="#191919" stroke-width="0.35 px" style="stroke-width:0.35;stroke-miterlimit:4;stroke-dasharray:none;fill:none;fill-opacity:1;fill-rule: evenodd"/>
<path id="Sketch004_w0004"  d="M 287.99999999999926 -24.500000000000128 A 1.5 1.4999999999999942 -90.0 0 1 287.99999999999926 -27.500000000000128 A 1.5 1.4999999999999942 -90.0 0 1 287.99999999999926 -24.500000000000128 " stroke="#191919" stroke-width="0.35 px" style="stroke-width:0.35;stroke-miterlimit:4;stroke-dasharray:none;fill:none;fill-opacity:1;fill-rule: evenodd"/>
<title>b'Sketch004'</title>
</g>
</svg>