<?xml version="1.0"?>
<!DOCTYPE svg PUBLIC "-//W3C//DTD SVG 1.1//EN" "http://www.w3.org/Graphics/SVG/1.1/DTD/svg11.dtd">
<svg width="40.8000000000003mm" height="392.8000000000003mm" viewBox="0 0 40.8000000000003 392.8000000000003" xmlns="http://www.w3.org/2000/svg" version="1.1">
<g id="Sketch005" transform="translate(3.400000,4.400000) scale(1,-1)">
<path id="Sketch005_w0000"  d="M 27.200000000000017 3.999999999999999 L 27.200000000000017 -1.8854810035275992e-15 L 20.400000000000013 -2.127831926132223e-15 L 20.400000000000016 3.999999999999999 L 13.600000000000016 4.000000000000002 L 13.600000000000009 3.954868378944291e-17 L 6.800000000000006 -9.42307815874346e-16 L 6.800000000000008 4.0 L 5.551115123120041e-15 4.000000000000003 L -1.2434497875807496e-14 -16.000000000000004 L -3.0000000000000133 -16.00000000000001 L -3.00000000000003 -36.000000000000014 L -2.9087843245179114e-14 -36.00000000000002 L -2.704503287986882e-13 -348.0000000000001 L -3.000000000000272 -348.0000000000002 L -3.000000000000288 -368.0000000000002 L -2.8710367416806563e-13 -368.0000000000002 L -2.9953817204371103e-13 -388.0000000000003 L 6.799999999999703 -388.0000000000003 L 6.799999999999707 -384.0000000000003 L 13.59999999999971 -384.0000000000003 L 13.599999999999707 -388.0000000000003 L 20.39999999999971 -388.0000000000003 L 20.399999999999714 -384.0000000000003 L 27.19999999999972 -384.0000000000003 L 27.199999999999715 -388.0000000000003 L 33.999999999999716 -388.0000000000003 L 33.99999999999974 -368.0000000000002 L 36.99999999999974 -368.0000000000002 L 36.99999999999975 -348.0000000000002 L 33.99999999999975 -348.0000000000002 L 33.99999999999999 -36.00000000000013 L 36.99999999999999 -36.00000000000002 L 37.00000000000001 -16.000000000000018 L 34.00000000000001 -16.000000000000014 L 34.000000000000014 3.999999999999992 L 27.200000000000017 3.999999999999999 " stroke="#191919" stroke-width="0.35 px" style="stroke-width:0.35;stroke-miterlimit:4;stroke-dasharray:none;fill:none;fill-opacity:1;fill-rule: evenodd"/>
<path id="Sketch005_w0001"  d="M 11.499999999999957 -62.50000000000004 L 21.49999999999996 -62.50000000000005 L 21.49999999999997 -54.50000000000004 L 11.499999999999968 -54.50000000000004 L 11.499999999999957 -62.50000000000004 " stroke="#191919" stroke-width="0.35 px" style="stroke-width:0.35;stroke-miterlimit:4;stroke-dasharray:none;fill:none;fill-opacity:1;fill-rule: evenodd"/>
<path id="Sketch005_w0002"  d="M 21.499999999999865 -187.5000000000001 L 21.499999999999865 -195.5000000000001 L 11.49999999999986 -195.50000000000014 L 11.499999999999861 -187.5000000000001 L 21.499999999999865 -187.5000000000001 " stroke="#191919" stroke-width="0.35 px" style="stroke-width:0.35;stroke-miterlimit:4;stroke-dasharray:none;fill:none;fill-opacity:1;fill-rule: evenodd"/>
<circle cx="25.999999999999982" cy="-58.50000000000005" r="1.5" stroke="#191919" stroke-width="0.35 px" style="stroke-width:0.35;stroke-miterlimit:4;stroke-dasharray:none;fill:none"/>
<circle cx="25.99999999999988" cy="-191.5000000000001" r="1.5" stroke="#191919" stroke-width="0.35 px" style="stroke-width:0.35;stroke-miterlimit:4;stroke-dasharray:none;fill:none"/>
<title>b'right001'</title>
</g>
</svg>