<?xml version="1.0"?>
<!DOCTYPE svg PUBLIC "-//W3C//DTD SVG 1.1//EN" "http://www.w3.org/Graphics/SVG/1.1/DTD/svg11.dtd">
<svg width="402.9mm" height="402.9mm" viewBox="0 0 402.9 402.9" xmlns="http://www.w3.org/2000/svg" version="1.1">
<g id="Sketch001" transform="translate(201.450000,201.450000) scale(1,-1)">
<path id="Sketch001_w0000"  d="M -197.49999999999997 197.5 L 197.50000000000003 197.5 L 197.50000000000003 -197.5 L -197.49999999999997 -197.5 L -197.49999999999997 197.5 " stroke="#191919" stroke-width="0.35 px" style="stroke-width:0.35;stroke-miterlimit:4;stroke-dasharray:none;fill:none;fill-opacity:1;fill-rule: evenodd"/>
<path id="Sketch001_w0001"  d="M -100.0000000000001 157.5000000000001 L -92.0 157.5000000000001 L -92.0 137.50000000000017 L -82.0 137.50000000000014 L -82.0 129.5000000000001 L -92.0 129.5000000000001 L -91.99999999999996 119.50000000000011 L -99.99999999999997 119.50000000000011 L -99.99999999999997 129.50000000000028 L -120.0 129.50000000000017 L -120.0 137.50000000000017 L -100.0000000000001 137.50000000000017 L -100.0000000000001 157.5000000000001 " stroke="#191919" stroke-width="0.35 px" style="stroke-width:0.35;stroke-miterlimit:4;stroke-dasharray:none;fill:none;fill-opacity:1;fill-rule: evenodd"/>
<path id="Sketch001_w0002"  d="M 120.0 137.49999999999997 L 130.0 137.49999999999997 L 130.0 157.5 L 138.00000000000003 157.5 L 138.00000000000003 137.49999999999963 L 158.0 137.49999999999963 L 158.0 129.50000000000009 L 137.99999999999994 129.50000000000009 L 138.0 119.50000000000009 L 130.0 119.49999999999999 L 130.0 129.5 L 120.0 129.49999999999997 L 120.0 137.49999999999997 " stroke="#191919" stroke-width="0.35 px" style="stroke-width:0.35;stroke-miterlimit:4;stroke-dasharray:none;fill:none;fill-opacity:1;fill-rule: evenodd"/>
<path id="Sketch001_w0003"  d="M -100.00000000000014 4.5000000000001155 L -100.00000000000014 14.500000000000114 L -92.00000000000013 14.500000000000114 L -92.00000000000013 4.500000000000114 L -82.00000000000013 4.500000000000115 L -82.00000000000017 -3.4999999999998965 L -92.00000000000013 -3.4999999999998965 L -92.00000000000013 -23.499999999999883 L -100.00000000000014 -23.499999999999883 L -100.00000000000014 -3.499999999999897 L -120.00000000000013 -3.499999999999897 L -120.00000000000013 4.5000000000001155 L -100.00000000000014 4.5000000000001155 " stroke="#191919" stroke-width="0.35 px" style="stroke-width:0.35;stroke-miterlimit:4;stroke-dasharray:none;fill:none;fill-opacity:1;fill-rule: evenodd"/>
<path id="Sketch001_w0004"  d="M 130.0 14.500000000000114 L 138.0 14.50000000000011 L 138.0 4.500000000000107 L 158.0 4.500000000000102 L 158.0 -3.4999999999998996 L 138.0 -3.499999999999899 L 138.0 -23.499999999999886 L 130.0 -23.499999999999886 L 130.0 -3.499999999999897 L 119.99999999999999 -3.499999999999897 L 119.99999999999999 4.500000000000114 L 130.0 4.500000000000115 L 130.0 14.500000000000114 " stroke="#191919" stroke-width="0.35 px" style="stroke-width:0.35;stroke-miterlimit:4;stroke-dasharray:none;fill:none;fill-opacity:1;fill-rule: evenodd"/>
<circle cx="-102.49999999999997" cy="-61.500000000000014" r="1.5" stroke="#191919" stroke-width="0.35 px" style="stroke-width:0.35;stroke-miterlimit:4;stroke-dasharray:none;fill:none"/>
<circle cx="-102.49999999999997" cy="-127.50000000000001" r="1.5" stroke="#191919" stroke-width="0.35 px" style="stroke-width:0.35;stroke-miterlimit:4;stroke-dasharray:none;fill:none"/>
<circle cx="-15.499999999999966" cy="-69.50000000000001" r="1.5" stroke="#191919" stroke-width="0.35 px" style="stroke-width:0.35;stroke-miterlimit:4;stroke-dasharray:none;fill:none"/>
<circle cx="-15.499999999999966" cy="-119.50000000000001" r="1.5" stroke="#191919" stroke-width="0.35 px" style="stroke-width:0.35;stroke-miterlimit:4;stroke-dasharray:none;fill:none"/>
<circle cx="-58.0" cy="133.50000000000006" r="1.5" stroke="#191919" stroke-width="0.35 px" style="stroke-width:0.35;stroke-miterlimit:4;stroke-dasharray:none;fill:none"/>
<circle cx="96.00000000000016" cy="133.50000000000006" r="1.5" stroke="#191919" stroke-width="0.35 px" style="stroke-width:0.35;stroke-miterlimit:4;stroke-dasharray:none;fill:none"/>
<circle cx="-58.0" cy="0.5000000000001087" r="1.5" stroke="#191919" stroke-width="0.35 px" style="stroke-width:0.35;stroke-miterlimit:4;stroke-dasharray:none;fill:none"/>
<circle cx="95.99999999999986" cy="0.5000000000001087" r="1.5" stroke="#191919" stroke-width="0.35 px" style="stroke-width:0.35;stroke-miterlimit:4;stroke-dasharray:none;fill:none"/>
<circle cx="-58.0" cy="83.50000000000004" r="1.5" stroke="#191919" stroke-width="0.35 px" style="stroke-width:0.35;stroke-miterlimit:4;stroke-dasharray:none;fill:none"/>
<circle cx="-58.0" cy="50.50000000000011" r="1.5" stroke="#191919" stroke-width="0.35 px" style="stroke-width:0.35;stroke-miterlimit:4;stroke-dasharray:none;fill:none"/>
<circle cx="95.99999999999986" cy="83.50000000000004" r="1.5" stroke="#191919" stroke-width="0.35 px" style="stroke-width:0.35;stroke-miterlimit:4;stroke-dasharray:none;fill:none"/>
<circle cx="95.99999999999986" cy="50.50000000000011" r="1.5" stroke="#191919" stroke-width="0.35 px" style="stroke-width:0.35;stroke-miterlimit:4;stroke-dasharray:none;fill:none"/>
<circle cx="-132.49999999999997" cy="-166.0" r="1.5" stroke="#191919" stroke-width="0.35 px" style="stroke-width:0.35;stroke-miterlimit:4;stroke-dasharray:none;fill:none"/>
<circle cx="-102.49999999999997" cy="-181.0" r="1.5" stroke="#191919" stroke-width="0.35 px" style="stroke-width:0.35;stroke-miterlimit:4;stroke-dasharray:none;fill:none"/>
<circle cx="-128.0" cy="133.50000000000006" r="1.5" stroke="#191919" stroke-width="0.35 px" style="stroke-width:0.35;stroke-miterlimit:4;stroke-dasharray:none;fill:none"/>
<circle cx="-95.99999999999996" cy="165.5000000000001" r="1.5" stroke="#191919" stroke-width="0.35 px" style="stroke-width:0.35;stroke-miterlimit:4;stroke-dasharray:none;fill:none"/>
<circle cx="-95.99999999999996" cy="95.50000000000011" r="1.5" stroke="#191919" stroke-width="0.35 px" style="stroke-width:0.35;stroke-miterlimit:4;stroke-dasharray:none;fill:none"/>
<circle cx="-95.99999999999996" cy="38.500000000000114" r="1.5" stroke="#191919" stroke-width="0.35 px" style="stroke-width:0.35;stroke-miterlimit:4;stroke-dasharray:none;fill:none"/>
<circle cx="-128.0000000000001" cy="0.5000000000001087" r="1.5" stroke="#191919" stroke-width="0.35 px" style="stroke-width:0.35;stroke-miterlimit:4;stroke-dasharray:none;fill:none"/>
<circle cx="-95.99999999999996" cy="-31.499999999999883" r="1.5" stroke="#191919" stroke-width="0.35 px" style="stroke-width:0.35;stroke-miterlimit:4;stroke-dasharray:none;fill:none"/>
<circle cx="134.0" cy="-31.499999999999886" r="1.5" stroke="#191919" stroke-width="0.35 px" style="stroke-width:0.35;stroke-miterlimit:4;stroke-dasharray:none;fill:none"/>
<circle cx="166.0" cy="0.5000000000001087" r="1.5" stroke="#191919" stroke-width="0.35 px" style="stroke-width:0.35;stroke-miterlimit:4;stroke-dasharray:none;fill:none"/>
<circle cx="134.0" cy="38.500000000000114" r="1.5" stroke="#191919" stroke-width="0.35 px" style="stroke-width:0.35;stroke-miterlimit:4;stroke-dasharray:none;fill:none"/>
<circle cx="134.0" cy="95.49999999999999" r="1.5" stroke="#191919" stroke-width="0.35 px" style="stroke-width:0.35;stroke-miterlimit:4;stroke-dasharray:none;fill:none"/>
<circle cx="166.0" cy="133.50000000000006" r="1.5" stroke="#191919" stroke-width="0.35 px" style="stroke-width:0.35;stroke-miterlimit:4;stroke-dasharray:none;fill:none"/>
<circle cx="134.0" cy="165.5" r="1.5" stroke="#191919" stroke-width="0.35 px" style="stroke-width:0.35;stroke-miterlimit:4;stroke-dasharray:none;fill:none"/>
<path id="Sketch001_w0031"  d="M 156.0 196.0 L 176.0 196.0 L 176.0 192.0 L 156.0 192.0 L 156.0 196.0 " stroke="#191919" stroke-width="0.35 px" style="stroke-width:0.35;stroke-miterlimit:4;stroke-dasharray:none;fill:none;fill-opacity:1;fill-rule: evenodd"/>
<path id="Sketch001_w0032"  d="M 192.0 176.0 L 196.0 176.0 L 196.0 156.0 L 192.0 156.0 L 192.0 176.0 " stroke="#191919" stroke-width="0.35 px" style="stroke-width:0.35;stroke-miterlimit:4;stroke-dasharray:none;fill:none;fill-opacity:1;fill-rule: evenodd"/>
<path id="Sketch001_w0033"  d="M -138.0 196.0 L -118.0 196.0 L -118.0 192.0 L -138.0 192.0 L -138.0 196.0 " stroke="#191919" stroke-width="0.35 px" style="stroke-width:0.35;stroke-miterlimit:4;stroke-dasharray:none;fill:none;fill-opacity:1;fill-rule: evenodd"/>
<path id="Sketch001_w0034"  d="M -158.0 176.0 L -154.0 176.0 L -154.0 156.0 L -158.0 156.0 L -158.0 176.0 " stroke="#191919" stroke-width="0.35 px" style="stroke-width:0.35;stroke-miterlimit:4;stroke-dasharray:none;fill:none;fill-opacity:1;fill-rule: evenodd"/>
<path id="Sketch001_w0035"  d="M -150.0 -156.0 L -154.0 -156.0 L -154.0 -176.0 L -150.0 -176.0 L -150.0 -156.0 " stroke="#191919" stroke-width="0.35 px" style="stroke-width:0.35;stroke-miterlimit:4;stroke-dasharray:none;fill:none;fill-opacity:1;fill-rule: evenodd"/>
<path id="Sketch001_w0036"  d="M -138.0 -192.0 L -118.0 -192.0 L -118.0 -196.0 L -138.0 -196.0 L -138.0 -192.0 " stroke="#191919" stroke-width="0.35 px" style="stroke-width:0.35;stroke-miterlimit:4;stroke-dasharray:none;fill:none;fill-opacity:1;fill-rule: evenodd"/>
<path id="Sketch001_w0037"  d="M 156.0 -192.0 L 176.0 -192.0 L 176.0 -196.0 L 156.0 -196.0 L 156.0 -192.0 " stroke="#191919" stroke-width="0.35 px" style="stroke-width:0.35;stroke-miterlimit:4;stroke-dasharray:none;fill:none;fill-opacity:1;fill-rule: evenodd"/>
<path id="Sketch001_w0038"  d="M 196.0 -156.0 L 192.0 -156.0 L 192.0 -176.0 L 196.0 -176.0 L 196.0 -156.0 " stroke="#191919" stroke-width="0.35 px" style="stroke-width:0.35;stroke-miterlimit:4;stroke-dasharray:none;fill:none;fill-opacity:1;fill-rule: evenodd"/>
<circle cx="4.500000000000034" cy="-74.50000000000001" r="1.25" stroke="#191919" stroke-width="0.35 px" style="stroke-width:0.35;stroke-miterlimit:4;stroke-dasharray:none;fill:none"/>
<circle cx="4.500000000000034" cy="-119.50000000000001" r="1.25" stroke="#191919" stroke-width="0.35 px" style="stroke-width:0.35;stroke-miterlimit:4;stroke-dasharray:none;fill:none"/>
<circle cx="69.50000000000003" cy="-74.50000000000001" r="1.25" stroke="#191919" stroke-width="0.35 px" style="stroke-width:0.35;stroke-miterlimit:4;stroke-dasharray:none;fill:none"/>
<circle cx="74.50000000000003" cy="-74.50000000000001" r="1.25" stroke="#191919" stroke-width="0.35 px" style="stroke-width:0.35;stroke-miterlimit:4;stroke-dasharray:none;fill:none"/>
<circle cx="134.50000000000003" cy="-74.50000000000001" r="1.25" stroke="#191919" stroke-width="0.35 px" style="stroke-width:0.35;stroke-miterlimit:4;stroke-dasharray:none;fill:none"/>
<circle cx="134.50000000000003" cy="-119.50000000000001" r="1.25" stroke="#191919" stroke-width="0.35 px" style="stroke-width:0.35;stroke-miterlimit:4;stroke-dasharray:none;fill:none"/>
<circle cx="74.50000000000003" cy="-119.50000000000001" r="1.25" stroke="#191919" stroke-width="0.35 px" style="stroke-width:0.35;stroke-miterlimit:4;stroke-dasharray:none;fill:none"/>
<circle cx="69.50000000000003" cy="-119.50000000000001" r="1.25" stroke="#191919" stroke-width="0.35 px" style="stroke-width:0.35;stroke-miterlimit:4;stroke-dasharray:none;fill:none"/>
<title>b'Sketch001'</title>
</g>
</svg>