<?xml version="1.0"?>
<!DOCTYPE svg PUBLIC "-//W3C//DTD SVG 1.1//EN" "http://www.w3.org/Graphics/SVG/1.1/DTD/svg11.dtd">
<svg width="242.76mm" height="145.76mm" viewBox="0 0 242.76 145.76" xmlns="http://www.w3.org/2000/svg" version="1.1">
<g id="Page" transform="translate(121.380000,72.880000) scale(1,-1)">
<title>b'Page'</title>
</g>
<g id="Shape2DView" transform="translate(121.380000,72.880000) scale(1,-1)">
<path id="Shape2DView_nwe0000"  d="M -90.00000000000001 49.50000000000001 L 89.99999999999999 49.50000000000001 " stroke="#191919" stroke-width="0.35 px" style="stroke-width:0.35;stroke-miterlimit:4;stroke-dasharray:none;fill:none;fill-opacity:1;fill-rule: evenodd"/>
<path id="Shape2DView_nwe0001"  d="M 89.99999999999999 49.50000000000001 L 89.99999999999999 -40.49999999999999 " stroke="#191919" stroke-width="0.35 px" style="stroke-width:0.35;stroke-miterlimit:4;stroke-dasharray:none;fill:none;fill-opacity:1;fill-rule: evenodd"/>
<path id="Shape2DView_nwe0002"  d="M 89.99999999999999 -40.49999999999999 L -90.00000000000001 -40.49999999999999 " stroke="#191919" stroke-width="0.35 px" style="stroke-width:0.35;stroke-miterlimit:4;stroke-dasharray:none;fill:none;fill-opacity:1;fill-rule: evenodd"/>
<path id="Shape2DView_nwe0003"  d="M -90.00000000000001 -40.49999999999999 L -90.00000000000001 49.50000000000001 " stroke="#191919" stroke-width="0.35 px" style="stroke-width:0.35;stroke-miterlimit:4;stroke-dasharray:none;fill:none;fill-opacity:1;fill-rule: evenodd"/>
<path id="Shape2DView_nwe0004"  d="M -119.0 70.5 L 119.0 70.5 " stroke="#191919" stroke-width="0.35 px" style="stroke-width:0.35;stroke-miterlimit:4;stroke-dasharray:none;fill:none;fill-opacity:1;fill-rule: evenodd"/>
<path id="Shape2DView_nwe0005"  d="M 119.0 70.5 L 119.0 -70.5 " stroke="#191919" stroke-width="0.35 px" style="stroke-width:0.35;stroke-miterlimit:4;stroke-dasharray:none;fill:none;fill-opacity:1;fill-rule: evenodd"/>
<path id="Shape2DView_nwe0006"  d="M 119.0 -70.5 L -119.0 -70.5 " stroke="#191919" stroke-width="0.35 px" style="stroke-width:0.35;stroke-miterlimit:4;stroke-dasharray:none;fill:none;fill-opacity:1;fill-rule: evenodd"/>
<path id="Shape2DView_nwe0007"  d="M -119.0 -70.5 L -119.0 70.5 " stroke="#191919" stroke-width="0.35 px" style="stroke-width:0.35;stroke-miterlimit:4;stroke-dasharray:none;fill:none;fill-opacity:1;fill-rule: evenodd"/>
<title>b'Shape2DView'</title>
</g>
<g id="Sketch001" transform="translate(121.380000,72.880000) scale(1,-1)">
<path id="Sketch001_w0000"  d="M -90.00000000000001 49.50000000000001 L 89.99999999999999 49.50000000000001 L 89.99999999999999 -40.49999999999999 L -90.00000000000001 -40.49999999999999 L -90.00000000000001 49.50000000000001 " stroke="#191919" stroke-width="0.35 px" style="stroke-width:0.35;stroke-miterlimit:4;stroke-dasharray:none;fill:none;fill-opacity:1;fill-rule: evenodd"/>
<path id="Sketch001_w0001"  d="M -119.0 70.5 L 119.0 70.5 L 119.0 -70.5 L -119.0 -70.5 L -119.0 70.5 " stroke="#191919" stroke-width="0.35 px" style="stroke-width:0.35;stroke-miterlimit:4;stroke-dasharray:none;fill:none;fill-opacity:1;fill-rule: evenodd"/>
<title>b'Sketch001'</title>
</g>
<g id="Pad" transform="translate(121.380000,72.880000) scale(1,-1)">
<path id="Pad_f0000"  d="M -119.0 70.5 L -119.0 70.5 L 119.0 70.5 L 119.0 70.5 L -119.0 70.5 Z " stroke="#191919" stroke-width="0.35 px" style="stroke-width:0.35;stroke-miterlimit:4;stroke-dasharray:none;fill:#626262;fill-opacity:1.0;fill-rule: evenodd"/>
<path id="Pad_f0001"  d="M 119.0 70.5 L 119.0 70.5 L 119.0 -70.5 L 119.0 -70.5 L 119.0 70.5 Z " stroke="#191919" stroke-width="0.35 px" style="stroke-width:0.35;stroke-miterlimit:4;stroke-dasharray:none;fill:#626262;fill-opacity:1.0;fill-rule: evenodd"/>
<path id="Pad_f0002"  d="M 119.0 -70.5 L 119.0 -70.5 L -119.0 -70.5 L -119.0 -70.5 L 119.0 -70.5 Z " stroke="#191919" stroke-width="0.35 px" style="stroke-width:0.35;stroke-miterlimit:4;stroke-dasharray:none;fill:#626262;fill-opacity:1.0;fill-rule: evenodd"/>
<path id="Pad_f0003"  d="M -119.0 -70.5 L -119.0 -70.5 L -119.0 70.5 L -119.0 70.5 L -119.0 -70.5 Z " stroke="#191919" stroke-width="0.35 px" style="stroke-width:0.35;stroke-miterlimit:4;stroke-dasharray:none;fill:#626262;fill-opacity:1.0;fill-rule: evenodd"/>
<path id="Pad_f0004"  d="M -90.00000000000001 49.50000000000001 L -90.00000000000001 -40.49999999999999 L -90.00000000000001 -40.49999999999999 L -90.00000000000001 49.50000000000001 L -90.00000000000001 49.50000000000001 Z " stroke="#191919" stroke-width="0.35 px" style="stroke-width:0.35;stroke-miterlimit:4;stroke-dasharray:none;fill:#626262;fill-opacity:1.0;fill-rule: evenodd"/>
<path id="Pad_f0005"  d="M -90.00000000000001 -40.49999999999999 L 89.99999999999999 -40.49999999999999 L 89.99999999999999 -40.49999999999999 L -90.00000000000001 -40.49999999999999 L -90.00000000000001 -40.49999999999999 Z " stroke="#191919" stroke-width="0.35 px" style="stroke-width:0.35;stroke-miterlimit:4;stroke-dasharray:none;fill:#626262;fill-opacity:1.0;fill-rule: evenodd"/>
<path id="Pad_f0006"  d="M 89.99999999999999 -40.49999999999999 L 89.99999999999999 49.50000000000001 L 89.99999999999999 49.50000000000001 L 89.99999999999999 -40.49999999999999 L 89.99999999999999 -40.49999999999999 Z " stroke="#191919" stroke-width="0.35 px" style="stroke-width:0.35;stroke-miterlimit:4;stroke-dasharray:none;fill:#626262;fill-opacity:1.0;fill-rule: evenodd"/>
<path id="Pad_f0007"  d="M 89.99999999999999 49.50000000000001 L -90.00000000000001 49.50000000000001 L -90.00000000000001 49.50000000000001 L 89.99999999999999 49.50000000000001 L 89.99999999999999 49.50000000000001 Z " stroke="#191919" stroke-width="0.35 px" style="stroke-width:0.35;stroke-miterlimit:4;stroke-dasharray:none;fill:#626262;fill-opacity:1.0;fill-rule: evenodd"/>
<path id="Pad_f0008"  d="M -119.0 70.5 L 119.0 70.5 L 119.0 -70.5 L -119.0 -70.5 L -119.0 70.5 Z M 89.99999999999999 49.50000000000001 L -90.00000000000001 49.50000000000001 L -90.00000000000001 -40.49999999999999 L 89.99999999999999 -40.49999999999999 L 89.99999999999999 49.50000000000001 Z " stroke="#191919" stroke-width="0.35 px" style="stroke-width:0.35;stroke-miterlimit:4;stroke-dasharray:none;fill:#626262;fill-opacity:1.0;fill-rule: evenodd"/>
<path id="Pad_f0009"  d="M 119.0 70.5 L 119.0 -70.5 L -119.0 -70.5 L -119.0 70.5 L 119.0 70.5 Z M -90.00000000000001 -40.49999999999999 L 89.99999999999999 -40.49999999999999 L 89.99999999999999 49.50000000000001 L -90.00000000000001 49.50000000000001 L -90.00000000000001 -40.49999999999999 Z " stroke="#191919" stroke-width="0.35 px" style="stroke-width:0.35;stroke-miterlimit:4;stroke-dasharray:none;fill:#626262;fill-opacity:1.0;fill-rule: evenodd"/>
<title>b'Pad'</title>
</g>
<g id="Sketch" transform="translate(121.380000,72.880000) scale(1,-1)">
<path id="Sketch_w0000"  d="M -90.00000000000001 49.50000000000001 L 89.99999999999999 49.50000000000001 L 89.99999999999999 -40.49999999999999 L -90.00000000000001 -40.49999999999999 L -90.00000000000001 49.50000000000001 " stroke="#0f2873" stroke-width="0.35 px" style="stroke-width:0.35;stroke-miterlimit:4;stroke-dasharray:none;fill:none;fill-opacity:1;fill-rule: evenodd"/>
<path id="Sketch_w0001"  d="M -119.0 70.5 L 119.0 70.5 L 119.0 -70.5 L -119.0 -70.5 L -119.0 70.5 " stroke="#0f2873" stroke-width="0.35 px" style="stroke-width:0.35;stroke-miterlimit:4;stroke-dasharray:none;fill:none;fill-opacity:1;fill-rule: evenodd"/>
<title>b'Sketch'</title>
</g>
</svg>