<?xml version="1.0" encoding="UTF-8" standalone="no"?>
<!-- Created with Inkscape (http://www.inkscape.org/) -->

<svg
   xmlns:dc="http://purl.org/dc/elements/1.1/"
   xmlns:cc="http://creativecommons.org/ns#"
   xmlns:rdf="http://www.w3.org/1999/02/22-rdf-syntax-ns#"
   xmlns:svg="http://www.w3.org/2000/svg"
   xmlns="http://www.w3.org/2000/svg"
   xmlns:sodipodi="http://sodipodi.sourceforge.net/DTD/sodipodi-0.dtd"
   xmlns:inkscape="http://www.inkscape.org/namespaces/inkscape"
   width="210mm"
   height="297mm"
   viewBox="0 0 210 297"
   version="1.1"
   id="svg8"
   inkscape:version="0.92.5 (2060ec1f9f, 2020-04-08)"
   sodipodi:docname="gears-03.svg">
  <defs
     id="defs2" />
  <sodipodi:namedview
     id="base"
     pagecolor="#ffffff"
     bordercolor="#666666"
     borderopacity="1.0"
     inkscape:pageopacity="0.0"
     inkscape:pageshadow="2"
     inkscape:zoom="1.4"
     inkscape:cx="-204.08992"
     inkscape:cy="147.96662"
     inkscape:document-units="mm"
     inkscape:current-layer="layer1"
     showgrid="false"
     inkscape:window-width="1920"
     inkscape:window-height="1016"
     inkscape:window-x="0"
     inkscape:window-y="27"
     inkscape:window-maximized="1"
     showguides="true"
     inkscape:guide-bbox="true"
     inkscape:snap-bbox="true"
     inkscape:snap-bbox-midpoints="true"
     inkscape:bbox-paths="true">
    <sodipodi:guide
       inkscape:color="rgb(255,6,0)"
       inkscape:label=""
       inkscape:locked="false"
       id="guide983"
       orientation="1,0"
       position="-36.709621,13.302246" />
    <sodipodi:guide
       inkscape:locked="false"
       id="guide985"
       orientation="0,1"
       position="-61.365403,92.228865" />
    <sodipodi:guide
       inkscape:locked="false"
       id="guide991"
       orientation="1,0"
       position="-38.710121,12.945685" />
    <sodipodi:guide
       inkscape:locked="false"
       id="guide996"
       orientation="1,0"
       position="-51.364905,92.141172" />
    <sodipodi:guide
       inkscape:locked="false"
       id="guide1000"
       orientation="1,0"
       position="-5.0781209,92.228867" />
    <sodipodi:guide
       position="-61.365404,49.136551"
       orientation="0,1"
       id="guide1661"
       inkscape:locked="false" />
    <sodipodi:guide
       position="-61.365405,49.136552"
       orientation="1,0"
       id="guide833"
       inkscape:locked="false" />
    <sodipodi:guide
       position="-58.70962,13.30221"
       orientation="0,1"
       id="guide837"
       inkscape:locked="false" />
  </sodipodi:namedview>
  <metadata
     id="metadata5">
    <rdf:RDF>
      <cc:Work
         rdf:about="">
        <dc:format>image/svg+xml</dc:format>
        <dc:type
           rdf:resource="http://purl.org/dc/dcmitype/StillImage" />
        <dc:title />
      </cc:Work>
    </rdf:RDF>
  </metadata>
  <g
     inkscape:label="Layer 1"
     inkscape:groupmode="layer"
     id="layer1">
    <circle
       style="fill:#ffff00;fill-opacity:1;stroke:none;stroke-width:0.1;stroke-miterlimit:4;stroke-dasharray:none;stroke-opacity:1"
       id="path1002"
       cx="-5.0781207"
       cy="204.77113"
       r="10.5" />
    <path
       inkscape:connector-curvature="0"
       d="m -49.417755,246.74375 0.52692,-0.0494 0.81766,0.12296 1.36712,0.58294 v 0.92636 l -1.36712,0.58294 -0.81766,0.12296 -0.52692,-0.0494 -0.23876,1.50743 0.5164,0.11586 0.73964,0.36961 1.12007,0.97688 -0.28626,0.88102 -1.48035,0.13195 -0.81563,-0.13573 -0.48588,-0.2098 -0.69289,1.35988 0.45532,0.26976 0.58923,0.58009 0.76337,1.27518 -0.54449,0.74944 -1.44867,-0.33196 -0.73378,-0.38113 -0.39726,-0.34967 -1.0792,1.0792 0.34967,0.39726 0.38113,0.73378 0.33196,1.44867 -0.74944,0.54449 -1.27518,-0.76337 -0.58009,-0.58923 -0.26976,-0.45532 -1.35988,0.69289 0.2098,0.48588 0.13573,0.81563 -0.13195,1.48035 -0.88102,0.28626 -0.97688,-1.12007 -0.36961,-0.73964 -0.11586,-0.5164 -1.50743,0.23876 0.04938,0.52692 -0.12296,0.81766 -0.58294,1.36712 h -0.92636 l -0.58294,-1.36712 -0.12296,-0.81766 0.04938,-0.52692 -1.50743,-0.23876 -0.11586,0.5164 -0.36961,0.73964 -0.97688,1.12007 -0.88102,-0.28626 -0.13195,-1.48035 0.13573,-0.81563 0.2098,-0.48588 -1.35988,-0.69289 -0.26976,0.45532 -0.58009,0.58923 -1.27518,0.76337 -0.74944,-0.54449 0.33196,-1.44867 0.38113,-0.73378 0.34967,-0.39726 -1.0792,-1.0792 -0.39726,0.34967 -0.73378,0.38113 -1.44867,0.33196 -0.54449,-0.74944 0.76337,-1.27518 0.58923,-0.58009 0.45532,-0.26976 -0.69289,-1.35988 -0.48588,0.2098 -0.81563,0.13573 -1.48035,-0.13195 -0.28626,-0.88102 1.12007,-0.97688 0.73964,-0.36961 0.5164,-0.11586 -0.23876,-1.50743 -0.52692,0.0494 -0.81766,-0.12296 -1.36712,-0.58294 v -0.92636 l 1.36712,-0.58294 0.81766,-0.12296 0.52692,0.0494 0.23876,-1.50743 -0.5164,-0.11586 -0.73964,-0.36961 -1.12007,-0.97688 0.28626,-0.88102 1.48035,-0.13195 0.81563,0.13573 0.48588,0.2098 0.69289,-1.35988 -0.45532,-0.26976 -0.58923,-0.58009 -0.76337,-1.27518 0.54449,-0.74944 1.44867,0.33196 0.73378,0.38113 0.39726,0.34967 1.0792,-1.0792 -0.34967,-0.39726 -0.38113,-0.73378 -0.33196,-1.44867 0.74944,-0.54449 1.27518,0.76337 0.58009,0.58923 0.26976,0.45532 1.35988,-0.69289 -0.2098,-0.48588 -0.13573,-0.81563 0.13195,-1.48035 0.88102,-0.28626 0.97688,1.12007 0.36961,0.73964 0.11586,0.5164 1.50743,-0.23876 -0.04938,-0.52692 0.12296,-0.81766 0.58294,-1.36712 h 0.92636 l 0.58294,1.36712 0.12296,0.81766 -0.04938,0.52692 1.50743,0.23876 0.11586,-0.5164 0.36961,-0.73964 0.97688,-1.12007 0.88102,0.28626 0.13195,1.48035 -0.13573,0.81563 -0.2098,0.48588 1.35988,0.69289 0.26976,-0.45532 0.58009,-0.58923 1.27518,-0.76337 0.74944,0.54449 -0.33196,1.44867 -0.38113,0.73378 -0.34967,0.39726 1.0792,1.0792 0.39726,-0.34967 0.73378,-0.38113 1.44867,-0.33196 0.54449,0.74944 -0.76337,1.27518 -0.58923,0.58009 -0.45532,0.26976 0.69289,1.35988 0.48588,-0.2098 0.81563,-0.13573 1.48035,0.13195 0.28626,0.88102 -1.12007,0.97688 -0.73964,0.36961 -0.5164,0.11586 z"
       style="fill:#ffff00;stroke:#000000;stroke-width:0.001"
       id="path1679" />
    <g
       id="g2335"
       transform="translate(-4.9999989,9.1289266e-6)">
      <path
         id="path1685"
         style="fill:#00ff00;stroke:#000000;stroke-width:0.001"
         d="m -31.110756,246.95072 0.91755,-0.15938 0.41239,0.0292 1.40582,0.65125 v 0.7833 l -1.40582,0.65125 -0.41239,0.0292 -0.91755,-0.15938 -0.46706,1.43746 0.83599,0.41038 0.31646,0.26603 0.75454,1.35319 -0.46041,0.63371 -1.52012,-0.29945 -0.35081,-0.21877 -0.64863,-0.66826 -1.22277,0.8884 0.43511,0.82339 0.09965,0.40123 -0.18495,1.53826 -0.74496,0.24206 -1.05379,-1.13577 -0.15522,-0.38318 -0.13196,-0.92189 h -1.51144 l -0.13196,0.92189 -0.15522,0.38318 -1.05379,1.13577 -0.74496,-0.24206 -0.18495,-1.53826 0.09965,-0.40123 0.43511,-0.82339 -1.22277,-0.8884 -0.64863,0.66826 -0.35081,0.21877 -1.52012,0.29945 -0.46041,-0.63371 0.75454,-1.35319 0.31646,-0.26603 0.83599,-0.41038 -0.46706,-1.43746 -0.91755,0.15938 -0.41239,-0.0292 -1.40582,-0.65125 v -0.7833 l 1.40582,-0.65125 0.41239,-0.0292 0.91755,0.15938 0.46706,-1.43746 -0.83599,-0.41038 -0.31646,-0.26603 -0.75454,-1.35319 0.46041,-0.63371 1.52012,0.29945 0.35081,0.21877 0.64863,0.66826 1.22277,-0.8884 -0.43511,-0.82339 -0.09965,-0.40123 0.18495,-1.53826 0.74496,-0.24206 1.05379,1.13577 0.15522,0.38318 0.13196,0.92189 h 1.51144 l 0.13196,-0.92189 0.15522,-0.38318 1.05379,-1.13577 0.74496,0.24206 0.18495,1.53826 -0.09965,0.40123 -0.43511,0.82339 1.22277,0.8884 0.64863,-0.66826 0.35081,-0.21877 1.52012,-0.29945 0.46041,0.63371 -0.75454,1.35319 -0.31646,0.26603 -0.83599,0.41038 z"
         inkscape:connector-curvature="0" />
      <path
         id="path1687"
         transform="scale(0.26458333)"
         d="m -137.44336,929.24805 a 7.5590551,7.5590551 0 0 0 -7.56055,7.55859 7.5590551,7.5590551 0 0 0 7.56055,7.55859 7.5590551,7.5590551 0 0 0 5.66797,-2.56835 v -9.97657 a 7.5590551,7.5590551 0 0 0 -5.66797,-2.57226 z"
         style="fill:#ff0000;stroke:#000000;stroke-width:0.00377953"
         inkscape:connector-curvature="0" />
    </g>
    <path
       inkscape:transform-center-y="8.83688e-06"
       d="m -54.265406,247.86345 -3.55,6.14878 h -7.1 l -3.55,-6.14878 3.55,-6.14878 h 7.1 z"
       inkscape:randomized="0"
       inkscape:rounded="0"
       inkscape:flatsided="true"
       sodipodi:arg2="0.52359878"
       sodipodi:arg1="0"
       sodipodi:r2="6.1487808"
       sodipodi:r1="7.0999999"
       sodipodi:cy="247.86345"
       sodipodi:cx="-61.365405"
       sodipodi:sides="6"
       id="path1725"
       style="fill:#800000;fill-opacity:1;stroke:none;stroke-width:0.07099646;stroke-miterlimit:4;stroke-dasharray:none;stroke-opacity:1"
       sodipodi:type="star"
       inkscape:transform-center-x="1.5258789e-06" />
    <path
       inkscape:connector-curvature="0"
       d="m -49.878775,282.77276 0.28853,-0.0232 0.76935,0.12602 1.06938,0.44745 v 0.74952 l -1.06938,0.44745 -0.76935,0.12602 -0.28853,-0.0232 -0.152,1.1545 0.28472,0.0522 0.71052,0.32084 0.91713,0.70898 -0.19399,0.72399 -1.14875,0.15542 -0.77575,-0.0774 -0.27269,-0.0971 -0.44561,1.07582 0.26149,0.12414 0.60327,0.49381 0.70239,0.92219 -0.37477,0.64911 -1.14983,-0.14719 -0.72928,-0.27554 -0.23827,-0.16439 -0.70887,0.92382 0.22045,0.1876 0.45491,0.63312 0.43977,1.07256 -0.52999,0.52999 -1.07256,-0.43977 -0.63312,-0.45491 -0.1876,-0.22045 -0.92382,0.70887 0.16439,0.23827 0.27554,0.72928 0.14719,1.14983 -0.64911,0.37477 -0.92219,-0.70239 -0.49381,-0.60327 -0.12414,-0.26149 -1.07582,0.44561 0.09712,0.27269 0.0774,0.77575 -0.15542,1.14875 -0.72399,0.19399 -0.70898,-0.91713 -0.32084,-0.71052 -0.05223,-0.28472 -1.1545,0.152 0.02324,0.28853 -0.12602,0.76935 -0.44745,1.06938 h -0.74952 l -0.44745,-1.06938 -0.12602,-0.76935 0.02324,-0.28853 -1.1545,-0.152 -0.05223,0.28472 -0.32084,0.71052 -0.70898,0.91713 -0.72399,-0.19399 -0.15542,-1.14875 0.0774,-0.77575 0.09712,-0.27269 -1.07582,-0.44561 -0.12414,0.26149 -0.49381,0.60327 -0.92219,0.70239 -0.64911,-0.37477 0.14719,-1.14983 0.27554,-0.72928 0.16439,-0.23827 -0.92382,-0.70887 -0.1876,0.22045 -0.63312,0.45491 -1.07256,0.43977 -0.52999,-0.52999 0.43977,-1.07256 0.45491,-0.63312 0.22045,-0.1876 -0.70887,-0.92382 -0.23827,0.16439 -0.72928,0.27554 -1.14983,0.14719 -0.37477,-0.64911 0.70239,-0.92219 0.60327,-0.49381 0.26149,-0.12414 -0.44561,-1.07582 -0.27269,0.0971 -0.77575,0.0774 -1.14875,-0.15542 -0.19399,-0.72399 0.91713,-0.70898 0.71052,-0.32084 0.28472,-0.0522 -0.152,-1.1545 -0.28853,0.0232 -0.76935,-0.12602 -1.06938,-0.44745 v -0.74952 l 1.06938,-0.44745 0.76935,-0.12602 0.28853,0.0232 0.152,-1.1545 -0.28472,-0.0522 -0.71052,-0.32084 -0.91713,-0.70898 0.19399,-0.72399 1.14875,-0.15542 0.77575,0.0774 0.27269,0.0971 0.44561,-1.07582 -0.26149,-0.12414 -0.60327,-0.49381 -0.70239,-0.92219 0.37477,-0.64911 1.14983,0.14719 0.72928,0.27554 0.23827,0.16439 0.70887,-0.92382 -0.22045,-0.1876 -0.45491,-0.63312 -0.43977,-1.07256 0.52999,-0.52999 1.07256,0.43977 0.63312,0.45491 0.1876,0.22045 0.92382,-0.70887 -0.16439,-0.23827 -0.27554,-0.72928 -0.14719,-1.14983 0.64911,-0.37477 0.92219,0.70239 0.49381,0.60327 0.12414,0.26149 1.07582,-0.44561 -0.09712,-0.27269 -0.0774,-0.77575 0.15542,-1.14875 0.72399,-0.19399 0.70898,0.91713 0.32084,0.71052 0.05223,0.28472 1.1545,-0.152 -0.02324,-0.28853 0.12602,-0.76935 0.44745,-1.06938 h 0.74952 l 0.44745,1.06938 0.12602,0.76935 -0.02324,0.28853 1.1545,0.152 0.05223,-0.28472 0.32084,-0.71052 0.70898,-0.91713 0.72399,0.19399 0.15542,1.14875 -0.0774,0.77575 -0.09712,0.27269 1.07582,0.44561 0.12414,-0.26149 0.49381,-0.60327 0.92219,-0.70239 0.64911,0.37477 -0.14719,1.14983 -0.27554,0.72928 -0.16439,0.23827 0.92382,0.70887 0.1876,-0.22045 0.63312,-0.45491 1.07256,-0.43977 0.52999,0.52999 -0.43977,1.07256 -0.45491,0.63312 -0.22045,0.1876 0.70887,0.92382 0.23827,-0.16439 0.72928,-0.27554 1.14983,-0.14719 0.37477,0.64911 -0.70239,0.92219 -0.60327,0.49381 -0.26149,0.12414 0.44561,1.07582 0.27269,-0.0971 0.77575,-0.0774 1.14875,0.15542 0.19399,0.72399 -0.91713,0.70898 -0.71052,0.32084 -0.28472,0.0522 z"
       style="fill:#ffff00;stroke:#000000;stroke-width:0.001"
       id="path2474" />
    <path
       inkscape:connector-curvature="0"
       d="m -31.028155,282.84295 0.47651,-0.0489 0.57893,0.0819 1.07742,0.46476 v 0.71398 l -1.07742,0.46476 -0.57893,0.0819 -0.47651,-0.0489 -0.21044,1.19346 0.46448,0.11706 0.51601,0.27497 0.85348,0.80523 -0.2442,0.67093 -1.17139,0.0682 -0.57204,-0.12105 -0.43106,-0.20888 -0.60593,1.0495 0.39643,0.26887 0.39084,0.43488 0.52661,1.04857 -0.45894,0.54695 -1.12409,-0.33652 -0.49614,-0.3094 -0.33362,-0.34372 -0.92835,0.77898 0.28057,0.38824 0.21854,0.54232 0.13621,1.16545 -0.61833,0.35699 -0.9412,-0.70068 -0.3604,-0.46043 -0.19595,-0.43709 -1.13878,0.41448 0.13086,0.46079 0.01987,0.58436 -0.27061,1.14175 -0.70313,0.12398 -0.6448,-0.98034 -0.18118,-0.55592 -0.03464,-0.47775 h -1.21186 l -0.03464,0.47775 -0.18118,0.55592 -0.6448,0.98034 -0.70313,-0.12398 -0.27061,-1.14175 0.01987,-0.58436 0.13086,-0.46079 -1.13878,-0.41448 -0.19595,0.43709 -0.3604,0.46043 -0.9412,0.70068 -0.61833,-0.35699 0.13621,-1.16545 0.21854,-0.54232 0.28057,-0.38824 -0.92835,-0.77898 -0.33362,0.34372 -0.49614,0.3094 -1.12409,0.33652 -0.45894,-0.54695 0.52661,-1.04857 0.39084,-0.43488 0.39643,-0.26887 -0.60593,-1.0495 -0.43106,0.20888 -0.57204,0.12105 -1.17139,-0.0682 -0.2442,-0.67093 0.85348,-0.80523 0.51601,-0.27497 0.46448,-0.11706 -0.21044,-1.19346 -0.47651,0.0489 -0.57893,-0.0819 -1.07742,-0.46476 v -0.71398 l 1.07742,-0.46476 0.57893,-0.0819 0.47651,0.0489 0.21044,-1.19346 -0.46448,-0.11706 -0.51601,-0.27497 -0.85348,-0.80523 0.2442,-0.67093 1.17139,-0.0682 0.57204,0.12105 0.43106,0.20888 0.60593,-1.0495 -0.39643,-0.26887 -0.39084,-0.43488 -0.52661,-1.04857 0.45894,-0.54695 1.12409,0.33652 0.49614,0.3094 0.33362,0.34372 0.92835,-0.77898 -0.28057,-0.38824 -0.21854,-0.54232 -0.13621,-1.16545 0.61833,-0.35699 0.9412,0.70068 0.3604,0.46043 0.19595,0.43709 1.13878,-0.41448 -0.13086,-0.46079 -0.01987,-0.58436 0.27061,-1.14175 0.70313,-0.12398 0.6448,0.98034 0.18118,0.55592 0.03464,0.47775 h 1.21186 l 0.03464,-0.47775 0.18118,-0.55592 0.6448,-0.98034 0.70313,0.12398 0.27061,1.14175 -0.01987,0.58436 -0.13086,0.46079 1.13878,0.41448 0.19595,-0.43709 0.3604,-0.46043 0.9412,-0.70068 0.61833,0.35699 -0.13621,1.16545 -0.21854,0.54232 -0.28057,0.38824 0.92835,0.77898 0.33362,-0.34372 0.49614,-0.3094 1.12409,-0.33652 0.45894,0.54695 -0.52661,1.04857 -0.39084,0.43488 -0.39643,0.26887 0.60593,1.0495 0.43106,-0.20888 0.57204,-0.12105 1.17139,0.0682 0.2442,0.67093 -0.85348,0.80523 -0.51601,0.27497 -0.46448,0.11706 z"
       style="fill:#00ff00;stroke:#000000;stroke-width:0.001"
       id="path2480" />
    <path
       style="fill:#ff0000;stroke:#000000;stroke-width:0.001"
       d="m -39.36517,281.69753 a 2,2 0 0 0 -2.000396,2.00038 2,2 0 0 0 2.000396,1.99988 2,2 0 0 0 1.499134,-0.67902 v -2.64065 a 2,2 0 0 0 -1.499134,-0.68059 z"
       id="path2482"
       inkscape:connector-curvature="0" />
    <path
       sodipodi:type="star"
       style="fill:#800000;fill-opacity:1;stroke:none;stroke-width:0.07099646;stroke-miterlimit:4;stroke-dasharray:none;stroke-opacity:1"
       id="path2507"
       sodipodi:sides="6"
       sodipodi:cx="-61.365405"
       sodipodi:cy="283.69779"
       sodipodi:r1="7.0999999"
       sodipodi:r2="6.1487808"
       sodipodi:arg1="0"
       sodipodi:arg2="0.52359878"
       inkscape:flatsided="true"
       inkscape:rounded="0"
       inkscape:randomized="0"
       d="m -54.265406,283.69778 -3.55,6.14878 h -7.1 l -3.55,-6.14878 3.55,-6.14878 h 7.1 z"
       inkscape:transform-center-y="-6.4568117e-06"
       inkscape:transform-center-x="1.5258789e-06" />
    <path
       inkscape:transform-center-x="1.5258789e-06"
       sodipodi:type="star"
       style="fill:#800000;fill-opacity:1;stroke:none;stroke-width:0.07099646;stroke-miterlimit:4;stroke-dasharray:none;stroke-opacity:1"
       id="path839"
       sodipodi:sides="6"
       sodipodi:cx="-5.0781209"
       sodipodi:cy="204.77114"
       sodipodi:r1="7.0999999"
       sodipodi:r2="6.1487808"
       sodipodi:arg1="0"
       sodipodi:arg2="0.52359878"
       inkscape:flatsided="true"
       inkscape:rounded="0"
       inkscape:randomized="0"
       d="m 2.0218792,204.77113 -3.55,6.14878 h -7.0999999 l -3.5500003,-6.14878 3.5500003,-6.14878 h 7.0999999 z"
       inkscape:transform-center-y="8.83688e-06" />
  </g>
</svg>
